<?xml version="1.0" encoding="UTF-8"?>
<svg xmlns="http://www.w3.org/2000/svg" id="Layer_2" viewBox="0 0 383.6 71.32">
  <defs>
    <style>.cls-1{fill-rule:evenodd;}.cls-1,.cls-2{fill:#fff;stroke-width:0px;}</style>
  </defs>
  <g id="madness_days_logo">
    <path class="cls-2" d="M38.83,35.92c.26-.58.53-1.16.79-1.75,2.71-6.04,5.49-12.04,8.56-17.91.61-1.16,1.29-2.28,1.93-3.42.81-1.44,1.99-2.37,3.5-2.98,2.47-.99,5.04-1.49,7.69-1.52,1,0,1.49.73,1.15,1.67-.06.18-.15.35-.24.51-.65,1.24-1.38,2.44-1.86,3.77-.97,2.66-1.67,5.4-2.34,8.15-.61,2.49-1.16,4.98-1.66,7.49-.65,3.25-1.26,6.51-1.63,9.8-.11,1.02-.2,2.04-.03,3.06.08.46.19.9.4,1.31.56,1.15,1.65,1.58,2.93,1.16.83-.27,1.48-.82,2.08-1.43.19-.19.16-.45.17-.69.12-2.13.64-4.15,1.65-6.03,1.81-3.34,4.64-5.32,8.32-6.13,1.93-.43,3.87-.52,5.83-.23.82.12,1.61.36,2.35.73.87.44,1.72.42,2.62.16,1.14-.33,2.26-.73,3.43-.94.28-.05.56-.09.84-.11.77-.03,1.13.34,1.07,1.11-.04.54-.18,1.06-.32,1.58-.52,1.87-1.09,3.72-1.49,5.62-.33,1.57-.54,3.16-.56,4.77,0,.49.05.97.23,1.43.68,1.73,2.52,1.86,3.65,1.06.12-.09.23-.19.35-.27.59-.44.87-.94.86-1.76-.04-3.07.8-5.91,2.62-8.42,1.75-2.41,4.08-4.02,6.99-4.73,2.54-.62,5.05-.56,7.52.39.1.04.2.08.3.12.48.23.47.23.59-.27.44-1.76.9-3.52,1.23-5.31.39-2.1.73-4.2.56-6.34-.1-1.16-.59-2.14-1.81-2.54-.28-.09-.58-.12-.88-.14-.8-.07-1.09-.62-.7-1.33.23-.42.57-.76.95-1.04,1.55-1.17,3.32-1.76,5.23-1.99,1.35-.16,2.67-.07,3.94.45,1.66.69,2.59,1.96,2.87,3.73.25,1.59-.07,3.14-.39,4.69-.6,2.85-1.51,5.62-2.34,8.41-.94,3.16-1.9,6.32-2.47,9.58-.25,1.4-.42,2.8-.44,4.22-.01.68.09,1.35.45,1.94.73,1.19,2.29,1.46,3.47.6.28-.21.53-.46.79-.69.17-.15.3-.38.5-.47.72-.33.82-.99.96-1.65.45-2.04.95-4.07,1.24-6.14.17-1.2.33-2.4-.21-3.58-.27-.6-.03-1.14.57-1.57.73-.52,1.57-.77,2.42-.98,1.44-.35,2.9-.44,4.38-.48.41,0,.81.02,1.2.13.8.23,1.22.77,1.23,1.6,0,.94-.26,1.84-.44,2.75-.01.05-.02.1-.03.16.18.01.24-.13.33-.21,1.65-1.68,3.55-2.99,5.75-3.82,1.88-.71,3.81-.86,5.75-.23,1.63.53,2.51,1.75,2.6,3.48.07,1.37-.23,2.68-.59,3.98-.4,1.44-.9,2.86-1.16,4.33-.13.73-.2,1.47-.06,2.21.19.95.87,1.56,1.84,1.65.85.07,1.57-.15,2.19-.74.15-.14.29-.29.45-.41.4-.3.45-.66.4-1.15-.39-4.01.83-7.46,3.82-10.2,2.54-2.32,5.63-3.36,9.02-3.63,1.4-.11,2.78-.08,4.14.25,1.74.42,3.17,1.28,3.74,3.09.51,1.62.21,3.15-.7,4.56-1.22,1.89-3.02,3.05-5.05,3.89-1.61.67-3.29,1.04-5.02,1.2-.28.03-.36.14-.35.41.02,1.41,1.05,2.84,2.52,3.42,1.69.67,3.4.62,5.11.07,1.44-.46,2.66-1.29,3.83-2.22.2-.16.29-.38.41-.6,1-1.87,3.17-2.06,4.64-1.14.63.4.88,1.04.92,1.76.03.59.05,1.19.25,1.75.22.63.58,1.13,1.28,1.29.96.21,1.69-.3,1.84-1.27.19-1.23-.25-2.25-1.08-3.13-.81-.86-1.79-1.52-2.7-2.25-.99-.79-1.93-1.63-2.46-2.8-1.06-2.34-.25-5.08,1.91-6.64,1.35-.97,2.88-1.46,4.49-1.71,1.64-.25,3.28-.27,4.92,0,1.23.19,2.39.55,3.37,1.36,1.58,1.3,1.9,3.84.7,5.49-1.11,1.52-3.73,1.42-4.59-.17-.34-.62-.37-1.26-.12-1.91.1-.26.22-.52.31-.79.2-.61-.06-1.09-.69-1.27-1.06-.3-2.25.49-2.49,1.68-.27,1.3.33,2.27,1.22,3.12.77.73,1.67,1.28,2.53,1.88.76.52,1.5,1.05,2.16,1.7,1.3,1.26,1.71,2.79,1.41,4.54-.47,2.73-2.12,4.48-4.64,5.39-3.16,1.15-6.38,1.13-9.56,0-1.53-.54-2.8-1.45-3.55-2.95-.17-.34-.32-.15-.48,0-1.7,1.51-3.61,2.65-5.81,3.25-2.34.64-4.7.75-7.1.4-1.46-.21-2.84-.61-4.13-1.33-1.23-.69-2.21-1.63-2.91-2.85-.18-.32-.27-.3-.5-.04-1.75,2.09-3.9,3.57-6.63,4.04-2.19.38-4.32.22-6.16-1.21-1.15-.89-1.76-2.09-1.83-3.55-.08-1.66.28-3.24.79-4.8.4-1.23.91-2.42,1.2-3.69.11-.5.19-1.01.15-1.52-.1-1.46-1.26-2.14-2.57-1.5-.95.47-1.63,1.23-2.23,2.07-1.01,1.41-1.66,2.99-2.21,4.61-.79,2.34-1.49,4.7-1.77,7.17-.04.33-.05.67-.07,1.01-.07.9-.4,1.22-1.31,1.22-1.24,0-2.48.11-3.72.21-.71.06-1.42.14-2.14.13-.95-.02-1.35-.38-1.41-1.33-.03-.46.07-.91.12-1.37.02-.15.11-.31-.01-.51-.23.2-.45.39-.67.58-2.15,1.82-4.61,2.8-7.44,2.6-2.03-.14-3.57-1.14-4.52-2.96-.17-.33-.27-.37-.57-.12-1.84,1.53-3.93,2.57-6.3,2.96-2.06.33-4.09.22-5.96-.87-1.09-.63-1.84-1.56-2.37-2.69-.19-.41-.2-.41-.52-.06-1.71,1.86-3.75,3.16-6.26,3.61-1.97.35-3.85.23-5.45-1.17-.6-.52-1.06-1.15-1.38-1.87-.13-.29-.22-.38-.5-.13-1.88,1.63-4.03,2.77-6.49,3.18-2.47.42-4.79.09-6.73-1.68-.81-.74-1.37-1.66-1.74-2.69-.12-.33-.21-.33-.43-.07-1.52,1.76-3.32,3.15-5.51,4.01-1.75.69-3.54.81-5.35.25-2.18-.68-3.37-2.27-3.92-4.41-.43-1.67-.38-3.36-.16-5.06.56-4.2,1.61-8.3,2.66-12.4.49-1.92,1.02-3.82,1.52-5.74.04-.14.26-.37-.04-.48-.26-.09-.44.02-.56.3-.91,2.01-1.83,4.03-2.75,6.03-1.78,3.85-3.58,7.7-5.27,11.59-1.28,2.94-2.54,5.89-3.54,8.94-.09.28-.22.55-.38.8-.31.47-.71.75-1.3.75-1.81,0-3.62,0-5.43,0-.71,0-1.08-.32-1.18-1.02-.12-.86.03-1.72.07-2.58.1-1.98.25-3.96.37-5.93.18-3.14.37-6.27.53-9.41.15-3,.31-6.01.36-9.01,0-.29,0-.52-.4-.46-.25.03-.24.22-.27.38-.4,2.05-.8,4.1-1.29,6.13-1.06,4.44-2.32,8.81-4.31,12.93-1.27,2.63-2.79,5.08-4.85,7.17-2.02,2.05-4.38,3.51-7.21,4.1-2.48.51-4.94.5-7.3-.56-2.42-1.09-3.89-2.98-4.52-5.52-.96-3.83.37-6.88,3.29-9.34,1.01-.85,2.14-1.5,3.45-1.78.28-.06.56-.06.85-.04.43.04.67.32.68.76.02.65-.29,1.23-.37,1.86-.11.88-.15,1.75.22,2.58.68,1.53,2.21,2.14,3.86,1.97,2.19-.22,3.8-1.44,5.21-2.99,1.67-1.84,2.85-3.99,3.87-6.23,1.79-3.97,2.99-8.13,3.87-12.4.4-1.94.73-3.9.91-5.87.11-1.18.3-2.37.03-3.54-.43-1.89-2.02-3.39-4.41-2.62-1.58.5-2.83,1.5-3.94,2.68-1.88,2.02-3.17,4.36-3.65,7.09-.19,1.05-.25,2.12.15,3.15.51,1.3,1.91,1.98,3.24,1.57.32-.1.64-.22.96-.33.74-.25,1.19.12,1.08.88-.14.96-.62,1.78-1.19,2.54-1.43,1.91-3.25,3.32-5.61,3.88-2.54.6-4.86.14-6.78-1.73-1.16-1.13-1.8-2.56-2.01-4.15-.41-3.1.17-6.04,1.58-8.82,1.72-3.38,4.38-5.84,7.63-7.71,2.66-1.53,5.52-2.51,8.57-2.89,2.56-.32,5.09-.17,7.56.65,2.98.99,5.14,2.94,6.62,5.68,1.32,2.44,1.96,5.1,2.31,7.82.6,4.54.51,9.1.44,13.65,0,.4,0,.81,0,1.21.03.01.07.03.1.04ZM76.66,36c0-.26.01-.51,0-.77-.05-.86-.57-1.47-1.43-1.62-.59-.1-1.18-.07-1.75.16-.96.39-1.61,1.11-2.16,1.95-1.03,1.59-1.57,3.36-1.93,5.19-.27,1.4-.48,2.82-.33,4.26.06.6.24,1.16.61,1.65.77,1.03,2.08,1.16,3.24.33.97-.69,1.59-1.65,2.02-2.72,1.09-2.7,1.54-5.54,1.73-8.43ZM105.53,36.09c0-.26.02-.51,0-.77-.09-1-.7-1.61-1.71-1.74-.94-.12-1.76.15-2.47.77-.71.62-1.21,1.41-1.61,2.25-.9,1.88-1.36,3.88-1.62,5.94-.14,1.11-.27,2.22-.09,3.34.18,1.14.94,1.85,2.08,1.88.62.02,1.16-.22,1.65-.58.93-.69,1.53-1.63,1.95-2.68,1.07-2.7,1.6-5.52,1.83-8.41ZM156.51,39.9q-.02.88.58.72c1.62-.44,2.99-1.28,4.14-2.49.75-.79,1.39-1.66,1.65-2.74.31-1.27-.51-2.17-1.81-2.01-.57.07-1.07.29-1.51.64-1.99,1.57-2.81,3.71-3.06,5.88Z"></path>
    <path class="cls-2" d="M196.63,52.27c-1.92-.02-3.8-.28-5.53-1.16-1.49-.75-2.64-1.83-3.08-3.5-.44-1.68.03-3.22,1.24-4.11,1.15-.85,3.13-.71,4.03.27.45.49.58,1.09.58,1.72,0,.52.07,1.02.24,1.51.22.63.59,1.12,1.29,1.27.97.2,1.7-.36,1.82-1.34.19-1.54-.55-2.65-1.63-3.59-.7-.61-1.45-1.16-2.18-1.74-.94-.74-1.82-1.54-2.36-2.63-1.17-2.36-.39-5.21,1.85-6.81,1.12-.8,2.37-1.28,3.7-1.55,2.36-.47,4.72-.53,7.05.16,1.56.46,2.83,1.32,3.27,3,.33,1.23.21,2.44-.56,3.51-1.1,1.54-3.73,1.44-4.61-.18-.37-.68-.33-1.37-.04-2.07.13-.32.31-.63.3-1-.01-.42-.21-.71-.61-.86-.97-.35-2.11.23-2.51,1.29-.4,1.07-.12,2.01.55,2.88.57.73,1.32,1.27,2.07,1.79.92.64,1.86,1.24,2.73,1.96,1.61,1.34,2.23,3.02,1.84,5.08-.51,2.69-2.18,4.36-4.65,5.3-1.58.6-3.01.8-4.8.79Z"></path>
    <path class="cls-1" d="M204.24,41.1c-.77-.65-1.61-1.2-2.44-1.76.58,3.38,1.66,6.59,3.16,9.55.53-.76.92-1.65,1.12-2.7.39-2.06-.23-3.74-1.84-5.08Z"></path>
    <path class="cls-1" d="M203.65,30.78c-.72-.21-1.45-.35-2.17-.43-.09.93-.14,1.87-.15,2.83.02,0,.05,0,.07.01.4.14.6.43.61.86,0,.37-.17.67-.3,1-.28.7-.33,1.39.04,2.07.46.85,1.4,1.28,2.35,1.28.65,0,1.3-.2,1.81-.62-.19-1.34-.3-2.71-.3-4.11,0-.62.03-1.24.06-1.86-.56-.47-1.26-.8-2.03-1.03Z"></path>
    <path class="cls-2" d="M285.1,10.34c-1.32.04-2.59.28-3.83.65-3.91,1.16-7.25,3.19-9.68,6.55-.96,1.33-1.64,2.78-1.67,4.47-.04,2.38,1.21,3.49,3.56,3.18.22-.03.42-.11.64-.15.46-.09.99-.43,1.38.03.39.46.12,1.02-.1,1.47-1.51,3.03-3.92,4.96-7.24,5.64-2.3.47-4.5.13-6.35-1.41-2.16-1.81-2.65-4.27-2.37-6.92.5-4.73,3.3-7.99,6.99-10.62,3.99-2.84,8.51-4.44,13.27-5.44,3.86-.81,7.77-1.03,11.68-.8,2.99.18,5.91.82,8.63,2.14,4.89,2.38,7.77,6.32,8.41,11.66.74,6.1.19,12.13-2.09,17.9-1.53,3.87-3.69,7.36-7.03,9.94-4.76,3.68-10,4.41-15.64,2.34-.85-.31-1.7-.62-2.52-.98-.92-.4-1.8-.36-2.69.04-1.15.52-2.29,1.04-3.45,1.54-.58.25-1.17.47-1.81.5-1.12.05-1.54-.57-.98-1.55.58-1.02,1.22-2.01,1.67-3.11,1.07-2.63,1.49-5.42,2.08-8.16,1.02-4.78,1.93-9.58,2.9-14.37.54-2.65,1.06-5.3,1.78-7.91.7-2.53,1.96-4.68,4.19-6.18.13-.09.29-.17.29-.46ZM298.88,22.66c0-.16,0-.33,0-.49.02-2.67-.21-5.3-1.34-7.77-.77-1.69-1.96-2.94-3.76-3.57-.6-.21-1-.15-1.36.45-.53.9-1,1.82-1.36,2.8-1.59,4.38-2.53,8.92-3.47,13.46-.93,4.49-1.72,9.01-2.44,13.53-.25,1.59-.59,3.18-.53,4.8.05,1.4.96,2.25,2.34,2.35,1.62.12,3.02-.38,4.27-1.37,2.39-1.89,3.74-4.48,4.77-7.24,2.04-5.46,2.81-11.15,2.87-16.96Z"></path>
    <path class="cls-1" d="M259.89,33.06c-.47-.39-.88-.83-1.26-1.28,0,0,0,.02,0,.03.05.57.22,1.13.16,1.71-.04.34-.04.68-.08,1.02-.09.7-.18,1.4-.29,2.1-.07.44-.16.87-.24,1.31,0,.05,0,.1,0,.15,0,.06.03.13,0,.17-.26.39-.21.87-.35,1.29-.13.41-.24.83-.41,1.23-.15.37-.35.71-.54,1.06-.22.4-.43.8-.7,1.18-.26.36-.54.71-.86,1.01-.2.19-.48.31-.75.41-.39.15-.8.24-1.19.38-.32.11-.53.35-.7.63-.22.36-.43.73-.65,1.09-.03.04-.08.1-.12.1-.22.02-.44.04-.66.04-.05,0-.1-.07-.17-.13-.06.07-.18.08-.04.26.23.29.5.46.86.5.36.03.7-.04,1.02-.24.22-.14.42-.29.73-.29.3,0,.56-.21.75-.46.22-.29.41-.61.62-.9.12-.16.25-.31.4-.44.32-.27.56-.6.76-.96.05-.09.13-.15.19-.24.15-.2.29-.4.43-.61.09-.14.17-.29.28-.41.26-.31.47-.64.64-1.01.11-.24.29-.45.41-.69.24-.52.45-1.06.56-1.64,0-.01,0-.03,0-.04.29-.34.22-.79.37-1.18.12-.29.16-.61.23-.91.1-.43.22-.86.31-1.28.07-.34.12-.69.18-1.04.01-.08.04-.16.05-.24.01-.09.01-.18.02-.27,0-.06-.01-.12,0-.17.04-.39.09-.79.13-1.18-.03-.02-.06-.04-.08-.06Z"></path>
    <path class="cls-1" d="M234.97,4.3c9.85,0,18.57,4.88,23.9,12.34.76-1.19,1.72-2.32,2.84-3.4-6.16-8.04-15.85-13.25-26.74-13.25-16.42,0-30.12,11.81-33.07,27.38.89.1,1.76.27,2.59.52.59.17,1.1.39,1.57.63,2.43-13.75,14.46-24.23,28.9-24.23Z"></path>
    <path class="cls-1" d="M266.31,35.37c-.69,0-1.36-.07-2.02-.2-.45,8.94-4.92,16.84-11.64,21.92h-4.98c0-.06-.01-.12-.02-.18-.05-.44-.1-.88-.16-1.34.03,0,0,0,0,0-.01,0-.02.02-.06.07-.04-.38-.08-.73-.13-1.08-.04-.31-.08-.63-.12-.94-.01-.07-.05-.13-.06-.2-.02-.11-.03-.23-.03-.35,0-.11.02-.21,0-.32-.08-.74-.17-1.49-.26-2.23-.02-.17-.03-.34-.08-.5-.02-.06-.14-.13-.22-.13-.2-.02-.41,0-.62,0-.06,0-.12,0-.24-.02.1-.09.17-.15.21-.18.05-.21.09-.39.14-.57.06-.24.08-.49.19-.7.13-.24.32-.45.5-.66.19-.22.4-.43.58-.66.28-.36.57-.73.73-1.17.08-.22.15-.45.24-.67.2-.5.4-.99.61-1.49.21-.51.49-1,.75-1.49.26-.47.59-.87.92-1.29.23-.29.5-.6.88-.75.06-.02.09-.14.16-.17.43-.23.86-.46,1.31-.66.38-.17.8-.27,1.18-.44.33-.15.7-.3.95-.55.18-.18.42-.23.57-.42.15-.18.33-.34.46-.54.22-.34.41-.69.61-1.04.1-.17.19-.35.27-.53.13-.29.28-.58.39-.88.24-.66.47-1.33.7-1.99.16-.47.31-.94.46-1.42-1.68-2.11-2.37-4.81-2.02-8.06.12-1.17.38-2.29.74-3.37-.04-.07-.09-.13-.14-.19-.26-.43-.48-.87-.71-1.32-.36-.7-.67-1.43-1.17-2.05-.23-.29-.48-.56-.73-.83-.47-.5-.93-1.03-1.44-1.49-.5-.45-1.04-.86-1.6-1.24-.16-.11-.3-.23-.45-.35-.33-.27-.68-.53-1.02-.79-.39-.3-.77-.63-1.19-.89-.39-.24-.83-.39-1.25-.59-.21-.1-.4-.25-.62-.3-.43-.09-.81-.32-1.27-.34-.43-.02-.85-.13-1.28-.19-.14-.02-.29-.03-.44-.03-.41-.03-.82-.07-1.24-.07-.63,0-1.27,0-1.9.04-.61.05-1.21.14-1.79.33-.35.11-.73.14-1.1.2-.47.08-.92.22-1.36.41-.19.09-.41.12-.61.17-.21.06-.42.12-.62.19-.47.15-.94.3-1.41.46-.42.14-.83.26-1.2.55-.26.21-.61.35-.94.45-.28.08-.59.07-.89.08-.25.01-.51,0-.75.03-.16.03-.3.13-.45.2-.46.22-.91.47-1.38.66-.4.16-.82.31-1.25.38-.58.09-1.17.1-1.74-.11-.36-.13-.73-.24-1.07-.42-.5-.25-1.01-.26-1.53-.19-.53.06-1.06.2-1.59.32-.47.11-.86.37-1.23.66-.56.43-1.01.96-1.42,1.53-.3.41-.54.86-.71,1.33-.03.07-.07.13-.12.19-.14.2-.16.41-.13.65.02.15-.04.31-.06.46-.03.21-.05.43-.07.64-.03.28-.03.57-.11.83-.14.44-.4.82-.64,1.21-.09.14-.12.31-.19.46-.05.13-.13.24-.18.37-.11.28-.21.56-.33.84-.14.33-.25.66-.28,1.02-.02.34-.1.69-.09,1.03,0,.37.07.74.17,1.1.08.3.23.58.35.87.09.23.2.45.26.69.08.31.12.63.17.95.03.18.08.36.08.55,0,.13-.08.26-.12.38-.03.1.06.21-.05.31-.04.04-.01.16-.01.24-.01.21-.01.41-.03.62-.03.31-.07.61-.09.92-.02.31-.04.62-.02.93.03.4.09.81.14,1.21.03.2.09.4.1.6,0,.08-.08.2-.15.26-.2.15-.44.25-.63.42-.39.36-.85.58-1.31.82,0,0-.02,0-.02,0-.38.37-.92.44-1.34.73-.49.34-1.06.52-1.58.78-.31.15-.65.24-.97.36-.19.07-.38.15-.59.23.2.19.37.29.65.25.87-.13,1.72-.33,2.52-.68.64-.27,1.27-.58,1.9-.89.35-.17.69-.38,1.03-.58.27-.16.53-.35.82-.55.05.17.09.3.13.44.04.14.09.28.08.41-.01.13-.05.31-.14.38-.49.37-.99.73-1.51,1.06-.4.26-.83.47-1.24.7-.39.22-.81.37-1.24.49-.15.04-.28.13-.43.18-.19.07-.39.12-.59.18-.14.04-.3.06-.28.25.01.19.2.31.4.28.49-.09.99-.17,1.47-.29.3-.07.58-.22.87-.32.17-.06.36-.1.53-.17.2-.08.38-.2.57-.3.65-.34,1.3-.67,1.93-1.01.16.33.31.69.36,1.08.04.36.11.72.15,1.07.04.38.07.76.07,1.14,0,.41-.03.82-.04,1.23,0,.2.01.39,0,.58-.02.2-.05.41-.07.61-.03.26-.05.53-.08.79,0,.06-.06.14-.11.15-.31.09-.62.13-.92.08-.05-.29-.17-.56-.38-.8-.22-.25-.48-.41-.84-.34-.04,0-.07,0-.11,0-.05.03-.11.06-.18.07-.08.01-.11.04-.12.06,0,.01,0,.02-.01.01-.04.14-.11.23-.21.29-.06.11-.16.17-.4.23-.05-.18-.18-.17-.32-.13-.91.25-1.8.53-2.64.96-.12.06-.15.13-.11.26.09.33.15.66.24.99.09.34.21.67.3,1.01.13.47.25.95.38,1.42.08.32.18.63.25.95.05.21.18.32.37.33.29.02.58.03.86,0,.76-.11,1.47-.36,2.11-.8.06-.04.12-.09.18-.14.32-.29.33-.43.16-.72-.07-.12-.1-.27-.15-.41-.06-.15-.14-.3-.21-.46.15.05.25-.01.34-.12.05-.06.12-.09.19-.1.21-.18.27-.45.33-.72-.02-.07-.03-.15-.04-.23.02,0,.04,0,.06-.02.19-.1.37-.24.56-.35.1-.06.23-.09.35-.11.03,0,.11.06.12.1.1.34.17.7.29,1.04.07.2.19.38.31.55.21.3.4.62.66.87.34.32.7.65,1.17.76.27.06.56.06.84.07.36.01.69-.12.99-.3.45-.27.73-.66.76-1.2.03-.49-.03-.96-.25-1.39-.14-.27-.33-.53-.54-.75-.23-.25-.49-.5-.77-.69-.23-.16-.52-.24-.79-.35-.14-.06-.3-.11-.42-.16.03-.46.06-.9.09-1.34.02-.3.05-.6.08-.9.03-.36.07-.73.11-1.09.04-.39.1-.78.13-1.18.03-.36.07-.73.06-1.09-.02-.55-.08-1.1-.13-1.64-.03-.34-.08-.68-.14-1.01-.08-.44-.2-.89-.28-1.33-.01-.07,0-.16.05-.22.09-.14.21-.26.31-.41.03-.04,0-.11.03-.16.08-.16.18-.32.25-.48.16-.37.32-.74.48-1.1.17.11-.07.4.17.53.02-.07.03-.12.05-.18.41.59.93,1.05,1.52,1.43.14.09.34.12.51.11.19,0,.39-.34.34-.55-.11-.46-.24-.92-.37-1.38-.03-.1-.02-.15.07-.25.3-.33.68-.48,1.09-.58.45-.11.75-.4,1.02-.74.11-.15.21-.32.31-.49.24.08.4.26.53.47.15.25.3.5.43.75.09.18.22.32.4.42.35.2.4.53.37.89-.04.44-.1.88-.17,1.32-.05.36-.12.71-.19,1.06-.11.6-.13,1.19-.12,1.8,0,.63.15,1.23.33,1.82.13.44.12.9.2,1.34.07.39.14.78.2,1.17.08.48.21.97.23,1.46.02.49.13.95.21,1.42.04.29.07.59.17.87.14.39.33.77.5,1.15,0,.02.02.03.04.05.21.21.41.43.64.62.39.34.79.67,1.19,1,.12.1.23.22.36.3.34.22.38.58.46.92.05.22.05.45.08.67.01.07.05.15.08.21.05.11.1.22.14.32.08.05.17.11.26.17l-.02.07c-.24,0-.47,0-.71,0-.28,0-.57.02-.85.04-.05,0-.11.09-.12.14-.07.45-.12.91-.17,1.36-.04.33-.08.66-.12.99-.02.15-.05.3-.07.45-.07.52-.15,1.03-.22,1.55-.09.62-.18,1.25-.25,1.87-.03.25-.03.5-.04.75h-12.23c-3.48-2.63-6.35-6.02-8.38-9.92-.41,1.75-1.21,3.26-2.38,4.48,5.98,9.41,16.48,15.67,28.43,15.67,18.07,0,32.85-14.31,33.63-32.19-.78.15-1.55.23-2.29.23ZM216.27,45.78c-.05.16-.19.22-.35.24-.12.02-.25.03-.4.05-.23-.57-.48-1.18-.74-1.79.11-.02.27.05.26-.15-.01-.18.08-.31.25-.38.06-.02.11-.02.16-.02-.06.08-.07.18-.02.27.07.12.15.25.26.33.04.03.08.06.12.1,0,.02.03.04.05.06.08.1.15.2.2.33.03.06.04.12.06.18,0,.02-.02.05-.03.07-.1.14-.09.21.05.31.02.01.03.02.04.04.01.08.05.14.11.18.01.06.01.13-.01.19ZM220.74,45.67c.09.07.1.24.18.33.16.17.17.38.18.57,0,.14-.07.26-.22.33-.24.1-.49.07-.63-.1-.21-.24-.37-.54-.48-.84-.07-.17-.02-.38-.01-.57,0-.09.05-.18.09-.34.33.22.62.4.89.61ZM234.59,49.86c-.62.02-1.22.04-1.84.06.64-.38,1.26-.74,1.89-1.12-.13.35-.3.68-.06,1.06ZM233.81,45.13c-.24-.12-.51-.22-.74-.36-.18-.11-.34-.25-.51-.38-.26-.2-.46-.43-.51-.77-.09-.55-.22-1.09-.22-1.65,0-.47-.04-.93-.07-1.41.02.03.06.06.08.09.14.3.28.61.43.91.21.42.19.91.46,1.31.21.3.34.64.56.93.23.3.53.55.78.85.23.29.42.61.65.95-.34-.17-.61-.32-.89-.47ZM243.34,41.16c-.08.22-.1.43-.12.66,0,.16-.06.32-.11.46-.12.33-.27.65-.38.98-.11.35-.27.66-.53.91-.05.05-.11.11-.14.17-.08.15-.12.31-.21.45-.36.55-.67,1.11-.92,1.72-.06.15-.11.31-.2.45-.11.18-.26.35-.4.52-.03.04-.08.07-.13.1-.07.04-.15.09-.25.14-.13-.19-.29-.39-.4-.61-.11-.24-.17-.5-.25-.75-.14-.48-.27-.98-.43-1.46-.31-.95-1-1.65-1.57-2.43-.09-.12-.25-.21-.35-.33-.1-.13-.19-.27-.26-.42-.12-.26-.27-.53-.32-.8-.04-.21-.06-.42-.14-.62-.2-.5-.37-1.02-.51-1.54-.21-.79-.38-1.59-.56-2.39-.1-.44-.04-.87.14-1.3.16-.39.28-.8.39-1.2.04-.16,0-.33.01-.5,0-.08.04-.16.07-.26.07.04.11.05.13.07.24.23.47.44.74.65.48.37.97.72,1.51,1.02.11.06.19.16.3.23.29.17.58.32.87.48.44.24.86.51,1.34.64.33.08.65.17.98.25.41.09.82.19,1.24.26.18.03.25.13.27.28.02.15.02.29.03.44.01.11.04.21.05.31.02.29.01.57.04.86.03.35.09.7.11,1.06.02.32,0,.64,0,.96,0,.18.02.38-.04.54Z"></path>
    <path class="cls-2" d="M354.29,48.2c-.5.15-.72.45-1,.66-3.16,2.48-6.73,3.63-10.74,3.06-2.08-.29-3.54-1.51-4.19-3.58-.06-.18-.11-.36-.34-.5-.75.81-1.53,1.62-2.45,2.27-1.94,1.37-4.09,2.09-6.48,1.94-1.93-.12-3.41-1.06-4.31-2.73-.42-.79-.69-.63-1.23-.2-2.39,1.89-5.05,3.02-8.16,2.94-3.13-.08-5.77-2.12-6.49-5.19-1.35-5.8,1.25-14.31,10.17-15.9,2.66-.47,5.35-.52,7.89.74.88.44,1.76.2,2.64-.05,1.18-.33,2.34-.79,3.57-.9,1.2-.11,1.52.2,1.33,1.38-.34,2.08-1.12,4.05-1.57,6.1-.36,1.61-.58,3.23-.71,4.86-.04.52,0,1.03.1,1.55.41,1.91,2.23,2.64,3.84,1.55.73-.49,1.2-1.29,2.04-1.64.15-.06.15-.22.17-.35.42-2.57,1.31-5.02,1.85-7.56.19-.92.21-1.83-.14-2.74-.34-.9-.12-1.44.73-1.92,1.46-.84,3.09-1.06,4.73-1.2.82-.07,1.65-.07,2.46-.01,1.11.07,1.64.66,1.62,1.76-.04,1.66-.57,3.22-.98,4.8-.61,2.35-1.37,4.67-1.34,7.14.02,1.94,1.28,2.8,3.07,2.01,2.37-1.05,3.59-3.02,4.24-5.43.48-1.78.69-3.59.8-5.42.03-.55-.1-1.09-.28-1.61-.36-1.07-.19-1.57.8-2.1,1.45-.78,3.06-1,4.67-1.14.57-.05,1.15-.06,1.73-.06,1.99,0,2.68.88,2.21,2.83-.8,3.29-1.49,6.6-2.09,9.94-.64,3.55-1.15,7.12-1.96,10.63-.94,4.09-2.06,8.11-4.46,11.64-1.86,2.74-4.31,4.66-7.62,5.28-3.37.62-6.55.22-9.31-2.01-4.1-3.32-2.84-10.7,2.33-12.64.25-.1.53-.15.8-.18.85-.1,1.14.25.82,1.05-.32.82-.62,1.64-.42,2.55.41,1.82,2.42,2.98,4.42,2.64,1.87-.32,3.08-1.46,3.99-3,1.55-2.6,2.2-5.52,2.78-8.44.18-.9.31-1.82.47-2.81ZM325.01,36.26c.02-2.1-.81-2.84-2.62-2.61-.93.12-1.62.64-2.2,1.32-1.4,1.63-2.02,3.61-2.47,5.65-.35,1.58-.55,3.18-.35,4.8.26,2.1,2.12,2.95,3.85,1.75.96-.66,1.55-1.62,1.99-2.66,1.14-2.73,1.52-5.63,1.8-8.25Z"></path>
    <path class="cls-2" d="M373.27,52.26c-2.23-.05-4.33-.36-6.2-1.53-1.72-1.07-2.7-2.59-2.56-4.71.15-2.34,2.52-3.86,4.87-2.56.71.39.98,1.07.99,1.87,0,.72.11,1.42.44,2.07.36.72.97,1.06,1.75.93.81-.13,1.16-.7,1.23-1.51.09-1.11-.26-2.04-1-2.85-.82-.9-1.83-1.56-2.75-2.34-.5-.42-1.01-.84-1.45-1.33-2.23-2.45-1.87-6,.81-7.98,1.42-1.05,3.06-1.56,4.79-1.78,2.11-.27,4.21-.27,6.25.42,2.65.9,3.82,3.34,2.79,5.72-.48,1.11-1.63,1.82-2.83,1.74-1.16-.08-2.02-.8-2.31-1.89-.15-.58.07-1.08.26-1.59.19-.53.42-1.09-.1-1.51-.54-.44-1.19-.39-1.78-.08-1.23.63-1.6,2.21-.84,3.57.54.96,1.41,1.59,2.28,2.21.73.53,1.5,1.01,2.23,1.55,3.36,2.51,3.38,6.98.04,9.55-2.05,1.58-4.46,1.98-6.9,2.04Z"></path>
  </g>
</svg>
