<?xml version="1.0" encoding="UTF-8"?>
<svg preserveAspectRatio="xMidYMid slice" xmlns="http://www.w3.org/2000/svg" width="120px" height="53px" viewBox="0 0 594.408 266.431">
  <g id="Group_884" data-name="Group 884" transform="translate(-730.739 -382.806)">
    <g id="main" transform="translate(748.777 382.806)">
      <path id="Path_2523" data-name="Path 2523" d="M502.837,69.777c-13.632,0-25.084,5.817-25.084,17.269,0,13.632,17.995,15.267,17.995,25.991,0,3.272-1.454,4.907-4,4.907-3.272,0-4.907-3.089-4.907-7.633,0-4.362-2.908-6.726-7.816-6.726a8.334,8.334,0,0,0-7.744,5.718c-4,3.27-9.669,7.369-17.334,7.369-8.725,0-13.632-4.907-13.632-11.271,18.178-1.454,30.356-11.45,30.356-21.812,0-7.816-5.636-13.268-17.995-13.268-24.175,0-38.355,15.814-38.355,33.445a32.46,32.46,0,0,0,.453,5.4c-.2.183-.4.364-.63.6-2.363,2.363-3.817,3.817-6.907,3.817-3.272,0-5.817-1.816-5.817-6.542,0-7.454,5.088-16.54,5.088-24.9,0-6.907-4-11.45-14-11.45-10.724,0-21.448,8.906-24.72,12.9a42.255,42.255,0,0,0,1.454-8.178c0-3.091-2.18-4.726-6.178-4.726-10.541,0-20.356,2.725-20.356,6.726,0,2.363,1.271,2.725,1.271,5.817,0,5.535-2.429,15.756-4.545,24.821a5.852,5.852,0,0,0-2.355,1.716c-2.363,2.363-3.817,3.817-6.907,3.817-3.272,0-6.181-2.725-6.181-7.452,0-21.993,15.269-53.439,15.269-69.615,0-9.089-6-14.179-15.45-14.179-10.362,0-20,6-20,9.817q0,2.181,2.727,2.18c3.817,0,6.907,2.908,6.907,8.908,0,9.632-2.544,19.994-5.269,30.535-1.637-1.09-6.909-3.089-13.27-3.089-20.358,0-34.535,16-34.535,36.534,0,.791.028,1.557.076,2.307-.087.085-.159.146-.253.238-2.361,2.363-3.815,3.817-6.907,3.817-3.272,0-6.181-2.725-6.181-7.452,0-14.177,6.364-28.357,6.364-32.719a2.407,2.407,0,0,0-2.727-2.725c-4.181,0-11.995,3.453-15.086,3.453-2.908,0-5.633-3.453-15.267-3.453-25.448,0-36.406,17.6-36.855,35.22-2.246,2.208-4.835,4.406-8.215,4.406-4,0-6.542-3.636-6.542-10,0-12.178,9.634-58.346,15.631-73.8,2.182-5.636,5.636-10,5.636-12a3.053,3.053,0,0,0-3.272-3.27c-12.178,0-24.539,4.543-27.629,8.542-8,9.815-31.627,62.892-32.717,65.617,0-.181.181-6.542.181-15.448,0-26.538-1.452-63.073-39.259-63.073-22.721,0-53.984,17.085-53.984,47.986,0,12.723,8.178,20.72,18.9,20.72,13.451,0,23.266-13.087,23.266-18.54a1.817,1.817,0,0,0-2-2c-1.09,0-3.272,1.454-5.636,1.454-3.815,0-7.271-2.727-7.271-8.725,0-14.722,13.815-30.718,23.994-30.718,4.543,0,8.544,4.362,8.544,10,0,19.813-13.27,80.341-38.717,80.341-6.545,0-9.634-4.726-9.634-9.272,0-4.179,1.271-5.633,1.271-7.816,0-1.271-.726-2.18-2.544-2.18-6.907,0-20.539,10-20.539,23.266,0,12.723,8.18,23.811,24.537,23.811,38.536,0,49.8-54.348,55.257-82.885h1.454c0,15.814-3.634,69.979-3.634,71.978,0,3.091,1.454,4,3.634,4h14.179c2.725,0,4-2.182,4.907-5.272,6.178-18.723,23.992-54.893,30.9-70.707H155.7c-4.907,17.814-12,44.169-12,55.8,0,12,5.636,20.177,17.633,20.177,9.089,0,18.082-6.5,23.382-13.033,2.74,8.59,9.867,13.033,18.232,13.033,13.268,0,22.9-9.634,22.9-9.634a14.666,14.666,0,0,0,14,9.634c10.672,0,18.182-6.157,22.246-10.968a16.745,16.745,0,0,0,4.249,6.353,78.174,78.174,0,1,0,64.583.576,32.409,32.409,0,0,0,6.011-4.729,30.043,30.043,0,0,0-.584,4.768c0,3.091,1.452,4,3.815,4,2.727,0,9.817-.909,15.269-.909,2.725,0,4-.728,4-3.817,0-7.09,4.724-22.54,7.813-28.719,4-8,8.361-11.088,11.452-11.088,2.544,0,4.181,2.18,4.181,5.088,0,7.09-5.817,14.36-5.817,25.448,0,7.816,6.362,14,16.721,14,11.452,0,19.268-7.09,23.085-12,.052-.07.089-.122.142-.187,4.443,8.74,14.081,12.73,26.39,12.73,13.881,0,22.342-5.52,28.245-10.972,2.83,6.8,11.524,10.789,22.643,10.789,16,0,25.448-8,25.448-19.811,0-13.27-19.994-14.724-19.994-25.448,0-3.453,2.908-6,5.269-6,2,0,3.456.726,3.456,2.544,0,1.635-1.454,2.727-1.454,5.452a6.446,6.446,0,0,0,6.543,6.181c6,0,8.544-4.362,8.544-9.27C522.1,74.865,516.105,69.777,502.837,69.777Zm-49.8,8.361c2.908,0,4.362,1.454,4.362,4.181,0,4.362-6.726,13.451-17.085,15.45C440.316,87.045,447.587,78.137,453.039,78.137ZM222.763,107.765c-2.363,5.455-6,8.544-9.453,8.544-4,0-6.181-3.817-6.181-8.544,0-10,4.546-29.083,14.905-29.083,3.817,0,5.452,2,5.452,5.271C227.487,91.043,224.943,103.041,222.763,107.765ZM298.55,78.682c3.817,0,5.819,2,5.819,5.271,0,7.271-2.91,19.268-4.91,23.811-2.363,5.636-6,8.725-9.451,8.725-4,0-5.816-2.908-5.816-7.452C284.192,99.04,288.371,78.682,298.55,78.682Zm-1.435,154.059c-1.45.048-2.836.1-4.262.142,1.482-.879,2.915-1.727,4.4-2.6C296.948,231.089,296.547,231.861,297.116,232.742Zm-1.831-10.964c-.569-.29-1.173-.517-1.722-.831a12.5,12.5,0,0,1-1.195-.892,2.793,2.793,0,0,1-1.193-1.786,21.862,21.862,0,0,1-.512-3.839c.011-1.084-.1-2.169-.168-3.285a1.047,1.047,0,0,1,.185.214c.336.7.652,1.417.992,2.117.48.964.434,2.11,1.079,3.035.475.687.789,1.5,1.291,2.169.532.706,1.238,1.28,1.8,1.975.532.663.968,1.4,1.5,2.2C296.571,222.452,295.934,222.1,295.284,221.778Zm22.141-9.237a5.419,5.419,0,0,0-.283,1.524,3.894,3.894,0,0,1-.253,1.077c-.275.767-.619,1.511-.87,2.28a4.948,4.948,0,0,1-1.238,2.126,1.663,1.663,0,0,0-.323.4c-.181.344-.286.728-.495,1.046a22.9,22.9,0,0,0-2.134,4,6.569,6.569,0,0,1-.469,1.049,13,13,0,0,1-.92,1.2,1.187,1.187,0,0,1-.314.24c-.168.1-.342.2-.573.325a11.574,11.574,0,0,1-.924-1.411,13.05,13.05,0,0,1-.582-1.733c-.334-1.125-.621-2.267-.992-3.386-.717-2.2-2.315-3.839-3.658-5.638-.218-.29-.576-.48-.8-.761a4.661,4.661,0,0,1-.6-.99,7.9,7.9,0,0,1-.737-1.864,7.354,7.354,0,0,0-.329-1.452A31.613,31.613,0,0,1,299.734,207c-.484-1.836-.881-3.687-1.3-5.537a4.791,4.791,0,0,1,.323-3.011,21.761,21.761,0,0,0,.911-2.793,6.1,6.1,0,0,0,.026-1.169,4.056,4.056,0,0,1,.153-.6,2.069,2.069,0,0,1,.307.172,20.6,20.6,0,0,0,1.714,1.5,29.647,29.647,0,0,0,3.5,2.361c.244.142.44.382.687.528.665.386,1.349.735,2.021,1.11a13.625,13.625,0,0,0,3.124,1.48c.757.2,1.511.4,2.274.576.957.218,1.912.438,2.878.6a.674.674,0,0,1,.628.656c.041.34.037.678.07,1.012.026.244.1.48.122.717.035.665.033,1.336.092,2,.065.818.209,1.633.262,2.45.044.741.015,1.489,0,2.232A4.045,4.045,0,0,1,317.425,212.541Zm48.752-17.4a68.12,68.12,0,0,1-27.142,54.4H327.469l-.046-.414c-.116-1.029-.238-2.051-.36-3.118.059.007.015-.017-.011,0s-.055.057-.139.159c-.1-.894-.2-1.7-.294-2.52-.089-.726-.174-1.458-.272-2.187-.024-.161-.111-.312-.137-.469a7.642,7.642,0,0,1-.074-.809c-.013-.246.048-.5.022-.743-.194-1.729-.405-3.451-.613-5.171a5.618,5.618,0,0,0-.2-1.153.668.668,0,0,0-.506-.305c-.473-.041-.961-.009-1.445-.013-.144,0-.281-.015-.554-.039.242-.209.4-.349.486-.425.118-.477.22-.9.329-1.319a7.322,7.322,0,0,1,.436-1.624,9.163,9.163,0,0,1,1.164-1.528c.438-.521.935-1,1.347-1.541a10.474,10.474,0,0,0,1.692-2.708c.185-.521.338-1.046.549-1.559.456-1.155.935-2.307,1.417-3.451a37.584,37.584,0,0,1,1.74-3.451,20.241,20.241,0,0,1,2.132-2.987,5.253,5.253,0,0,1,2.051-1.751c.146-.057.214-.316.364-.392,1.005-.532,2-1.079,3.043-1.537.892-.39,1.853-.626,2.745-1.025a7.291,7.291,0,0,0,2.2-1.284c.419-.412.97-.536,1.325-.97a14.785,14.785,0,0,0,1.073-1.256c.512-.778.951-1.609,1.411-2.424.225-.4.434-.818.63-1.238.312-.674.648-1.341.9-2.041.569-1.533,1.092-3.083,1.618-4.626.39-1.14.748-2.3,1.125-3.445.011-.039.052-.065.129-.153a6.37,6.37,0,0,1,.19.8,20.664,20.664,0,0,1,.36,3.966c-.092.78-.085,1.576-.181,2.368-.2,1.626-.425,3.251-.676,4.883-.155,1.014-.373,2.03-.554,3.037a1.778,1.778,0,0,0,.013.355c.007.129.063.3.007.392-.6.909-.495,2.012-.813,3-.305.959-.565,1.936-.944,2.862a24.353,24.353,0,0,1-1.258,2.455,30.075,30.075,0,0,1-1.62,2.732,15.4,15.4,0,0,1-2,2.355,5.216,5.216,0,0,1-1.742.959c-.894.344-1.846.556-2.758.876a3.13,3.13,0,0,0-1.626,1.469c-.51.842-1.007,1.694-1.52,2.531-.061.1-.179.229-.281.238a15.007,15.007,0,0,1-1.528.087c-.124,0-.244-.172-.4-.3-.142.172-.416.185-.094.6a2.737,2.737,0,0,0,1.99,1.151,3.682,3.682,0,0,0,2.359-.547,3.125,3.125,0,0,1,1.685-.676,2.291,2.291,0,0,0,1.738-1.057c.512-.678.953-1.406,1.45-2.082a5.912,5.912,0,0,1,.935-1.014,7.594,7.594,0,0,0,1.757-2.219c.118-.2.312-.355.449-.549.342-.467.667-.94,1-1.415a11.441,11.441,0,0,1,.639-.959,9.636,9.636,0,0,0,1.482-2.335c.251-.562.674-1.044.942-1.6a15.436,15.436,0,0,0,1.291-3.8c.009-.033,0-.068.015-.092.676-.785.506-1.847.859-2.74a14.31,14.31,0,0,0,.534-2.121c.24-.99.5-1.986.715-2.98.172-.8.286-1.609.429-2.411.031-.187.1-.377.126-.567a5.258,5.258,0,0,0,.035-.639c.007-.137-.026-.275-.013-.4.142-1.293.331-2.581.41-3.874.078-1.249.041-2.5.072-3.754.02-.678.118-1.354.107-2.028-.026-1-.1-2-.172-3-.087-1.236-.166-2.477-.292-3.713a31.393,31.393,0,0,0-.475-3.416c-.331-1.517-.77-3.015-1.186-4.513-.231-.835-.5-1.663-.783-2.477a4.756,4.756,0,0,0-.449-.748c-.665-1.125-1.293-2.265-1.988-3.366-.53-.835-1.2-1.585-1.709-2.424-.6-.992-1.118-2.023-1.646-3.059a26.639,26.639,0,0,0-2.723-4.753c-.539-.667-1.121-1.3-1.7-1.923-1.1-1.166-2.156-2.387-3.338-3.462a35.976,35.976,0,0,0-3.706-2.884c-.371-.253-.7-.543-1.038-.82-.776-.626-1.576-1.227-2.368-1.838A32.874,32.874,0,0,0,330,142.518a28.545,28.545,0,0,0-2.893-1.367,7.93,7.93,0,0,0-1.45-.691,17.032,17.032,0,0,0-2.952-.8c-.992-.05-1.969-.3-2.963-.445a9.9,9.9,0,0,0-1.018-.076c-.961-.063-1.914-.159-2.876-.17-1.469,0-2.948-.007-4.41.1a18.11,18.11,0,0,0-4.164.772,18.659,18.659,0,0,1-2.551.473,12.863,12.863,0,0,0-3.161.955,10.35,10.35,0,0,1-1.424.406c-.491.14-.972.29-1.452.447-1.094.355-2.187.7-3.275,1.079a8.411,8.411,0,0,0-2.78,1.275,6.369,6.369,0,0,1-2.187,1.04,9.182,9.182,0,0,1-2.078.19,17.143,17.143,0,0,0-1.746.07,4.237,4.237,0,0,0-1.053.475c-1.066.519-2.1,1.1-3.2,1.541a13.275,13.275,0,0,1-2.9.874,8.19,8.19,0,0,1-4.048-.244,20.559,20.559,0,0,1-2.494-.968,6,6,0,0,0-3.558-.445,37.2,37.2,0,0,0-3.691.735,7.517,7.517,0,0,0-2.867,1.541,16.886,16.886,0,0,0-3.294,3.556,12.863,12.863,0,0,0-1.661,3.1,2.1,2.1,0,0,1-.277.449,1.976,1.976,0,0,0-.3,1.506,4.217,4.217,0,0,1-.129,1.068c-.059.5-.111,1-.172,1.493a10.36,10.36,0,0,1-.257,1.932,13.378,13.378,0,0,1-1.478,2.812,8.682,8.682,0,0,0-.438,1.066c-.126.29-.3.565-.421.855-.259.65-.5,1.306-.763,1.956a7.346,7.346,0,0,0-.641,2.361c-.048.8-.242,1.6-.209,2.392a11.074,11.074,0,0,0,.388,2.546,16.386,16.386,0,0,0,.8,2.017,13.228,13.228,0,0,1,.61,1.6c.179.719.268,1.465.392,2.2a7.1,7.1,0,0,1,.181,1.267,3.194,3.194,0,0,1-.266.889c-.07.233.133.488-.122.724-.1.094-.028.375-.035.569-.024.482-.033.955-.076,1.432-.059.713-.168,1.421-.218,2.136a16.479,16.479,0,0,0-.052,2.15c.061.94.211,1.871.334,2.8.065.469.211.931.238,1.4a.916.916,0,0,1-.342.6,17.509,17.509,0,0,0-1.456.981,13.484,13.484,0,0,1-3.037,1.91c-.013.009-.035.009-.046.02-.876.85-2.137,1.025-3.107,1.7a27.7,27.7,0,0,1-3.676,1.823,22.333,22.333,0,0,1-2.256.835c-.445.168-.874.344-1.36.534a1.648,1.648,0,0,0,1.5.573,23.432,23.432,0,0,0,5.854-1.574c1.5-.63,2.961-1.343,4.417-2.065.822-.4,1.613-.874,2.392-1.349.63-.382,1.219-.82,1.908-1.286.12.386.222.7.3,1.02a3.206,3.206,0,0,1,.192.955,1.329,1.329,0,0,1-.327.876c-1.142.859-2.311,1.7-3.51,2.464-.929.6-1.925,1.09-2.891,1.633a12.448,12.448,0,0,1-2.878,1.131c-.342.092-.652.305-.988.421-.447.159-.907.286-1.363.41-.323.085-.7.131-.652.58a.751.751,0,0,0,.927.639c1.145-.2,2.3-.4,3.423-.68.693-.172,1.349-.5,2.027-.739.406-.142.833-.227,1.227-.39.456-.2.887-.46,1.336-.693,1.5-.785,3.006-1.568,4.484-2.335a8.34,8.34,0,0,1,.848,2.52c.1.835.253,1.663.34,2.494.087.879.159,1.759.166,2.642.011.953-.057,1.9-.087,2.856-.009.456.024.907,0,1.358-.035.473-.113.946-.159,1.419-.065.608-.111,1.223-.192,1.829-.02.129-.142.325-.249.349a4.962,4.962,0,0,1-2.145.183,3.835,3.835,0,0,0-.872-1.851,1.957,1.957,0,0,0-1.942-.785.886.886,0,0,1-.251,0,1.241,1.241,0,0,1-.429.155c-.194.035-.264.092-.29.133s-.022.035-.026.028a1,1,0,0,1-.484.669c-.129.249-.373.386-.922.525-.107-.421-.416-.395-.748-.307a31.208,31.208,0,0,0-6.128,2.239.427.427,0,0,0-.257.6c.2.761.36,1.539.565,2.3.216.794.48,1.565.693,2.352.307,1.1.591,2.208.883,3.307.2.746.412,1.472.571,2.215a.918.918,0,0,0,.863.776,10.734,10.734,0,0,0,2-.022,11.1,11.1,0,0,0,4.888-1.868,4.816,4.816,0,0,0,.412-.323c.754-.663.767-1,.384-1.668a7.727,7.727,0,0,1-.355-.944c-.146-.351-.316-.689-.495-1.077a.661.661,0,0,0,.789-.283.8.8,0,0,1,.434-.24,2.792,2.792,0,0,0,.754-1.663,2.258,2.258,0,0,1-.089-.534.765.765,0,0,0,.131-.037c.451-.242.855-.567,1.295-.815a2.516,2.516,0,0,1,.811-.266.433.433,0,0,1,.29.24c.233.8.4,1.624.671,2.409a5.373,5.373,0,0,0,.715,1.28,13.294,13.294,0,0,0,1.526,2.019,6.176,6.176,0,0,0,2.721,1.764,10.086,10.086,0,0,0,1.958.159,4.227,4.227,0,0,0,2.3-.691,3.316,3.316,0,0,0,1.764-2.782,6.009,6.009,0,0,0-.582-3.229,8.54,8.54,0,0,0-1.247-1.748,10.8,10.8,0,0,0-1.785-1.6,9.777,9.777,0,0,0-1.827-.811c-.338-.142-.691-.257-.977-.364.068-1.064.131-2.082.2-3.1.052-.7.111-1.4.181-2.1.078-.848.168-1.7.257-2.54.1-.918.231-1.823.314-2.736a19.715,19.715,0,0,0,.126-2.531c-.048-1.275-.174-2.544-.3-3.813-.078-.785-.181-1.572-.327-2.348-.192-1.029-.456-2.06-.658-3.091a.746.746,0,0,1,.113-.519c.22-.331.5-.615.73-.942.07-.085.013-.253.063-.362.185-.375.412-.733.589-1.114.379-.848.743-1.711,1.114-2.562.406.264-.166.94.395,1.238.041-.161.072-.283.109-.425a12.014,12.014,0,0,0,3.532,3.312,2.24,2.24,0,0,0,1.195.264c.434-.009.9-.794.787-1.282-.253-1.077-.552-2.134-.855-3.2a.49.49,0,0,1,.155-.582,4.788,4.788,0,0,1,2.527-1.343,4.2,4.2,0,0,0,2.363-1.729c.266-.351.486-.752.73-1.145a2.341,2.341,0,0,1,1.232,1.09c.355.569.7,1.153,1,1.751a2.3,2.3,0,0,0,.938.988,1.9,1.9,0,0,1,.861,2.056c-.1,1.025-.235,2.045-.386,3.061-.124.826-.29,1.648-.445,2.47a21.43,21.43,0,0,0-.283,4.179,14.6,14.6,0,0,0,.776,4.229,28.7,28.7,0,0,1,.473,3.118c.17.9.325,1.809.475,2.719a27.72,27.72,0,0,1,.534,3.392,27.637,27.637,0,0,0,.482,3.3,11.051,11.051,0,0,0,.386,2.012c.316.907.756,1.777,1.149,2.658a.409.409,0,0,0,.085.109c.484.482.959.988,1.476,1.439.909.794,1.842,1.554,2.767,2.331a8.3,8.3,0,0,0,.826.691,3.019,3.019,0,0,1,1.07,2.147c.115.5.115,1.042.192,1.561a2.366,2.366,0,0,0,.177.5c.107.257.222.5.323.733.2.129.4.259.606.39l-.055.164c-.545,0-1.088-.011-1.639,0-.661.015-1.328.035-1.984.087-.1.009-.259.2-.277.325-.153,1.051-.27,2.108-.4,3.157-.1.774-.192,1.537-.288,2.309-.052.344-.109.7-.161,1.053q-.258,1.805-.506,3.608c-.2,1.45-.412,2.9-.571,4.345-.07.582-.078,1.162-.1,1.746h-28.4a68.165,68.165,0,1,1,109.217-54.4ZM262.888,221.586c.756.512,1.437.929,2.06,1.426.214.17.233.565.427.776a2,2,0,0,1,.427,1.336.769.769,0,0,1-.523.759,1.22,1.22,0,0,1-1.454-.229,6.871,6.871,0,0,1-1.118-1.958,3.359,3.359,0,0,1-.031-1.332A4.981,4.981,0,0,1,262.888,221.586Zm-10.266-2.466a2.2,2.2,0,0,0,.608.767,2.2,2.2,0,0,1,.275.227.362.362,0,0,0,.118.133,2.7,2.7,0,0,1,.462.776,2.294,2.294,0,0,1,.111.41.643.643,0,0,1-.061.168c-.225.318-.207.486.116.711a1.164,1.164,0,0,1,.094.083.693.693,0,0,0,.257.427.816.816,0,0,1-.026.453.891.891,0,0,1-.815.556c-.29.044-.578.068-.933.1-.541-1.319-1.121-2.732-1.711-4.157.262-.044.621.12.6-.353a.828.828,0,0,1,.576-.874.982.982,0,0,1,.375-.048A.567.567,0,0,0,252.622,219.12Z" transform="translate(-23.013 -6.887)" fill="#fff"></path>
      <path id="Path_2524" data-name="Path 2524" d="M295.672,57.546c6,0,8.542-4.362,8.542-9.27,0-7.454-6-12.542-19.266-12.542-13.632,0-25.084,5.817-25.084,17.269,0,13.632,17.995,15.267,17.995,25.991,0,3.272-1.454,4.907-4,4.907-3.272,0-4.907-3.089-4.907-7.633,0-4.362-2.908-6.726-7.816-6.726-4.181,0-8.361,3.453-8.361,9.27,0,9.815,10,15.812,23.628,15.812,16,0,25.446-8,25.446-19.811,0-13.27-19.992-14.724-19.992-25.448,0-3.453,2.908-6,5.269-6,2,0,3.456.726,3.456,2.544,0,1.635-1.454,2.727-1.454,5.452A6.446,6.446,0,0,0,295.672,57.546Z" transform="translate(248.132 27.156)" fill="#fff"></path>
    </g>
    <g id="Group_883" data-name="Group 883" transform="translate(730.739 520.937)">
      <path id="Path_2525" data-name="Path 2525" d="M35.866,70.247A21.19,21.19,0,0,0,14.739,91.374v32.7A21.19,21.19,0,0,0,35.866,145.2h187.5A87.7,87.7,0,0,1,235.51,70.247Zm54.509,39.24-.05,1.195-.15.8-.349,1.147-.249.8-.3.746-.3.8-.3.848-.3.743-.549,1.1-.4.645-.7.8-.5.549-.848.8L84.3,121.532l-.645.545-.946.748-.647.4-.994.547-.647.3-1.094.4-.748.249-.8.2-.8.153-3.037.447-.746.048-1.094.1h-.8l-1.591-.048-1.293-.1h-.8l-1.591.1-1.245.048-.846.05-.746-.05H59.719l-.748-.048-2.139-.2-.4-.2-.249-.249-.1-.547-.05-.8.05-.4.1-1.5v-.7l.05-1.145v-.746l.05-.8v-.8l-.05-2.638v-.8l-.1-2.638.048-.746.05-1.1.1-.743.05-.848v-.8l-.1-1.293-.05-.848v-.447l-.05-.846.2-2.636v-.8l-.05-2.638v-.8l-.148-2.638v-1.94l.05-.8.148-.743.1-.549.2-.3.545-.15.848-.1.746-.1.8-.05,4.38.05h.8l2.389.15.4.048h.9l2.089-.1.746-.05h.8l1.243.1,1.594.1.8.1,1.293.2.8.148.746.2,1.792.647.748.349.746.4.7.4L84.2,93.463l.645.547.6.5,1.1,1.044.5.5.447.547.349.647.549,1.094.3.748.251.8.3.8.249.8.2.8.2,1.092.148.8.15.844.1.8.05,1.193.05.8.048.846Zm41.193,15.974-.547.251-.648.1h-.7l-1.142-.1-.748-.05h-2.239l-3.087.2-.645-.249-.3-.351-.249-.547-1.544-4.181-.349-.495-.447-.1-.6-.05-2.987-.2h-.8l-3.732-.1-2.987-.05h-.746l-.748.05h-2.287l-.647.1-.4.249-.3.6-1.145,3.386-.3.8-.547.647-.746.251h-.8l-2.884-.153h-.8l-3.085.2-.647.05-.6-.3-.4-.547.05-.648.1-.4.3-.8.7-1.544.3-.746,1.245-2.786.3-.7,1.295-2.788.3-.746,1.145-2.688.3-.748,1.343-2.786.3-.7,1.792-4.081,1.393-2.987.349-.8,1.094-2.239.349-.8.944-2.291.3-.746.894-2.038.249-.549.5-.3.748-.15,2.289-.1h3.883l2.289.05.846.148.547.4.249.647.7,1.94.3.746L119.375,96l.3.7,1.1,2.437.3.7.9,2.538.3.7,1.1,2.387.3.7,1.1,2.437.3.7,1,2.487.3.7,1.544,3.085,1.195,2.339.347.7,1.345,3.133.994,2.49.15.7Zm31.986-35.183-.3.449L159.675,96l-.5.645-1.692,2.291-.447.648-1.393,2.437-.449.7-1.541,2.287-.5.7L151.562,108l-.5.645-1.644,2.289-.2.4v4.029l.2,2.69-.05.8-.2,2.688v.8l.2,2.091.05.7-.148.4-.2.2-.447.1h-3.283l-5.823-.2-.2-.153-.1-.495v-6.122l-.05-.8-.2-2.69-.05-.8.2-2.686-.1-.447-.349-.349-1.343-2.389-.447-.7-1.594-2.241-.447-.7L133.4,102.67l-.4-.7L129.515,96.7l-.4-.7-1.493-2.339-.4-.7-1.443-2.389-.148-.449.05-.249.3-.2h6.667l.8.05,2.889.148.547.05.2.15,1.443,2.487.4.647,1.493,2.239.4.645,1.295,2.289.447.7,1.343,2.139.349.447.3.1.349-.349,1.245-2.389.447-.648,1.544-2.189.447-.648,1.245-2.337.4-.7,1.393-2.289.4-.5.4-.1.547.05,2.488.148h.8l2.886-.148h.8l2.836.2.6.1.249.1Zm31.688,25.08-.1.848-.148.8-.249,1.094-.249.7-.449,1-.347.647-.6.894-.5.6-.6.6-.6.547-.994.645-.647.449-.746.4-.7.347-1.145.4-1.493.5-.8.15-1.245.2-.746.1-1.094.1-.7.052-1.145.048-2.387.15h-1.1l-.7-.05-1.145-.1-.748-.1-.846-.148-.746-.249-1.094-.347-.7-.351-.746-.349-.7-.347-.648-.4-1.591-1.094-.6-.5-.9-.7-.6-.5-.547-.547-.4-.449-.05-.347.251-.449.2-.249.5-.547,1.391-1.295.449-.547.846-1.293.449-.549.5-.547.547-.3.547.1.547.4,1.591,1.094.748.4.7.349,1.142.547.748.249.8.249.8.15,1.145.048.8.05,3.137-.2.8-.1.4-.1.746-.3.647-.4.5-.5.249-.349.3-.748-.05-.846-.1-.4-.4-.7-.249-.3-.647-.5-.4-.148-.748-.3-.846-.2-.846-.148-4.729-.449-1.493-.3-.8-.2-1.094-.4-.748-.246-.746-.351-1.692-.844-.648-.449-.746-.447-.647-.449-.846-.7-.447-.648-.449-.746-.3-.746-.347-1.046-.15-.746-.15-1.1-.1-1.591.05-.8.1-1.195.15-.746.2-.648.249-.748.5-1.092.347-.7.4-.6.5-.547.8-.746.647-.5.648-.449.7-.347.946-.547,1.493-.6.746-.249,1.147-.2.8-.15,1.493-.2,1.094-.2.8-.1.746-.052h.8l1.491.153.748.1.349.1.8.1,1.692.3.846.2.8.249.846.249.8.3.746.347.746.3.946.549.7.347.648.449.447.447v.5l-.3.547-.547.994-.4.6-1.89,2.49-.547.7-.6.5-.4.148-.349-.05-.5-.249-.746-.449-.748-.3-.347-.15-.748-.249-.4-.1-.846-.2-1.145-.249-.8-.05-1.293-.1H178.82l-.846.048-.846.15-.8.249-.3.148-.6.447-.249.3-.349.7-.1.8.15.645.4.647.549.5.6.3.349.148.748.148,1.243.15,1.692.1.848.148,1.692.4,1.591.5,1.145.249.748.2,1.393.5.994.447.7.349.7.4.647.4,1.443,1.195.547.6.5.6.6.9.4.645.349.748.2.746.2,1.094.1.748.05.846Z" transform="translate(-14.739 -70.247)" fill="#fff"></path>
      <path id="Path_2526" data-name="Path 2526" d="M52.227,89.042l-.2-.747-.1-.3-.4-.747L50.784,86.2l-.249-.249-.5-.547-.547-.547-.6-.447L47.8,83.766l-.7-.3-.7-.151-.8-.149-1.244-.049-.846-.049H42.274l-1.1-.051-.746.051-1.1.149-.547.149-.249.249-.149.6-.05.449-.049.745.1,1.495.05.8.1,1.094.1.8.05.8v.8l-.05,1.094v2.389l-.05.845-.05.8-.1,1.1v.7l-.05,1.143.05.747.149,1.194.2.547.3.249.6.051,4.628-.3,1.145-.049.8-.149.845-.249.8-.3.747-.349.646-.447.9-.8.5-.6.6-.945.348-.747.3-.845.2-.747.2-1.094.05-.7.049-1.145V90.981l-.049-.8Z" transform="translate(13.057 -55.175)" fill="#fff"></path>
      <path id="Path_2527" data-name="Path 2527" d="M390.293,70.247h-208A87.694,87.694,0,0,1,194.432,145.2H390.293a21.19,21.19,0,0,0,21.127-21.127v-32.7A21.19,21.19,0,0,0,390.293,70.247ZM255.8,100.978l-.05,1.094-.1.7-.246,1.142-.2.748-.3.846-.349.748-.547.944-.449.647-.645.846-.547.547-.8.748-.645.4-1.046.547-.748.3-.844.249-.8.249-.844.15-.8.148-1.145.1-.8.1-.848.148-.8.15-1.193.1-.848.048h-.4l-.9.048h-.4l-.846.153-.4.148-.748.347-.3.251-.547.547-.4.6-.3.7-.1.4-.148.647-.05.4.05.251.5.1.7.048,1.892-.048h4.031l2.538.048h.8l5.819-.1.8-.048,1.644-.15h.844l.648.15.3.447.1.7.05.748.05.8v2.043l.1,1.243-.052.8-.048.7-.1.5-.2.3-.3.148-1.591.249-.7.052-1.092-.052-.748-.048-3.632-.2H244.3l-4.378.249H232.7l-3.632-.048-2.786-.1-.6-.048-.349-.2-.1-.3-.048-.547.1-2.987v-.8l-.15-3.037.05-.8.148-1.493.3-1.491.148-.8.249-.846.251-.8.148-.4.349-.8.4-.645.846-.9.547-.5.9-.7.6-.4.994-.647.647-.349,1.044-.495.746-.251,1.247-.4.844-.2.848-.148.8-.1,2.538-.15.447-.048.9-.048,1.245-.052.9-.2.4-.2.746-.447.347-.349.451-.647.3-1.044V100.33l-.1-.4-.249-.8-.2-.347-.5-.6-.648-.3-1.094-.3-.7-.1-.748-.05h-.748l-.7.05-.7.148-1.044.351-.648.347-.3.2-.5.547-.249.3-.349.748-.249.7-.449.3-.746.2h-.449l-.846.048-2.091-.1h-2.089l-.846-.048-1.295-.148-.648-.1-.347-.2-.148-.246v-.848l.1-.746.1-.449.15-.8.1-.347.249-.748.5-.946.4-.7.447-.648.547-.647.6-.547.6-.5.946-.648.7-.4,1.491-.8.846-.349.8-.246,1.1-.251.8-.148.743-.15.7-.1,1.1-.052.8-.048h1.642l1.145-.05h.8l.746.05.748.148,1.046.249.743.251,1.594.5.748.251.746.3,1.046.5.7.395.648.549.645.647.549.645.495.647.648.9.349.7.349.748.248.746.249.7.148.746.15,1.195Zm39.613,6.519v2.937l-.052,1.1-.048.743-.052,1.094-.148.748-.2,1.147-.5,1.591-.349.746-.5,1-.449.7-.5.748-.495.7-.547.7-.6.6-.8.846-.6.447-1,.5-.647.349-.994.449-.7.3-1.044.4-.7.249-1.094.249-.746.15-.848.1-.844.048-1.195.1-.8-.048-1.3-.1-.8-.1-2.688-.447-.748-.15-1.044-.3-.746-.3-1.1-.5-.746-.449-.7-.447-.647-.449-.944-.7-.549-.5-.746-.844-.449-.547-.7-.946-.349-.647-.547-.944-.249-.7-.347-1.145-.148-.7-.251-1.1-.1-.746-.148-.848-.1-.8-.048-1.293-.05-.748.05-1.89V105.8l.1-1.594.148-.8.2-1.293.2-.8.2-1.1.2-.746.3-1.044.249-.748.3-.746.349-.748.6-1.094.5-.7.8-.894.648-.547.7-.547.647-.449,1-.547.645-.349,1.744-.746,1.343-.5.746-.249.748-.2.8-.1,1.295-.05h.8l2.538.1.8.05,1.195.2.8.1,1.94.447.848.249.8.3.746.3.7.347,1.142.647.647.449.547.547.547.645.8,1,.449.7.7,1.1.349.7.3.743.3.7.351,1.142.249.748.2.844.148.8.148,1.094.1.746.052,1.094.048.8Zm37.888-6.519-.052,1.094-.1.7-.249,1.142-.2.748-.3.846-.351.748-.547.944-.447.647-.647.846-.547.547-.8.748-.647.4-1.044.547-.748.3-.846.249-.8.249-.846.15-.8.148-1.142.1-.8.1-.846.148-.8.15-1.2.1-.846.048h-.4l-.9.048h-.4l-.846.153-.4.148-.746.347-.3.251-.547.547-.4.6-.3.7-.1.4-.15.647-.05.4.05.251.5.1.7.048,1.89-.048h4.031l2.54.048h.8l5.823-.1.8-.048,1.639-.15h.846l.648.15.3.447.1.7.048.748.052.8v2.043l.1,1.243-.05.8-.048.7-.1.5-.2.3-.3.148-1.591.249-.7.052-1.094-.052-.746-.048-3.632-.2H321.8l-4.38.249H310.2l-3.634-.048-2.786-.1-.6-.048-.349-.2-.1-.3-.048-.547.1-2.987v-.8l-.153-3.037.052-.8.148-1.493.3-1.491.148-.8.249-.846.251-.8.148-.4.349-.8.4-.645.844-.9.547-.5.9-.7.6-.4.994-.647.647-.349,1.044-.495.748-.251,1.243-.4.846-.2.848-.148.8-.1,2.538-.15.447-.048.9-.048,1.245-.052.9-.2.4-.2.748-.447.347-.349.449-.647.3-1.044V100.33l-.1-.4-.249-.8-.2-.347-.5-.6-.648-.3-1.094-.3-.7-.1-.746-.05h-.748l-.7.05-.7.148-1.044.351-.647.347-.3.2-.5.547-.251.3-.347.748-.248.7-.449.3-.746.2h-.449l-.846.048-2.091-.1h-2.091l-.844-.048-1.295-.148-.645-.1-.349-.2-.15-.246v-.848l.1-.746.1-.449.15-.8.1-.347.248-.748.5-.946.4-.7.447-.648.547-.647.6-.547.6-.5.944-.648.7-.4,1.491-.8.846-.349.8-.246,1.094-.251.8-.148.748-.15.7-.1,1.1-.052.8-.048h1.642l1.145-.05h.8l.746.05.748.148,1.044.249.746.251,1.594.5.746.251.748.3,1.044.5.7.395.647.549.647.647.547.645.495.647.647.9.349.7.349.748.249.746.249.7.148.746.153,1.195Zm37.862,0-.05,1.094-.1.7-.249,1.142-.2.748-.3.846-.349.748-.547.944-.447.647-.647.846-.547.547-.8.748-.645.4-1.046.547-.748.3-.844.249-.8.249-.844.15-.8.148-1.145.1-.8.1-.848.148-.8.15-1.193.1-.848.048h-.4l-.9.048h-.4l-.846.153-.4.148-.748.347-.3.251-.547.547-.4.6-.3.7-.1.4-.148.647-.05.4.05.251.5.1.7.048,1.892-.048h4.031l2.538.048h.8l5.819-.1.8-.048,1.644-.15h.844l.647.15.3.447.1.7.05.748.05.8v2.043l.1,1.243-.052.8-.048.7-.1.5-.2.3-.3.148-1.591.249-.7.052-1.092-.052-.748-.048-3.632-.2h-2.788l-4.378.249h-7.218l-3.632-.048-2.786-.1-.6-.048-.349-.2-.1-.3-.048-.547.1-2.987v-.8l-.15-3.037.05-.8.148-1.493.3-1.491.148-.8.248-.846.251-.8.148-.4.349-.8.4-.645.846-.9.547-.5.9-.7.6-.4.994-.647.647-.349,1.047-.495.743-.251,1.247-.4.844-.2.848-.148.8-.1,2.538-.15.447-.048.9-.048,1.245-.052.9-.2.4-.2.746-.447.347-.349.451-.647.3-1.044V100.33l-.1-.4-.249-.8-.2-.347-.5-.6-.647-.3-1.094-.3-.7-.1-.748-.05h-.748l-.7.05-.7.148-1.044.351-.647.347-.3.2-.5.547-.249.3-.349.748-.249.7-.449.3-.746.2h-.449l-.846.048-2.089-.1h-2.091l-.846-.048-1.3-.148-.647-.1-.347-.2-.148-.246v-.848l.1-.746.1-.449.15-.8.1-.347.249-.748.5-.946.4-.7.447-.648.547-.647.6-.547.6-.5.946-.648.7-.4,1.493-.8.844-.349.8-.246,1.1-.251.8-.148.743-.15.7-.1,1.1-.052.8-.048h1.642l1.145-.05h.8l.746.05.748.148,1.046.249.743.251,1.594.5.748.251.746.3,1.046.5.7.395.647.549.645.647.549.645.495.647.648.9.349.7.349.748.249.746.249.7.15.746.148,1.195Z" transform="translate(182.988 -70.247)" fill="#fff"></path>
      <path id="Path_2528" data-name="Path 2528" d="M63.865,89.329l-.248-.747-1-2.936L62.372,85l-.5-.347-.646-.149-.548.149-.5.5-1.343,3.383-.3.747-1.293,3.334-.15.745.15.6.547.249.7.1h3.135l2.339.151.647-.2.4-.4.149-.5-.2-.647Z" transform="translate(35.248 -53.423)" fill="#fff"></path>
      <path id="Path_2529" data-name="Path 2529" d="M236.371,88.927l-.2-.8-.249-.847-.3-.745-.547-1.094-.4-.647-.6-.6-.647-.5-.7-.347-.349-.1L231.644,83l-.747-.049-.347-.051h-.8l-.847.151-.347.049-.747.249-.747.4-.894.6-.547.547-.549.747-.447.747-.3.894-.2.847-.1.845-.051,1.145v.745l-.049,1.495v.8l-.051,1.592v.8l.1,1.243.1.8.2.845.249.7.1.347.349.647.149.3.5.647.547.6.645.4.3.2.8.249.9.149.845.051h.9l1.243-.1.8-.2.747-.3.7-.447.249-.249.547-.647.447-.8.349-.747.5-1.69.149-.8.049-1.194.149-2.389v-.8l.051-1.495-.051-.745Z" transform="translate(232.07 -55.31)" fill="#fff"></path>
    </g>
  </g>
</svg>
