<?xml version="1.0" encoding="UTF-8"?>
<svg preserveAspectRatio="xMidYMid slice" width="68px" height="59px" xmlns="http://www.w3.org/2000/svg" id="Layer_2" viewBox="0 0 192.36 168.44">
  <defs>
    <style>.cls-1{fill:#fd0;stroke-width:0px;}</style>
  </defs>
  <g id="Layer_1-2">
    <path class="cls-1" d="M192.36,82.14c-.46.46-1.27.69-2.43.69-.46,0-.98-.18-1.56-.52-.58-.35-1.21-.52-1.91-.52-.46,0-2.43.35-5.89,1.04-3.46.69-5.43,1.04-5.89,1.04s-6.36-.58-17.68-1.73c-.46-.46-4.85-.46-13.17,0-2.55-.23-6.24-.57-11.09-1.04-8.55-1.39-11.78-2.08-9.7-2.08-3.47,0-6.58.93-9.36,2.78,4.39,1.62,10.05,5.66,16.98,12.13,7.63,7.16,13.4,11.78,17.33,13.86,1.61,1.62,4.5,3.93,8.66,6.93,1.62.93,4.27,2.55,7.97,4.85h2.78c.92.9,1.38,1.57,1.38,2.01,0,.9-1.73,3.03-5.2,6.39,0,.67,1.61,2.36,4.85,5.04,3.23,2.69,4.85,4.36,4.85,5.04,0,2.24-.93,3.36-2.79,3.36-.93,0-4.18-3.35-9.76-10.05h-1.39c.23,4.39-.7,6.58-2.79,6.58-.7,0-1.28-.11-1.74-.35-2.09-3.69-5.69-8.09-10.8-13.17-6.51-6.7-10.46-10.97-11.85-12.82-1.4-1.85-7.67-7.39-18.82-16.64-1.63,1.39-2.44,6.71-2.44,15.94,0,.47-.23,1.68-.69,3.64-.47,1.97-.7,3.52-.7,4.68,0,1.85-.17,4.68-.52,8.49-.35,3.81-.52,5.84-.52,6.07,0,.69.35,1.62,1.04,2.77,0-1.15,0,3.81,0,14.91,0,.46.81,2.49,2.43,6.07,1.62,3.59,2.43,5.6,2.43,6.06,0,3.24-1.25,4.85-3.75,4.85l-4.09-2.08c-3.41-.92-7.04-1.96-10.9-3.12-1.14-1.15-1.71-3.23-1.71-6.24,0,1.85,0-2.65,0-13.52v-2.43l3.81-36.05v-19.06c.23-.23-.12-.35-1.05-.35-3.5,0-9.93,4.56-19.27,13.66-11.91,11.61-22.18,19.92-30.82,24.92-.24.68-.82,1.59-1.76,2.73-.7,0-1.58.29-2.63.86-1.05.57-2.39,1.54-4.03,2.9.24.46-.12.68-1.05.68-1.87,0-3.39-1.93-4.55-5.81,12.94-4.56,28.77-16.63,47.48-36.23,2.31-1.14,5.66-3.76,10.05-7.87l-61.35,3.12c-.46,0-1.16-.23-2.08-.69-.93-.46-1.62-.7-2.08-.7s-1.04.23-1.73.7c-.69.46-1.27.69-1.73.69s-1.16-.23-2.08-.69c-.93-.46-1.62-.7-2.08-.7s-.81.35-1.04,1.04c-1.16.23-3,.52-5.54.87-2.55.35-4.05.52-4.51.52-3.93,0-5.89-1.15-5.89-3.46,0-2.54,3-4.04,9.01-4.51l7.97,2.43,60.31-1.73c3.46-.23,8.09-1.04,13.86-2.43-2.08-2.54-3.7-4.16-4.85-4.85-4.85-3-14.21-9.47-28.07-19.41-12.02-8.78-20.45-14.21-25.3-16.29-1.62-.46-2.43-1.96-2.43-4.5,0-.46,3.23-5.55,9.7-15.25,1.39,0,2.88.46,4.5,1.38,1.39,1.86,3.47,4.28,6.24,7.28,1.62.93,3.93,2.43,6.93,4.5,2.77,3.7,7.04,8.9,12.82,15.6,2.54,2.78,4.74,4.63,6.59,5.55,2.77,1.39,5.89,3.81,9.35,7.28,4.39,4.39,7.63,7.4,9.7,9.01h1.39v-23.92l-2.43-27.73c-.23-2.54-.06-4.39.52-5.55.57-1.15,1.56-3.12,2.95-5.89,1.38-.46,2.19-.69,2.43-.69.46,0,1.62.18,3.47.52,1.85.35,3,.52,3.46.52,1.85,0,5.43-1.16,10.75-3.47,2.08,0,3.47,1.73,4.16,5.2,0,.47-.46,2.78-1.39,6.93-.92,4.16-1.51,7.17-1.73,9.01-.92,7.86-2.2,19.53-3.81,35,0,.7-.24,1.51-.7,2.43l.35,2.43c.46-.46,7.85-7.63,22.18-21.49,9.24-8.78,17.09-14.78,23.57-18.02h2.08c.46,0,.69.46.69,1.37s-.81,1.88-2.43,2.91c-1.62,1.03-3.93,2.57-6.93,4.62-.69.68-8.89,8.55-24.61,23.62-11.09,10.5-16.64,16.55-16.64,18.14v3.77c6.24,1.14,12.48,1.71,18.72,1.71h9.01c.46,0,3.23.07,8.32.21,5.08.14,7.85.21,8.32.21,1.62,0,3.58.21,5.89.62h13.86c3.69-.69,6.58-1.04,8.66-1.04,2.54,0,4.51.47,5.89,1.39v3.12ZM88.38,65.5c-2.08-3-5.54-6.35-10.4-10.05-6.71-5.31-10.51-8.43-11.44-9.36-2.77-3.69-7.28-8.66-13.52-14.9l-10.4-7.63c-.46,0-1.85,1.85-4.16,5.55l49.91,36.39ZM102.94,116.45c0-1.85-.43-3.47-1.27-4.85-.42,2.08-.74,6.36-.95,12.82-.64.7-.95,1.27-.95,1.73,0,1.16-.21,9.48-.63,24.96,2.54-12.24,3.81-19.41,3.81-21.49v-13.17ZM108.49,9.36l-3.81.69.69,6.24c.23-.46,1.27-2.77,3.12-6.93ZM117.15,8.66h-4.5c0,.47-.23.93-.7,1.39l1.73,5.55c0,.23-.46,2.02-1.38,5.37-.93,3.35-1.39,5.84-1.39,7.45-.23,23.8-.35,35.59-.35,35.35,1.61-4.39,2.43-8.43,2.43-12.13l4.16-42.98ZM156.66,122.34c-2.08-2.08-5.2-4.39-9.36-6.93-4.39-3.69-10.97-9.24-19.76-16.64,2.54,3.47,7.39,8.55,14.56,15.25,2.54,1.62,6.7,4.39,12.48,8.32h2.08Z"></path>
  </g>
</svg>
