<?xml version="1.0" encoding="UTF-8"?>
<svg xmlns="http://www.w3.org/2000/svg" width="300px" height="300px" viewBox="0 0 162 162">
  <g id="Melvin_Elephant_Logo" data-name="Melvin Elephant Logo" transform="translate(81 81)">
    <path id="Path_2583" data-name="Path 2583" d="M81,0a81,81,0,1,0,81,81A81.092,81.092,0,0,0,81,0Zm0,10.358a70.614,70.614,0,0,1,42.528,127.008H111.535c-.015-.142-.031-.285-.046-.427-.121-1.066-.247-2.126-.374-3.229.06.006.015-.019-.012,0s-.056.058-.145.161c-.1-.923-.2-1.763-.3-2.609-.093-.753-.183-1.512-.284-2.267-.025-.166-.114-.321-.143-.485a8.257,8.257,0,0,1-.077-.838c-.01-.253.05-.517.023-.77-.2-1.792-.419-3.576-.635-5.359a6.033,6.033,0,0,0-.2-1.193.7.7,0,0,0-.525-.317c-.49-.042-1-.009-1.5-.015-.152,0-.293-.014-.577-.039.251-.218.413-.361.506-.44.12-.5.226-.931.34-1.367a7.476,7.476,0,0,1,.452-1.684,9.652,9.652,0,0,1,1.205-1.583c.455-.539.969-1.035,1.4-1.6a10.758,10.758,0,0,0,1.753-2.806c.193-.539.35-1.085.57-1.614.471-1.2.969-2.391,1.467-3.578a39.864,39.864,0,0,1,1.8-3.575,21.153,21.153,0,0,1,2.209-3.1,5.447,5.447,0,0,1,2.126-1.813c.152-.058.22-.326.376-.407,1.043-.551,2.076-1.118,3.154-1.59.924-.407,1.919-.65,2.844-1.065a7.467,7.467,0,0,0,2.282-1.329c.433-.427,1-.556,1.373-1.006a15.734,15.734,0,0,0,1.112-1.3c.529-.807.985-1.666,1.46-2.512.234-.417.45-.846.653-1.282.324-.7.67-1.392.934-2.116.589-1.589,1.13-3.192,1.675-4.793.4-1.18.774-2.379,1.166-3.57.013-.039.054-.066.133-.155a6.538,6.538,0,0,1,.2.831,21.675,21.675,0,0,1,.373,4.109c-.1.809-.089,1.635-.188,2.452-.212,1.686-.44,3.371-.7,5.063-.162,1.049-.388,2.1-.575,3.144a1.779,1.779,0,0,0,.015.37c.006.132.064.313.006.406-.622.942-.515,2.087-.842,3.107-.318,1-.585,2.006-.979,2.966a24.783,24.783,0,0,1-1.305,2.543,30.042,30.042,0,0,1-1.676,2.831,16.034,16.034,0,0,1-2.076,2.442,5.41,5.41,0,0,1-1.8.991c-.927.359-1.914.579-2.858.909a3.265,3.265,0,0,0-1.686,1.522c-.529.873-1.043,1.757-1.572,2.624-.065.106-.187.236-.293.247a15.59,15.59,0,0,1-1.584.089c-.129,0-.251-.178-.415-.311-.147.178-.43.191-.1.62a2.845,2.845,0,0,0,2.062,1.195,3.833,3.833,0,0,0,2.445-.569,3.238,3.238,0,0,1,1.747-.7,2.389,2.389,0,0,0,1.8-1.1c.531-.7.985-1.456,1.5-2.157a6.086,6.086,0,0,1,.969-1.049,7.934,7.934,0,0,0,1.821-2.3c.12-.211.323-.369.464-.568.355-.483.693-.973,1.031-1.466a11.709,11.709,0,0,1,.666-.994,10.04,10.04,0,0,0,1.533-2.421c.261-.582.7-1.08.977-1.661a16.008,16.008,0,0,0,1.337-3.935.73.73,0,0,1,.015-.1c.7-.813.525-1.912.892-2.84a15.269,15.269,0,0,0,.552-2.2c.249-1.027.518-2.06.742-3.091.178-.827.3-1.665.444-2.5.031-.195.1-.39.131-.589a5.838,5.838,0,0,0,.037-.66c.006-.141-.029-.284-.015-.417.148-1.339.345-2.673.426-4.013.081-1.294.041-2.6.072-3.889.021-.7.123-1.4.112-2.1-.027-1.037-.1-2.076-.176-3.113-.091-1.28-.172-2.566-.305-3.846a33.151,33.151,0,0,0-.491-3.54c-.345-1.573-.8-3.124-1.23-4.676-.239-.864-.515-1.725-.809-2.567a4.974,4.974,0,0,0-.467-.774c-.689-1.166-1.34-2.346-2.06-3.487-.549-.865-1.24-1.642-1.771-2.514-.622-1.026-1.159-2.095-1.705-3.169a27.812,27.812,0,0,0-2.821-4.924c-.558-.691-1.161-1.344-1.765-1.991-1.139-1.207-2.234-2.473-3.46-3.589a37.2,37.2,0,0,0-3.839-2.986c-.384-.262-.722-.564-1.076-.849-.8-.651-1.631-1.273-2.452-1.906a34.811,34.811,0,0,0-2.852-2.144,29.474,29.474,0,0,0-3-1.415,8.016,8.016,0,0,0-1.5-.716,17.585,17.585,0,0,0-3.057-.829c-1.029-.05-2.041-.309-3.07-.459a9.774,9.774,0,0,0-1.056-.078c-1-.067-1.983-.166-2.978-.177-1.523-.006-3.055-.008-4.572.1a18.622,18.622,0,0,0-4.314.8,19.112,19.112,0,0,1-2.642.49,13.377,13.377,0,0,0-3.273.989,10.714,10.714,0,0,1-1.477.421c-.51.146-1.008.3-1.5.465-1.137.365-2.267.728-3.395,1.116A8.74,8.74,0,0,0,75.44,28.5a6.64,6.64,0,0,1-2.267,1.079,9.484,9.484,0,0,1-2.153.195,18.117,18.117,0,0,0-1.811.074,4.216,4.216,0,0,0-1.089.492c-1.1.537-2.178,1.139-3.31,1.6a13.794,13.794,0,0,1-3.008.906,8.5,8.5,0,0,1-4.2-.255,21.047,21.047,0,0,1-2.584-1,6.228,6.228,0,0,0-3.686-.46,38.094,38.094,0,0,0-3.825.761,7.8,7.8,0,0,0-2.97,1.6,17.558,17.558,0,0,0-3.414,3.684,13.338,13.338,0,0,0-1.719,3.209,2.086,2.086,0,0,1-.289.466A2.052,2.052,0,0,0,38.81,42.4a4.348,4.348,0,0,1-.133,1.106c-.06.514-.114,1.035-.178,1.549a10.741,10.741,0,0,1-.267,2A13.864,13.864,0,0,1,36.7,49.972a9.182,9.182,0,0,0-.455,1.1c-.13.3-.313.585-.435.886-.27.674-.516,1.354-.79,2.026a7.609,7.609,0,0,0-.664,2.448c-.05.83-.251,1.655-.218,2.476a11.637,11.637,0,0,0,.4,2.641,17.677,17.677,0,0,0,.834,2.086,13.316,13.316,0,0,1,.633,1.664c.187.745.28,1.516.408,2.275A7.306,7.306,0,0,1,36.6,68.89a3.285,3.285,0,0,1-.278.921c-.072.243.139.506-.126.751-.1.1-.029.388-.035.589-.025.5-.036.989-.081,1.483-.06.738-.175,1.475-.224,2.215a16.926,16.926,0,0,0-.054,2.228c.062.973.218,1.937.344,2.9.068.485.22.966.247,1.454a.947.947,0,0,1-.355.618c-.485.365-1.068.61-1.51,1.018a14.009,14.009,0,0,1-3.144,1.979c-.015.008-.038.008-.048.019-.908.881-2.215,1.062-3.219,1.763a28.619,28.619,0,0,1-3.808,1.887,22.909,22.909,0,0,1-2.34.867c-.46.172-.906.357-1.408.552a1.7,1.7,0,0,0,1.555.6,24.328,24.328,0,0,0,6.065-1.63c1.552-.656,3.068-1.392,4.578-2.141.852-.417,1.672-.906,2.476-1.4.656-.4,1.266-.85,1.979-1.333.123.4.228.728.313,1.057a3.371,3.371,0,0,1,.2.992,1.364,1.364,0,0,1-.34.906c-1.184.89-2.393,1.757-3.636,2.551-.962.623-1.995,1.131-2.995,1.693A12.828,12.828,0,0,1,27.776,92.6c-.355.093-.674.315-1.025.436-.463.163-.938.3-1.41.425-.334.087-.722.132-.677.6a.783.783,0,0,0,.961.664c1.186-.214,2.381-.417,3.547-.707.719-.179,1.4-.519,2.1-.766.419-.147.863-.234,1.271-.4.473-.2.919-.475,1.384-.718,1.553-.813,3.117-1.624,4.648-2.418a8.587,8.587,0,0,1,.877,2.609c.106.867.264,1.724.353,2.586.091.909.166,1.822.174,2.738.01.985-.06,1.971-.091,2.958-.011.473.025.94,0,1.406-.038.492-.118.983-.166,1.471-.069.63-.116,1.267-.2,1.9-.021.133-.145.334-.258.361a5.146,5.146,0,0,1-2.222.189,3.956,3.956,0,0,0-.9-1.918,2.024,2.024,0,0,0-2.012-.813.89.89,0,0,1-.262,0,1.259,1.259,0,0,1-.444.162c-.2.033-.273.093-.3.134s-.023.038-.025.032a1.037,1.037,0,0,1-.5.692c-.133.258-.386.4-.954.546-.11-.436-.434-.409-.776-.32a32.335,32.335,0,0,0-6.349,2.321.441.441,0,0,0-.268.625c.214.79.372,1.6.585,2.387.224.824.5,1.622.718,2.439.319,1.139.612,2.288.917,3.425.2.773.425,1.526.591,2.3a.953.953,0,0,0,.894.805,11.023,11.023,0,0,0,2.072-.023,11.521,11.521,0,0,0,5.065-1.935c.149-.108.294-.218.425-.334.782-.689.8-1.035.4-1.728a8.845,8.845,0,0,1-.365-.979c-.153-.365-.33-.716-.512-1.118a.681.681,0,0,0,.817-.293.842.842,0,0,1,.448-.248,2.884,2.884,0,0,0,.782-1.722,2.3,2.3,0,0,1-.092-.554.9.9,0,0,0,.136-.04c.467-.249.883-.587,1.342-.842a2.571,2.571,0,0,1,.84-.276c.083-.008.267.143.3.249.242.829.419,1.68.7,2.493a5.563,5.563,0,0,0,.741,1.327,13.738,13.738,0,0,0,1.583,2.093,6.412,6.412,0,0,0,2.818,1.828,10.286,10.286,0,0,0,2.027.163,4.389,4.389,0,0,0,2.385-.715,3.441,3.441,0,0,0,1.825-2.883,6.235,6.235,0,0,0-.6-3.346,8.849,8.849,0,0,0-1.292-1.811,10.991,10.991,0,0,0-1.853-1.657,10.167,10.167,0,0,0-1.891-.842c-.349-.145-.716-.266-1.01-.377.07-1.1.132-2.158.207-3.213.056-.724.116-1.446.189-2.172.081-.877.174-1.757.267-2.632.106-.95.239-1.888.324-2.835a20.552,20.552,0,0,0,.133-2.622c-.05-1.321-.183-2.636-.311-3.951-.079-.814-.187-1.629-.339-2.431-.2-1.069-.47-2.135-.682-3.205a.776.776,0,0,1,.118-.537c.226-.342.517-.637.757-.975.073-.089.015-.263.067-.376.189-.389.425-.759.61-1.155.392-.879.769-1.773,1.153-2.653.419.272-.172.973.406,1.282.044-.166.075-.292.114-.44a12.484,12.484,0,0,0,3.659,3.431,2.346,2.346,0,0,0,1.238.274c.451-.008.938-.824.816-1.33-.26-1.116-.571-2.211-.886-3.316a.517.517,0,0,1,.162-.606,4.981,4.981,0,0,1,2.619-1.39,4.357,4.357,0,0,0,2.448-1.79c.276-.365.5-.779.757-1.186a2.417,2.417,0,0,1,1.276,1.128c.369.592.721,1.195,1.039,1.815a2.384,2.384,0,0,0,.97,1.023,1.966,1.966,0,0,1,.892,2.13c-.1,1.062-.244,2.118-.4,3.171-.128.857-.3,1.707-.462,2.56a22.151,22.151,0,0,0-.293,4.329,15.052,15.052,0,0,0,.805,4.384,30.126,30.126,0,0,1,.489,3.23c.177.935.336,1.875.492,2.817a28.285,28.285,0,0,1,.554,3.513,28.08,28.08,0,0,0,.5,3.423,11.645,11.645,0,0,0,.4,2.084c.33.942.784,1.842,1.193,2.757a.377.377,0,0,0,.087.112c.5.5.993,1.022,1.528,1.489.942.823,1.911,1.611,2.867,2.414a8.452,8.452,0,0,0,.856.718,3.111,3.111,0,0,1,1.108,2.223c.12.523.12,1.081.2,1.618a2.51,2.51,0,0,0,.185.517c.11.265.23.52.334.759.2.13.412.267.626.4l-.054.17c-.566,0-1.128-.01-1.7,0-.684.017-1.377.038-2.055.092-.11.008-.27.211-.288.336-.16,1.089-.28,2.184-.415,3.271l-.3,2.391c-.056.359-.114.726-.166,1.093-.178,1.247-.357,2.489-.527,3.736-.2,1.5-.425,3.005-.591,4.5-.071.6-.08,1.205-.1,1.808H38.471A70.615,70.615,0,0,1,81,10.358Zm-.914,109.6c-1.5.05-2.939.1-4.416.147,1.537-.91,3.02-1.79,4.555-2.694C79.91,118.245,79.5,119.043,80.084,119.956Zm-1.9-11.36c-.589-.3-1.217-.535-1.786-.861a12.557,12.557,0,0,1-1.236-.923,2.9,2.9,0,0,1-1.236-1.85,22.727,22.727,0,0,1-.533-3.978c.012-1.125-.106-2.247-.172-3.4a1.026,1.026,0,0,1,.19.222c.349.728.677,1.466,1.029,2.192.5,1,.448,2.186,1.118,3.145.494.711.817,1.551,1.338,2.248.552.732,1.284,1.325,1.869,2.045.549.689,1,1.456,1.557,2.284C79.52,109.295,78.86,108.934,78.188,108.6Zm4.569-28.273a3.884,3.884,0,0,1,.158-.624,2.251,2.251,0,0,1,.319.178,21.551,21.551,0,0,0,1.774,1.556,30.788,30.788,0,0,0,3.63,2.447c.253.147.454.4.711.548.689.4,1.4.759,2.093,1.149a14.261,14.261,0,0,0,3.236,1.535c.784.2,1.566.417,2.358.6.991.224,1.981.452,2.98.622a.7.7,0,0,1,.652.68c.043.353.039.7.072,1.048.027.253.108.5.127.745.037.686.035,1.383.093,2.07.069.846.218,1.69.272,2.54.046.768.017,1.544,0,2.313a4.149,4.149,0,0,1-.106,1.3,5.669,5.669,0,0,0-.292,1.578,4.046,4.046,0,0,1-.264,1.116c-.286.8-.641,1.566-.9,2.364a5.12,5.12,0,0,1-1.282,2.2,1.68,1.68,0,0,0-.334.417,11.841,11.841,0,0,1-.514,1.083,24.015,24.015,0,0,0-2.211,4.148,6.53,6.53,0,0,1-.485,1.089,13.013,13.013,0,0,1-.955,1.244,1.123,1.123,0,0,1-.323.247c-.174.108-.357.206-.593.336a11.575,11.575,0,0,1-.959-1.46,13.921,13.921,0,0,1-.6-1.8c-.345-1.166-.643-2.35-1.029-3.507-.742-2.278-2.4-3.977-3.789-5.841-.227-.3-.6-.5-.834-.791a4.752,4.752,0,0,1-.625-1.022,8.226,8.226,0,0,1-.765-1.933,7.484,7.484,0,0,0-.342-1.5,33.522,33.522,0,0,1-1.23-3.711c-.5-1.9-.913-3.82-1.346-5.739a4.933,4.933,0,0,1,.336-3.117,22.343,22.343,0,0,0,.941-2.9A6.209,6.209,0,0,0,82.757,80.323ZM44.62,108.4c.784.533,1.489.962,2.134,1.478.222.175.243.583.444.805a2.058,2.058,0,0,1,.442,1.384.794.794,0,0,1-.541.786,1.263,1.263,0,0,1-1.506-.239,7.134,7.134,0,0,1-1.162-2.028A3.494,3.494,0,0,1,44.4,109.2,5.065,5.065,0,0,1,44.62,108.4Zm-8.614,1.749a.917.917,0,0,1-.842.577c-.3.045-.6.07-.969.11-.558-1.367-1.159-2.831-1.773-4.308.271-.046.643.124.622-.365a.857.857,0,0,1,.6-.907,1.042,1.042,0,0,1,.389-.049.587.587,0,0,0-.046.639,2.279,2.279,0,0,0,.628.795,2.271,2.271,0,0,1,.287.236.368.368,0,0,0,.119.134,2.815,2.815,0,0,1,.482.806,2.559,2.559,0,0,1,.133.44.642.642,0,0,1-.082.158c-.234.332-.215.506.121.736a1,1,0,0,1,.095.088.732.732,0,0,0,.266.442A.842.842,0,0,1,36.006,110.146Z" transform="translate(-81 -81)" fill="#fff" fill-rule="evenodd"></path>
  </g>
</svg>
