<?xml version="1.0" encoding="UTF-8"?>
<svg width="300px" height="300px" xmlns="http://www.w3.org/2000/svg" id="Layer_2" viewBox="0 0 162 162">
  <defs>
    <style>.cls-1{fill:#32373a;fill-rule:evenodd;stroke-width:0px;}</style>
  </defs>
  <g id="Layer_1-2">
    <path class="cls-1" d="M81,0C36.34,0,0,36.34,0,81s36.34,81,81,81,81-36.34,81-81S125.66,0,81,0ZM81,10.36c38.95,0,70.64,31.69,70.64,70.64,0,22.99-11.05,43.46-28.12,56.37h-11.99c-.02-.14-.03-.28-.05-.43-.12-1.07-.25-2.13-.37-3.23.06,0,.01-.02-.01,0-.03.01-.06.06-.15.16-.1-.92-.2-1.76-.3-2.61-.09-.75-.18-1.51-.28-2.27-.02-.17-.11-.32-.14-.49-.04-.27-.07-.56-.08-.84-.01-.25.05-.52.02-.77-.2-1.79-.42-3.58-.63-5.36-.05-.41-.07-.81-.2-1.19-.05-.15-.33-.3-.52-.32-.49-.04-1,0-1.5-.01-.15,0-.29-.01-.58-.04.25-.22.41-.36.51-.44.12-.5.23-.93.34-1.37.14-.57.19-1.19.45-1.68.31-.58.78-1.07,1.21-1.58.45-.54.97-1.03,1.4-1.6.68-.88,1.37-1.75,1.75-2.81.19-.54.35-1.08.57-1.61.47-1.2.97-2.39,1.47-3.58.51-1.24,1.17-2.4,1.8-3.58.61-1.14,1.42-2.11,2.21-3.09.56-.7,1.21-1.44,2.13-1.81.15-.06.22-.33.38-.41,1.04-.55,2.08-1.12,3.15-1.59.92-.41,1.92-.65,2.84-1.06.8-.36,1.68-.73,2.28-1.33.43-.43,1-.56,1.37-1.01.36-.44.8-.83,1.11-1.3.53-.81.99-1.67,1.46-2.51.23-.42.45-.85.65-1.28.32-.7.67-1.39.93-2.12.59-1.59,1.13-3.19,1.68-4.79.4-1.18.77-2.38,1.17-3.57.01-.04.05-.07.13-.16.08.31.17.57.2.83.11,1.37.52,2.71.37,4.11-.1.81-.09,1.63-.19,2.45-.21,1.69-.44,3.37-.7,5.06-.16,1.05-.39,2.1-.57,3.14-.02.12.01.24.01.37,0,.13.06.31,0,.41-.62.94-.51,2.09-.84,3.11-.32,1-.58,2.01-.98,2.97-.36.88-.84,1.71-1.3,2.54-.53.96-1.05,1.94-1.68,2.83-.61.87-1.3,1.71-2.08,2.44-.48.46-1.16.75-1.8.99-.93.36-1.91.58-2.86.91-.77.26-1.28.85-1.69,1.52-.53.87-1.04,1.76-1.57,2.62-.06.11-.19.24-.29.25-.53.05-1.06.09-1.58.09-.13,0-.25-.18-.41-.31-.15.18-.43.19-.1.62.55.71,1.2,1.12,2.06,1.19.87.08,1.69-.09,2.45-.57.53-.33,1.02-.69,1.75-.7.73,0,1.35-.5,1.8-1.1.53-.7.99-1.46,1.5-2.16.29-.39.61-.74.97-1.05.77-.65,1.34-1.43,1.82-2.3.12-.21.32-.37.46-.57.35-.48.69-.97,1.03-1.47.23-.33.41-.69.67-.99.62-.74,1.14-1.53,1.53-2.42.26-.58.7-1.08.98-1.66.59-1.26,1.09-2.56,1.34-3.93,0-.03,0-.07.01-.1.7-.81.52-1.91.89-2.84.28-.69.38-1.46.55-2.2.25-1.03.52-2.06.74-3.09.18-.83.3-1.67.44-2.5.03-.2.1-.39.13-.59.03-.22.03-.44.04-.66,0-.14-.03-.28-.01-.42.15-1.34.34-2.67.43-4.01.08-1.29.04-2.59.07-3.89.02-.7.12-1.4.11-2.1-.03-1.04-.11-2.08-.18-3.11-.09-1.28-.17-2.57-.3-3.85-.12-1.19-.24-2.38-.49-3.54-.34-1.57-.8-3.12-1.23-4.68-.24-.86-.51-1.73-.81-2.57-.1-.28-.32-.52-.47-.77-.69-1.17-1.34-2.35-2.06-3.49-.55-.86-1.24-1.64-1.77-2.51-.62-1.03-1.16-2.09-1.7-3.17-.87-1.68-1.62-3.44-2.82-4.92-.56-.69-1.16-1.34-1.77-1.99-1.14-1.21-2.23-2.47-3.46-3.59-1.2-1.09-2.51-2.06-3.84-2.99-.38-.26-.72-.56-1.08-.85-.8-.65-1.63-1.27-2.45-1.91-.95-.73-1.84-1.52-2.85-2.14-.94-.57-2-.95-3-1.41-.5-.24-.97-.6-1.5-.72-1.03-.23-1.96-.78-3.06-.83-1.03-.05-2.04-.31-3.07-.46-.35-.05-.71-.06-1.06-.08-1-.07-1.98-.17-2.98-.18-1.52,0-3.06,0-4.57.1-1.46.11-2.9.34-4.31.8-.85.27-1.76.34-2.64.49-1.13.19-2.22.52-3.27.99-.46.21-.99.28-1.48.42-.51.15-1.01.3-1.5.46-1.14.37-2.27.73-3.4,1.12-1.01.33-2,.62-2.88,1.32-.64.51-1.47.84-2.27,1.08-.68.2-1.42.16-2.15.2-.6.03-1.22-.02-1.81.07-.38.06-.73.32-1.09.49-1.1.54-2.18,1.14-3.31,1.6-.97.39-1.98.75-3.01.91-1.39.22-2.82.23-4.2-.26-.87-.31-1.76-.58-2.58-1-1.19-.6-2.44-.62-3.69-.46-1.29.15-2.55.47-3.82.76-1.13.26-2.06.89-2.97,1.6-1.35,1.05-2.42,2.31-3.41,3.68-.72.99-1.29,2.06-1.72,3.21-.06.17-.18.32-.29.47-.33.47-.39.99-.31,1.56.05.36-.08.73-.13,1.11-.06.51-.11,1.04-.18,1.55-.08.67-.07,1.37-.27,2-.34,1.05-.95,1.98-1.53,2.91-.21.34-.29.74-.45,1.1-.13.3-.31.58-.44.89-.27.67-.52,1.35-.79,2.03-.33.79-.61,1.58-.66,2.45-.05.83-.25,1.66-.22,2.48.02.89.17,1.78.4,2.64.18.72.56,1.39.83,2.09.22.55.49,1.09.63,1.66.19.74.28,1.52.41,2.28.07.44.2.88.19,1.31,0,.31-.18.61-.28.92-.07.24.14.51-.13.75-.1.1-.03.39-.04.59-.02.5-.04.99-.08,1.48-.06.74-.17,1.47-.22,2.22-.05.74-.1,1.49-.05,2.23.06.97.22,1.94.34,2.9.07.49.22.97.25,1.45,0,.2-.18.48-.35.62-.49.36-1.07.61-1.51,1.02-.93.86-2.05,1.4-3.14,1.98-.01,0-.04,0-.05.02-.91.88-2.22,1.06-3.22,1.76-1.18.83-2.55,1.25-3.81,1.89-.74.37-1.56.58-2.34.87-.46.17-.91.36-1.41.55.48.45.89.69,1.56.6,2.09-.31,4.13-.8,6.06-1.63,1.55-.66,3.07-1.39,4.58-2.14.85-.42,1.67-.91,2.48-1.4.66-.4,1.27-.85,1.98-1.33.12.4.23.73.31,1.06.09.33.22.67.2.99-.02.32-.12.74-.34.91-1.18.89-2.39,1.76-3.64,2.55-.96.62-2,1.13-3,1.69-.94.52-1.94.9-2.98,1.17-.35.09-.67.32-1.02.44-.46.16-.94.3-1.41.43-.33.09-.72.13-.68.6.04.45.48.75.96.66,1.19-.21,2.38-.42,3.55-.71.72-.18,1.4-.52,2.1-.77.42-.15.86-.23,1.27-.4.47-.2.92-.47,1.38-.72,1.55-.81,3.12-1.62,4.65-2.42.38.79.75,1.65.88,2.61.11.87.26,1.72.35,2.59.09.91.17,1.82.17,2.74.01.99-.06,1.97-.09,2.96-.01.47.02.94,0,1.41-.04.49-.12.98-.17,1.47-.07.63-.12,1.27-.2,1.9-.02.13-.15.33-.26.36-.74.21-1.48.31-2.22.19-.13-.69-.41-1.35-.9-1.92-.54-.61-1.14-.98-2.01-.81-.1.02-.17.01-.26,0-.13.07-.27.14-.44.16-.2.03-.27.09-.3.13-.02.04-.02.04-.02.03-.09.33-.26.56-.5.69-.13.26-.39.4-.95.55-.11-.44-.43-.41-.78-.32-2.18.59-4.33,1.29-6.35,2.32-.3.16-.36.3-.27.62.21.79.37,1.6.58,2.39.22.82.5,1.62.72,2.44.32,1.14.61,2.29.92,3.42.2.77.43,1.53.59,2.3.12.49.44.77.89.8.69.04,1.39.06,2.07-.02,1.83-.25,3.54-.88,5.07-1.94.15-.11.29-.22.43-.33.78-.69.8-1.04.4-1.73-.17-.3-.23-.66-.37-.98-.15-.37-.33-.72-.51-1.12.37.13.59-.03.82-.29.13-.14.28-.21.45-.25.5-.44.66-1.07.78-1.72-.05-.17-.08-.36-.09-.55.04-.02.1-.02.14-.04.47-.25.88-.59,1.34-.84.25-.15.55-.22.84-.28.08,0,.27.14.3.25.24.83.42,1.68.7,2.49.16.47.45.91.74,1.33.5.72.96,1.49,1.58,2.09.81.78,1.68,1.55,2.82,1.83.65.15,1.35.15,2.03.16.87.03,1.65-.28,2.39-.72,1.09-.65,1.75-1.58,1.83-2.88.07-1.17-.06-2.31-.6-3.35-.34-.65-.8-1.27-1.29-1.81-.56-.61-1.17-1.19-1.85-1.66-.56-.38-1.25-.58-1.89-.84-.35-.15-.72-.27-1.01-.38.07-1.1.13-2.16.21-3.21.06-.72.12-1.45.19-2.17.08-.88.17-1.76.27-2.63.11-.95.24-1.89.32-2.84.08-.87.17-1.75.13-2.62-.05-1.32-.18-2.64-.31-3.95-.08-.81-.19-1.63-.34-2.43-.2-1.07-.47-2.13-.68-3.2-.03-.17.02-.39.12-.54.23-.34.52-.64.76-.97.07-.09.01-.26.07-.38.19-.39.43-.76.61-1.16.39-.88.77-1.77,1.15-2.65.42.27-.17.97.41,1.28.04-.17.07-.29.11-.44.99,1.43,2.24,2.53,3.66,3.43.34.22.83.28,1.24.27.45,0,.94-.82.82-1.33-.26-1.12-.57-2.21-.89-3.32-.07-.25-.05-.37.16-.61.72-.78,1.64-1.15,2.62-1.39,1.08-.26,1.81-.95,2.45-1.79.28-.37.5-.78.76-1.19.59.19.97.63,1.28,1.13.37.59.72,1.19,1.04,1.81.23.44.54.78.97,1.02.85.48.97,1.28.89,2.13-.1,1.06-.24,2.12-.4,3.17-.13.86-.3,1.71-.46,2.56-.26,1.44-.31,2.87-.29,4.33,0,1.53.37,2.96.8,4.38.32,1.06.29,2.16.49,3.23.18.94.34,1.87.49,2.82.2,1.16.5,2.34.55,3.51.04,1.17.32,2.29.5,3.42.11.7.17,1.42.4,2.08.33.94.78,1.84,1.19,2.76.02.04.05.08.09.11.5.5.99,1.02,1.53,1.49.94.82,1.91,1.61,2.87,2.41.28.24.55.52.86.72.82.53.92,1.41,1.11,2.22.12.52.12,1.08.2,1.62.03.18.12.35.18.52.11.27.23.52.33.76.2.13.41.27.63.4l-.05.17c-.57,0-1.13-.01-1.7,0-.68.02-1.38.04-2.06.09-.11,0-.27.21-.29.34-.16,1.09-.28,2.18-.41,3.27-.1.8-.2,1.59-.3,2.39-.06.36-.11.73-.17,1.09-.18,1.25-.36,2.49-.53,3.74-.21,1.5-.43,3.01-.59,4.5-.07.6-.08,1.2-.1,1.81h-29.43c-17.07-12.91-28.11-33.37-28.11-56.37C10.36,42.05,42.05,10.36,81,10.36ZM80.08,119.96c-1.5.05-2.94.1-4.42.15,1.54-.91,3.02-1.79,4.55-2.69-.31.84-.73,1.63-.14,2.55ZM78.19,108.6c-.59-.3-1.22-.54-1.79-.86-.44-.26-.83-.61-1.24-.92-.62-.47-1.1-1.03-1.24-1.85-.23-1.31-.54-2.61-.53-3.98.01-1.12-.11-2.25-.17-3.4.06.07.15.13.19.22.35.73.68,1.47,1.03,2.19.5,1,.45,2.19,1.12,3.14.49.71.82,1.55,1.34,2.25.55.73,1.28,1.33,1.87,2.05.55.69,1,1.46,1.56,2.28-.81-.42-1.47-.78-2.14-1.12ZM82.76,80.32c.02-.2.1-.39.16-.62.16.09.26.12.32.18.57.54,1.13,1.07,1.77,1.56,1.17.89,2.35,1.73,3.63,2.45.25.15.45.4.71.55.69.4,1.4.76,2.09,1.15,1.05.58,2.06,1.23,3.24,1.53.78.2,1.57.42,2.36.6.99.22,1.98.45,2.98.62.43.08.61.31.65.68.04.35.04.7.07,1.05.03.25.11.5.13.74.04.69.04,1.38.09,2.07.07.85.22,1.69.27,2.54.05.77.02,1.54,0,2.31-.01.43.04.91-.11,1.3-.2.52-.25,1.04-.29,1.58-.02.38-.13.76-.26,1.12-.29.8-.64,1.57-.9,2.36-.27.84-.65,1.59-1.28,2.2-.13.12-.26.26-.33.42-.19.36-.3.75-.51,1.08-.86,1.32-1.62,2.68-2.21,4.15-.15.37-.27.76-.49,1.09-.28.44-.62.83-.95,1.24-.08.1-.2.18-.32.25-.17.11-.36.21-.59.34-.31-.46-.71-.93-.96-1.46-.27-.57-.42-1.19-.6-1.8-.34-1.17-.64-2.35-1.03-3.51-.74-2.28-2.4-3.98-3.79-5.84-.23-.3-.6-.5-.83-.79-.25-.31-.46-.66-.62-1.02-.29-.63-.65-1.27-.77-1.93-.09-.51-.15-1-.34-1.5-.48-1.21-.9-2.45-1.23-3.71-.5-1.9-.91-3.82-1.35-5.74-.25-1.07-.1-2.09.34-3.12.39-.93.68-1.92.94-2.9.1-.38,0-.8.03-1.21ZM44.62,108.4c.78.53,1.49.96,2.13,1.48.22.17.24.58.44.8.38.41.41.9.44,1.38.02.33-.16.62-.54.79-.57.25-1.18.16-1.51-.24-.5-.59-.88-1.31-1.16-2.03-.16-.4-.05-.92-.03-1.38.02-.21.11-.43.22-.81ZM36.01,110.15c-.13.39-.47.52-.84.58-.3.05-.6.07-.97.11-.56-1.37-1.16-2.83-1.77-4.31.27-.05.64.12.62-.37-.02-.44.19-.76.6-.91.13-.05.26-.06.39-.05-.14.2-.16.42-.05.64.16.29.36.61.63.79.11.07.2.15.29.24.02.05.06.09.12.13.2.23.35.49.48.81.06.15.1.29.13.44-.02.06-.05.11-.08.16-.23.33-.22.51.12.74.04.03.06.06.1.09.03.18.13.33.27.44.03.15.03.3-.03.47Z"></path>
  </g>
</svg>
