<?xml version="1.0" encoding="UTF-8"?>
<svg preserveAspectRatio="xMidYMid slice" width="60px" height="24px" xmlns="http://www.w3.org/2000/svg" id="Layer_2" viewBox="0 0 156.2 64.76">
  <defs>
    <style>.cls-1{fill:#fff;stroke-width:0px;}</style>
  </defs>
  <g id="Layer_2-2">
    <g id="tOim7A">
      <path class="cls-1" d="M36.53,36.86c-.04-2.59.43-5.12,1.37-7.58.24-.64.39-1.31.64-1.95.49-1.21,1.16-2.32,1.82-3.44.65-1.11,1.55-1.98,2.49-2.81,1.32-1.16,2.66-2.28,4.12-3.26,1.71-1.15,3.55-2.01,5.51-2.66,1.85-.61,3.72-1.18,5.63-1.57.66-.13,1.34-.16,2.01-.24.92-.12,1.85-.19,2.78-.16,2.05.06,4.1.11,6.07.73,1.28.4,2.53.91,3.61,1.75.24.19.48.37.73.55,1.17.81,2.03,1.9,2.8,3.08.52.81,1.04,1.62,1.56,2.43.51.78.78,1.65.97,2.56.35,1.64.64,3.28.72,4.96.04.84-.04,1.69-.16,2.52-.21,1.51-.48,3.01-.64,4.53-.14,1.42-.75,2.68-1.4,3.92-.61,1.17-1.21,2.35-1.95,3.44-1.2,1.76-2.63,3.31-4.27,4.68-1.12.93-2.29,1.79-3.6,2.42-1.95.94-3.88,1.95-5.94,2.63-.83.27-1.69.37-2.55.52-1.56.28-3.14.45-4.73.48-1.11.02-2.19-.18-3.28-.37-1.52-.26-3.03-.54-4.51-1-1.67-.52-3.16-1.33-4.34-2.65-.4-.45-.89-.8-1.34-1.2-.66-.58-1.25-1.22-1.74-1.96-.21-.31-.33-.65-.46-.99-.46-1.23-.94-2.44-1.23-3.72-.42-1.83-.76-3.67-.71-5.6ZM47.41,35.85c-.04.49.14,1.34.31,2.19.29,1.48.96,2.78,2.02,3.86.86.88,1.82,1.64,2.99,2.07,2.06.77,4.16.8,6.29.35,2.01-.43,3.76-1.3,5.18-2.79.91-.96,1.75-2,2.42-3.15.5-.87.88-1.81,1.14-2.78.19-.73.29-1.48.36-2.23.12-1.35.08-2.7-.13-4.04-.19-1.21-.61-2.32-1.35-3.31-.52-.69-1.17-1.25-1.79-1.85-.73-.7-1.64-1.03-2.56-1.33-1.23-.4-2.49-.32-3.73-.13-1.36.21-2.69.55-3.96,1.14-2.09.97-3.85,2.33-5.11,4.28-.83,1.29-1.35,2.71-1.75,4.18-.28,1.03-.28,2.09-.33,3.54Z"></path>
      <path class="cls-1" d="M85.02,16.51c-.03-.96,0-2.69-.13-4.41-.05-.64.06-1.28.26-1.9.09-.27.26-.51.57-.63.83-.35,1.71-.49,2.6-.61,1.45-.19,2.9-.39,4.36-.59.95-.13,1.91-.27,2.86-.4.95-.13,1.87-.38,2.8-.6,1.25-.3,2.51-.5,3.8-.61,1.26-.11,2.52-.26,3.76-.5,1.1-.21,2.2-.09,3.28.1.94.17,1.88.34,2.78.67,1.49.55,2.84,1.33,3.82,2.63.78,1.04,1.61,2.04,2.18,3.23.32.67.55,1.35.62,2.08.09,1.03.2,2.05.16,3.09-.09,2.54-.87,4.82-2.32,6.9-.64.9-1.3,1.78-2.11,2.53-.09.08-.18.16-.28.23-.47.33-.95.65-1.4,1-.54.42-1.15.71-1.77.97-.17.07-.2.15-.1.31.3.49.69.92,1.04,1.37,1.13,1.45,2.3,2.87,3.5,4.26.53.61,1.05,1.22,1.54,1.87.86,1.12,1.87,2.09,2.85,3.11.3.31.62.6.79,1.02.11.26-.03.63-.28.77-.5.28-1.06.3-1.61.38-1.63.22-3.26.45-4.9.65-1.41.17-2.8.47-4.2.74-.61.12-1.06-.08-1.42-.53-1.23-1.56-2.51-3.08-3.81-4.59-.5-.57-.92-1.19-1.33-1.83-.73-1.14-1.67-2.11-2.52-3.15-.18-.22-.39-.42-.58-.63-.14-.15-.33-.23-.51-.21-.91.09-1.84.11-2.73.34-.39.1-.65.33-.74.74-.17.81-.11,1.64-.16,2.46-.09,1.39.12,2.77.19,4.15.08,1.5.23,2.99.07,4.49-.04.34-.07.69-.41.88-.26.14-.53.25-.83.3-.76.13-1.53.21-2.3.28-.94.08-1.84.34-2.75.57-1,.25-2.02.34-3.03.45-.41.05-.82.11-1.24.1-.37-.01-.51-.1-.56-.46-.13-.87-.17-1.74-.09-2.62.1-1.13.16-2.27.25-3.4.15-1.77-.09-3.53-.14-5.3-.05-1.69-.14-3.38,0-5.07.12-1.4.11-2.81,0-4.21-.09-1.07-.08-2.15,0-3.22.03-.41.07-.81.07-1.22,0-1.74.15-3.47.1-5.97ZM107.84,19.62c0-.18.01-.36,0-.55-.06-.89-.16-1.76-.63-2.55-.36-.6-.83-1.05-1.53-1.24-.42-.11-.86-.13-1.29-.16-.95-.07-1.88.14-2.82.26-1.72.22-3.41.63-5.09,1.05-.38.09-.72.33-.8.74-.12.6-.04,1.21.03,1.81.12,1.09.28,2.18.22,3.29-.04.85-.11,1.69-.05,2.54.03.44.17.57.61.59.37,0,.75-.01,1.12-.05,1.21-.13,2.42-.17,3.61-.47,1.33-.34,2.71-.51,4-1.03.61-.25,1.19-.57,1.62-1.1.74-.92,1.02-1.99,1-3.15Z"></path>
      <path class="cls-1" d="M154.31,19.58c-.07.84.11,1.66.09,2.49-.02.6-.05,1.19-.15,1.79-.09.53-.37.86-.9.97-.57.12-1.15.1-1.74.07-1.03-.07-2.06-.22-3.09-.12-1.24.12-2.48.29-3.72.43-.72.08-1.44.07-2.16.1-1.46.06-2.93.16-4.4.15-.54,0-1.07.12-1.59.23-.31.06-.51.31-.53.66-.09,1.33-.34,2.65-.27,3.99.02.31.02.62.18.91.1.19.24.3.48.29,1.88-.08,3.76-.08,5.62-.43.99-.18,2-.21,3-.22,1.11-.01,2.22.05,3.33-.06,1.11-.11,2.23-.22,3.34-.33.81-.08,1.61-.04,2.42.04.35.03.69.06,1.04.09.49.04.74.25.77.73.13,1.75.27,3.51.06,5.27-.08.71-.11,1.42-.18,2.13-.04.45-.36.72-.8.75-1.58.09-3.15.18-4.73.3-1.73.14-3.46.21-5.2.13-.7-.03-1.38.12-2.06.22-1.72.26-3.45.47-5.19.6-1.29.1-2.58.12-3.87.15-.98.02-1.94.23-2.91.39-1.46.23-2.92.55-4.41.55-.32,0-.66.07-.97-.11-.23-.13-.33-.33-.36-.57-.17-1.01-.26-2.02-.22-3.05.03-1.04.1-2.08.17-3.12.1-1.44.11-2.88.1-4.32,0-1.13-.08-2.27-.18-3.4-.09-1.15-.03-2.3,0-3.46.05-1.61.01-3.23.02-4.84,0-.9.1-1.8.18-2.7.05-.66-.02-1.3-.05-1.95-.06-1.39-.23-2.79-.18-4.18.06-1.59.15-3.17.23-4.75.02-.39.05-.78.08-1.17.05-.61.27-.87.82-1.03.86-.24,1.73-.24,2.6-.27,1.45-.05,2.89-.24,4.32-.41,1.05-.13,2.11-.19,3.17-.18,1.4.01,2.79-.16,4.16-.39.99-.16,2-.25,3-.29,1.99-.08,3.99-.18,5.98-.25,1.02-.04,2.02-.22,3.03-.3.62-.05,1.24-.1,1.87.01.53.1.69.34.77.82.15.88.1,1.76.03,2.64-.08.95-.06,1.89,0,2.83.04.73.06,1.45-.08,2.17-.09.45-.33.7-.77.8-.59.12-1.19.14-1.79.16-1.58.05-3.16.06-4.74.1-1.08.03-2.15.15-3.21.27-1.03.11-2.06.13-3.09.16-1.1.03-2.2.05-3.3.08-.58.01-1.16.08-1.72.26-.26.09-.42.25-.47.52-.29,1.43-.3,2.88-.13,4.32.06.55.34.75.98.76,1.02.02,2.03-.07,3.03-.23.72-.12,1.45-.14,2.18-.19,1.83-.13,3.65-.24,5.47-.46,1.22-.15,2.45-.28,3.68-.35.68-.04,1.37-.03,2.05.09.41.07.66.33.7.75.11.97.24,1.95.21,2.93Z"></path>
      <path class="cls-1" d="M21.84,18.34c1.29-.03,2.5.06,3.71.17.65.06,1.29.15,1.93.25.91.14,1.75.47,2.58.86,1.67.79,3.22,1.77,4.79,2.73.41.25.65.58.56,1.1-.02.12-.06.21-.13.31-.56.85-1.23,1.62-1.98,2.31-.81.74-1.44,1.62-2.12,2.46-.27.33-.55.65-.84.96-.83.89-1.37.71-2.12.25-.84-.53-1.71-.95-2.65-1.24-1.49-.47-3.01-.62-4.57-.52-1.7.11-3.22.76-4.74,1.47-.84.39-1.63.84-2.34,1.45-.89.77-1.44,1.77-1.95,2.79-.72,1.44-1.03,2.97-1.12,4.56-.08,1.29-.1,2.59.07,3.87.19,1.44.73,2.77,1.53,4,.72,1.1,1.66,1.93,2.78,2.57.84.48,1.75.77,2.71.96,1.07.22,2.14.15,3.21.08.77-.05,1.47-.31,2.17-.6,1.77-.74,3.47-1.6,4.98-2.79.4-.31.78-.64,1.16-.97.37-.32.75-.34,1.18-.12.48.24.85.59,1.22.98,1.07,1.13,2.1,2.31,3.2,3.42.36.36.73.74,1.02,1.18.19.29.17.44-.06.69-1.44,1.57-3.05,2.93-4.85,4.07-1.07.68-2.17,1.32-3.38,1.7-1.22.38-2.45.74-3.72.97-1.91.34-3.82.59-5.76.65-1.34.04-2.66-.11-3.96-.46-.75-.2-1.53-.32-2.28-.5-1.26-.29-2.44-.77-3.51-1.52-.59-.41-1.21-.78-1.8-1.19-2.18-1.54-3.64-3.64-4.7-6.05-.64-1.45-1.08-2.98-1.63-4.47-.43-1.16-.45-2.36-.38-3.57.03-.53.08-1.05.07-1.59-.01-.89.04-1.77.14-2.65.15-1.29.42-2.56.84-3.8.52-1.55,1.16-3.04,1.98-4.46,1.05-1.83,2.36-3.44,4-4.79,2.08-1.71,4.31-3.19,6.88-4.07,1.61-.55,3.25-.97,4.95-1.16.43-.05.86-.13,1.28-.2.58-.11,1.16-.03,1.66-.1Z"></path>
      <path class="cls-1" d="M103.77,55.65c0-.42-.01-.83,0-1.25.01-.35.09-.43.45-.49.53-.09,1.06-.16,1.59-.26.81-.15,1.61-.35,2.42-.46,1.41-.18,2.43.38,2.77,1.68.32,1.27-.36,2.69-1.5,3.33-.19.1-.16.18-.05.31.59.7,1.15,1.41,1.8,2.05.09.09.23.17.17.32-.05.14-.19.14-.31.16-.68.15-1.37.24-2.04.42-.19.05-.29-.06-.39-.18-.52-.59-.98-1.21-1.47-1.82-.28-.35-.52-.39-.93-.23-.16.06-.19.18-.2.33-.03.46,0,.92.03,1.38.02.28.02.55.02.83,0,.2-.1.32-.29.34-.58.05-1.14.24-1.71.31-.39.05-.41.03-.42-.36-.02-.53.11-1.06.06-1.58-.11-.98.02-1.96-.04-2.94-.04-.62,0-1.25,0-1.87.01,0,.03,0,.04,0ZM107.95,55.12c-.27,0-1.45.24-1.68.34-.17.07-.21.2-.19.36.04.44.08.88.05,1.32-.02.29.03.32.34.29.47-.04.92-.15,1.37-.27.72-.2,1.01-.67.86-1.41-.09-.46-.29-.62-.75-.62Z"></path>
      <path class="cls-1" d="M41.55,8.61c0-.39,0-.78,0-1.17,0-.2-.08-.29-.29-.24-.79.22-1.6.38-2.41.5-.24.04-.33.19-.32.43.03.81-.03,1.61.04,2.42.03.4-.07.52-.47.58-.5.07-.99.15-1.48.26-.44.1-.5.04-.49-.42.02-.86.05-1.72.05-2.57,0-.96-.07-1.92-.02-2.89.03-.67.07-1.33-.04-2-.05-.31.07-.47.4-.53.56-.1,1.12-.23,1.68-.35.27-.06.37.03.37.31,0,.38-.04.76-.04,1.14,0,.47,0,.94,0,1.41,0,.28.06.33.33.27.49-.12.95-.31,1.46-.37.28-.03.57-.08.85-.13.32-.06.39-.16.42-.48.08-.81.01-1.61,0-2.42,0-.4.06-.51.45-.56.51-.07,1-.21,1.5-.31.35-.07.42,0,.41.35-.02,2.17-.04,4.35-.06,6.52,0,.34.03.67.05,1.01.02.37-.06.5-.42.57-.52.09-1.03.21-1.55.34-.28.07-.33.02-.36-.27-.05-.47-.06-.93-.06-1.4Z"></path>
      <path class="cls-1" d="M53.33,1.01c0,.25,0,.5,0,.75,0,.18-.1.28-.27.29-1.12.05-2.22.25-3.34.32-.54.03-.61.09-.62.63-.01.75.02.76.75.64.86-.14,1.73-.26,2.6-.37.6-.07.66,0,.66.59,0,.29.02.59,0,.88-.01.43-.08.5-.51.49-1.06-.02-2.1.26-3.15.31-.24.01-.33.14-.34.37,0,.17-.03.35-.04.52-.01.44.03.47.47.43.54-.05,1.07-.22,1.62-.22.67,0,1.32-.21,1.99-.18.24.01.33.09.35.33.04.47,0,.94-.03,1.4,0,.14-.08.21-.23.23-.71.06-1.41.15-2.12.21-.59.04-1.18.22-1.77.27-.76.05-1.48.28-2.23.36-.23.03-.32-.04-.35-.28-.08-.54.04-1.07.03-1.61-.02-.98-.04-1.96,0-2.94.04-1.08-.09-2.17.04-3.25.04-.35.08-.42.43-.45.79-.07,1.57-.19,2.34-.32,1.06-.18,2.14-.21,3.2-.4.03,0,.07,0,.1,0,.39-.02.44.02.44.41,0,.2,0,.4,0,.6,0,0-.01,0-.02,0Z"></path>
      <path class="cls-1" d="M101,55.57c0,.22,0,.43,0,.65,0,.24-.1.37-.34.41-.56.09-1.13.17-1.69.27-.52.1-1.04.16-1.57.2-.49.03-.54.08-.58.57-.01.13-.02.26,0,.39.04.38.07.42.45.36.93-.15,1.86-.32,2.79-.51.72-.14.69-.15.73.56.02.32,0,.64,0,.96,0,.22-.1.37-.33.38-1.01.05-1.97.36-2.98.43-.67.04-.63.08-.66.62,0,.17-.04.34-.03.52.02.16.09.26.27.23.21-.03.44-.02.65-.08.87-.21,1.77-.25,2.64-.46.77-.19.85-.11.86.67,0,.32-.03.64-.05.96,0,.15-.1.23-.24.26-.67.12-1.34.28-2.02.35-.49.05-.97.22-1.45.27-.85.09-1.68.25-2.52.34-.33.04-.37-.02-.39-.36-.05-.63.08-1.25.04-1.87-.04-.87-.08-1.74-.03-2.6.06-1.07-.07-2.13.03-3.2.04-.4.08-.45.5-.49.8-.08,1.61-.12,2.4-.27,1.02-.2,2.06-.27,3.07-.54.41-.11.49-.02.49.41,0,.19-.02.38-.03.57,0,0,0,0,.01,0Z"></path>
      <path class="cls-1" d="M125.29,51.08c0,.22,0,.43,0,.65.01.27-.13.39-.38.42-.51.06-1.02.12-1.52.21-.61.12-1.23.18-1.85.26-.35.04-.4.11-.43.46-.02.19,0,.38,0,.57,0,.22.11.3.31.27.69-.12,1.38-.23,2.07-.35.4-.07.79-.17,1.2-.22.21-.02.33.02.35.25.04.47.05.93.03,1.4,0,.2-.13.31-.31.32-1.05.02-2.06.36-3.11.42-.47.03-.5.07-.53.55-.01.19-.02.38-.03.57,0,.2.08.27.29.25.52-.06,1.02-.23,1.54-.26.76-.05,1.48-.31,2.24-.31.21,0,.28.06.31.27.06.48,0,.95-.03,1.43,0,.16-.11.23-.25.25-.63.09-1.26.25-1.9.29-.58.04-1.13.27-1.71.32-.81.07-1.58.29-2.38.4-.33.05-.37,0-.4-.34-.05-.58.05-1.16.05-1.74,0-.81-.09-1.61-.04-2.42.08-1.18-.05-2.36.04-3.53.03-.34.08-.44.42-.48,1.28-.15,2.55-.4,3.82-.6.62-.1,1.23-.2,1.85-.3.3-.05.35,0,.37.31,0,.22,0,.45,0,.68,0,0,0,0,0,0Z"></path>
      <path class="cls-1" d="M88.52,55.86c1,.04,1.85.13,2.63.53.36.18.39.23.2.59-.2.38-.47.71-.71,1.06-.12.17-.28.2-.48.11-.69-.33-1.42-.36-2.16-.25-.08.01-.15.04-.22.07-.32.12-.48.36-.44.65.03.25.27.48.6.49.66.02,1.31.12,1.96.26.59.13,1.16.33,1.59.77.75.75.72,1.63.4,2.54-.34.95-1.1,1.49-2.02,1.77-.92.27-1.87.41-2.83.27-.59-.08-1.1-.37-1.56-.73-.19-.15-.38-.31-.56-.47-.14-.12-.15-.26-.02-.38.33-.31.61-.66.87-1.03.13-.19.29-.18.47-.05.15.11.31.2.46.29.77.48,1.59.4,2.42.23.12-.03.24-.1.35-.17.2-.14.34-.34.29-.6-.05-.26-.21-.42-.47-.5-.36-.11-.74-.13-1.11-.13-.86,0-1.63-.26-2.35-.72-.36-.23-.58-.55-.68-.95-.19-.77-.16-1.51.24-2.22.24-.44.64-.7,1.07-.92.69-.35,1.45-.43,2.08-.51Z"></path>
      <path class="cls-1" d="M131.62,49.2c.85.02,1.67.15,2.43.57.35.19.37.25.18.6-.2.36-.46.67-.7,1-.13.18-.29.2-.5.1-.68-.34-1.4-.37-2.13-.23-.12.02-.23.07-.34.12-.26.13-.38.39-.34.65.04.22.24.38.52.43.43.08.87,0,1.3.09.66.16,1.35.25,1.94.64,1.54,1.03,1.07,3.16.02,3.95-.67.5-1.42.75-2.23.85-.59.07-1.18.2-1.78.13-.86-.1-1.55-.52-2.2-1.04-.13-.1-.13-.23-.03-.34.34-.36.63-.76.91-1.17.12-.17.27-.2.45-.07.31.21.65.37,1.01.48.66.2,1.31.05,1.95-.09.14-.03.27-.12.37-.23.33-.33.23-.82-.21-.99-.36-.14-.73-.13-1.1-.13-.62,0-1.23-.05-1.81-.29-1.15-.47-1.55-1.16-1.39-2.4.16-1.2.9-1.91,1.97-2.29.55-.2,1.12-.36,1.73-.34Z"></path>
      <path class="cls-1" d="M26.45,5.16c0-.23,0-.47,0-.7,0-.19.1-.33.3-.3.71.08,1.42-.11,2.13-.06.46.03.91-.1,1.37-.15.97-.1,1.94-.22,2.91-.39.58-.1.64-.05.63.54,0,.38-.03.76-.05,1.14,0,.2-.12.31-.31.32-.56.02-1.11.19-1.67.21-.38.02-.46.09-.46.47-.02,1.17-.03,2.34-.03,3.51,0,.74-.07,1.49.04,2.23.03.23-.05.37-.31.36-.6-.02-1.19.13-1.79.14-.22,0-.31-.07-.3-.3.03-.89.06-1.79.05-2.68,0-1.07-.05-2.13-.06-3.2,0-.23-.12-.28-.32-.25-.56.07-1.12.03-1.69.07-.37.02-.42-.05-.43-.41,0-.18,0-.36,0-.55h0Z"></path>
      <path class="cls-1" d="M116.01,55.82c-.04,1.22.04,2.59-.03,3.97,0,.18-.03.33-.24.36-.57.09-1.14.23-1.71.3-.26.03-.33-.08-.33-.29,0-.67-.04-1.33-.02-2,.03-1-.02-1.99-.03-2.99,0-.55.02-1.09.02-1.64,0-.37-.01-.75-.03-1.12,0-.19.05-.31.26-.35.61-.12,1.22-.26,1.83-.39.16-.03.24.01.25.19.06.65.02,1.3.03,1.95.01.62,0,1.23,0,2.01Z"></path>
    </g>
  </g>
</svg>
