<?xml version="1.0" encoding="UTF-8"?>
<svg preserveAspectRatio="xMidYMid slice" width="120px" height="17px" xmlns="http://www.w3.org/2000/svg" id="Layer_2" viewBox="0 0 323.09 46.93">
  <defs>
    <style>.cls-1{fill:#fff;stroke-width:0px;}</style>
  </defs>
  <g id="template">
    <g id="M51giN">
      <path class="cls-1" d="M262.24,46.93c-.9-.42-1.81-.81-2.55-1.5-.33-.3-.37-.53-.05-.86.39-.4.68-1.01,1.15-1.2.48-.19.9.46,1.39.67.89.38,1.79.33,2.7.16.41-.08.77-.33.76-.81,0-.47-.33-.73-.76-.83-.39-.09-.79-.15-1.19-.17-.63-.03-1.23-.15-1.81-.37-1.73-.65-2.25-1.39-2.2-3.12.04-1.47.86-2.49,2.42-2.93,1.81-.51,3.56-.34,5.25.52.47.24.57.52.26.95-.14.2-.3.38-.41.59-.34.62-.74.83-1.43.45-.68-.36-1.45-.36-2.21-.29-.49.04-.94.23-.96.79-.01.52.4.71.87.77.77.1,1.54.23,2.29.43,1.89.5,2.88,1.59,2.83,3.2-.06,1.75-1.24,3.01-3.14,3.34-.31.05-.65.01-.93.22h-2.27Z"></path>
      <path class="cls-1" d="M138.84,33.08c-.07,1.24.08,2.61-.08,3.98-.07.58-.31.87-.88.94-2.03.23-4.08.31-6.1.64-.74.12-1.06-.29-1.07-.96,0-.75.1-1.5.09-2.25-.01-2.42.03-4.84-.08-7.26-.12-2.6-.04-5.21-.08-7.82-.04-2.84.16-5.69.02-8.53-.02-.32-.02-.65,0-.97.03-.85.34-1.27,1.18-1.16,2.16.29,4.22-.42,6.34-.47.54-.01.91.17,1.29.53,1.82,1.74,3.15,3.89,4.87,5.7.48.51.89,1.08,1.35,1.6.85.97,1.3.94,2.09-.12.98-1.32,1.93-2.66,2.92-3.96,1.11-1.46,2.25-2.89,3.38-4.33.29-.38.63-.61,1.15-.62,1.97-.01,3.93-.13,5.89-.34,1.69-.18,1.76-.06,1.68,1.59-.2,3.95-.02,7.9.02,11.84.04,3.43.1,6.88-.18,10.31-.1,1.24.18,2.46.18,3.7,0,.78-.33,1.2-1.13,1.27-2.1.17-4.2.21-6.3.14-.45-.01-.59-.23-.64-.65-.1-.83,0-1.66,0-2.49,0-1.85.02-3.71-.09-5.56-.13-2.09.23-4.19.12-6.28-.01-.21,0-.43,0-.65-.01-.22-.05-.44-.3-.51-.27-.08-.38.12-.52.29-1.89,2.42-3.79,4.82-5.67,7.25-1.13,1.46-2.03,1.5-3.26.15-1.84-2-3.42-4.23-5.43-6.08-.19-.17-.34-.52-.64-.41-.32.12-.26.49-.28.78-.2,2.66.1,5.32.14,7.97.01.86,0,1.72,0,2.71Z"></path>
      <path class="cls-1" d="M204.64,23.41c-.06,1.58.17,3.27-.04,4.96-.13,1,.07,1.98.23,2.96.2,1.2-.1,1.68-1.31,1.81-1.93.21-3.86.37-5.79.5-1.03.07-1.34-.24-1.32-1.25.1-4.51-.16-9.02.27-13.53.12-1.23-.05-2.47-.08-3.7-.07-2.66-.11-5.31-.13-7.97-.02-2.43-.06-2.28,2.47-2.49,1.26-.1,2.53-.13,3.79-.19.4-.02.68.11.98.41,3.89,3.94,7.05,8.48,10.58,12.71.12.14.23.3.36.43.19.19.38.43.69.28.33-.16.3-.47.26-.77-.42-3.18-.25-6.37-.23-9.56,0-1.05-.09-2.09-.09-3.14,0-1.17.19-1.41,1.38-1.5,1.96-.15,3.92-.21,5.88-.32.74-.04,1.06.32,1.13,1.05.12,1.38-.09,2.74-.18,4.1-.26,3.68-.04,7.36.02,11.04.04,2.77.16,5.53-.11,8.3-.08.8.03,1.61.01,2.42-.03,1.24-.59,1.81-1.81,1.93-1.26.13-2.52.28-3.77.41-.92.1-1.79-.09-2.24-.94-1-1.88-2.54-3.32-3.84-4.97-1.89-2.41-3.72-4.87-5.74-7.18-.09-.1-.16-.22-.25-.31-.22-.22-.37-.62-.74-.53-.41.1-.29.53-.32.83-.14,1.37-.13,2.74-.05,4.22Z"></path>
      <path class="cls-1" d="M190.98,8.72c0,.83,0,1.67,0,2.5,0,.6-.28.95-.92,1-1.99.14-3.98.26-5.96.46-1.99.2-3.98.28-5.97.31-1.33.02-1.46.18-1.59,1.48-.06.62-.09,1.23-.02,1.85.11.95.31,1.15,1.29,1.08,1.4-.1,2.79-.24,4.19-.38,2.25-.23,4.5-.51,6.75-.7,1.2-.1,1.37.09,1.41,1.28.05,1.45.24,2.89.07,4.35-.08.7-.39,1.11-1.12,1.08-3.57-.14-7.07.73-10.64.62-.29,0-.59.05-.89.07-.74.04-1.01.44-1.02,1.16-.01.83-.19,1.65-.14,2.49.04.57.27.91.9.87,1.1-.09,2.22-.07,3.3-.26,1.82-.32,3.66-.09,5.48-.36,1.52-.23,3.04-.41,4.59-.34.59.03.83.26.87.8.14,1.72.06,3.44-.12,5.15-.05.46-.34.64-.76.68-1.85.18-3.7.52-5.55.52-2.18,0-4.28.56-6.43.59-2.94.05-5.85.47-8.78.64-1.18.07-1.28-.09-1.39-1.23-.2-2.08.22-4.14.14-6.2-.12-3.01-.27-6.03-.09-9.03.22-3.63-.27-7.25.11-10.87.15-1.43.2-1.55,1.68-1.61,2.64-.11,5.29-.1,7.91-.41,3.72-.44,7.47-.47,11.18-.99,1.39-.19,1.55,0,1.56,1.39,0,.67,0,1.34,0,2.01-.02,0-.04,0-.06,0Z"></path>
      <path class="cls-1" d="M278.9,29.12c-1.21-.08-2.44.09-3.67.2-.71.07-1.11-.22-1.33-.87-.31-.89-.69-1.75-.97-2.65-.24-.77-.68-1.1-1.51-1.13-3.45-.11-6.9.01-10.34.2-.27.01-.54.04-.81.04-.69,0-1.1.32-1.31.97-.3.92-.61,1.83-.93,2.75-.35,1-.75,1.29-1.79,1.29-1.86-.02-3.72.02-5.56.31-.91.15-1.41-.45-1.1-1.33.38-1.09.85-2.15,1.31-3.2,3.12-7.11,6.25-14.21,9.37-21.32.31-.71.66-1.42.89-2.16.27-.87.87-1.16,1.69-1.23,2.07-.17,4.15-.19,6.22-.25.87-.03,1.41.29,1.65,1.18.38,1.47,1.26,2.72,1.86,4.1,1.71,3.91,3.36,7.85,5.06,11.76,1.2,2.76,2.81,5.32,3.9,8.14.22.58.48,1.14.69,1.72.34.9.05,1.4-.93,1.47-.78.06-1.56.01-2.38.01ZM266.47,17.9s0,.03,0,.04c.43,0,.86,0,1.29,0,1.02-.02,1.37-.48,1.06-1.45-.6-1.83-1.23-3.65-1.83-5.48-.17-.51-.44-.87-1-.9-.6-.04-.93.34-1.13.85-.72,1.84-1.45,3.69-2.15,5.54-.43,1.15-.08,1.59,1.18,1.55.86-.03,1.72-.1,2.57-.15Z"></path>
      <path class="cls-1" d="M236.18,20.5c-.1-3.65-.21-7.17-.28-10.69-.01-.69-.38-.86-.93-.76-1.81.32-3.66.08-5.48.36-.32.05-.65.02-.97.02-.58,0-.89-.27-.91-.88-.06-1.45,0-2.89-.08-4.35-.07-1.2.28-1.43,1.48-1.48,4.22-.2,8.43-.4,12.64-.76,2.84-.25,5.7-.35,8.55-.52,2.34-.14,2.52.02,2.42,2.33-.05,1.13-.07,2.25-.14,3.38-.06.91-.31,1.2-1.19,1.15-1.92-.11-3.82.24-5.73.2-1.16-.03-1.32.19-1.45,1.33-.25,2.09.12,4.19-.05,6.28-.29,3.57.05,7.15-.13,10.72-.05.9.16,1.82.25,2.73.07.79-.2,1.23-.95,1.15-2.11-.21-4.19.33-6.29.2-.96-.06-1.11-.14-1.01-1.18.29-3.11.03-6.23.26-9.21Z"></path>
      <path class="cls-1" d="M294.89,7.12c-.03,2.28-.03,4.57.13,6.85.16,2.21-.16,4.4-.16,6.61,0,1.24.08,1.4,1.28,1.38,3.5-.04,7-.07,10.5-.37,1.98-.17,2.14,0,2.15,1.95,0,1.29.06,2.58.04,3.87-.02.94-.27,1.15-1.23,1.21-1.54.1-3.07-.14-4.61-.16-2.27-.03-4.53.07-6.78.27-.88.08-1.77-.06-2.66-.09-1.81-.07-3.61.19-5.41.19-1.24,0-1.5-.25-1.41-1.47.32-4.18.13-8.37.21-12.56.07-4.22-.14-8.44-.23-12.66-.04-1.87.17-2.19,2.03-2.09,1.76.09,3.5,0,5.25-.05.59-.01.92.18.91.83-.01,2.1,0,4.19,0,6.29Z"></path>
      <path class="cls-1" d="M103.78,31.4c.07,1.1.13,2.2.2,3.3.02.29.05.59.05.88-.02,1.06-.16,1.22-1.23,1.2-1.32-.03-2.62.27-3.95.26-.8,0-1.07-.3-1.02-1.04.12-1.9.15-3.8.12-5.71-.07-4.4,0-8.8.03-13.2,0-.98.24-1.19,1.36-1.25,1.61-.07,3.24-.03,4.84-.19,1.58-.15,3.17-.23,4.75-.28,2.49-.08,4.61.61,6.24,2.68,2.44,3.09,1.38,8.33-2.51,10.14-.59.28-.56.47-.22.92,1.48,1.91,2.91,3.87,4.54,5.66.21.23.54.45.35.82-.15.3-.5.28-.79.3-1.64.13-3.28.21-4.91.36-.61.06-.94-.23-1.26-.67-1.26-1.71-2.52-3.42-3.8-5.11-.49-.65-1.57-.94-2.29-.65-.29.11-.4.34-.41.63-.01.32-.03.64-.04.96-.02,0-.03,0-.05,0ZM103.98,23.29s-.04,0-.06,0c0,.48,0,.96,0,1.45,0,.39.2.58.6.6,1.51.08,3.02,0,4.48-.38,1.17-.3,1.66-1.27,1.49-2.75-.17-1.46-.72-2.05-2.03-2.13-1.27-.07-2.52.07-3.78.21-.72.08-.96.47-.87,1.15.08.61.11,1.23.17,1.84Z"></path>
      <path class="cls-1" d="M23.87,24.09c-1.29.05-2.59.06-3.88-.04-1.05-.08-1.21.08-1.31,1.13-.19,1.96-.02,2.14,1.94,2.09,2.1-.05,4.2-.09,6.3-.3.08,0,.16,0,.24,0,1.3-.02,1.49.12,1.58,1.41.06.86.03,1.72.03,2.58,0,.65-.28,1.04-.98.97-2.5-.24-5,.18-7.51-.04-1.39-.12-1.4-.07-1.6,1.3-.28,1.87-.16,2.06,1.67,1.99,2.4-.08,4.79.03,7.19-.14,2.19-.16,2.21-.06,2.22,2.1,0,.72-.09,1.45-.13,2.17-.02.47-.28.62-.73.65-1.7.09-3.39.15-5.09.13-1.34-.02-2.7.22-4.03.14-1.94-.11-3.87.06-5.81.03-.97-.02-1.07-.15-1.14-1.14-.08-1.35.09-2.68.1-4.03.02-2.15-.21-4.3-.06-6.44.2-2.87-.18-5.74.09-8.61.08-.8.39-1.06,1.1-.99,1.59.17,3.18.12,4.76.1,3.04-.04,6.09.02,9.12-.24,1.09-.09,1.33.11,1.34,1.21,0,.97-.04,1.94.01,2.9.05.81-.38,1.05-1.06,1.06-1.46.01-2.91,0-4.37,0Z"></path>
      <path class="cls-1" d="M86.52,21.86c-.83,0-1.67,0-2.5,0-.45,0-.66.24-.71.7-.31,2.83,0,2.57,2.34,2.38,2.2-.18,4.4-.36,6.6-.55.67-.06.96.19,1.02.89.09.99.08,1.99.08,2.98,0,.71-.29,1.1-1.08,1.06-2.62-.14-5.2.48-7.82.31-.77-.05-1.1.29-1.18,1.13-.2,2.24-.24,2.31,2,2.15,2.28-.16,4.57-.28,6.85-.44,2.54-.17,2.14-.24,2.22,2.07.02.67-.1,1.34-.11,2.01-.02.55-.32.77-.81.78-1.69.05-3.37.36-5.08.31-1.45-.04-2.88.43-4.34.36-1.84-.09-3.65.24-5.48.33-.81.04-1.09-.3-1.12-1.08-.05-1.4.12-2.79.11-4.19-.02-2.17-.15-4.35-.04-6.52.14-2.76-.23-5.53.08-8.29.12-1.05.14-1.13,1.2-1.14,4.23-.04,8.44-.41,12.66-.65.56-.03,1.12-.11,1.69-.17.56-.05.78.22.77.76-.01,1.13-.01,2.26,0,3.39,0,.62-.24.93-.9.97-2.15.11-4.3.26-6.45.39,0,.02,0,.04,0,.05Z"></path>
      <path class="cls-1" d="M62.34,18c1.52.09,3.21-.06,4.91-.14,3.1-.15,5.9,2.02,6.78,5.03.69,2.36.57,4.57-.84,6.62-1.43,2.08-3.52,3.09-5.95,3.5-1.52.26-3.07.13-4.59.3-.57.06-.84.24-.9.87-.12,1.29-.1,2.58-.1,3.87,0,.71-.31,1.04-1,1.07-1.26.05-2.53.11-3.79.17-.73.04-1.12-.28-1.12-1.03,0-.24-.02-.48-.02-.73,0-5.99.01-11.98.03-17.97,0-1.11.17-1.26,1.25-1.31,1.72-.08,3.45-.15,5.35-.24ZM61.67,25.4c.04.78.1,1.56.11,2.33,0,.4.2.61.57.63,1.49.1,2.97.03,4.4-.42,1.17-.38,1.8-1.53,1.68-2.82-.11-1.25-.76-1.86-2.11-2.17-.82-.19-1.61.07-2.41.06-2.48-.03-2.36-.19-2.25,2.39Z"></path>
      <path class="cls-1" d="M36.54,18.98c1.78-.59,2.73.28,3.44,1.76.61,1.28,1.36,2.5,2.07,3.74.63,1.1.69,1.11,1.35-.02.92-1.58,1.83-3.16,2.67-4.78.43-.83,1.01-1.18,1.93-1.13,1.29.07,2.59.02,3.88-.05.36-.02.84-.17,1.04.22.19.37-.17.71-.38,1-1.98,2.66-3.57,5.57-5.41,8.32-.9,1.34-.62,1.14.1,2.14,2,2.77,3.82,5.67,5.88,8.4.16.21.35.46.21.74-.14.3-.47.23-.72.2-1.51-.14-3.01.13-4.52.14-.74,0-1.24-.2-1.62-.8-1.02-1.62-2.04-3.23-3.07-4.84-.65-1.01-.65-1.02-1.27-.02-1.1,1.78-2,3.68-3.3,5.35-.37.48-.75.69-1.35.67-1.51-.05-3.02-.19-4.52.07-.24.04-.57.16-.75-.12-.17-.28.09-.5.23-.71,2.06-3.06,4.12-6.11,6.21-9.15.35-.51.4-.87.02-1.41-2.01-2.92-3.88-5.95-5.94-8.83-.39-.55-.25-.84.43-.86,1.13-.02,2.26,0,3.37,0Z"></path>
      <path class="cls-1" d="M126.06,23.85c-.09,3.52.11,7.04-.12,10.56-.04.6-.19.87-.83.88-1.29.03-2.59.1-3.87.21-.85.08-1.08-.32-1.08-1.08,0-1.69-.04-3.38-.02-5.08.04-2.71-.11-5.43-.1-8.14,0-1.96.09-3.92-.02-5.88-.03-.47.15-.77.68-.81,1.5-.11,3.01-.22,4.51-.36.53-.05.72.15.75.66.17,2.39.07,4.78.1,7.17,0,.62,0,1.24,0,1.85Z"></path>
      <path class="cls-1" d="M283.48,40.79c0-1.51.02-3.01,0-4.52-.01-.57.16-.84.77-.84,1.7,0,3.4-.11,5.09-.07,1.47.04,2.57.77,3.14,2.15.52,1.27.33,2.47-.53,3.56-.15.19-.33.36-.52.5-.85.63-.86.63-.2,1.5.55.73,1.12,1.44,1.68,2.17.11.15.29.29.21.49-.08.22-.31.17-.49.18-.73.02-1.46.01-2.18.06-.41.02-.65-.18-.86-.48-.57-.82-1.16-1.62-1.72-2.44-.28-.41-.63-.6-1.1-.47-.5.15-.37.6-.37.95,0,.67.04,1.34.08,2.01.02.37-.14.54-.52.55-.59,0-1.19.02-1.78.05-.63.04-.77-.28-.76-.84.03-1.5,0-3.01,0-4.52.02,0,.03,0,.05,0ZM286.47,39.03c.06,1.37.06,1.38,1.42,1.32.32-.01.64-.05.95-.1.71-.13.97-.61.94-1.28-.04-1-.53-1.32-1.96-1.29-1.4.02-1.41.03-1.35,1.35Z"></path>
      <path class="cls-1" d="M12.32,8.11c0-1.56.02-3.12,0-4.67,0-.54.21-.73.71-.71.27.01.54,0,.81-.01,1.54-.11,1.54-.12,1.5,1.47-.02.67,0,1.34,0,2.02,0,.42.21.63.6.54.85-.2,1.72-.13,2.58-.13.52,0,.74-.24.75-.72.01-.83.09-1.67,0-2.5-.08-.83.24-1.07,1-.99.21.02.43.01.65,0,1.29-.11,1.27-.11,1.26,1.22,0,2.87,0,5.74.02,8.61,0,.61-.2.84-.79.8-.24-.02-.49,0-.73.01-1.36.12-1.37.13-1.47-1.24-.05-.69.07-1.39,0-2.09-.05-.51-.26-.62-.71-.6-.83.05-1.67.07-2.5.08-.49,0-.66.23-.65.7.03.89,0,1.77.03,2.66.02.58-.16.85-.77.82-.48-.03-.97-.02-1.45.02-.65.06-.84-.21-.82-.84.04-1.48.01-2.95.01-4.43,0,0,0,0-.01,0Z"></path>
      <path class="cls-1" d="M30.11,1.94c1.13,0,2.26.01,3.39,0,.43,0,.65.1.64.58-.03,2.41.28,1.94-1.85,2-.94.03-1.89.08-2.83.06-.69-.01-.69.41-.71.89-.03.57.23.78.77.74,1.1-.07,2.21-.1,3.31-.2.71-.07,1.02.14,1.05.9.05,1.55.08,1.54-1.51,1.56-.94,0-1.89.07-2.83.05-.77-.02-.75.48-.79,1.02-.05.6.26.74.78.72,1.32-.04,2.64-.05,3.96-.12.72-.04.99.25.94.93-.02.24-.03.48-.03.72,0,.63-.28.87-.94.88-2.23.03-4.47.11-6.7.2-.61.02-.97-.11-.96-.82.05-3,.07-6,.09-9.01,0-.71.26-1,1.01-.95,1.07.06,2.15.02,3.23.02,0-.05,0-.11,0-.16Z"></path>
      <path class="cls-1" d="M302.61,40.23c0-1.5,0-3.01,0-4.51,0-.62.21-.88.91-.88,2.13,0,4.25-.05,6.38-.16.79-.04.97.23.92.96-.11,1.62-.08,1.61-1.76,1.63-.94,0-1.88.14-2.82.03-.67-.08-.75.36-.77.85-.02.5.16.84.74.79,1.05-.09,2.1,0,3.14-.16,1.01-.15,1.18.03,1.23,1.04.01.27,0,.54,0,.81-.01.42-.2.63-.65.62-1.18-.01-2.37.05-3.55,0-.85-.04-.88.5-.93,1.08-.05.71.45.69.92.68,1.21-.04,2.42-.1,3.63-.14.97-.03,1.07.07,1.08,1.03.02,1.37-.08,1.47-1.41,1.51-2.04.07-4.09.1-6.13.21-.76.04-.99-.24-.98-.96.04-1.48.01-2.95.01-4.43.01,0,.03,0,.04,0Z"></path>
      <path class="cls-1" d="M275.84,46.42c-1.08.05-2.15-.05-3.23.11-.5.08-.94-.02-.94-.68.02-3.09.06-6.17.07-9.26,0-.68.31-.84.94-.85,2.18-.02,4.36-.08,6.55-.15.58-.02.77.2.75.75-.06,1.79-.05,1.79-1.88,1.82-.86.02-1.72.14-2.58.03-.67-.09-.92.23-.92.87,0,.62.24.86.87.81,1.07-.09,2.15-.08,3.23-.19.77-.07,1.01.25.99.96-.04,1.23.3,1.69-1.44,1.5-.96-.1-1.94.07-2.91.04-.85-.03-.68.58-.75,1.04-.08.53.19.71.71.68,1.24-.08,2.48.02,3.71-.13.38-.05.96-.15,1.07.3.16.66.22,1.39-.1,2.05-.1.2-.39.13-.6.14-1.18.06-2.36.11-3.55.16Z"></path>
      <path class="cls-1" d="M323.09,41.9c.02,1.23-.46,2.21-1.53,2.83-1.59.93-5.29,1.38-7.15-.45-.46-.45-.66-.77-.08-1.2.41-.31.5-1,1.03-1.07.47-.06.84.42,1.27.63.88.42,1.79.35,2.69.2.45-.07.84-.36.83-.85,0-.49-.4-.75-.85-.84-.55-.1-1.12-.17-1.68-.21-.49-.04-.95-.17-1.4-.35-1.6-.67-2.07-1.34-2.04-2.91.03-1.49.68-2.47,2.15-2.98,1.87-.64,3.7-.5,5.48.39.5.25.62.54.28,1-.18.24-.36.47-.52.72-.3.49-.64.61-1.2.33-.73-.37-1.55-.43-2.37-.32-.5.07-.94.25-.91.82.03.56.5.74.99.75.88.02,1.7.27,2.52.51,1.61.48,2.48,1.55,2.48,2.98Z"></path>
      <path class="cls-1" d="M6.12,9.68c0,1.13-.02,2.25,0,3.38.01.47-.16.62-.61.6-.54-.02-1.08-.04-1.61.01-.66.06-.8-.23-.79-.84.03-2.17,0-4.34.01-6.52,0-.61-.17-.92-.84-.81-.23.04-.48,0-.72-.02C.06,5.39.1,5.39,0,3.92c-.04-.68.18-.87.85-.88,2.47-.02,4.95-.1,7.42-.17.98-.03,1.08.06,1.01,1.02q-.1,1.46-1.57,1.51-1.65.05-1.61,1.7c0,.43,0,.86,0,1.29,0,.43,0,.86,0,1.29,0,0,0,0,0,0Z"></path>
      <path class="cls-1" d="M298.96,40.47c0,1.5-.02,3.01.01,4.51.01.61-.22.78-.8.78-2.1.02-2.11.04-2.12-1.99-.01-2.58.01-5.16-.02-7.74-.01-.73.24-.99.97-1,2.01-.03,2.01-.05,2.02,1.97,0,1.16,0,2.31,0,3.47-.02,0-.03,0-.05,0Z"></path>
    </g>
  </g>
</svg>
