<?xml version="1.0" encoding="UTF-8"?>
<svg preserveAspectRatio="xMidYMid slice" width="45px" height="68px" xmlns="http://www.w3.org/2000/svg" xmlns:xlink="http://www.w3.org/1999/xlink" id="Layer_2" viewBox="0 0 454.19 682.75">
  <defs>
    <style>.cls-1{clip-path:url(#clippath);}.cls-2,.cls-3,.cls-4,.cls-5,.cls-6,.cls-7,.cls-8,.cls-9{fill:none;}.cls-2,.cls-10,.cls-11,.cls-12,.cls-13,.cls-14,.cls-15,.cls-16{stroke-width:0px;}.cls-3{stroke-width:.72px;}.cls-3,.cls-5,.cls-6,.cls-7{stroke-linecap:round;stroke-linejoin:round;}.cls-3,.cls-5,.cls-7,.cls-8{stroke:#2d2a26;}.cls-4{stroke:#a4a7a9;stroke-width:.23px;}.cls-4,.cls-8,.cls-9{stroke-miterlimit:10;}.cls-5{stroke-width:1.22px;}.cls-17{clip-path:url(#clippath-1);}.cls-6{stroke:#b6b8ba;}.cls-6,.cls-7,.cls-8{stroke-width:.52px;}.cls-10{fill:#2d2a26;}.cls-11{fill:#2e2a25;}.cls-12{fill:#ce0e2d;}.cls-13{fill:#a5bac9;}.cls-14{fill:#b6b8ba;}.cls-15{fill:#fff;}.cls-16{fill:#ffcd00;}.cls-9{stroke:#fff;stroke-width:.47px;}</style>
    <clipPath id="clippath">
      <path class="cls-2" d="M181.36,170.84c2.63,4.72,6.23,11.19,8.01,17.61,2.1,7.58,7.15,21.29,9.3,27.14l.61,1.65,2.66,7.89,17.39,14.12-.35,7.89c1.28-.3,2.68-.58,3.9-.75.54-.08,1.08-.12,1.65-.12,4.03,0,7.95,2.12,12.71,6.89,2.95,2.95,5.56,3.39,6.85,3.39.42,0,.68-.05.69-.05h0s.71-.19.71-.19l2.16.51c2.3.04,14.6.51,22.53,5.85l2.12,1.43c5.96,4,6.45,4.33,8.79,7.17,1.81,2.19,2.95,4.64,3,4.74l.09,1.21-.18,1.41c-.28.55-1.07,2.45.74,3.98,1.55,1.31,2.47,1.92,2.95,2.19l1.42.72,1.41,1.92c.02.1,1.49,10.22,3.09,15.56,1.61,5.39,3.98,11.22,4,11.27l.78,1.91,3.52,16.19-2.67,9.47s18.56-8.27,42.84-7.67c18.21.45,19.23,3.46,19.23,3.46,0,0-2.09,4.69-1.85,7.61.24,2.91,4.37,3.4,4.37,3.4,0,0-3.4,5.59,2.67,6.8,0,0-1.7,5.59,5.59,5.59,0,0,0,2.19,4.86,2.67l4.86.49-1.46-3.64-1.7-.49v-3.64s2.43,1.21,5.1-.73c2.67-1.94,1.5-2.47,3.68-3.2.44-.15,1.37-1.2,2.36-1.37l.53-.87,2.25-1.53c.1-.07,2.39-1.67,2.52-5.43l.06-2.09c.09-3.63.12-4.99,2.36-7.23.34-.34.87-.91,1.56-1.64,2.66-2.82,7.62-8.07,12.31-11.94,6.62-5.47,25.74-21.99,29.56-26.8,3.29-4.15,4.12-9.84,4.56-12.9l.16-1.06c.5-3.12,2.05-7.66,3.24-10.36.7-1.57-.24-3.2-2.51-4.36-3.17-1.62-5.95-4.01-7.97-5.76-.85-.74-1.66-1.44-2.11-1.73-2.38-1.55-5.63-4.19-6.44-9.25-.77-4.81-3.76-8.84-8.91-11.99-7.33-4.49-13.48-8.77-13.54-8.81l-.81-.56-.3-.94c-.02-.06-1.3-5.72-7.73-10.61-3.24-2.46-7.98-5.41-10.87-6.33-2.89-.92-4.64-1.16-6.41-1.52-1.02-.21-3.31.18-4.82.76-2.69,1.04-4.76,2.93-4.76,2.93l-.23-.35c-.42-.33-1.61-1.19-2.91-1.19-.65,0-1.2.22-1.73.7l-3.04,2.75-14.04,9.75-5.87,7.83-27.4,4.4-1.93-1.28-2.53,1.03c-.34.14-1.29.46-2.86.46-2.49,0-5.28-.77-8.28-2.3-.94-.48-1.83-.96-2.68-1.42-3.9-2.11-6.71-3.63-12.37-3.63-.58,0-1.18.02-1.81.05-4.91.26-5.85.47-10.1,1.8l-1.74.53-1.26-1.31c-.06-.06-6.2-6.32-17.42-8.12-1.48-.24-2.92-.36-4.3-.36-5.44,0-8.3,1.87-8.3,1.87l-2.81,1.99-1.52-3.09c-.07-.13-6.75-13.49-23.31-26.87l-3.47-2.8c-14.91-12.03-18.92-15.26-18.02-22.01.56-4.19-.19-6.07-.18-6.07h0s-.79-1.49-.79-1.49l.89-1.43c.08-.13,1.92-3.08,3.12-4.59.16-.4.23-1.97-.15-4.06l-.26-1.41,1.78-2.09h.14c.16-.42.38-1.13.58-2.26.22-1.27.44-2.29.62-3.12.18-.86.39-1.84.25-2.27-.91-1.36-5.53-6.15-7.05-7.55-.05.06-2.01,2.55-2.01,2.55l-2.31-1.89c-.98-.8-2.82-2.15-3.63-2.5-.23-.09-.45-.2-.66-.3-.32-.15-.61-.29-.74-.29-.1,0-.68.05-2.17,1.06-.92.62-1.67,1.11-2.3,1.52-1.86,1.21-2.02,1.33-2.33,1.97s-.43,1.08-.54,1.57c-.14.61-.33,1.45-.94,2.31l-.17.25c-.36.51-1.32,1.86-1.43,2.51-.28,1.6-.97,2.36-1.6,2.96-.22.2-.35.33-.59.75-.58,1.01-.51,1.57-.47,1.98.08.67.24,3.01-.75,4.96l.27.29c5.77,6.26,9.36,10.86,10.68,13.66.52,1.1,1.33,2.56,2.29,4.27ZM385.83,309.52l.37-.62c.05-.09,5.42-9.15,7.85-14.55.49-1.09,1.06-2.14,1.67-3.23,2.41-4.36,5.14-9.3,3.64-23.08l-.75-6.94,5.49,4.32c1.73,1.36,7.01,5.02,10.74,5.69l4.82.86-3.03,3.85c-.05.07-5.38,6.86-10.76,17.27-3.99,7.72-8.66,15.77-11.46,20.58-1.07,1.84-1.8,3.1-2.01,3.51-1.12,2.23-2.69,2.56-3.52,2.56l-1.5-.11-.87-.91c-.7-.74-1.05-1.77-1-2.92l.33-6.27Z"></path>
    </clipPath>
    <clipPath id="clippath-1">
      <path class="cls-2" d="M282.84,226.25l-10.23,2.08-7.82-5.74-10.14,13.55,13.64,8.07s9.23-3.08,9.4-3.58,5.16-14.39,5.16-14.39Z"></path>
    </clipPath>
  </defs>
  <g id="Layer_1-2">
    <g id="character">
      <path class="cls-14" d="M369.51,681.71c-6.92,0-10.76-1.78-12.47-2.89-.13.18-.31.32-.53.39-.11.03-.21.05-.32.05-.17,0-.33-.04-.48-.12-3.84-1.99-3.75-8.15-3.75-8.41,0-.42.27-.79.66-.95l.97-.39c-.51-2.32-.35-5.46,1.48-8.26,1.26-1.93,2.42-4.95,2.97-6.48-2.22-.86-3.26-1.97-3.26-3.46,0-.77,0-3.13.38-5.77.16-1.13.12-2.4.07-3.62-.05-1.44-.1-2.8.2-3.85.5-1.74,1.31-5.64,1.43-7.48.02-.38.02-.61.02-.76-.15-.04-.31-.1-.49-.17-.15-.06-.34-.14-.56-.23-1.11-.44-2.97-1.17-4.86-2.43-1.6-1.06-1.98-2.36-1.9-3.36-.89-.37-2.17-1.1-3.24-2.5-1.44-1.89-1.56-4.07-.35-6.49.3-.59.44-2.21.57-3.63.08-.96.17-1.95.31-2.8.17-1.04.07-1.81-.05-2.63-.1-.76-.21-1.55-.08-2.48.5-3.5.54-10.1.11-19.62-.58-13.08-2.15-32.77-2.93-40.05-.24-2.24-.36-4.13-.47-5.79-.22-3.38-.36-5.6-1.27-7.58-1.26-2.73-1.27-7.28-1.29-13.57,0-1.61,0-3.35-.03-5.2-.08-5.46-.56-8.47-1.37-13.46-.49-3.05-1.11-6.85-1.8-12.35-1.47-11.59-2.32-37.66-2.6-47.37-3.16,5.58-9.56,17.13-12.76,24.77-4.62,11.04-8.75,25.92-9.22,33.17-.48,7.62,2.47,16.35,5.08,24.06,2.4,7.08,6.57,26.7,9.06,38.43l.88,4.13c1.3,6.07,3.92,14.14,6.44,21.95,1.71,5.29,3.33,10.29,4.43,14.32,2.75,10.12,1.02,14.88.95,15.08-.15.39-.51.65-.92.67l-.6.04c.32,1.32,0,2.55-.37,3.42.27.18.46.47.48.81,0,.02.13,1.83.6,4.67.06.39.15.82.23,1.29.61,3.23,1.53,8.1-.34,11.61-2.23,4.18-7.54,4.7-12.69,5.2-.29.03-.56.04-.82.04-2.48,0-3.77-1.18-4.52-2.28.03.88,0,2.02-.35,3.41-.92,3.68-3.69,6.14-9.9,8.78-5.26,2.24-15.83,6.16-22.09,6.68-.56.05-1.15.07-1.76.07-5.94,0-12.39-2.16-14.37-3.25-2.21-1.23-4.61-2.79-4.71-2.85-.35-.23-.53-.65-.46-1.06l.86-4.89c1.07-4.12,2.97-5.37,6.76-7.85,1.55-1.01,3.48-2.28,5.88-4.06,6.35-4.74,8.5-12.06,9.08-14.58-.46-.12-1.07-.25-1.69-.3-1.33-.11-1.81-.83-1.98-1.25-.34-.86-.01-1.9.92-2.94.9-1,1.64-2.82.83-13.9-.89-12.26-2.52-28.87-7.19-48.76l-.42-1.8c-4.5-19.16-6.56-27.91-10.82-43.79l-.57-2.13c-3.5-12.98-3.52-13.25-1.33-28.8.2-1.43.42-2.99.66-4.71,2.75-19.93,16.8-64.43,18.52-69.81-.54.08-1.13.13-1.75.13-2.09,0-4.23-.48-6.02-1.35-2.53-1.23-5.24-3.78-8.05-7.58-1.42-1.91-1.7-4.86-2.09-8.93-.1-1.01-.2-2.1-.33-3.27-.62-5.62.38-16.01,2.25-23.16.55-2.11,1.02-4.52,1.51-7.07,1.06-5.47,2.16-11.12,4.25-14.58.83-1.37,1.52-2.68,2.19-3.95,1.45-2.75,2.82-5.35,5.38-8.29,3.06-3.52,7.49-6.73,9.09-7.84-.42-1.85-1.64-7.07-2.97-11.53-1.44-4.83-2.73-12.96-3.11-15.42-1.06-.4-2.58-1.43-4.52-3.07-3.25-2.76-2.77-6.44-1.91-8.41-.36-.7-1.16-2.14-2.23-3.44-1.98-2.39-2.09-2.47-7.95-6.4l-2.12-1.43c-7.58-5.11-20.53-5.18-20.66-5.18-.08,0-.16,0-.24-.03l-1.53-.36c-.29.05-.78.12-1.44.12-1.91,0-5.7-.59-9.66-4.55-5.07-5.07-7.95-5.72-9.9-5.72-.36,0-.72.03-1.1.08-2.9.4-7.26,1.63-7.3,1.64-.09.03-.19.04-.29.04-.24,0-.48-.08-.67-.24-.27-.22-.41-.55-.38-.9l.08-1,.39-8.8-16.49-13.39c-.15-.12-.27-.29-.33-.48l-2.93-8.7-.57-1.55c-2.35-6.4-7.26-19.71-9.4-27.45-1.65-5.96-5.12-12.19-7.65-16.73-1-1.79-1.86-3.34-2.41-4.52-.78-1.67-3.15-5.21-9.99-12.64l-.29-.32c-1.18-1.3-1.42-2.84-.66-4.35.46-.92.47-2.22.4-2.85-.08-.68-.25-2.27.97-4.4.53-.93.97-1.35,1.3-1.66.3-.28.34-.32.42-.76.27-1.53,1.42-3.15,2.1-4.12l.16-.23c.15-.22.21-.45.32-.92.13-.58.32-1.38.86-2.46.82-1.65,1.73-2.24,3.73-3.53.61-.39,1.34-.87,2.22-1.47,1.75-1.2,3.16-1.75,4.41-1.75,1.01,0,1.77.35,2.43.67.17.08.34.16.52.23,1.16.49,2.82,1.69,3.8,2.44.95-1.04,1.71-1.48,2.53-1.48s1.43.48,1.96.91l.24.19c1.18.93,7,6.89,8.26,8.78,1.11,1.67.85,2.89.33,5.32-.17.8-.38,1.76-.59,2.97-.54,3.06-1.37,4.48-2.12,5.1.24,1.59.54,4.76-.63,6.29-.9,1.17-2.16,3.12-2.72,3.99.37,1.06.93,3.55.35,7.86-.58,4.39,2.12,6.72,16.57,18.38l3.48,2.81c14.81,11.97,21.96,23.78,23.85,27.22,1.53-.77,4.75-2.01,9.58-2.01,1.59,0,3.25.14,4.93.41,10.93,1.75,17.44,7.19,19.2,8.84,4.06-1.26,5.41-1.52,10.48-1.79.71-.04,1.38-.06,2.02-.06,6.67,0,10.19,1.91,14.26,4.12.82.45,1.68.91,2.59,1.37,2.46,1.25,4.35,1.7,5.65,1.83l-.12-.1c-.86-.74-1.69-1.63-1.33-2.61.1-.28.46-.92,1.57-.92.5,0,1.13.12,1.87.37.18.06.4.09.67.09.97,0,2.23-.38,3.15-.73-3.32-6.85-4.3-15.21-4.56-18.34-.09,0-.19.01-.28.01-1.15,0-1.93-.57-2.38-1.12-.86-.08-2.45-.35-3.64-1.3-1.15-.92-1.48-2.31-1.56-3.22-1.07-.41-1.72-1.19-2.07-1.79-.13,0-.27.01-.42.01-2.67,0-4.6-1.42-5.29-3.88-.84-3.02.76-4.91,2.34-5.84-2.05-3.06-1.89-5.39-1.36-6.85-7.33-.49-22.22-3.59-32.98-6.48-12.73-3.42-16.32-8.55-19.48-13.07-2.69-3.85-1.84-7.41-1.22-10.02.19-.79.35-1.47.39-2.03l.03-.4c.17-2.88.42-7.23,10.54-12.47,9.85-5.1,20.94-6.65,22.02-6.8.98-.25,12.4-3.19,23.1-4.5,4.44-.55,8.5-.97,12.44-1.39,5.92-.62,11.51-1.21,17.25-2.09,1.32-.2,2.67-.31,4.01-.31,6.76,0,11.65,2.56,12.91,3.3.99-.08,4.13-.33,8.93-.71,2.91-.23,5.91-.46,10.17-.46,4.76,0,10.61.3,17.88.92,16.6,1.42,21.01,2.85,27.98,5.48,7.5,2.82,8.54,6.69,7.97,8.53-.11.35-.13.76-.17,1.33-.06,1-.15,2.37-.74,4.59-.78,2.98-3.17,8.07-14.83,17.78-4.62,3.85-14.4,9.28-34.71,13.22l-.61.12c-2.66.53-2.7.9-2.74,1.36-.06.67-.03,2.24,0,3.1,2.05,2.64,2.92,4.93,2.6,6.81-.11.65-.35,1.15-.61,1.52.37.6.49,1.18.37,1.73-.05.21-.13.4-.23.56,1.57,2.76.85,4.84.31,5.81.7,1.96-.17,4.06-.66,5.01l.46,1.07c.99-.59,2.08-.88,3.26-.88,2.09,0,3.92.96,4.88,1.56,1.16-.87,3.75-2.52,6.88-2.67.16,0,.32-.01.49-.01,3.66,0,10.81,1.95,18.95,7.44,6.95,4.69,9.62,10.86,10.19,12.4,1.26.87,6.71,4.6,13.07,8.49,7.7,4.72,10.1,10.63,10.76,14.76.55,3.44,2.67,5.23,4.67,6.53.68.44,1.5,1.15,2.55,2.06,1.87,1.61,4.43,3.83,7.17,5.23,4.82,2.46,5.65,6.56,4.33,9.52-1.11,2.49-2.52,6.68-2.95,9.37-.05.29-.1.62-.15,1-.5,3.43-1.43,9.81-5.38,14.81-4.39,5.54-24.77,22.96-30.15,27.4-4.5,3.72-9.35,8.85-11.95,11.61-.72.77-1.29,1.36-1.64,1.72q-1.11,1.11-1.19,4.51c-.01.61-.03,1.31-.06,2.13-.19,5.65-3.74,8.24-4.28,8.61l-3.34,2.71s-.07.05-.1.07c-1.17.74-4.32,3.06-5.36,5.23l.7,5.14c.04.32-.07.65-.3.88l-2.21,2.21c1.91,4.9,1.5,14.07,1.2,20.85-.12,2.7-.22,5.04-.16,6.51.44,9.75,1.63,23.82,3.51,31.36,2,8.01-.86,18.21-.99,18.64-.04.12-1.56,4.34-.19,7.07,1.22,2.45,1.49,4.52.79,6.17-.49,1.16-1.32,1.79-1.9,2.11-.82,4.79-.3,7.36,1.14,11.14,1.34,3.5-.49,6.15-1.98,7.36l.43,6.72c3.15,4.73.91,8.7-1.05,10.48l.56,9.02c2.95,3.5,1.76,7.33.53,9.17l.69,12.09c1.66,1.8,2.39,3.63,2.19,5.44-.22,1.97-1.53,3.33-2.27,3.95l.32,8.66c1.16.4,2.5,1.55,2.6,4.13.11,2.96-1.68,4.97-2.55,5.77l.46,11.6c1.34,1.6,1.89,3.21,1.63,4.79-.29,1.83-1.61,3.06-2.36,3.63l-.11,9.43c1.4,1.07,2.23,2.34,2.46,3.77.28,1.74-.44,3.21-.84,3.88.93,8.82,5.4,28.16,5.44,28.36.04.16.04.33,0,.5-1.26,4.95-5.24,6.86-7.02,7.48.13,2.44.51,9.67.81,12.96.04.43.07.85.1,1.27.26,3.46.49,6.44,4.53,13.34,4.33,7.4,1.81,12.74-.03,16.64-.27.57-.53,1.13-.76,1.67-2.13,4.98-4.37,5.92-17.12,7.23-1.65.17-3.25.25-4.76.25ZM389.61,314.03c.36-.62.82-1.42,1.38-2.38,2.77-4.78,7.42-12.78,11.36-20.4,4.2-8.12,8.37-14.12,10.21-16.62-3.34-1.02-6.88-3.23-8.99-4.69,1.07,13.31-1.91,18.71-4.34,23.1-.56,1.01-1.08,1.96-1.52,2.94-2.33,5.19-7.06,13.26-7.93,14.73l-.17,3.33Z"></path>
      <path class="cls-14" d="M331.08,126.42c7.51,0,12.66,3.32,12.66,3.32,0,0,3.39-.28,9.26-.73,2.93-.23,5.87-.46,10.09-.46s9.72.23,17.8.92c16.14,1.38,20.64,2.75,27.7,5.41,7.06,2.66,7.71,6.05,7.34,7.25-.37,1.19,0,2.48-.92,5.96-.92,3.49-4.04,8.53-14.49,17.24-10.46,8.71-31.65,12.47-34.86,13.12-3.21.64-3.49,1.28-3.58,2.29s0,3.58,0,3.58c4.77,5.96,1.65,7.89,1.65,7.89,1.56,1.65.18,2.2.18,2.2,2.48,3.58.46,5.87.46,5.87,1.19,2.2-.64,5.04-.64,5.04l1.19,2.75c1.2-1.09,2.49-1.46,3.7-1.46,2.67,0,4.93,1.83,4.93,1.83,0,0,3.03-2.75,6.88-2.94.14,0,.29-.01.44-.01,3.95,0,11.03,2.31,18.36,7.26,7.61,5.14,9.91,12.2,9.91,12.2,0,0,6.05,4.22,13.39,8.71,7.34,4.49,9.63,10,10.27,14.03.64,4.04,3.3,6.05,5.14,7.25,1.83,1.19,5.5,5.14,9.81,7.34,4.31,2.2,4.95,5.69,3.85,8.16-1.1,2.48-2.57,6.79-3.03,9.63-.46,2.84-1.1,10-5.32,15.32-4.22,5.32-24.22,22.47-29.99,27.24-5.78,4.77-12.02,11.74-13.67,13.39s-1.38,1.83-1.56,7.34c-.18,5.5-3.85,7.8-3.85,7.8l-3.38,2.74s-4.64,2.92-5.88,5.96l.74,5.43-2.72,2.72c2.96,6.17.99,22.22,1.23,27.65.43,9.39,1.59,23.74,3.54,31.57,1.96,7.83-.98,18.1-.98,18.1,0,0-1.71,4.65-.12,7.83,2.91,5.82-1.1,7.09-1.1,7.09-.98,5.26-.49,8.07,1.1,12.23,1.59,4.16-2.08,6.48-2.08,6.48l.49,7.58c4.04,5.75-1.1,9.66-1.1,9.66l.61,9.91c3.79,4.16.49,8.44.49,8.44l.73,12.84c5.01,5.14-.12,8.44-.12,8.44l.37,10.03s2.45,0,2.57,3.3c.12,3.3-2.57,5.26-2.57,5.26l.49,12.47c4.16,4.65-.73,7.46-.73,7.46l-.12,10.52c4.53,3.06,1.59,6.85,1.59,6.85.86,8.81,5.5,28.86,5.5,28.86-1.47,5.75-7.09,6.97-7.09,6.97,0,0,.49,9.78.86,13.82.37,4.04.12,7.09,4.77,15.04,4.65,7.95.98,13.09-.86,17.37s-3.18,5.26-16.27,6.6c-1.69.17-3.24.25-4.65.25-9.5,0-12.84-3.43-12.84-3.43l-.49.98c-3.3-1.71-3.18-7.46-3.18-7.46l1.83-.73c-.73-2.2-.73-5.5,1.1-8.32,1.83-2.81,3.42-7.71,3.42-7.71-3.18-.98-3.55-2.08-3.55-2.81s0-3.06.37-5.63c.37-2.57-.24-5.63.24-7.34.49-1.71,1.35-5.75,1.47-7.71s-.24-1.59-1.1-1.96c-.86-.37-3.06-1.1-5.26-2.57-2.2-1.47-1.22-3.18-1.22-3.18,0,0-2.08-.37-3.67-2.45-1.59-2.08-.86-4.16-.24-5.38.61-1.22.61-4.53.98-6.73.37-2.2-.37-3.42-.12-5.14.24-1.71.73-6.12.12-19.81s-2.2-33.27-2.94-40.12c-.73-6.85-.37-10.52-1.83-13.7-1.47-3.18-1.1-9.42-1.22-18.35-.12-8.93-1.35-11.5-3.18-25.93-1.83-14.43-2.69-51-2.69-51,0,0-10.27,17.61-14.68,28.13-4.4,10.52-8.81,25.81-9.3,33.51-.49,7.71,2.45,16.51,5.14,24.46,2.69,7.95,7.71,32.17,9.91,42.44,2.2,10.27,8.19,26.42,10.88,36.32,2.69,9.91.98,14.43.98,14.43l-2.08.12c1.59,2.45-.37,5.01-.37,5.01l.98.24s.12,1.83.61,4.77c.49,2.94,1.96,8.56,0,12.23-1.96,3.67-6.85,4.16-11.86,4.65-.25.02-.49.04-.72.04-4.05,0-4.12-3.74-5-3.74-.05,0-.1.01-.16.04-1.1.49.12,2.2-.73,5.63-.86,3.42-3.55,5.63-9.3,8.07-5.75,2.45-15.9,6.12-21.77,6.6-.55.05-1.11.07-1.67.07-5.54,0-11.86-2.01-13.86-3.12-2.2-1.22-4.65-2.81-4.65-2.81l.86-4.89c1.34-5.18,4.04-5.14,12.23-11.25,8.19-6.12,9.66-16.14,9.66-16.14,0,0-1.35-.49-2.81-.61-1.47-.12-1.47-1.22-.37-2.45,1.1-1.22,1.96-2.94,1.1-14.68-.86-11.74-2.45-28.62-7.22-48.92-4.77-20.3-6.85-29.23-11.25-45.62-4.4-16.39-4.16-13.94-1.22-35.22,2.94-21.28,18.65-70.17,18.65-70.17l.28-1.28c-.72.36-1.87.58-3.2.58-1.72,0-3.75-.36-5.56-1.24-3.21-1.56-6.1-5.15-7.66-7.26-1.56-2.11-1.58-5.91-2.22-11.69-.64-5.78.47-16.09,2.22-22.78,1.74-6.7,2.71-16.51,5.65-21.37,2.6-4.31,3.79-7.88,7.46-12.1,3.67-4.22,9.48-8.06,9.48-8.06,0,0-1.48-6.69-3.15-12.3-1.67-5.61-3.18-15.98-3.18-15.98,0,0-.02,0-.05,0-.24,0-1.38-.19-4.71-3.02-3.85-3.26-1.42-7.61-1.42-7.61,0,0-1-2.18-2.59-4.1-2.3-2.78-2.34-2.68-10.29-8.03-7.95-5.35-21.25-5.35-21.25-5.35l-1.76-.42s-.54.15-1.45.15c-1.86,0-5.28-.6-8.92-4.24-4.71-4.71-7.91-6.03-10.64-6.03-.42,0-.84.03-1.24.09-3.01.42-7.45,1.67-7.45,1.67l.08-1,.42-9.37-16.9-13.72-2.93-8.7c-1.84-5.02-7.61-20.5-9.96-28.95-2.34-8.45-8.2-17.32-10.12-21.42-1.92-4.1-9.62-12.3-10.46-13.22-.84-.92-1.09-2.01-.5-3.18.59-1.17.59-2.68.5-3.43-.08-.75-.17-2.01.84-3.76,1-1.76,1.59-1.34,1.84-2.76.25-1.42,1.51-3.1,2.09-3.93.59-.84.33-1.67,1.25-3.51.92-1.84,1.92-2.09,5.61-4.6,1.75-1.19,2.91-1.57,3.82-1.57,1.01,0,1.7.47,2.54.82,1.59.67,4.35,2.93,4.35,2.93,1.11-1.41,1.81-1.88,2.38-1.88s.98.43,1.55.88c1.17.92,6.86,6.78,8.03,8.53,1.17,1.76.42,2.76-.42,7.53-.81,4.61-2.16,4.69-2.25,4.69,0,0,0,0,0,0,0,0,.93,4.65-.3,6.24-1.22,1.59-3.06,4.53-3.06,4.53,0,0,1.22,2.32.49,7.83-.73,5.5,3.18,8.19,20.42,22.14s24.09,27.85,24.09,27.85c0,0,3.4-2.41,10-2.41,1.44,0,3.03.11,4.77.39,12.45,2,19.08,8.99,19.08,8.99,4.4-1.38,5.6-1.65,10.82-1.93.69-.04,1.34-.05,1.97-.05,7.73,0,11.03,2.66,16.38,5.37,3.19,1.62,5.51,1.98,6.95,1.98,1.17,0,1.76-.24,1.76-.24l-2.02-1.74c-1.37-1.19-1.26-1.69-.44-1.69.38,0,.93.11,1.54.32.3.1.64.14,1.01.14,1.97,0,4.59-1.24,4.59-1.24-4.49-8.44-5.05-20.18-5.05-20.18-.48.19-.89.27-1.24.27-1.33,0-1.79-1.09-1.79-1.09,0,0-2.2,0-3.58-1.1-1.38-1.1-1.19-3.21-1.19-3.21-1.93-.28-2.48-2.11-2.48-2.11,0,0-.43.09-1.04.09-1.32,0-3.53-.43-4.28-3.12-1.1-3.94,2.94-5.14,2.94-5.14-4.31-5.41-1.19-8.26-1.19-8.26-5.96,0-22.2-3.21-34.49-6.51-12.29-3.3-15.69-8.07-18.9-12.66-3.21-4.59-.83-8.71-.64-11.37.18-2.66-.09-6.79,10-12.02,10.09-5.23,21.74-6.7,21.74-6.7,0,0,11.83-3.12,23.02-4.49,11.19-1.38,20.18-2.02,29.72-3.49,1.34-.21,2.63-.29,3.85-.29M388.89,316.8c.24,0,.56-.26.9-.94.73-1.47,7.89-13.3,13.48-24.12,5.6-10.82,11.07-17.74,11.07-17.74-5.26-.94-12.04-6.27-12.04-6.27,1.95,17.95-3.03,22.2-5.55,27.83-2.52,5.62-8,14.85-8,14.85l-.29,5.55c-.02.49.15.85.43.85M331.08,124.32c-1.39,0-2.8.11-4.17.32-5.72.88-11.3,1.47-17.21,2.09-3.94.41-8.01.84-12.45,1.39-10.7,1.32-21.78,4.15-23.17,4.51-1.44.19-12.48,1.81-22.3,6.9-9.82,5.09-10.88,9.55-11.1,13.34l-.02.39c-.03.48-.19,1.15-.36,1.86-.63,2.64-1.59,6.62,1.38,10.86,3.27,4.67,6.97,9.96,20.07,13.48,10.22,2.74,24.16,5.68,31.93,6.41-.21,1.53.05,3.45,1.29,5.63-1.59,1.31-2.76,3.47-1.94,6.41.8,2.87,3.1,4.6,6.16,4.65.41.54.96,1.06,1.66,1.44.19,1.05.67,2.37,1.87,3.33,1.22.97,2.76,1.34,3.79,1.48.52.51,1.25.97,2.21,1.12.35,3.51,1.35,10.55,4.08,16.72-.61.18-1.22.3-1.7.3-.23,0-.33-.03-.34-.03-.84-.28-1.59-.42-2.2-.42-1.82,0-2.41,1.23-2.55,1.6-.19.52-.19,1.01-.07,1.46-.79-.26-1.68-.63-2.68-1.14-.9-.45-1.74-.91-2.56-1.36-4.03-2.18-7.83-4.24-14.76-4.24-.67,0-1.37.02-2.08.06-4.91.26-6.48.53-10.17,1.66-2.35-2.07-8.9-7.03-19.29-8.7-1.74-.28-3.45-.42-5.1-.42-4.21,0-7.29.92-9.14,1.71-2.5-4.33-9.74-15.45-23.64-26.69-1.22-.99-2.38-1.92-3.47-2.8-14.07-11.34-16.7-13.6-16.19-17.43.52-3.91.13-6.45-.25-7.83.62-.96,1.65-2.53,2.41-3.52,1.28-1.66,1.18-4.57.92-6.55.81-.93,1.56-2.55,2.04-5.29.21-1.19.42-2.16.58-2.94.53-2.45.87-4.08-.49-6.12-1.33-2-7.24-8.04-8.48-9.02l-.23-.18c-.6-.48-1.41-1.14-2.62-1.14-1.01,0-1.87.47-2.63,1.14-1-.73-2.29-1.6-3.29-2.02-.16-.07-.32-.14-.48-.22-.73-.34-1.63-.77-2.88-.77-1.47,0-3.06.62-5,1.94-.88.6-1.6,1.06-2.2,1.45-2.03,1.31-3.14,2.04-4.1,3.94-.6,1.2-.8,2.06-.94,2.7-.06.24-.11.49-.15.55l-.16.22c-.74,1.04-1.97,2.78-2.28,4.55,0,.04-.02.08-.02.1-.03.03-.06.05-.09.08-.35.33-.88.84-1.49,1.9-1.23,2.15-1.23,3.82-1.1,5.04.07.66.01,1.65-.29,2.26-.95,1.89-.65,3.91.83,5.52l.29.32c7.11,7.72,9.2,11.07,9.82,12.38.57,1.21,1.44,2.78,2.45,4.58,2.5,4.5,5.93,10.66,7.55,16.5,2.16,7.78,7.07,21.13,9.43,27.54l.57,1.54,2.92,8.67c.13.38.36.71.67.96l16.08,13.05-.37,8.28-.08.96c-.06.68.23,1.35.76,1.79.38.31.85.48,1.33.48.19,0,.38-.03.57-.08.04-.01,4.33-1.22,7.16-1.61.33-.05.64-.07.96-.07,1.61,0,4.3.56,9.15,5.41,4.23,4.23,8.33,4.86,10.4,4.86.58,0,1.06-.05,1.4-.1l1.32.32c.16.04.32.06.49.06.13,0,12.77.07,20.08,5l2.13,1.43q5.84,3.92,7.72,6.2c.83,1.01,1.49,2.11,1.89,2.84-.84,2.34-1.08,6.2,2.39,9.14,1.94,1.65,3.29,2.53,4.24,3,.46,2.99,1.69,10.43,3.05,14.99,1.19,3.97,2.28,8.55,2.8,10.78-1.96,1.4-5.88,4.37-8.7,7.61-2.64,3.04-4.1,5.81-5.52,8.49-.66,1.25-1.34,2.55-2.16,3.89-2.19,3.62-3.3,9.37-4.38,14.92-.49,2.53-.96,4.92-1.5,7-1.89,7.26-2.91,17.82-2.27,23.54.13,1.17.23,2.25.33,3.26.41,4.24.7,7.3,2.29,9.45,2.91,3.94,5.75,6.59,8.43,7.9,1.93.94,4.23,1.45,6.47,1.45.09,0,.19,0,.28,0-3.03,9.56-15.47,49.5-18.09,68.5-.24,1.71-.46,3.27-.66,4.7-2.21,15.77-2.2,16.04,1.36,29.22l.57,2.13c4.26,15.84,6.3,24.56,10.79,43.66l.44,1.89c4.66,19.82,6.28,36.38,7.17,48.59.84,11.55-.08,12.57-.57,13.12-1.64,1.82-1.4,3.3-1.12,4.02.21.52.9,1.75,2.87,1.91.17.01.33.03.49.06-.82,2.98-3.06,8.93-8.42,12.93-2.37,1.77-4.28,3.02-5.82,4.03-3.89,2.54-6.03,3.95-7.18,8.38-.01.05-.03.11-.04.16l-.86,4.89c-.14.83.22,1.66.92,2.12.1.07,2.53,1.64,4.77,2.89,2.49,1.38,9.22,3.39,14.88,3.39.64,0,1.26-.02,1.85-.07,6.4-.53,17.1-4.5,22.42-6.76,5.46-2.33,9.34-4.83,10.51-9.49.12-.46.2-.9.26-1.31.89.57,2.05.98,3.6.98.3,0,.61-.02.92-.05,5.16-.5,11.02-1.07,13.51-5.75,2.04-3.83,1.08-8.92.45-12.29-.09-.46-.17-.89-.23-1.27-.46-2.78-.59-4.55-.59-4.57-.02-.35-.13-.68-.31-.97.22-.69.36-1.47.33-2.28.6-.19,1.09-.65,1.32-1.25.2-.53,1.87-5.46-.92-15.72-1.1-4.05-2.72-9.06-4.44-14.36-2.52-7.78-5.13-15.83-6.42-21.85-.26-1.2-.55-2.6-.88-4.14-2.5-11.74-6.67-31.4-9.09-38.53-2.58-7.62-5.5-16.25-5.03-23.66.45-7.03,4.63-22.07,9.14-32.83,2.64-6.31,7.49-15.31,10.86-21.37.35,11.51,1.16,33.2,2.5,43.7.7,5.52,1.32,9.32,1.81,12.38.8,4.94,1.28,7.93,1.35,13.31.03,1.84.03,3.57.03,5.19.02,6.43.03,11.07,1.38,14.01.83,1.8.97,3.95,1.18,7.21.11,1.67.23,3.57.47,5.84.78,7.26,2.34,26.92,2.93,39.99.42,9.45.39,15.99-.1,19.42-.15,1.08-.03,1.97.08,2.77.11.77.2,1.44.05,2.32-.15.89-.24,1.9-.33,2.88-.09,1.05-.25,2.8-.46,3.25-1.75,3.49-.72,6.06.46,7.59.98,1.29,2.11,2.07,3.05,2.55.13,1.19.78,2.5,2.34,3.55,1.99,1.32,3.91,2.08,5.06,2.54.14.05.26.1.37.15-.12,1.76-.92,5.59-1.39,7.23-.35,1.21-.3,2.65-.24,4.18.04,1.18.09,2.4-.06,3.44-.39,2.72-.39,5.13-.39,5.92,0,2.09,1.54,3.32,2.98,4.03-.6,1.58-1.53,3.83-2.52,5.34-1.78,2.73-2.12,5.75-1.78,8.18l-.18.07c-.78.31-1.3,1.06-1.32,1.9-.02.72-.02,7.12,4.31,9.36.3.16.63.24.96.24.22,0,.44-.03.65-.1.09-.03.18-.07.27-.11,2.08,1.18,5.98,2.66,12.41,2.66,1.55,0,3.18-.09,4.87-.26,13.14-1.35,15.66-2.45,17.98-7.86.22-.52.48-1.06.75-1.64,1.94-4.11,4.59-9.74-.01-17.61-3.91-6.69-4.13-9.56-4.39-12.89-.03-.42-.07-.85-.11-1.29-.27-2.98-.61-9.24-.77-12.17,2.16-.92,5.72-3.12,6.95-7.92.08-.32.09-.66.01-.99-.04-.19-4.39-19-5.39-27.9.48-.89,1.09-2.44.8-4.27-.18-1.11-.76-2.65-2.44-4.1l.1-8.43c.88-.76,2.05-2.09,2.35-3.97.29-1.8-.26-3.59-1.63-5.35l-.42-10.79c1.05-1.09,2.64-3.23,2.53-6.23-.09-2.56-1.3-4.05-2.62-4.77l-.28-7.52c.87-.83,2.01-2.27,2.24-4.29.23-2.02-.51-4.03-2.2-5.98l-.65-11.39c1.29-2.15,2.34-6.13-.57-9.84l-.51-8.21c2.08-2.13,4.13-6.32,1-11.24l-.38-5.94c1.63-1.55,3.3-4.45,1.88-8.18-1.35-3.54-1.85-5.85-1.17-10.13.66-.46,1.42-1.19,1.9-2.34.82-1.94.55-4.31-.82-7.05-.96-1.92-.17-5.11.22-6.17.02-.05.03-.1.05-.14.13-.44,3.07-10.91,1-19.18-1.87-7.46-3.04-21.45-3.48-31.15-.06-1.43.04-3.74.16-6.42.31-6.95.69-15.45-1.03-20.63l1.74-1.74c.46-.46.68-1.12.59-1.76l-.66-4.81c.95-1.67,3.39-3.62,4.84-4.53.07-.04.14-.09.2-.14l3.31-2.68c.79-.55,4.5-3.44,4.7-9.41.03-.82.04-1.53.06-2.13q.07-2.98.89-3.79c.37-.37.94-.98,1.66-1.74,2.59-2.74,7.4-7.84,11.86-11.52,5.39-4.45,25.86-21.95,30.3-27.56,4.13-5.21,5.09-11.78,5.6-15.31.05-.37.1-.7.15-.98.41-2.57,1.81-6.73,2.87-9.11,1.52-3.42.62-8.11-4.81-10.88-2.63-1.35-5.04-3.42-6.97-5.09-1.07-.93-1.92-1.66-2.66-2.14-1.81-1.18-3.73-2.79-4.21-5.82-.69-4.35-3.2-10.56-11.25-15.49-5.96-3.65-11.13-7.16-12.76-8.28-.82-2.04-3.69-8.01-10.46-12.58-6.86-4.63-14.52-7.61-19.53-7.61-.19,0-.37,0-.54.01-2.94.14-5.43,1.49-6.87,2.47-1.14-.64-2.87-1.36-4.84-1.36-.81,0-1.6.13-2.34.37.45-1.14.84-2.77.42-4.4.65-1.4.94-3.51-.28-5.96.03-.1.06-.2.08-.3.14-.64.07-1.28-.2-1.93.19-.38.35-.84.44-1.37.37-2.11-.51-4.58-2.59-7.36-.02-.89-.03-2,0-2.55.25-.11.79-.3,1.91-.52l.6-.12c20.53-3.99,30.46-9.51,35.18-13.44,11.89-9.91,14.36-15.2,15.18-18.32.61-2.31.7-3.8.77-4.79.03-.5.06-.86.13-1.09.67-2.19-.38-6.73-8.6-9.82-7.63-2.87-12.33-4.18-28.26-5.54-7.3-.62-13.18-.92-17.97-.92-4.3,0-7.33.24-10.25.46-4.37.34-7.36.58-8.61.68-1.7-.94-6.59-3.28-13.15-3.28h0ZM402.63,288.46c1.45-3.68,2.52-8.63,2.12-16.49,1.75,1.11,3.93,2.33,6.13,3.18-1.87,2.63-4.96,7.25-8.24,13.31h0Z"></path>
      <path class="cls-10" d="M384.2,395.68c.43,9.39,1.59,23.74,3.54,31.57,1.96,7.83-.98,18.1-.98,18.1,0,0-1.71,4.65-.12,7.83,2.91,5.82-1.1,7.09-1.1,7.09-.98,5.26-.49,8.07,1.1,12.23,1.59,4.16-2.08,6.48-2.08,6.48l.49,7.58c4.04,5.75-1.1,9.66-1.1,9.66l.61,9.91c3.79,4.16.49,8.44.49,8.44l.73,12.84c5.01,5.14-.12,8.44-.12,8.44l.37,10.03s2.45,0,2.57,3.3c.12,3.3-2.57,5.26-2.57,5.26l.49,12.47c4.16,4.65-.73,7.46-.73,7.46l-.12,10.52c4.53,3.06,1.59,6.85,1.59,6.85.86,8.81,5.5,28.86,5.5,28.86-1.47,5.75-7.09,6.97-7.09,6.97,0,0,.49,9.78.86,13.82.37,4.04.12,7.09,4.77,15.04,4.65,7.95.98,13.09-.86,17.37-1.83,4.28-3.18,5.26-16.27,6.6-13.09,1.35-17.49-3.18-17.49-3.18l-.49.98c-3.3-1.71-3.18-7.46-3.18-7.46l1.83-.73c-.73-2.2-.73-5.5,1.1-8.32,1.83-2.81,3.42-7.71,3.42-7.71-3.18-.98-3.55-2.08-3.55-2.81s0-3.06.37-5.63c.37-2.57-.24-5.63.24-7.34.49-1.71,1.35-5.75,1.47-7.71.12-1.96-.24-1.59-1.1-1.96s-3.06-1.1-5.26-2.57c-2.2-1.47-1.22-3.18-1.22-3.18,0,0-2.08-.37-3.67-2.45s-.86-4.16-.24-5.38.61-4.53.98-6.73c.37-2.2-.37-3.42-.12-5.14s.73-6.12.12-19.81c-.61-13.7-2.2-33.27-2.94-40.12-.73-6.85-.37-10.52-1.83-13.7-1.47-3.18-1.1-9.42-1.22-18.35-.12-8.93-1.35-11.5-3.18-25.93-1.83-14.43-2.69-51-2.69-51,0,0-10.27,17.61-14.68,28.13-4.4,10.52-8.81,25.81-9.3,33.51-.49,7.71,2.45,16.51,5.14,24.46,2.69,7.95,7.71,32.17,9.91,42.44,2.2,10.27,8.19,26.42,10.88,36.32,2.69,9.91.98,14.43.98,14.43l-2.08.12c1.59,2.45-.37,5.01-.37,5.01l.98.24s.12,1.83.61,4.77c.49,2.94,1.96,8.56,0,12.23-1.96,3.67-6.85,4.16-11.86,4.65-5.01.49-4.77-4.16-5.87-3.67-1.1.49.12,2.2-.73,5.63-.86,3.42-3.55,5.63-9.3,8.07-5.75,2.45-15.9,6.12-21.77,6.6-5.87.49-13.33-1.83-15.53-3.06-2.2-1.22-4.65-2.81-4.65-2.81l.86-4.89c1.34-5.18,4.04-5.14,12.23-11.25,8.19-6.12,9.66-16.14,9.66-16.14,0,0-1.35-.49-2.81-.61-1.47-.12-1.47-1.22-.37-2.45s1.96-2.94,1.1-14.68c-.86-11.74-2.45-28.62-7.22-48.92-4.77-20.3-6.85-29.23-11.25-45.62-4.4-16.39-4.16-13.94-1.22-35.22,2.94-21.28,18.65-70.17,18.65-70.17l.28-1.28c-1.65.83-5.54.89-8.75-.67-3.21-1.56-6.1-5.15-7.66-7.26-1.56-2.11-1.58-5.91-2.22-11.69-.64-5.78.47-16.09,2.22-22.78,1.74-6.7,2.71-16.51,5.65-21.37,2.6-4.31,3.79-7.88,7.46-12.1,3.67-4.22,9.48-8.06,9.48-8.06,0,0-1.48-6.69-3.15-12.3-1.67-5.61-3.18-15.98-3.18-15.98,0,0-.92.25-4.77-3.01-3.85-3.26-1.42-7.61-1.42-7.61,0,0-1-2.18-2.59-4.1-2.3-2.78-2.34-2.68-10.29-8.03-7.95-5.35-21.25-5.35-21.25-5.35l-1.76-.42s-4.94,1.34-10.37-4.1c-5.44-5.44-8.87-6.36-11.88-5.94-3.01.42-7.45,1.67-7.45,1.67l.08-1,.42-9.37-16.9-13.72-2.93-8.7c-1.84-5.02-7.61-20.5-9.96-28.95-2.34-8.45-8.2-17.32-10.12-21.42-1.92-4.1-9.62-12.3-10.46-13.22-.84-.92-1.09-2.01-.5-3.18s.59-2.68.5-3.43-.17-2.01.84-3.76c1-1.76,1.59-1.34,1.84-2.76s1.51-3.1,2.09-3.93c.59-.84.33-1.67,1.25-3.51.92-1.84,1.92-2.09,5.61-4.6,3.68-2.51,4.77-1.42,6.36-.75,1.59.67,4.35,2.93,4.35,2.93,2.18-2.76,2.76-1.92,3.93-1s6.86,6.78,8.03,8.53.42,2.76-.42,7.53c-.84,4.77-2.26,4.68-2.26,4.68,0,0,.93,4.65-.3,6.24-1.22,1.59-3.06,4.53-3.06,4.53,0,0,1.22,2.32.49,7.83-.73,5.5,3.18,8.19,20.42,22.14,17.24,13.94,24.09,27.85,24.09,27.85,0,0,5.04-3.58,14.77-2.02,12.45,2,19.08,8.99,19.08,8.99,4.4-1.38,5.6-1.65,10.82-1.93,9.18-.48,12.57,2.38,18.35,5.32,5.78,2.94,8.71,1.74,8.71,1.74l-2.02-1.74c-2.02-1.74-.83-2.02,1.1-1.38,1.93.64,5.6-1.1,5.6-1.1-4.49-8.44-5.05-20.18-5.05-20.18-2.29.92-3.03-.83-3.03-.83,0,0-2.2,0-3.58-1.1-1.38-1.1-1.19-3.21-1.19-3.21-1.93-.28-2.48-2.11-2.48-2.11,0,0-4.22.92-5.32-3.03-1.1-3.94,2.94-5.14,2.94-5.14-4.31-5.41-1.19-8.26-1.19-8.26-5.96,0-22.2-3.21-34.49-6.51-12.29-3.3-15.69-8.07-18.9-12.66-3.21-4.59-.83-8.71-.64-11.37.18-2.66-.09-6.79,10-12.02,10.09-5.23,21.74-6.7,21.74-6.7,0,0,11.83-3.12,23.02-4.49,11.19-1.38,20.18-2.02,29.72-3.49,9.54-1.47,16.51,3.03,16.51,3.03,0,0,3.39-.28,9.26-.73,5.87-.46,11.74-.92,27.89.46,16.14,1.38,20.64,2.75,27.7,5.41,7.06,2.66,7.71,6.05,7.34,7.25s0,2.48-.92,5.96c-.92,3.49-4.04,8.53-14.49,17.24-10.46,8.71-31.65,12.47-34.86,13.12-3.21.64-3.49,1.28-3.58,2.29-.09,1.01,0,3.58,0,3.58,4.77,5.96,1.65,7.89,1.65,7.89,1.56,1.65.18,2.2.18,2.2,2.48,3.58.46,5.87.46,5.87,1.19,2.2-.64,5.04-.64,5.04l1.19,2.75c3.85-3.49,8.62.37,8.62.37,0,0,3.03-2.75,6.88-2.94,3.85-.18,11.19,2.11,18.8,7.25,7.61,5.14,9.91,12.2,9.91,12.2,0,0,6.05,4.22,13.39,8.71,7.34,4.49,9.63,10,10.27,14.03.64,4.04,3.3,6.05,5.14,7.25,1.83,1.19,5.5,5.14,9.81,7.34,4.31,2.2,4.95,5.69,3.85,8.16-1.1,2.48-2.57,6.79-3.03,9.63-.46,2.84-1.1,10-5.32,15.32-4.22,5.32-24.22,22.47-29.99,27.24-5.78,4.77-12.02,11.74-13.67,13.39-1.65,1.65-1.38,1.83-1.56,7.34-.18,5.5-3.85,7.8-3.85,7.8l-3.38,2.74s-4.64,2.92-5.88,5.96l.74,5.43-2.72,2.72c2.96,6.17.99,22.22,1.23,27.65ZM389.79,315.85c.73-1.47,7.89-13.3,13.48-24.12,5.6-10.82,11.07-17.74,11.07-17.74-5.26-.94-12.04-6.27-12.04-6.27,1.95,17.95-3.03,22.2-5.55,27.83-2.52,5.62-8,14.85-8,14.85l-.29,5.55c-.05.91.6,1.38,1.33-.09Z"></path>
      <path class="cls-2" d="M308.37,258.04s5.14,3.24,10.76,1.96c5.63-1.28,5.44-3.85,5.44-3.85l-1.35-.55s-2.81,3.24-7.71,2.63c-4.89-.61-6.67-1.04-6.67-1.04l-.49.86Z"></path>
      <path class="cls-12" d="M297.11,357.41s-1.96-6.48,1.22-10.76c0,0,13.07-8.2,33.01-9.22,19.6-1.01,18.93.04,26.51,1.38,0,0-1.24,4.24-.63,7.54l-8.63.3s-8.44-7.09-19.2-4.65c-10.76,2.45-17.12,7.95-17.12,7.95,0,0-9.05,1.22-15.17,7.46Z"></path>
      <path class="cls-15" d="M181.36,170.84c2.63,4.72,6.23,11.19,8.01,17.61,2.1,7.58,7.15,21.29,9.3,27.14l.61,1.65,2.66,7.89,17.39,14.12-.35,7.89c1.28-.3,2.68-.58,3.9-.75.54-.08,1.08-.12,1.65-.12,4.03,0,7.95,2.12,12.71,6.89,2.95,2.95,5.56,3.39,6.85,3.39.42,0,.68-.05.69-.05h0s.71-.19.71-.19l2.16.51c2.3.04,14.6.51,22.53,5.85l2.12,1.43c5.96,4,6.45,4.33,8.79,7.17,1.81,2.19,2.95,4.64,3,4.74l.09,1.21-.18,1.41c-.28.55-1.07,2.45.74,3.98,1.55,1.31,2.47,1.92,2.95,2.19l1.42.72,1.41,1.92c.02.1,1.49,10.22,3.09,15.56,1.61,5.39,3.98,11.22,4,11.27l.78,1.91,3.52,16.19-2.67,9.47s18.56-8.27,42.84-7.67c18.21.45,19.23,3.46,19.23,3.46,0,0-2.09,4.69-1.85,7.61.24,2.91,4.37,3.4,4.37,3.4,0,0-3.4,5.59,2.67,6.8,0,0-1.7,5.59,5.59,5.59,0,0,0,2.19,4.86,2.67l4.86.49-1.46-3.64-1.7-.49v-3.64s2.43,1.21,5.1-.73c2.67-1.94,1.5-2.47,3.68-3.2.44-.15,1.37-1.2,2.36-1.37l.53-.87,2.25-1.53c.1-.07,2.39-1.67,2.52-5.43l.06-2.09c.09-3.63.12-4.99,2.36-7.23.34-.34.87-.91,1.56-1.64,2.66-2.82,7.62-8.07,12.31-11.94,6.62-5.47,25.74-21.99,29.56-26.8,3.29-4.15,4.12-9.84,4.56-12.9l.16-1.06c.5-3.12,2.05-7.66,3.24-10.36.7-1.57-.24-3.2-2.51-4.36-3.17-1.62-5.95-4.01-7.97-5.76-.85-.74-1.66-1.44-2.11-1.73-2.38-1.55-5.63-4.19-6.44-9.25-.77-4.81-3.76-8.84-8.91-11.99-7.33-4.49-13.48-8.77-13.54-8.81l-.81-.56-.3-.94c-.02-.06-1.3-5.72-7.73-10.61-3.24-2.46-7.98-5.41-10.87-6.33-2.89-.92-4.64-1.16-6.41-1.52-1.02-.21-3.31.18-4.82.76-2.69,1.04-4.76,2.93-4.76,2.93l-.23-.35c-.42-.33-1.61-1.19-2.91-1.19-.65,0-1.2.22-1.73.7l-3.04,2.75-14.04,9.75-5.87,7.83-27.4,4.4-1.93-1.28-2.53,1.03c-.34.14-1.29.46-2.86.46-2.49,0-5.28-.77-8.28-2.3-.94-.48-1.83-.96-2.68-1.42-3.9-2.11-6.71-3.63-12.37-3.63-.58,0-1.18.02-1.81.05-4.91.26-5.85.47-10.1,1.8l-1.74.53-1.26-1.31c-.06-.06-6.2-6.32-17.42-8.12-1.48-.24-2.92-.36-4.3-.36-5.44,0-8.3,1.87-8.3,1.87l-2.81,1.99-1.52-3.09c-.07-.13-6.75-13.49-23.31-26.87l-3.47-2.8c-14.91-12.03-18.92-15.26-18.02-22.01.56-4.19-.19-6.07-.18-6.07h0s-.79-1.49-.79-1.49l.89-1.43c.08-.13,1.92-3.08,3.12-4.59.16-.4.23-1.97-.15-4.06l-.26-1.41,1.78-2.09h.14c.16-.42.38-1.13.58-2.26.22-1.27.44-2.29.62-3.12.18-.86.39-1.84.25-2.27-.91-1.36-5.53-6.15-7.05-7.55-.05.06-2.01,2.55-2.01,2.55l-2.31-1.89c-.98-.8-2.82-2.15-3.63-2.5-.23-.09-.45-.2-.66-.3-.32-.15-.61-.29-.74-.29-.1,0-.68.05-2.17,1.06-.92.62-1.67,1.11-2.3,1.52-1.86,1.21-2.02,1.33-2.33,1.97s-.43,1.08-.54,1.57c-.14.61-.33,1.45-.94,2.31l-.17.25c-.36.51-1.32,1.86-1.43,2.51-.28,1.6-.97,2.36-1.6,2.96-.22.2-.35.33-.59.75-.58,1.01-.51,1.57-.47,1.98.08.67.24,3.01-.75,4.96l.27.29c5.77,6.26,9.36,10.86,10.68,13.66.52,1.1,1.33,2.56,2.29,4.27ZM385.83,309.52l.37-.62c.05-.09,5.42-9.15,7.85-14.55.49-1.09,1.06-2.14,1.67-3.23,2.41-4.36,5.14-9.3,3.64-23.08l-.75-6.94,5.49,4.32c1.73,1.36,7.01,5.02,10.74,5.69l4.82.86-3.03,3.85c-.05.07-5.38,6.86-10.76,17.27-3.99,7.72-8.66,15.77-11.46,20.58-1.07,1.84-1.8,3.1-2.01,3.51-1.12,2.23-2.69,2.56-3.52,2.56l-1.5-.11-.87-.91c-.7-.74-1.05-1.77-1-2.92l.33-6.27Z"></path>
      <g class="cls-1">
        <path class="cls-13" d="M359.45,341.19c.06,0,.55-1.23.66-1.73s.18-1.1.48-1.71c0,0-1.26-1.03-3.1-1.26-1.83-.23.39,2.4.39,2.4l1.56,2.3Z"></path>
        <path class="cls-13" d="M369.73,252.36s.03-7.85,1.5-12.92c.81-2.81,2.06-3.68,2.43-2.93s2.5-.5,2.75-2.62c.25-2.12-1-2.37-1.5-1.75s-2.87-.75-1.75-2.75c1.12-2,1-2.25.75-3.87-.25-1.62,1.62-3.37,2.12-3.87s2.62,6.24,4.87,6.61c2.25.37,3.87-1.62,4.99-2.87s1.75-10.48-.75-12.73c0,0-4.74,0-6.12-2.37l-.25-3.62,8.11,1.25,2.37,1s-.62,4.74.25,5.24,1.87-4.37,3-3.74c1.12.62,1.25,4.49,1.37,6.36.12,1.87.37,4.87-.5,5.99-.87,1.12-.5,5.24.12,6.99.62,1.75.37,5.74-.12,7.49-.5,1.75.62,4.37.37,5.49s-2.62.62-2.5-2.75c.12-3.37-.12-6.99-.62-8.11s-.62.12-1.62.37-4.62-2.75-5.37-.62-3.12,6.61-3.12,6.61c0,0-1.62-1.62-1.75-.37s.37,6.74,1.5,8.61c0,0-2.62-1.75-3.12-4.62,0,0-1.62,2.25-2.5,1.87-.87-.37-4.74,4.49-4.93,8.61Z"></path>
        <path class="cls-13" d="M372.41,254.85s3.74,2.5,2.62,5.24c-1.12,2.75-4.74,6.99-4.49,9.11.25,2.12,3.37,8.86,1.87,12.48-1.5,3.62-1.87,5.99-4.24,7.61-2.37,1.62-3.12,2.75-3.24,4.37,0,0-2.37-1.12,0-4.74,2.37-3.62,2.75-8.36,1.25-9.36s-4.62,6.61-4.74,10.36c-.12,3.74-1.25-.12-2-1.5s-2.75-1.87-3.12,1.12c-.37,3-2.5,4.12-2.5.62s3.49-7.86,5.49-9.61c2-1.75,4.24-5.99,5.24-8.36s2.25-6.99,2.25-6.99l1.87-6.49,2.25-4.62,1.5.75Z"></path>
        <path class="cls-13" d="M407.73,226.27s-5.74,6.12-4.74,10.23c1,4.12,3.62,5.49-.12,9.11-3.74,3.62-5.37,5.74-4.12,6.49s4.87-4.24,5.87-4.24,3.24,4.74.37,8.61c-2.87,3.87-5.37,6.74-5.37,6.74l5.74-1.87s-.25,5.74,1.37,6.86c1.62,1.12,4.37-4.62,3.62-7.11s.37-7.86.75-9.48c.37-1.62-.62-5.24-1-6.61-.37-1.37.25-5.37,1.75-3.49,1.5,1.87.75,8.86,2.12,7.99,1.37-.87,3.74.5,1.75,3.87-2,3.37-3.37,5.24-3,9.61.37,4.37.62,8.61.62,8.61l4.99,1.75s1.5-4.99.75-7.24c-.75-2.25.25-7.49,2.62-10.36,0,0-4.24-4.62-2.25-6.61s2.37-2.5,1.62-4.62c-.75-2.12.12-6.12,2.25-7.61l-15.6-10.61Z"></path>
        <path class="cls-13" d="M447.91,265.71s-3.99,1.5-5.24,2.87c-1.25,1.37-.62-4.24-2.37-3.37-1.75.87-.62,3.37-2.37,3.12-1.75-.25-3,2.12-2.12,3.24s-1.37,1.62-3.12,1.75-1.87,1.87-1.12,3c.87,1.25-.5,1.12-1,.62s-2.5.62-1.87,2.12c.62,1.5-1.5,1.62-.75,3.62.75,2,.5,4.74-1.25,2.87-1.75-1.87-5.74-6.99-6.49-5.99-.75,1,2.12,4.62,3.37,6.49,1.25,1.87,1.37,5.37-1.25,6.86-2.62,1.5-.75,3.49.87,3.24s1,.87-1.87,2c-2.87,1.12-.25,2.5-1.62,4.24-1.37,1.75,2.12-.87,3.99-2.75,1.87-1.87,3.49-3.87,3.74-5.87s2.5-2.25,2.62-3.99c.12-1.75-.12-2.62,2.25-3.24,2.37-.62-2.62-4.99,0-5.12,2.62-.12,3.24-2.5,3-3.49s1.5-3.49,2.87-2.87c1.37.62,1.62-1.62,2-2.25s5.74-3.49,7.74,2.25c0,0,2.12-6.12,2.25-6.99.12-.87-.62-2.37-2.25-2.37Z"></path>
        <path class="cls-13" d="M412.47,280.31s.5,6.86,2.12,9.24c1.62,2.37,0,2.87-1.87,2.25-1.87-.62-4.87,1.75-3.24,6.86,1.62,5.12,4.49,10.86,4.99,13.6s-.25,7.11-.25,7.11l-12.48,11.48s.25-3.99-1.5-5.87c-1.75-1.87-2.37-3.74-.75-3.62s-.75-1.87-2.12-1.5-3.74-4.74-3.74-6.24,4.12-8.11,4.12-8.11c0,0,3.87,6.12,2.75,7.61-1.12,1.5-1.5,2.87-.12,3.49,1.37.62,3.74-1.37,3.37-2.87s.25-2.37,2-2c1.75.37,4.62-2.5,2.75-4.87-1.87-2.37-2.75-3.62-3.49-1.12s-1.62,3.87-2.12,2.5c-.5-1.37-3-6.12-3-6.12l12.6-21.84Z"></path>
        <path class="cls-13" d="M391.26,317.63s2.37,2.5,2.5,4.87c.12,2.37-.25,5.99.5,7.11s1.37-1,1.37-3.37,1.25-.62,1.62,1.37c.37,2,.26,6.36.26,6.36l-1.63,4.87s-3.24-4.62-3.37-6.12c-.12-1.5-1.25-7.74-1.62-6.24s-1.87,5.74-2.5,5.12c-.62-.62-1,3-1.37,4.87-.37,1.87-3,5.99-5.24,5.99s-2.87,1.5-2.25,2.75c.62,1.25.25,1.75-1.62,1.87-1.87.12-1,3.62-.62,5.74.37,2.12-2.62-1-4.87-4.99-2.25-3.99-3.37-4.87-5.12-3.87s2-3.49,4.99-4.12c3-.62,3.74-3.74,3.87-5.62s3.62-3.62,3.37-.12c-.25,3.49,4.12,2.87,4.12.37s-2.75-7.99-1.87-9.98c.87-2,5.6-4.86,5.6-4.86l3.89-2.01Z"></path>
        <path class="cls-13" d="M400.62,276.13s-3.67-.89-5.73-3.14c-2.06-2.25-1.13-3.42-.19-5.85.94-2.43-1.97-7.95-2.53-6.82s-2.03,1.02-4.27-2.35c-2.25-3.37-5.43-1.12-4.12,1.87s.75,6.93-.94,8.8c2.06,1.12,3.37,5.24,0,7.68-3.37,2.43-4.12,6.36-2.06,10.48,0,0,.86-6.01,5.15-5.62,4.29.39,4.98,8.38.58,10.14-2.81,1.12-9.29,1.1-10.23,1.66-.94.56-2.06,5.8.75,7.3,2.81,1.5,4.31-.56,4.49,1.12,0,0,2.25-2.43,3-1.5.75.94,6.18.75,6.18.75l6.55-10.11s2.62-9.36,3.37-14.41Z"></path>
        <path class="cls-13" d="M330.04,329.48s3.56-1.68,4.12-4.31c.56-2.62,2.43-5.05,4.12-6.74,1.68-1.68,3.56-4.49,3.93-5.99.37-1.5,9.36-9.92,10.86-9.73,1.5.19-4.12,6.18-1.31,6.93s7.86-5.05,8.99-3.18c1.12,1.87-5.05,9.36-6.93,11.79-1.87,2.43-.37,4.87-3.74,6.55-3.37,1.68-5.24,3.37-5.24,4.87s.94,5.8.94,5.8l-4.87-.19s.75-5.05.75-6.93c0,0-2.06-.19-2.43-1.68-.37-1.5-2.62.56-4.31,2.81-1.68,2.25-4.68,3-5.43,2.81s-1.87-.94.56-2.81Z"></path>
        <path class="cls-13" d="M300.15,314.51s-.5-7.24.5-9.11-.09-1.83-.62-1.12c-1.5,2-4.74,4.87-5.12,4.87l-1.32-6.14s3.44-1.35,3.56-4.6c.12-3.24-.62-7.86-.37-9.73s-.12-2.87,1.5-5.62c1.62-2.75,2.12-3.37,1.75-4.62-.37-1.25,1-1.75,1.25-.25s-.87,4.87.62,6.36c1.5,1.5.75,3.87,1.5,4.49s3.99-1.62,4.24-4.49,4.12-6.24,3.49-7.99c-.62-1.75,1.5-4.24,1.25-5.74-.25-1.5-.37-4.62.62-5.74,1-1.12,1.87.37,2.25,3.62.37,3.24-.12,3.62-1.12,5.74-1,2.12.12,3-.37,4.99s-.25,5.62-1.87,7.36c-1.62,1.75-3.24,5.49-3.37,7.61l-2,1s-1.12-.5-1.62-1.87-1-1.5-2.5-.87c-1.5.62-2.75,2-2.87,3.37s.87,2.62,2.87,1.75,4.74,1,3.87,3.12c-.87,2.12-3.24,2.87-3,5.24.25,2.37.75,5.24.75,5.24l-3.87,3.12Z"></path>
        <path class="cls-13" d="M308.01,260.97s-5.49,2.12-7.86,6.24c0,0-2.5,3.12-2.87,4.87-.37,1.75-3.24,5.24-4.24,6.61-1,1.37-3.49,5.99-3.74,7.99l-2.5-1.25s1.5-8.74,3.24-11.48,1.25-6.36,2.25-7.49,1.25-4.87,1.12-6.61c-.12-1.75-1.25-.25-2,1.25s-1.87,2.75-2.62,3-1.12.12-1.75,2.25c-.62,2.12-4.62,8.24-4.62,8.24l-4.49-5.37s.5-3.24,1.25-4.12c.75-.87,3.87-2.5,4.87-3.99,1-1.5,2.25-2.25,2.87-2.87.62-.62,1.75-1.62,1.5-3s-.25-1,1.25-1.62c1.5-.62,2.5-1.12,3.12-2.37.62-1.25,4.37-.37,4.37-.37l10.98,2.25s3.62,1.75,3.24,2.12-3.37,5.74-3.37,5.74Z"></path>
        <path class="cls-13" d="M277.69,227.65s-.37,6.49,1.25,7.99c1.62,1.5,2.62,4.62,1,5.74-1.62,1.12-6.12,4.49-6.49,7.61-.37,3.12.12,4.99-2,5.87,0,0,3.87-2.75,5.49-5.37,1.62-2.62,2.62-4.12,3-4.12s-.37,6.99,1.25,6.24c1.62-.75,1.87.75,1.87,2.12s3.12.75,3.62-1c.5-1.75-.12-6.12-1.25-4.74-1.12,1.37-2.87-5.99-.75-6.99,2.12-1,3.99-.62,3.99-1.75s-.25-3.87,1.37-2.87c1.62,1,3.37-2,2.37-2.75s-3.49-.37-2.87-1.87c.62-1.5-.37-4.87-.37-4.87,0,0-1,2-2,3.37-1,1.37,0,4.49-.87,4.99s-2.12,0-2-1.75c0,0-3.62,2.5-4.24,0-.62-2.5.25-6.12.25-6.12l-2.62.25Z"></path>
        <path class="cls-13" d="M229.39,210.42s-.37,2.75-2.25,4.24c-1.87,1.5-.62,4.62-3,6.12-2.37,1.5-3.99,3-4.62,5.49s-1.37,4.99-3.12,5.74-3.24,3.87-3.24,3.87l-1.87-1.62s4.99-5.99,4.49-8.24c-.5-2.25-2,1.37-3.37,1.87-1.37.5,0-3.62-1.37-2.37-1.37,1.25-3.74,3.99-5.12,3.49-1.37-.5-.75-5.12,2-7.24,2.75-2.12,4.74-5.99,4.99-7.99.25-2,1.12-5.37,3-6.12,1.87-.75,3.62-.62,4.37-1.25,0,0-1.87,2.5-1,4.24.87,1.75,2.12.37,2.12-1.25,0,0,2.62,1.75,3.12-5.37,0,0,4.24,2.87,4.87,6.36Z"></path>
        <path class="cls-13" d="M216.16,195.45s-1.25,5.74-2,7.99-3,5.74-4.37,5.99-1.5-2.5-2.25-1.12c-.75,1.37-1.12,5.24-3.49,6.24-2.37,1-6.74,1-6.74,1l-3.87-10.98s5.12,1.87,6.61.87,1.87-2.75,2-3.99c.12-1.25,1.62-3.62,2-2.87s1.12.25,2.5-.87,2,1,2.37,1.75,2.25-2.25,2.25-2.25c0,0-1,2.62,1,2.62s1-5.87.25-7.36l3.74,3Z"></path>
        <path class="cls-13" d="M193.45,201.81s2.25-5.12,2.37-6.61c.12-1.5,1.62-4.24,1.75-5.74s3.37-6.36,3.37-6.36l-4.49-3.87s-1.12,3.49-2,5.49,1.37,2.25,2.12,1.5c.75-.75-.12,2.12-1.75,3.49-1.62,1.37-3.99,7.11-3.99,7.11l2.62,4.99Z"></path>
        <path class="cls-13" d="M186.96,180.6s2.75-6.61,2.5-8.61,3.37-7.24,3.37-7.24l2.87-8.86.62-3.87s1.12-4.37,1.37-4.74,1-5.12,1-5.12l-.5-3.12-3.37-3.62-4.05-2.22s.81,2.97-.31,4.22c-1.12,1.25-3.37,4.87-3.24,6.12.12,1.25-.75,6.61-1.62,7.99-.87,1.37,1.25,5.49-.75,8.11s-3.12,2.62-4.24,4.99-1.5,5.12-1.5,5.12l6.24,11.98,1.62-1.12Z"></path>
        <path class="cls-13" d="M258.49,262.21s-.37-5.99.75-8.05c1.12-2.06,1.31-7.86,0-7.11-1.31.75-2.81-1.12-1.5-3.37,1.31-2.25,3.18-5.43,3.18-5.43,0,0-2.62-.37-5.05,1.68-2.43,2.06-4.12,3.18-5.62.37-1.5-2.81-3.56,0-4.49,2.25-.94,2.25-4.87,3.56-6.55,1.87-1.68-1.68-6.74.75-8.42,4.31-1.68,3.56-3.18,10.67-.37,8.24,2.81-2.43,9.36-8.61,9.55-7.11.19,1.5,4.49.19,5.43-1.12s1.31.37,1.87,2.25,2.81.19,4.68-1.12c1.87-1.31,3.56.94,1.87,3.37-1.68,2.43-5.05,7.3-3.37,10.11,1.68,2.81,8.05-1.12,8.05-1.12Z"></path>
        <path class="cls-13" d="M390.59,308.58c-.37.12-6.61.62-9.61,3.12s-4.74,1.37-4.24,0c.5-1.37-2.87,2.25-4.37,3.74-1.5,1.5-4.12.25-5.62,3.12-1.5,2.87-4.12,4.24-5.87,5.62-1.75,1.37.87,2.25,3.24.25,2.37-2,4.74-5.12,4.24-2.87-.5,2.25,3.99,1.37,4.99-.25s3.49-1.12,3.74.75,2.5,1.12,3.24-.75,1.75-2.87,2.62-3.37-.25-.75-2.25-.37c-2,.37-2.12-1.87-.12-2.75,2-.87,7.86,0,8.86-1.37,1-1.37,1.12-4.87,1.12-4.87Z"></path>
      </g>
      <path class="cls-7" d="M170.51,140.4s4.15-3.31,6.01-4.71,2.97-3.99,6.79-1.18,5.56,5.16,7.91,5.22"></path>
      <path class="cls-7" d="M167.7,148.99s4.21-3.99,6.34-6.57,3.31-3.41,4.6-3.91c1.29-.51,1.47-1.25,5.38,1.21,3.99,2.5,6.78,5.21,7.23,5.38"></path>
      <path class="cls-7" d="M190.77,143.55c1.96,4.1-.53,5.26-.53,5.26,0,0-1.11,1.09-1.67-2.5l-1.11.65"></path>
      <path class="cls-7" d="M189.76,136.31s1.64,3.74,2.71,4.52,3.34,1.11,3.34,1.11"></path>
      <path class="cls-7" d="M191.22,143.83s2.27-.5,3.19,1.82"></path>
      <line class="cls-7" x1="190.27" y1="143.21" x2="189.31" y2="139.72"></line>
      <path class="cls-7" d="M193.16,162.11s.3-3.91-2.78-5.15c-3.09-1.23-3.03-3.03-2.64-3.2s2.36.73,2.47-1.23"></path>
      <path class="cls-7" d="M396.8,220.45s5.32,4.4,6.97,12.11"></path>
      <path class="cls-7" d="M421.56,242.28s5.87,2.52,5.87,8.26c0,2.57,2.38,4.22,2.38,4.22"></path>
      <path class="cls-7" d="M380.65,242.83s6.05,5.5,15.23,2.38"></path>
      <path class="cls-7" d="M414.41,266.68s5.87,2.38,9.54,2.02"></path>
      <path class="cls-10" d="M355.35,275.43c3.28-1.03,6.99-1.87,9.54-4.26,1.78-3.8,1.94-8.23,3.41-12.2.89-2.51,2.08-4.88,3.52-7.12.18-.28.63,0,.43.29-2.97,4.4-4.24,9.5-5.22,14.66-.41,1.62-.61,3.34-1.49,4.84-.62.85-1.58,1.41-2.46,1.92-2.37,1.29-4.85,2.19-7.38,3.07-.33.11-.68-.06-.79-.39-.12-.35.09-.73.44-.81h0Z"></path>
      <path class="cls-7" d="M396.61,261.91s-4.08-6.85-9.22-10.15"></path>
      <path class="cls-7" d="M389.83,253.65s-1.1,2.94-.37,8.26"></path>
      <path class="cls-7" d="M388.36,266.31s.18,8.44-1.65,14.31c-1.83,5.87-3.49,13.76-3.49,14.68"></path>
      <path class="cls-7" d="M435.69,284.47s0,6.05-8.62,14.68c-8.62,8.62-22.75,23.67-22.75,23.67"></path>
      <path class="cls-10" d="M360.82,352.04c1.56-1.66,2.34-4.08,2.45-6.37.08-1.19.06-2.39.06-3.61-.02-1.22.14-2.82,1.42-3.42.3-.18.56.3.25.45-1.03.52-1.09,1.79-1.06,2.97.05,2.43.22,4.97-.63,7.31-.43,1.19-.99,2.3-1.9,3.29-.16.18-.43.19-.61.03-.19-.17-.18-.48.01-.65h0Z"></path>
      <path class="cls-10" d="M363.66,356.25c4.96,1.05,3.18-8.09,4.52-10.84.37-.7,1.08-1.14,1.75-1.34.14-.04.28.03.32.17.04.13-.03.27-.16.32-1.38.45-1.66,1.68-1.66,3-.16,2.77.25,5.58-1.05,8.24-.73,1.48-2.58,2.31-4.21,1.77-.93-.3-.42-1.69.49-1.32h0Z"></path>
      <path class="cls-10" d="M373.8,350.69c-.91.75-.86,2.33-.72,3.46.38,2.7.83,5.52-.11,8.21-.24.94-2.56,4.51-3.61,3.24-.21-.31-.12-.73.19-.93,3.59-2.11,3.17-6.82,2.82-10.44-.07-1.4-.12-3.05,1.21-4,.32-.18.56.3.23.46h0Z"></path>
      <path class="cls-7" d="M328.37,275.97s-2.94.24-3.42-4.28c-.49-4.53-.65-7.27-.65-7.27"></path>
      <path class="cls-7" d="M324.94,271.69s1.35,5.38-5.87,8.07c-7.22,2.69-13.65,7.91-28.6,7.57"></path>
      <path class="cls-7" d="M319.68,279.72s-2.26,4.89-1.58,8.12"></path>
      <path class="cls-7" d="M310.02,294.2s-11.62,3.55-13.94,9.78"></path>
      <path class="cls-7" d="M303.42,238.42s-2.94,1.47-6.48,2.81c-3.55,1.35-5.63,2.81-6.12,3.67"></path>
      <path class="cls-7" d="M235.91,229.64s.73-1.83,6.85-2.08c6.12-.24,12.96-1.1,12.96-1.1"></path>
      <path class="cls-10" d="M238.43,223.08c-2.92,2.46-6.68,3.99-10.51,3.26-.14-.02-.24-.16-.21-.3.02-.14.16-.23.29-.21,3.59.43,6.99-1.25,9.45-3.72.64-.73,1.71.32.99.97h0Z"></path>
      <path class="cls-7" d="M216.39,231.33c-.37-.24-8.68-6.6-10.52-8.81s-7.71-18.47-8.81-22.38"></path>
      <path class="cls-7" d="M341.01,295.37s14.76,1.22,19.83,2.86c5.06,1.64,9.93-1.1,9.93-1.1"></path>
      <path class="cls-7" d="M335.78,303.59s13.48,2.34,17.72,4.55c4.24,2.21,9.17,1.83,11.01,1.65"></path>
      <path class="cls-7" d="M343.04,319.33c-.55,0-2.94,1.28-8.07,1.1-5.14-.18-11.56,3.67-11.56,3.67l4.04,11.01"></path>
      <path class="cls-7" d="M323.42,324.1s-2.94,0-4.59,1.1"></path>
      <path class="cls-7" d="M373.74,207.85s-8.85,10.03-9.3,15.78c-.61,7.83.79,14.06.79,14.06,0,0,3.12,7.71,11.01,11.01,7.89,3.3,14.68,4.04,20.55,2.38"></path>
      <path class="cls-10" d="M415.29,272.19c3.86.79,8.09.4,11.67-1.34.29-.14.52.31.23.46-3.66,2.14-8,2.86-12.2,2.33-1.02-.17-.71-1.69.3-1.45h0Z"></path>
      <path class="cls-10" d="M282.01,276.91c1.4-8.59,1.73-17.29,3.17-25.87.05-.32.56-.25.51.08-.94,8.63-1.18,17.35-2.36,25.97-.11.87-1.45.71-1.33-.18h0Z"></path>
      <path class="cls-7" d="M284.34,261.54s-15.23-4.22-25.68-2.02"></path>
      <circle class="cls-10" cx="300.78" cy="267.76" r="2.2"></circle>
      <g class="cls-17">
        <path class="cls-10" d="M277.83,224.9c-2.05,2.22-4.14,4.29-6.74,5.88-2.63,1.29-4.85,3-6.85,5.12-1.72.53,2.3-3.29,2.61-3.58,1.02-.99,2.38-1.89,3.53-2.64,2.22-1.66,4.12-3.93,5.8-6.14.9-1.15,2.61.23,1.65,1.35h0Z"></path>
      </g>
      <path class="cls-10" d="M359.46,338.21c2.67-8.38,13.21-6.69,19.01-11.04,3.09-3.32,6.26-6.85,10.31-9.06,0,0,.25.45.25.45-3.72,2.56-6.73,6.02-9.79,9.36-5.85,4.68-16.15,2.44-19.29,10.45,0,0-.49-.16-.49-.16h0Z"></path>
      <path class="cls-15" d="M291.98,385.35s2.69-5.63,1.47-8.56c0,0,2.94-5.87,2.45-10.03,0,0-2.45-2.94-1.96-11.74.49-8.81.24-10.76,8.07-17.12,7.83-6.36,14.19-12.47,21.04-19.57,6.85-7.09,15.65-17.61,20.79-29.11,5.14-11.5,9.78-21.77,12.47-31.31,2.69-9.54,8.64-21.86,8.64-21.86,0,0-.53-6-.66-8.93-.12-2.94,1.26-8.77,2.85-11.3,1.75-2.8,6-8.01,6-8.01,0,0-3.75-2.36-5.82-1.26l-2.08,1.1s-1.08,4.79-3.53,9.93c-2.45,5.14-2.83,9.4-3.45,10.99-.61,1.59-3.79,8.19-3.79,8.19,0,0,1.35,2.08-2.45,6.12,0,0-4.16,11.01-6.6,13.82l-1.59,4.16s-4.04,4.65-5.87,7.34c-1.83,2.69-17.86,24.46-26.66,32.29s-12.87,15.72-19.81,21.28c-6.12,4.89-9.3,6.85-15.17,25.68-5.87,18.83-5.63,34.73-2.94,40.6,2.69,5.87,6.6,11.01,14.19,9.3,0,0,2.69-2.45,1.71-4.4,0,0,4.16-2.94,2.69-7.58Z"></path>
      <path class="cls-10" d="M299.37,385.16c-12.54-3.45-15.2-21.3-13.33-32.32,2.07-12.85,13.16-20.87,20.56-30.67,7.55-9.82,13.97-20.52,22.09-29.98,4-4.74,8.08-9.44,11.13-14.83,3.12-5.34,5.39-11.14,7.26-17.04.04-.14.19-.21.32-.17.14.04.21.19.17.32-1.86,5.93-4.13,11.77-7.26,17.17-3.06,5.45-7.17,10.2-11.14,14.95-8.05,9.44-14.43,20.14-21.98,30.03-7.27,9.74-18.28,17.67-20.31,30.37-1.75,10.54.73,27.81,12.63,31.2.66.07.52,1.09-.15.96h0Z"></path>
      <path class="cls-10" d="M361.24,235.87c-3.82,6.35-6.27,13.5-8.21,20.63-5.37,19.84-17.81,43.65-32.07,58.51-.1.1-.26.1-.37,0-.1-.1-.1-.27,0-.37,10.15-10.91,17.58-24.06,23.94-37.46,3.13-6.75,5.95-13.66,7.78-20.88,1.97-7.21,4.53-14.32,8.49-20.73.08-.12.23-.16.36-.08.13.08.16.25.07.37h0Z"></path>
      <path class="cls-10" d="M309.35,311.88c-9.54,7.79-19.35,16.27-25.03,27.38-1.72,3.76-2.85,7.78-3.73,11.83-1.66,8.09-2.47,16.51-1.52,24.73.46,4.09,1.72,8.08,4.9,10.87,2.94,2.8,6.87,4.61,10.86,5.1.27,0,.48.25.45.52-.03.25-.26.44-.52.4-4.28-.54-8.3-2.43-11.4-5.39-3.29-2.89-4.68-7.19-5.11-11.41-.92-8.36-.08-16.8,1.64-24.99.91-4.08,2.06-8.14,3.83-11.96,1.81-3.82,4.34-7.21,7.04-10.4,5.47-6.35,11.69-11.97,18.28-17.11.11-.09.28-.07.36.04.09.12.07.28-.05.37h0Z"></path>
      <path class="cls-3" d="M296.98,315.12s15.73-16.73,22.38-23.99c6.65-7.26,23.99-27.42,26.41-35.69,2.42-8.27,5.65-8.47,9.48-20.77,3.83-12.3,9.62-26.48,9.62-26.48,0,0,3-4.21,8.68.24l-2.26,2.1c-10.27,10.52-6.71,26.07-6.71,26.07,0,0-5.03,11.6-7.72,19.43-2.69,7.83-6.12,22.75-18.1,43.05-11.99,20.3-39.93,42.6-39.93,42.6-.79.54-1.68,2.18-1.68,2.18"></path>
      <path class="cls-15" d="M313.06,130.7s.52,1.34-.86,1.59-2.6.53-2.04,1.47c.56.94.51,1.89-1.44,2.33-1.94.44-1.57-1.13-.82-2.01s-1-2.7-1-2.7l6.15-.69Z"></path>
      <path class="cls-15" d="M302.86,131.76c.01-.1-6.19.74-6.19.74,0,0,.31.72.69,1.05s.36,1.04.36,1.68.74,1.8,1.43,1.75c.69-.05,1.39-.75,1.14-1.65-.26-.9.38-1.25,1.2-1.74.82-.49,1.24-.92,1.37-1.84Z"></path>
      <path class="cls-15" d="M292.15,137.1c.55-.58.97-.74.74-1.27s-.56-1.46-.07-2.1.59-.79.59-.79l-3.48.61s.74.75.33,1.65-.38,1.09-.12,1.68c.26.59,1.1,1.2,2.02.23Z"></path>
      <path class="cls-15" d="M284.31,139.07s.89-.47.63-1.47c-.26-1-.03-1.39.63-1.77s.74-1.67.74-1.67c0,0-1.46.41-2.53.61s-2.02.41-2.02.41c0,0,1.07,1.14,1.24,2.01s.48,2.07,1.3,1.87Z"></path>
      <path class="cls-15" d="M276.7,141.64c.64-.03,1.55-1.15,1.7-1.74s.06-1.11-.17-1.67-.28-1.69.13-2.25c0,0-2.51.59-2.66.69,0,0,.21.77.47,1s.34,1.12-.2,1.5-.04.83.25,1.21.49,1.26.49,1.26Z"></path>
      <path class="cls-15" d="M270.61,141.25s1.1-.41.84-1.43c-.26-1.02,0-1.51.51-1.89s.61-.79.61-.79c0,0-1.94.38-2.74.56-.8.18-1.53.36-1.53.36,0,0,.77,1,.84,1.69.08.69.77,1.48,1.46,1.51Z"></path>
      <path class="cls-15" d="M263.21,143.27c.55.12,1.27-.66,1.17-1.4s.26-.95.9-1.44.44-1.34.44-1.78c0,0-1.07.35-2.2.67s-1.66.56-1.66.56c0,0,.3.84.56,1.07.46.41-.23,2.08.79,2.31Z"></path>
      <path class="cls-15" d="M258.22,144.87s1.02-.43.95-1.3-.05-1.23.31-1.64.74-1.3.74-1.3c0,0-1.25.51-2.61,1l-1.36.49s.69,2.63,1.97,2.76Z"></path>
      <path class="cls-15" d="M252.67,147.18c.6-.22.52-.64.57-1s.7-1.2,1.03-1.44.5-1.16.24-1.88c0,0-1.94.87-3.38,1.87,0,0,.08.51.51,1.18.43.67.66,1.4,1.02,1.27Z"></path>
      <path class="cls-15" d="M248.76,150.85c.53-.31.55-.82.5-1.64-.05-.82-.16-.97.4-1.3.56-.33.78-1.78.52-2.58,0,0-1.24.73-2.28,1.79s-1.1,1.18-1.1,1.18c0,0,1.08,3.06,1.95,2.55Z"></path>
      <path class="cls-15" d="M244.78,153.42c.03.87.63,1.36,1.35.9s.73-1.92.5-2.87-.47-1.99-.72-1.97-1.2,1.97-1.13,3.94Z"></path>
      <path class="cls-15" d="M244.12,159.94s2.56-.43,2.25-2.03c-.31-1.6-1.44-2.39-1.62-2.17s-.72,3.2-.63,4.2Z"></path>
      <path class="cls-15" d="M246.66,165.8c.51.61.9.54.97-.31.08-.84,0-1,.59-1.1.59-.1,1.48-.97,1.79-1.46s-.41-.84-1.13-1.77c-.72-.92-1.15-1.15-1.56-1s-.41.87-.38,1.69c.03.82-.13,1.13-.41,1.41s-.87.69-.82,1,.95,1.53.95,1.53Z"></path>
      <path class="cls-15" d="M252.03,169.85c.42.59.95,1,1.66.38s1.1-.81.74-1.3-.29-1.19.4-1.5.27-.34,1.27-1.23.71-1.16-.31-1.6-1.77-.74-2.35-.95-1.3-.03-.97,1.25.35,2.17-.27,2.66-.83,1.36-.17,2.28Z"></path>
      <path class="cls-15" d="M259.99,173.4c.87.12,1.91-.62,1.63-1.61s.05-1.33.9-1.59,2.49-1.53,2.85-2.33.33-1.33-1.48-1.64c-1.82-.31-3.61-.54-4.22-.41s-.92,1.48-.69,3.2-.08,1.79-.2,2.2-.49,1.94,1.23,2.17Z"></path>
      <path class="cls-15" d="M269.84,174.66c1.09.14,2.8-1.17,2.37-2.14-.43-.97-.77-1.38-.38-1.61s1.72-1.29,2.24-1.93,1.25-1.2.77-1.61c-.49-.41-.33-.38-1.74-.43s-4.22-.38-4.58.51.18,1.79.54,2.43c.36.64.56,1.41.05,2.02s-1.1,2.53.74,2.76Z"></path>
      <path class="cls-15" d="M280.07,174.97s2.54-.6,1.8-2.34c-.73-1.74-.33-1.6.37-2.34s2.07-1.9.93-2.27-4.84-.57-4.84-.57c0,0-1.2.9-.2,2s1.5,1.37,1,1.87-2.04,3.14.93,3.64Z"></path>
      <path class="cls-15" d="M289.95,176.48c1.9.2,3.27-1.47,2.94-2.67-.33-1.2-.67-1.57.27-2.04.93-.47,2.54-1.33,2.27-2.54-.27-1.2-1.3-.4-2.9-.63-1.6-.23-3.67-.53-4.17-.43s-1.67.27-.9,1.33,2.27,1.6,1.84,2.5c-.43.9-1.33,2.3-.93,3.14s1.6,1.33,1.6,1.33Z"></path>
      <path class="cls-15" d="M302.39,176.38c1.9-.07,2.57-1.64,2.3-3.24-.27-1.6-.43-1.8.4-2.14s2.1-1.4,2.24-1.9-.4-1-2.27-.4-3.7.07-5.07-.1-2.54.5-1.27,1.84c1.27,1.33,2.2,2,1.77,3.47s.2,2.54,1.9,2.47Z"></path>
      <path class="cls-15" d="M313.34,175.84c1.36-.13,2.54-1.4,2.37-3.1-.17-1.7-.73-2.04.03-2.64s1.3-1.4,1.1-2-1.03-.2-2.6-.17c-1.57.03-3.4.63-3.87.6s-.43.73.37,1.67c.8.93.93,1.6.53,2.74-.4,1.13-.07,3.1,2.07,2.9Z"></path>
      <path class="cls-15" d="M322.78,167.73c2,.12,4.17-.57,2.74,1-1.44,1.57-1.4,3.34-1.54,4.27-.13.93-1.27,1.9-2,1.9s-1.94-.93-1.47-2.17.3-1.7-.13-2.44-1-2.1-.73-2.44,2-.2,3.14-.13Z"></path>
      <path class="cls-15" d="M332,166.76c1.95,0,3.3-.43,2.67,1.07-.63,1.5-1.9,1.5-1.3,3.14s.77,3.47-1.37,4.07c-2.14.6-2.64-1.64-2.17-3.24.47-1.6.53-2.6-.03-3.3s-1.9-1.74,2.2-1.74Z"></path>
      <path class="cls-15" d="M340.51,166c2-.21,3.37-.47,3.34.4s-1.6,1.3-.9,2.6c.7,1.3,1.2,2.74-.83,3.8-2.04,1.07-2.67-1.1-2.57-2.34.1-1.23-.5-2.07-1.03-2.37s-1.47-1.1-1.4-1.47,1.54-.43,3.4-.63Z"></path>
      <path class="cls-15" d="M350.75,172.64c1.64-.13,2.54-1.7,2.2-2.67s-1.3-1.74-.3-2.37c1-.63,1.44-2.04.6-2.24-.83-.2-1.77.2-3.17.17s-3.2-.23-3.1.63,2.07,1.1,1.94,2.37-.7,2.27.27,3.27c.97,1,1.57.83,1.57.83Z"></path>
      <path class="cls-15" d="M359.79,171.94s2.14-.8,1.8-2.44c-.33-1.64.1-1.77.67-2.54s.97-1.3.67-2-1.47-.23-2.7-.1-3.47.07-3.37.9,1.47,1.3,1.3,2.97-.17,3.44,1.64,3.2Z"></path>
      <path class="cls-15" d="M371.21,168.86c1.41-.58,1.28-1.56,1.1-2.25s.14-1.42.41-2.06c.28-.64.41-1.79-1.19-1.51-1.61.28-4.22,1.1-4.77,1.1s-1.28.78-.14,1.51c1.15.73,2.75.69,2.61,1.88-.14,1.19.73,1.83,1.97,1.33Z"></path>
      <path class="cls-15" d="M380.94,167.35c.89-.46,1.33-1.65.73-2.61-.6-.96-.64-1.51-.14-2.25s0-1.83,0-1.83c0,0-1.61.96-3.3.96s-3.39.5-2.38,1.47c1.01.96,1.83,1.83,1.88,2.84.05,1.01,1.79,2.16,3.21,1.42Z"></path>
      <path class="cls-15" d="M387.77,165.47c1.31-.25,1.79-1.65,1.61-2.48s-.05-1.65.64-2.38.32-1.97.32-1.97c0,0-1.83.6-3.12.73s-3.67.87-2.38,2.02,1.56,1.38,1.42,2.38.55,1.88,1.51,1.7Z"></path>
      <path class="cls-15" d="M396.35,161.89c1.3-.69.37-2.06,1.19-2.61.83-.55,1.01-2.89,1.01-2.89,0,0-1.61.6-3.21.87s-3.07.87-2.29,1.65,1.38.6,1.47,1.56.55,2.11,1.83,1.42Z"></path>
      <path class="cls-15" d="M400.93,156.43s3.07-1.51,3.76-2.57c0,0,.41.78.05,1.56s-.41,1.97-.92,2.71c-.5.73-1.51-.18-2.06-.55s-.83-1.15-.83-1.15Z"></path>
      <path class="cls-15" d="M411.02,143.45s1.28-.64,1.33-1.38c.05-.73,1.28-.55,1.28-.55,0,0-1.33-2.48-2.16-2.71s-.46.78-.73,1.28-1.1.41-1.01,1.01-1.28,1.97,1.28,2.34Z"></path>
      <path class="cls-15" d="M403.73,140.79c1.05.71,1.97-.46,1.97-1.65s.05-.78.6-1.05,1.01-.92,1.01-.92l-4.04-1.33s-.18,1.51.05,2.2c.23.69-1.56,1.42.41,2.75Z"></path>
      <path class="cls-15" d="M396.53,139.14c1.07.38,2.34-1.24,2.25-2.11-.09-.87.69-.83.96-1.1s.92-.87.55-1.24-1.42-.32-2.71-.73c-1.28-.41-2.52-.64-1.97.6s1.05,1.56.37,2.16-.6,2.02.55,2.43Z"></path>
      <path class="cls-15" d="M388.73,138c.96.35,1.65-.37,1.61-1.1-.05-.73.41-1.38,1.01-1.65.6-.28,1.56-1.33.92-1.83s-2.94-.32-3.58-.41c-.64-.09-1.28,1.1-.92,2.11.37,1.01-1.19,2.11.96,2.89Z"></path>
      <path class="cls-15" d="M381.08,137.22c1.05.16,1.7-.73,1.51-1.61-.18-.87.18-1.05.78-1.51s1.24-.96,1.19-1.51-1.47-.78-2.94-.96-3.26-.32-2.8.73,1.51,1.28,1.1,2.34c-.41,1.05-.09,2.34,1.15,2.52Z"></path>
      <path class="cls-15" d="M372.04,136.11c1.4.35,2.25-1.01,2.2-1.79s.32-1.38.78-1.7c.46-.32.96-.96.28-1.28s-3.21-.5-4.08-.46c-.87.05-1.74.73-.92,1.28.83.55.41,2.06.64,2.61.23.55.37,1.15,1.1,1.33Z"></path>
      <path class="cls-15" d="M363.33,136.57c.91.09,1.74-1.79,1.61-2.52-.14-.73.55-1.19,1.1-1.51.55-.32,1.28-1.38,0-1.56-1.28-.18-4.04-.28-4.54-.09-.5.18-.41,1.28.23,1.93.64.64-1.51,3.44,1.61,3.76Z"></path>
      <path class="cls-15" d="M354.2,137.44c1.51-.07,1.28-3.26,2.38-3.49s2.34-2.84,1.01-3.07c-1.33-.23-6.01.5-5.27,1.24s1.15,1.47.69,2.25c-.46.78-1.83,3.21,1.19,3.07Z"></path>
      <path class="cls-15" d="M301.23,143.15l-5.43-2.51s-9.3-.31-7.84,1.46c1.46,1.78,4.6,3.87.63,9.09-3.97,5.23-14.32,13.06-14.32,13.06l4.08,1.05s14.21-7.42,14.53-13.79c.31-6.37-1.05-8.67.21-8.05l7.84,1.15.31-1.46Z"></path>
      <path class="cls-15" d="M361.6,146.14s.45,3.28,13.72,1.81c13.27-1.46,14.42-1.25,14.42-1.25l.73,1.25s-10.56,1.15-19.54,12.02l-3.23.93s4.38-7.83,10.13-10.13c0,0-9.93,1.15-15.29-1.69l-.94-2.95Z"></path>
      <path class="cls-15" d="M354.21,162.17l5.12.21s4.28-2.61,1.25-9.61c0,0-.63,6.58-6.37,9.41Z"></path>
      <path class="cls-15" d="M313.87,165.09s-12.54-5.64-14.84-13.69l-1.05.73s-3.03,9.82,8.57,13.27l7.32-.31Z"></path>
      <path class="cls-15" d="M357.53,145.89l.69-.68c-16.66-16.94-25.9-15.49-28.54-14.54-.03-.02-.06-.05-.09-.06l-.26-.08c-11.64-4.18-27,15.66-27.65,16.51l.77.59c.15-.2,14.47-18.73,25.38-16.47-1.94,1.02-5.75,3.66-10.58,10.25-6.82,9.3-11.15,15.52-11.19,15.58l.8.55c.04-.06,4.36-6.27,11.17-15.56,5.84-7.97,10.16-10,11.19-10.39,0,0,.14.08.35.19,9.61,6.42,14.09,28.8,14.14,29.03l.95-.19c-.18-.93-4.44-22.08-13.95-29.2,3.12-.7,11.9-.69,26.82,14.48Z"></path>
      <path class="cls-9" d="M344.18,160.71s-4.6-23.51-14.84-29.68c0,0-4.81,1.25-11.7,10.66-6.9,9.41-11.18,15.57-11.18,15.57"></path>
      <path class="cls-9" d="M329.34,131.03c-11.5-4.39-27.28,16.3-27.28,16.3"></path>
      <path class="cls-9" d="M329.43,131.06s8.9-5.36,28.44,14.49"></path>
      <path class="cls-15" d="M406.28,152.2s2.13-2.39,2.65-2.9c.51-.51,1.79-.43,1.79.6s-1.19,2.26-1.07,2.77-.94,3.24-1.92,2.6-1.45-3.07-1.45-3.07Z"></path>
      <path class="cls-15" d="M410.42,146.1s.6,1.95,2.09,1.45c.13-.04,1.19-2.69.77-2.99s-2.86,1.54-2.86,1.54Z"></path>
      <path class="cls-15" d="M331.88,179.04l2.72,2.16,9.11-4.18s7.34,1.35,10.27,1.71c2.94.37,4.28-.24,4.28-.24l-.37-1.47s-8.81-.37-13.45-2.08c0,0-9.69,3.93-12.57,4.11Z"></path>
      <path class="cls-15" d="M305.4,183.68h-4.49s-5.52,3.53.28,8.16c.91.73,2.04-.5,2.48-1.65.45-1.18.18-2.29.18-2.29l.18-1.19s1.38,1.74,2.02,1.01c.64-.73-.64-4.04-.64-4.04Z"></path>
      <path class="cls-15" d="M300.68,193.84s-3.49,1.12-3.22,2.44c.27,1.32.81,1.9,3.39,1.25s2.1-2.23,2.1-2.23l-.85-.3s-.58.88-1.18.91-.24-2.07-.24-2.07Z"></path>
      <path class="cls-15" d="M306.7,189.27l1.35,1.93s-2.13,1.46-1.66,2.2,1.93-.61,1.93-.61c0,0,1.9,1.86.41,2.81-1.49.95-2.17,1.12-3.32.03-1.15-1.08-.78-5.45,1.29-6.36Z"></path>
      <path class="cls-15" d="M305.25,198.07s2.81.2,3.42-.1l.41.64s-2.91.85-2.17,1.29,2.03.78,2.34,1.42c.3.64-.54,1.66-.14,1.66s1.32.24,1.29.71-.78,2.2-1.32,1.32-1.22-.85-1.93-.71-2.27-.61-1.59-3.42c0,0-1.56-.54-1.32-.98s1.02-1.83,1.02-1.83Z"></path>
      <path class="cls-15" d="M311.12,192.24s1.28,6.12,1.96,16.21c.67,10.09,4.89,18.59,4.89,18.59,0,0,2.38-.31,3.18.43,0,0-1.71-3.61-2.26-8.38-.55-4.77-1.9-9.72-1.9-9.72l1.71-.98s1.53,2.94,2.32,7.71,2.81,11.62,3.97,12.9,2.38,2.26,3.18,1.1c.79-1.16,1.83-2.94,4.22-2.94s4.65-.31,4.65-.31l-1.59-1.1s-3.18-.24-4.59-2.08c-1.41-1.83-2.63-.31-4.46-3.73-1.83-3.42-1.96-3.91-1.96-3.91,0,0-3.18-1.77-2.14-5.44,0,0-1.9-1.41-1.9-2.69s-.86-1.65-1.65-2.63c-.79-.98-.98-2.57-1.71-3.49s-.43-3-.43-3c0,0-2.32-1.83-2.08-2.81.24-.98-1.53-2.2-1.1-3.79l-2.32.06Z"></path>
      <path class="cls-10" d="M353.32,232.99c-1.16-2.52-3.4-3.59-5.32-4.02l.41-.53c.49-.63.47-1.52-.05-2.13-.33-.39-.81-.59-1.29-.59-.28,0-.55.07-.81.21-1.51.82-5.26,1.02-8.28,1.17-.1,0-.17.01-.26.02l-.59,2.79-7.67,1.36c.02.12,0,.25.04.36-.18.14-.37.3-.57.49-.15-.27-.37-.49-.63-.64l-13.62,2.41-2.53.36c-3.47,5.24-9.29,9.62-13.8,12.48-1.78,1.13-4.12,2.9-3.82,5.28.33,2.65,3.73,3.76,5.36,4.3,2.14.7,6.07,1.26,8.44,1.56,0,.03.02.06.03.09-.27.17-.48.41-.62.7l-.97,2.02c-.25.52-.22,1.12.08,1.61,1.69,2.77,4.76,4.18,9.13,4.18,2.48,0,4.89-.45,6.52-.75,2.44-.46,4.35-2.51,5.6-4.35,1.02,1.19,2.48,1.76,4.42,1.76.81,0,1.7-.09,2.7-.21,3.85-.43,6.41-2.95,6.51-3.05.48-.48.56-1.21.3-1.84,0-.02-.02-.03-.02-.05,1.85-1.05,3.27-2.86,4-4.57,1.23-2.91,4.31-9.55,5.91-11.77,1.76-2.45,3.27-4.56,1.41-8.61Z"></path>
      <path class="cls-10" d="M324.9,250.11c.12-.18,3.3-3.97,3.36-4.16s-1.47-6.91.18-8.87c1.65-1.96,4.28-5.2,4.28-5.2,0,0-4.89-.67-5.08-.67s-4.28,1.77-4.34,1.96-1.28,6.48-1.28,6.48l1.28,10.76,1.59-.31Z"></path>
      <path class="cls-12" d="M351.78,233.7c-1.77-3.82-7.03-3.3-7.03-3.3l2.32-3c-3.36,1.83-13.21.98-15.1,2.2-1.9,1.22-.12,2.63-.12,2.63,0,0-1.71.24-3.97,3.91-2.26,3.67-.61,9.6-.61,9.6-1.53.67-2.81,3.3-2.81,3.3,0,0-.55-7.64,0-9.54.72-2.49-.06-4.46-.06-4.46l1.22.18,1.83-2.32c-3.67-.12-3.85-1.83-7.22-3-3.36-1.16-7.22.86-7.22.86l1.71,2.51c-3.18,5.93-9.48,11.07-15.47,14.86-5.99,3.79-1.83,5.56,1.16,6.54,3,.98,10.03,1.71,10.03,1.71l-.49,1.01c1.01.18,2.76.47,5.56.82,4.89.61,7.71-2.63,7.71-2.63l1.35.55s.18,2.57-5.44,3.85c-4.13.94-8.1.23-9.87-.63l-.97,2.02c2.87,4.71,10.28,3.32,13.89,2.64,3.61-.67,6.05-6.42,6.05-6.42.92,4.28,3.49,3.97,6.79,3.61s5.5-2.57,5.5-2.57c-3.06.06-3.67-1.9-3.67-1.9,3.24,1.47,6.42-1.28,7.58-4.04,1.16-2.75,4.34-9.66,6.05-12.05,1.71-2.38,2.75-3.79,1.28-6.97Z"></path>
      <path class="cls-11" d="M308.86,248.25c2.13.48,8.99-9.7,10.03-11.66,1.04-1.96,1.91-1.98,2.4-1.74s2.3-.6.89-1.46c-1.41-.86-4.08-2.27-4.33-1.35s.58,1.05-.28,2.57c-.86,1.53-7.3,9.47-8.46,10.63s-2.37,2.53-.25,3Z"></path>
      <path class="cls-11" d="M338.47,240.01c3.75,1.57,5.65,1.19,5.73.52s-2.1-1.92-5.08-2.78c-2.97-.86-3.55-1.67-1.47-2.09,2.09-.42,7.63,1.62,8.16.82.53-.8-4.28-2.81-5.81-2.87-1.53-.07,1.12-1.09,1.93-1.67.98-.7-1.04-1.05-3.41-.3s-3.08,1.96-5.08,2.7c-1.05.39-2.74,1.2-.74,2.99,2,1.79,5.77,2.68,5.77,2.68Z"></path>
      <path class="cls-11" d="M334.59,250.7s-4.81-3.81-5.22-7.95c-.47-4.7,6.22-2,9.03.56l-1.74,1.69s-3.91-3.96-4.7-2.3c-.79,1.65,4.47,5.93,4.47,5.93l-1.83,2.07Z"></path>
      <path class="cls-11" d="M312.31,249.24s2.78-5.25,6.81-6.29,2.81,6.35.47,9.36l-1.83-.85s2.88-5.03,1.18-5.69c-1.71-.66-4.89,4.84-4.89,4.84l-1.73-1.37Z"></path>
      <path class="cls-15" d="M330.38,195.19c-.52-.17-1.93-.59-3.07-.59-.13,0-.25,0-.36.02-.41-.88-1.74-3.32-4.1-4.06-.22-.66-.95-2.52-2.4-3.08-.11-.67-.48-2.37-1.53-3.45,5.8-.41,30.97-2.22,39.85-3.12l.49,3.69-.83.72c-.1.09-.16.22-.15.35l.12,1.58c-.57.28-1.79,1-1.92,2.21-.55.1-1.55.4-2.2,1.22-.28.36-.46.77-.55,1.23-.44-.43-1.07-.92-1.94-1.27l.17-.39c.21-.58.21-.91.21-1.25-.05-.96-.31-1.71-.77-2.35-.2-.33-.74-.76-1-.88l-.43-.25c-.55-.32-.76-.49-.88-.68-.18-.28-.2-.6-.2-.73,0-.02,0-.03,0-.04,0-.26-.09-.5-.26-.69-.18-.2-.43-.31-.7-.32h0c-.58,0-1.02.42-1.04.96,0,.01,0,.03,0,.04-.03.27-.09.91.26,1.78.23.52.67,1.07,1.23,1.5l.61.48s.22.27.23.28c.08.15.13.47.09.73,0,.01,0,.02.01.02.01,0,.04-.01.08-.03-.04.03-.08.07-.11.12l-.78,1.23c-2.57.25-3.38,2.01-3.59,2.61l-.17.09c-.43-.51-1.46-1.4-3.67-1.74-.04-.09-.09-.18-.14-.27,0,0-.17-.26-.17-.26-.15-.27-.35-.67-.38-1.1-.1-.68.41-1.22.41-1.23.3-.31.36-.77.17-1.15-.17-.34-.52-.56-.9-.56-.07,0-.39.08-.45.11-.04.02-.38.19-.81.61-.39.38-.87,1.11-1.04,1.97-.17.73-.12,1.44-.05,1.9-3,.57-4.69,2.68-5.11,3.27-.49.11-1.65.41-2.26.77Z"></path>
      <path class="cls-15" d="M360.39,185.51l.14,1.87c.06.75-.38,1.44-1.09,1.71-.36.14-.8.46-.87.63.04.45-.1.88-.39,1.23-.3.35-.72.53-1.17.56-.23.02-.83.17-1.07.48-.14.18-.17.47-.11.87.13.83-.36,1.63-1.16,1.88-.79.26-1.66-.11-2.03-.87,0-.01-.53-.95-1.94-1.4-.16-.05-.32-.13-.45-.22-.18,0-.38,0-.62,0h-.87c-1.41.1-1.76.93-1.83,1.19-.12.44-.43.87-.83,1.09l-.65.36c-.4.23-.89.28-1.33.13-.44-.14-.81-.45-1.01-.87h0s-.62-.73-2.57-.98c-.1-.01-.19-.04-.29-.06l-1.83.31c-2.79.37-4.13,2.28-4.14,2.3-.24.36-.61.62-1.04.71-.72.16-1.58.43-1.8.56-.29.25-.62.36-.96.36-.2,0-.41-.04-.62-.11-.94-.33-2.33-.64-2.82-.52-.82.18-1.63-.26-1.94-1.03-.3-.74-1.43-2.75-3.03-3.16-.59-.15-1.05-.61-1.21-1.2-.22-.79-.81-1.8-1.23-1.9-.69-.17-1.2-.75-1.27-1.46-.11-.96-.63-2.45-1.32-2.72-.77-.3-1.21-1.12-1.03-1.93l-2.7.61s1.07,2.7,1.35,3.91c.28,1.21.07,6.4,2.06,5.19,0,0-.64,1.99.21,2.92.85.93.71.93,1.49.64,0,0-.21,1.92.14,3.06.36,1.14,1.14,1,1.14,1,0,0,.21,3.56,1.78,3.91,0,0,.64,4.27,3.06,4.2,0,0-1.07,5.05,1.07,5.12,0,0,1.28,1.42,1.92,1.42,0,0-.78,2.56,1.07,4.06s2.13,1.07,2.13,1.07c0,0,1.71,2.99,3.7,3.56,1.99.57,1.21-.71,1.21-.71,0,0,2.85,2.63,4.91,2.63s1.64-1.14,1.64-1.14c0,0,3.34,1.35,5.34,1,1.99-.36,3.13-2.85,3.13-2.85,0,0,1.99,1.21,3.56.21,1.57-1,1.78-2.28,1.78-2.28,0,0,3.49-1.35,2.99-3.63,0,0,2.99-1.21,2.92-4.84,0,0,1.28-3.2-.36-4.48-1.64-1.28-1-.71-1.35-1.14-.36-.43.14-1.21.14-1.21l1.57.71s.78-.28-.43-1.92c-1.21-1.64-1.07-1.99-1.07-1.99l.78-.5s.36.5.71.93.85-1.57.07-3.06c0,0,2.49-2.56-1.21-6.12,0,0,.43-.64-.07-1.57,0,0,1.99-1.78,1.07-4.06s-1.4-2.5-1.4-2.5Z"></path>
      <path class="cls-10" d="M321.3,192.69c.29-.56.52-.83.52-.83.18-.21.17-.53-.03-.73-.21-.2-.54-.2-.75,0,0,0-.37.38-.73.96-.39.57-.79,1.41-1.18,2.15-.4.76-.83,1.5-1.17,2.01-.17.25-.32.45-.42.57-.12.14-.1.11-.1.11-.33.28-.37.78-.09,1.11.28.33.78.37,1.11.09,0,0,.19-.18.3-.34.14-.18.3-.44.47-.74.35-.6.74-1.41,1.1-2.22.36-.83.65-1.6.96-2.14Z"></path>
      <path class="cls-10" d="M325.95,196.45c.27-.1.41-.4.31-.67-.1-.27-.39-.42-.68-.32-.06.02-1.6.6-1.93,3.31-.29,2.31-2.21,5.6-2.82,5.91-.26.13-.37.44-.25.71.09.19.28.3.48.3.08,0,.16-.02.23-.05,1.02-.5,3.09-4.18,3.41-6.73.25-1.99,1.19-2.42,1.25-2.45Z"></path>
      <path class="cls-10" d="M329.37,202.76c-.06-4.44,1.51-5.45,1.61-5.52.24-.16.31-.49.15-.73-.16-.24-.49-.31-.73-.15-.11.07-2.16,1.35-2.08,6.41l.03,1.53c.07,3.31.08,3.58-1.35,5.49-1.08,1.45-2.06,3.1-1.92,5.12.02.28.25.49.53.49.01,0,.02,0,.04,0,.29-.02.51-.27.49-.56-.13-1.88.88-3.3,1.71-4.41,1.64-2.2,1.63-2.72,1.56-6.14l-.03-1.52Z"></path>
      <path class="cls-10" d="M342.41,196.91c3.17-.92,2.77-2.89,2.75-2.97-.06-.28-.34-.44-.61-.4-.28.05-.47.33-.42.61,0,.04.16,1.11-2.01,1.74-3.05.89-3.42,2.4-3.49,5.4-.06,2.61-1.61,5.75-3.68,7.48-.17.14-.36.29-.55.44-2.11,1.68-5.42,3.58-4.24,12.2.04.27.26.46.52.46.02,0,.05,0,.07,0,.29-.04.49-.31.45-.59-1.1-8.02,1.81-9.6,3.85-11.23.2-.16.39-.31.57-.46,2.32-1.94,3.99-5.34,4.06-8.27.07-2.75.29-3.7,2.73-4.41Z"></path>
      <path class="cls-10" d="M340.74,217.94c0-3.11,1.44-5.62,2.97-8.27.38-.66.77-1.33,1.14-2.03,2.04-3.79.3-7.02.23-7.16-.14-.26-.47-.35-.72-.21-.26.14-.35.46-.21.72.02.03,1.54,2.86-.23,6.14-.37.69-.75,1.35-1.13,2-1.6,2.78-3.11,5.4-3.11,8.8,0,4.26.73,5.66,4.19,8.83.1.09.23.14.36.14.14,0,.29-.06.39-.17.2-.21.18-.55-.03-.75-3.24-2.98-3.84-4.17-3.84-8.06Z"></path>
      <path class="cls-10" d="M347.12,216.7c-.61.17-1.34.8-1.67,1.2-.1-.58-.12-1.23.05-1.99.3-1.25.98-2.4,1.74-3.61.74-1.22,1.32-2.62,1.4-4.04.05-.63-.01-1.39-.13-1.98-.11-.62-.28-1.19-.47-1.7-.7-2.06-1.53-3.27-1.53-3.27l-.02-.03s-.01-.01-.02-.02c-.18-.23-.51-.28-.74-.1-.23.18-.28.51-.1.74,0,0,.83,1.09,1.59,2.98.18.48.33,1,.44,1.56.11.59.17,1.11.12,1.79-.06,1.21-.56,2.48-1.27,3.65-.73,1.16-1.44,2.46-1.96,3.71-.61,1.23-.79,2.82-.17,3.99.63,1.14,1.53,1.66,2.12,1.93.61.26.99.31.99.31.12.02.25-.02.34-.12.13-.15.12-.38-.03-.51,0,0-.25-.23-.7-.62-.37-.34-.86-.83-1.21-1.45.26-.5.87-1.2,1.43-1.35.86-.22,1.87.3,2.51.85,2.38,2.05.91,4.41.89,4.45-.11.27.01.58.28.69.07.03.14.04.21.04.2,0,.4-.12.49-.32.08-.19,1.79-3.11-1.17-5.67-1.22-1.05-2.35-1.41-3.39-1.13Z"></path>
      <path class="cls-10" d="M362.95,210.8c-.07-.04-5.55-2.94-7.84-5.99-.38-2.26-1.94-6.09-3.24-7.35-.21-.2-.55-.2-.75.01s-.19.54.01.75c.63.6,1.36,2.01,1.95,3.49-1.57-1.61-3.34-1.86-3.44-1.87-.3-.05-.55.17-.59.46-.04.29.17.55.46.59.03,0,2.7.37,4.08,3.45.18.41.46.83.8,1.26,0,.02-.03.02-.04.04-1.05,2.91-.53,4.73.84,7.91,1.43,3.35,3.55,4.22,3.72,4.31.08.04.16.06.24.06.19,0,.38-.11.47-.29.13-.26.03-.58-.23-.71-.04-.02-1.95-.79-3.23-3.78-1.28-2.98-1.59-4.5-.95-6.62,2.91,2.93,6.97,5.07,7.24,5.22.08.04.16.06.25.06.19,0,.37-.1.47-.28.14-.26.04-.58-.22-.71Z"></path>
      <path class="cls-10" d="M354.74,193.48c2.34.94,4.78,3.1,4.94,5.83.19,3.16,2.06,4.91,2.14,4.99.1.09.23.14.36.14.14,0,.28-.06.39-.17.2-.21.18-.55-.03-.75-.02-.01-1.64-1.54-1.8-4.28-.21-3.4-3.15-5.76-5.61-6.74-.27-.11-.58.02-.69.29-.11.27.02.58.29.69Z"></path>
      <path class="cls-10" d="M339.06,201.78s.44-2.03,3.73-1.1c3.29.93,2.45,2.2,3.42,2.14s-.18-2.32.37-2.51,1.65,2.38,2.26,2.08,1.04-2.69,2.08-3.18c1.04-.49,1.59-2.02-.06-2.57-1.65-.55-3.24-.37-4.04-1.16-.79-.79-1.77-1-1.77-1h-.36s-.47.38-.71.71c-.93,1.22-5.69,1.1-4.93,6.59Z"></path>
      <path class="cls-10" d="M317.71,197.24c1.51-1.73,2.03-4.14,3.53-5.91.1-.11.26-.11.37-.02.1.09.11.25.02.36-.35.41-.63.93-.89,1.43-.43.7-2.15,5.54-3.09,4.73-.18-.18-.13-.46.06-.6h0Z"></path>
      <path class="cls-7" d="M325.76,195.95s-1.29.46-1.59,2.88-2.31,5.93-3.11,6.32"></path>
      <path class="cls-7" d="M330.69,196.81s-1.92,1.13-1.85,5.96c.07,4.81.31,5.02-1.43,7.34-.96,1.28-1.95,2.79-1.82,4.76"></path>
      <path class="cls-7" d="M330.69,221.34c-1.24-9.08,2.49-10.4,4.6-12.16,2.11-1.76,3.8-5.01,3.87-7.87.07-2.87.38-4.11,3.11-4.9s2.38-2.35,2.38-2.35"></path>
      <path class="cls-7" d="M344.61,200.74s1.7,3.07-.23,6.65c-1.93,3.58-4.17,6.51-4.17,10.55s.62,5.33,4.02,8.45"></path>
      <path class="cls-7" d="M346.87,226.39s2.92-.16,4.33-3.09c0,0,1.67-2.72-1.03-5.06-2.71-2.34-4.5-.21-4.96,1.12"></path>
      <path class="cls-10" d="M346.3,201.46c1.45,2.4,2.66,5.3,1.91,8.13-1.37,4.27-6.2,8.26-.49,11.77.17.1.04.38-.15.31-.9-.31-1.78-.82-2.42-1.62-2-2.56.24-5.76,1.56-8.06,2.24-3.21,1.26-7.24-.84-10.24-.21-.27.25-.6.43-.29h0Z"></path>
      <path class="cls-7" d="M359.14,217.39s-2.1-.83-3.47-4.04c-1.38-3.21-1.79-4.86-.83-7.52"></path>
      <path class="cls-7" d="M362.7,211.27s-7.12-3.75-8.64-7.14c-1.51-3.39-4.49-3.76-4.49-3.76"></path>
      <path class="cls-7" d="M354.61,205.05c-.32-2.16-1.88-6.01-3.12-7.2"></path>
      <path class="cls-7" d="M362.18,203.9s-1.79-1.65-1.97-4.63c-.18-2.98-2.75-5.27-5.27-6.28"></path>
      <path class="cls-11" d="M362.51,204.97l-.69-.68.72-.78.21-.61.73-.23s.14,1.19-.14,1.7l-.28.5-.56.09Z"></path>
      <path class="cls-11" d="M342.27,196.4s-3,1.11-2.58,2.04c.41.93,1.27.84,1.27.84l1.81-.84-.49-2.04Z"></path>
      <path class="cls-11" d="M353.94,194.28s.54.35.67-.23.75-1.42.85-2.34h-.85l-.3.46-.65.55.28,1.56Z"></path>
      <path class="cls-11" d="M345.45,226.38s-1.07-.56-2-.73c0,0-.65-.1-1.24.37-.6.46-.37.9-.37.9l.28.85h1.51s1.54-.32,1.83-.64,0-.74,0-.74Z"></path>
      <path class="cls-7" d="M350.99,223.78s3.79.65,5.04-2.89c0,0,3.29-.91,2.99-3.63,0,0,1.82.02,3.53-3.81"></path>
      <path class="cls-15" d="M310.98,190.92h2.01s-.29-3.87-1.58-6.74l-3.44-.14,3.01,6.88Z"></path>
      <polygon class="cls-10" points=".29 370.98 108.55 255.75 83.49 246.52 150.09 190.02 123.72 181.23 179.72 141.34 189.73 150.93 172.66 168.74 194.72 181.23 136.25 236.62 161.53 246.08 2.98 372.94 0 373.95 .29 370.98"></polygon>
      <polygon class="cls-16" points="7.51 366.47 155.89 246.45 129.47 238.01 190.47 181.29 169.2 169.2 186.54 151.13 179.68 144 130.66 180.19 155.61 189 90.24 245.77 114.9 254.11 7.51 366.47"></polygon>
      <path class="cls-10" d="M200.16,139.56l54.8-51.77-34.38,3.8,76.01-69.07-4.76-2.72-18.52,5.11,17.16-13.27,7.48-9.18s-7.48-3.06-8.5-2.38-51.33,37.05-51.33,37.05l1.36,3.06,23.54-3.07-79.72,69.11v2.9l33.08-3.18-26.9,24.25"></path>
      <polygon class="cls-16" points="210.99 97.22 245.21 92.3 200.02 136.37 192.51 130.45 222.52 103.29 188.74 106.29 270.67 33.91 243.57 36.81 293.19 3.84 265.15 29.01 290.44 24.21 210.99 97.22"></polygon>
      <path class="cls-6" d="M283.87,543.65s-1.59-1.06.4-4.23c1.98-3.18,1.72-4.63,2.12-5.82s1.06-1.32,2.65,1.46c1.59,2.78,3.57,2.65,3.97,4.76.4,2.12.66,3.44.53,4.63"></path>
      <path class="cls-6" d="M369.36,552.39s-1.85-1.63.53-6.44c2.38-4.81,2.78-5.6,3.31-7.32s1.67-.53,1.96,1.72c.29,2.25,1.04,3.68,2.38,4.75,1.35,1.07,3.6,5.44,1.88,9.8"></path>
      <path class="cls-6" d="M361.93,561.53s-1.13-1.93-1.22-5.54c-.09-3.61-2.34-3.21-1.68-4.53.66-1.32,1.97.53,4.49,0s5.57,1.32,6.36,2.91"></path>
      <path class="cls-15" d="M355.33,574.35s-3.69,3.08-1.48,6.4c0,0-3.08.25-2.96,3.08.12,2.83,1.6,2.96,1.6,2.96,0,0-2.96.12-1.97,2.46s2.46,1.97,2.46,1.97c0,0-1.97,2.46-.74,3.45,1.23.99,3.32,2.59,3.32,2.59l7.95,1.7-.19-6.01-2.46-8.99.99-5.79.37-3.32-2.83-2.46-4.06,1.97Z"></path>
      <path class="cls-15" d="M380.77,566.18s3.42-.24,2.45-2.57c0,0,3.06-5.87-2.08-5.63,0,0,2.69-2.2.49-4.04s-3.91,1.1-3.91,1.1c0,0,1.93-4.44-1.71-5.01-2.32-.37-2.69,2.32-2.69,2.32,0,0-1.21-3.77-4.53-1.47-1.59,1.1-.86,3.18-.86,3.18,0,0-2.3-1.52-3.67,1.22-.98,1.96.73,3.79.73,3.79,0,0-3.18-.37-3.06,2.45.12,2.81-.61,4.77-.61,4.77l-.61,6.24,3.67-1.47,16.39-4.89Z"></path>
      <path class="cls-15" d="M384.81,608.86l1.1-1.22,1.1-3.18.49-1.47-2.32-6.24s-2.94,3.67-3.55,4.04-7.09.86-7.09.86c0,0-6.6-2.69-7.09-2.69h-3.91l-1.96,3.55,3.42,1.83-1.22,2.69.73,1.83,1.83.61-.12,2.57,1.47,1.71,1.96-.86.73,2.45,2.2.87,1.72-1.35,1.95,1.58,2.45-.86,1.1-1.96,2.08.61,1.71-.86.37-1.96-.98-1.47,1.83-1.1Z"></path>
      <path class="cls-14" d="M387.25,591.74c2.92-4.39-1.59-6.85-1.59-6.85l.12-10.52c.76-.34,1.35-1.31,1.35-1.31-2.48-5.04-5.87-9.04-12.93-9.17-7.06-.14-10.14,5.37-10.14,5.37l-1.79-1.79s-.09-1.74-.83-3.71c-.73-1.97-3.3-2.89-5.32-1.24-2.02,1.65-1.51,4.68-1.51,4.68,0,0-1.47.5-2.25,2.2-.78,1.7-.69,4.4,2.02,5.69,2.71,1.28,4.54-.28,4.54-.28l1.74.87c-1.97,7.8,1.63,17.01,1.63,17.01l-3.37,2.65c-2.61-.88-4.8.04-5.9,2.19-1.1,2.15.29,3.96,2.57,5.18.17,2.82,2.23,4.59,5.39,3.5,3.16-1.1,2.7-5.14,2.7-5.14l1.22-1.18c.63,4.3,5.52,5.65,8.6,5.94,3.08.29,5.35-.13,8.22-1.47,2.87-1.35,3.45-5.16,3.45-5.16.86,1.22.49,1.59.98,4.16.49,2.57,3.18,2.66,3.55,2.54l-2.45-14.16Z"></path>
      <path class="cls-15" d="M297.97,556.52s2.76-2.94,2.08-3.67c0,0,.09-4.54-.98-5.14-1.07-.6-2.99-.63-2.99-.63,0,0,1.15-2.61-.85-3.46-2.01-.85-3.2.81-3.2.81,0,0-.17-2.99-2.86-2.61s-2.56,2.14-2.56,2.14c0,0-1.58-1.92-3.84-.77-2.26,1.15-1.54,3.37-1.54,3.37l-1.11.17,2.09,11.98s7.53-4.34,15.78-2.2Z"></path>
      <path class="cls-15" d="M288.71,607.73s.73.92,2.11-.83,2.02-1.74,2.02-1.74l2.02.73,1.74-1.01.83-2.38s1.01-.18,1.28,0,2.48-.09,2.48-.09c0,0,.83-1.56.83-1.83s-.92-3.03-.92-3.03l2.11-1.01,1.83-1.56-1.56-3.21,2.02-1.83-.92-4.49-3.21-.46s-1.47,4.4-2.2,4.86c-.73.46-7.98,2.66-8.35,2.84s-3.3,1.28-3.3,1.28l1.19,13.76Z"></path>
      <path class="cls-15" d="M304.77,556.73s.88.95,1.66.31c.78-.64,2.7.47,2.7.47.41-1.35,3.03-2.03,4.2-1.04s.47,2.9.47,2.9c.26-.48,1.98-1.31,3.11.26s-.17,2.87-1.29,4.35c0,0,2.23.06,2.38,2.71.17,2.94-2.9,3.49-2.9,3.49,2.99,1.86-.39,4.81-.39,4.81-2.77,2.74-5.42.56-5.42.56l-1.24-1.61s-1.14-.68-1.97,2.02l-2.96,1.19.36-14.05-.96-2.66-.32-1.93,1.24-1.01,1.34-.78Z"></path>
      <path class="cls-14" d="M298.46,368.41s7.83-4.28,12.72-5.38c0,0,2.57,7.46,18.96,6.36,16.39-1.1,20.3-10.27,20.3-10.27l17.53,2.88s-.96-.93-1.55-2.19c-.59-1.25-.71-2.62-.71-2.62,0,0-2.16-.78-2.53-2-.37-1.22-.31-4.73-.31-4.73l-1.25-.52s-1.4-.74-1.89-1.72l-11.13.37s-7.46-6.6-17.86-4.89c-10.4,1.71-18.47,8.19-18.47,8.19,0,0-11.62,2.08-15.17,7.46,0,0-2.08,4.28,1.35,9.05Z"></path>
      <path class="cls-14" d="M287.51,595.74l-5.5-38.89s5.62-3.42,11.41-2.91c4.37.38,4.55,1.05,4.55,1.05,0,0,1.6-.67,1.66-3.12.06-2.45,1.41-4.34,2.87-5.38,1.47-1.04,4.53-.67,4.65,1.96,0,0,2.2-.61,3.24.98,1.04,1.59.73,3.67-.79,5.56-1.53,1.9-2.57,2.81-4.77,2.51l-1.96,2.02s3.64,5.47,1.07,17.86l3.76,1.28s2.11-2.66,5.87-1.74c3.76.92,3.67,6.33-.46,9.17,0,0,.8,5.53-4.13,6.51-2.14.43-4.46-.98-4.46-.98.98,1.77,1.71,3.36.67,4.95-1.04,1.59-2.87,1.59-2.87,1.59,0,0,2.32,2.51-.06,4.65-2.38,2.14-3.79.61-3.79.61,0,0,.55,2.69-1.9,3.97-2.45,1.28-3.79-1.22-3.79-1.22,0,0-.55,2.82-3.41,1.9l.12-2.38s1.51,1.34,1.7-1.96l1.1-.43s1.65,1.96,3.06.98c1.41-.98,1.04-2.57,1.04-2.57l1.28-1.1s2.26,1.96,3.24.73c.98-1.22-.92-3.73-.92-3.73l.86-1.41s2.2.49,2.45-1.59c.24-2.08-1.22-2.38-1.22-2.38l1.96-2.69s.55-2.75-1.28-3.36c0,0,.06,5.01-5.38,7.46-5.44,2.45-6.05,2.87-9.85,2.11Z"></path>
      <path class="cls-15" d="M284.57,567.23s1.83-.66,2.2,1.17c0,0,1.35.07,1.68.81s.22,1.35-.15,1.61c0,0,1.1.18,1.17.81,0,0,.33-1.5,1.21-1.46,0,0-1.1-.59-.44-1.9s1.35-.81,1.35-.81c0,0-.44-1.46.48-2.05.91-.59,1.46-.04,1.46-.04,0,0-.07-1.39,1.13-1.61,1.21-.22,1.28.55,1.28.55,0,0,.7-1.28,1.76-1.13,1.06.15.95,1.06.95,1.06,0,0,.91-.73,1.61-.04s.22,1.54.22,1.54c0,0,1.06-.51,1.39.59s-.44,1.61-.44,1.61c0,0,1.02.51.73,1.87-.29,1.35-1.39,1.21-1.39,1.21.62,1.1.29,2.38-1.28,2.09.55,1.1-.26,2.78-2.05,2.01-.29,1.21-1.98,2.27-2.85.81,0,0-2.12,1.24-2.31-1.17l-1.39.81s1.98,1.9,1.5,3.37c-.48,1.46-1.9,1.21-2.01.81,0,0-.55.7-1.24.81s-1.43-1.35-.91-2.42c0,0-.26-.73-1.06-.22l-.81.51-1.79-11.16Z"></path>
      <path class="cls-15" d="M286.83,583.93s.87-1.51,1.93-1.79,1.93.92,2.16,1.83c0,0,.09-2.48,1.79-2.84,1.7-.37,2.11,1.19,2.11,1.19,0,0-.09-2.16,1.42-2.48s1.7.87,1.7.87c0,0-.28-1.88.55-2.29.83-.41,1.42.18,1.42.18,0,0-.37-.73.23-1.05.6-.32,1.19-.37,1.19-.37,0,0-.6-.64-.14-1.33.46-.69.83-.92.83-.92l.5.23s-.18,2.43-.87,3.35l-.69.92-.69-.23s.32,1.05-.64,1.88c-.96.83-1.38.5-1.47.23,0,0,.18,1.24-1.1,1.74s-2.06.46-2.11,0c0,0-.09,1.33-1.74,1.79-1.65.46-2.2.32-2.25-.32,0,0-.18.78-1.15,1.05-.96.28-2.71.46-2.71.46l-.28-2.11Z"></path>
      <path class="cls-15" d="M287.42,588.33s1.01,1.1,2.38.87c1.38-.23,1.42-1.74,1.42-1.74,0,0,.14,1.38,2.06.92,1.93-.46,1.93-1.93,1.93-1.93,0,0,.41.96,1.51.23s1.47-2.16,1.51-2.52c0,0,.23.5.73.18s.96-.86.96-1.42c0-.46-1.15-.14-1.24.69,0,0-.96-.6-1.83.14-.87.73-1.51,2.02-1.51,2.02,0,0-1.01-.87-2.25-.32-1.24.55-1.88,1.19-1.93,1.47,0,0-.37-.83-1.7-.5-1.33.32-2.25.55-2.25.55l.18,1.38Z"></path>
      <path class="cls-15" d="M368.83,576.22c.83,0,1.33.6,1.28,1.1,0,0,.76-.78,1.65-.23.6.37.5,1.7.5,1.7,0,0,1.19-.5,1.61.46s-.32,1.79-.32,1.79c0,0,1.1.23,1.28,1.15,0,0,.46-1.33.92-1.28,0,0-.79-1.15,0-2.34.46-.69.96-.28.96-.28,0,0-.32-1.33.96-1.93,1.28-.6,2.02.55,2.02.55,0,0,1.05-1.7,2.38-1.38s1.28,1.42,1.28,1.42c0,0,1.51-1.05,2.34.46l-.05,7.48s.6,1.56-1.33,1.42c0,0-.78,2.02-2.48,1.1,0,0-2.66,1.33-3.58.14,0,0-1.15-.05-1.56-.92,0,0,.83,2.25.18,3.49s-1.74.28-1.74.28c0,0-.78.64-1.65.5-.87-.14-.87-2.57-.28-3.35,0,0-1.15,1.56-2.61.6,0,0-.55,1.19-1.42,1.28-.87.09-1.1-.87-1.1-.87-.78,1.1-1.05.83-1.79.78s-.78-.96-.83-1.83c0,0-1.15.83-1.83-.14-.69-.96.14-1.51.14-1.51,0,0-1.38,0-1.38-1.47s.78-1.15.78-1.15c0,0-1.7-1.74.6-2.71-.55-1.28-.14-2.34,1.56-2.06.18-1.65.87-1.88,2.11-1.33,0,0,.32-.92,1.38-.92Z"></path>
      <path class="cls-15" d="M365.02,592.53s.48-1.17,1.07-.97.28,1.04.35,1.48c0,0,.41-1.38,1.31-.93.9.45.69,1.83.69,1.83,0,0,.41-1.66,1.8-1.38,1.38.28,1.24,1.93,1.24,1.93,0,0,.48-2.14,2.11-2s1.8,2.62,1.8,2.62c0,0,.38-2.73,1.9-2.76,1.52-.03,1.62,1.8,1.62,1.8,0,0,.24-1.93,1.69-2.11,1.45-.17,1.42,1.42,1.42,1.42,0,0-.28-1.38.83-1.8s1.17.76,1.17.76c0,0,.14.52.07.76s-1.38,1.11-1.9.83c0,0-.52.93-1.62,1.04-1.11.1-1.59-.31-1.59-.31,0,0-.31.97-1.73,1.11-1.42.14-1.8.03-1.86-.28,0,0-.17.45-1.73.52s-2.11-.93-2.11-.93c0,0-.76.76-1.8.59s-1.45-1.21-1.45-1.21c0,0-.14.59-1.04.24s-1-1.35-1-1.35c0,0-.1.45-.69.21-.59-.24-.79-.48-.55-1.11Z"></path>
      <path class="cls-15" d="M368.27,595.67s-1.21-.73-1.31-.21.9,2.11,1.59,1.59c0,0,.79,1.73,2.24,1.73.9,0,.86-.97.86-.97,0,0,.48,1.48,2.24,1.35,1.76-.14,1.48-1.17,1.48-1.17,0,0,.45,1.14,1.86.83,1.42-.31,1.59-1.38,1.59-1.38,0,0,.73,1.07,1.8.45s1.11-1.76,1.11-1.76c0,0,.79.52,1.28-.07s.31-1.76.31-1.76c0,0-1.14.31-1.45,1.14,0,0-2.21-.38-2.69,1.24,0,0-.9-.66-2.18-.31s-1.24.73-1.24.73c0,0-.52-.73-2.21-.55-1.69.17-1.48.48-1.48.48,0,0-.66-.79-1.93-.79h-1.28s-.35-.41-.59-.55Z"></path>
      <path class="cls-14" d="M386.15,603.36l-1.35,1.35s2.45,1.1,1.1,2.94-2.45.49-2.45.49l-.49,1.83s1.59,1.83-.61,2.94c-2.2,1.1-2.08-1.1-2.08-1.1l-1.96,1.35s1.22,1.71-.73,1.96-2.57-1.59-2.57-1.59l-1.47.12s-.12,2.32-1.71,1.59c-1.59-.73-.73-2.45-.73-2.45l-1.35-1.1s-.98,1.96-2.08,1.1c-1.1-.86.37-2.94.37-2.94l-1.22-1.83s-1.83.73-2.2-.49c-.37-1.22,1.1-1.47,1.1-1.47l.12-1.96-2.94-1.71-.61,1.96,1.35.61s-1.83,2.69-.24,4.28c1.59,1.59,2.57,1.1,2.57,1.1,0,0-1.47,2.57.86,3.91s2.81-.12,2.81-.12c0,0-.12,3.06,2.08,3.3,2.2.24,1.96-2.07,1.96-2.07,0,0,2.44,2.68,5.38,1.83s1.1-2.45,1.1-2.45c0,0,2.32.86,3.79-.49s.49-4.04.49-4.04c0,0,2.32-1.22,2.81-2.57.49-1.35-.24-3.18-.24-3.18l-.86-1.1Z"></path>
      <circle class="cls-10" cx="368.48" cy="582.88" r="2.03"></circle>
      <circle class="cls-10" cx="295.96" cy="569.93" r="2.03"></circle>
      <circle class="cls-10" cx="380.85" cy="581.89" r="2.03"></circle>
      <path class="cls-5" d="M358.49,346.47s1.51,2.39,3.89,2.64c0,0-1.51,6.16,2.76,6.78,0,0,.13,6.28,6.41,6.03"></path>
      <path class="cls-8" d="M337.34,360.19s.37,1.1,3.3,0c2.94-1.1,1.1-1.47,2.94-1.1"></path>
      <path class="cls-8" d="M339.72,352.48s.73.92,2.75,1.28l2.02.37"></path>
      <path class="cls-8" d="M320.83,355.42s-.18,2.57-2.94,2.75"></path>
      <path class="cls-8" d="M318.44,361.65s.73,1.28,4.04.55"></path>
      <path class="cls-4" d="M328.07,363.65c.25,1.33.35,1.93.69,2.57,0,0,1.14.35,2.37-1.28"></path>
      <path class="cls-7" d="M337.34,360.19s.37,1.1,3.3,0c2.94-1.1,1.1-1.47,2.94-1.1"></path>
      <path class="cls-7" d="M339.72,352.48s.73.92,2.75,1.28l2.02.37"></path>
      <path class="cls-7" d="M320.83,355.42s-.18,2.57-2.94,2.75"></path>
      <path class="cls-7" d="M318.44,361.65s.73,1.28,4.04.55"></path>
      <path class="cls-10" d="M328.77,366.21s1.14.35,2.37-1.28l-1.28-1.78s.39-1.14,1.38-.89c.99.25,1.14.2,1.43.54s.59,1.33,1.63,1.33c0,0-1.04-1.14-.44-1.88.59-.74,2.52-1.33,3.01-4.15.49-2.81-3.01-5.48-3.01-5.48,0,0,1.04-1.73.44-3.21s-1.68-1.97-3.51-1.53c-1.83.44-3.65,1.93-3.55,3.36.1,1.43,1.63,2.96.99,4.44-.64,1.48-1.63,1.43-2.02.74-.39-.69-.35-1.28.2-1.53.54-.25.54-.99-.2-1.43-.74-.44-1.63-.2-1.63-.2l-.44,1.33.84.25s-.74,2.57,1.04,3.06,3.46-1.18,3.46-1.18l.2.74s-1.14.84-1.28,1.63c0,0-1.97.79-2.27,1.63l1.23,1.33s.84-.49.54-1.18l1.28.2s-1.33,1.23-1.09,2.57c.25,1.33.35,1.93.69,2.57Z"></path>
      <path class="cls-7" d="M332.35,367.65c5.44-.53,14.8-5.1,16.28-10.19,1.48-5.1-2.47-11.02-9.37-12-6.91-.99-14.63,1.64-20.88,4.77-6.25,3.12-7.07,6.58-6.25,9.7s3.45,9.37,20.22,7.73Z"></path>
      <circle class="cls-14" cx="329.34" cy="352" r=".53"></circle>
      <path class="cls-14" d="M329.53,353.7s.3-.73,1.05-.3c0,0,.63,2.41-1.38,3.24,0,0,1.32-1.36.34-2.94Z"></path>
      <path class="cls-12" d="M385.05,514.57l-3.24.75s-.86,1.83-2.57,1.47c-1.71-.37-2.08-6.97.49-7.22,2.57-.24,2.08,2.81,2.08,2.81l4.16-1.1-.92,3.28Z"></path>
      <path class="cls-12" d="M385.35,494.65l-4.05-.09s.52,3.71-1.47,3.8c-1.98.09-2.93-3.62-1.81-6.3,1.12-2.67,1.29-2.93,2.59-2.24s.95,2.59.95,2.59l4.83-1.47s0,2.5-1.04,3.71Z"></path>
      <path class="cls-12" d="M386.21,477.14l-4.74-1.38s.6,4.83-.78,4.83-2.24-2.59-1.73-5.18c.52-2.59,1.21-3.28,2.16-2.85.95.43.26,1.55.26,1.55l5.35.86-.52,2.16Z"></path>
      <path class="cls-12" d="M386.47,454.54s-2.16,3.54-4.66,3.28c0,0-.26-3.54-2.16-3.45-1.9.09-1.9,2.85-1.47,5.18s.6,3.11,2.07,2.85c1.47-.26,1.47-3.02,1.47-3.02,0,0,2.85,1.64,4.14,1.55,0,0,1.64-1.47,1.9-2.76s-.35-3.19-1.29-3.62Z"></path>
      <path class="cls-12" d="M387.42,442.72s-4.92,2.93-7.76-.78c0,0-.6,3.45-1.9,3.28s-2.67-7.33.09-7.33,1.64,2.42,1.64,2.42c0,0,1.38,1.47,2.93.78,1.55-.69,4.4-1.21,5.35-.86l-.35,2.5Z"></path>
      <path class="cls-12" d="M387.08,424.16s-2.98,4.22-5.83,1.64h-1.29s.86,3.62-1.29,3.54c-2.16-.09-2.93-7.25-.52-7.33,2.42-.09,1.81,1.98,1.81,1.98l1.64.17s2.88,1.86,5.03-2.2l.45,2.2Z"></path>
      <path class="cls-12" d="M385,410.46s-2.42,3.11-6.38,1.47c0,0,.09,3.19-2.33,3.11-2.42-.09-3.54-3.97-2.42-5.69s3.36-2.5,3.97.09c0,0,4.92,2.24,6.99-1.12l.17,2.16Z"></path>
      <path class="cls-12" d="M384.36,398.82s-3.93,3.28-7.03,0c0,0-.52,2.76-2.24,2.59-1.73-.17-3.98-4.66-1.64-7.85,2.33-3.19,3.54.43,3.71,2.42,0,0,4.17,3.81,7.04-.29l.16,3.14Z"></path>
      <path class="cls-6" d="M363.77,607.03s-1.38.8-1.47,3.85c-.09,3.04-1.5,3.04-1.59,3.84s1.26.47,3.69,0c2.43-.47,3.28-.96,3.28-.96"></path>
      <path class="cls-6" d="M370.37,615.34s.47,2.28,2.04,4.53c1.57,2.25,1.97,3.18,2.1,5.03.13,1.85,1.99,1.72,2.91-.93.93-2.65,2.21-3.57,3.42-4.63s1.36-2.66,1.02-5.1"></path>
      <path class="cls-6" d="M383.58,613.39s2.98,1.63,4.7,1.81c1.72.18,2.52.91,2.52.91"></path>
      <path class="cls-6" d="M289.71,610.97c1.41.63,3.02,2.42,3.69,4.8.66,2.38,2.78,2.38,3.1.67s1.66-4.51,3.44-7.48c1.78-2.97,1.24-6.55,1.24-6.55,0,0,4.79-.14,7.3.66,2.51.79,4.23,1.06,3.04-1.98-1.19-3.04-1.85-4.23-1.59-5.95.26-1.72-3.18-3.84-3.18-3.84"></path>
      <path class="cls-6" d="M310.6,590.76s3.84-1.32,5.69-1.85c1.85-.53,1.19-1.59-1.06-3.04-2.25-1.46-3.18-2.91-3.18-2.91"></path>
      <path class="cls-6" d="M295.25,542.46s1.46-1.32,3.31-1.85c1.85-.53,3.84-2.65,4.63-2.25.79.4-1.06,3.04-.66,4.5.4,1.46-.4,6.22-.4,6.22"></path>
      <path class="cls-6" d="M308.35,545.9s2.65-1.72,3.18-1.32c.53.4-1.59,3.31-1.59,3.31"></path>
      <path class="cls-6" d="M313.12,552.52s1.85-.66,2.25-.26c.4.4-1.72,2.25-1.72,2.25"></path>
      <path class="cls-6" d="M318.14,574.88s2.25,1.06-.66,2.51"></path>
      <path class="cls-12" d="M387.87,530.85h-4.15s.09-3.83-2.91-3.83-3.84,7.57-.77,8.46c3.06.88,3.68-2.11,3.68-2.11l4-.13s.6-1.15.15-2.39Z"></path>
      <path class="cls-6" d="M382.88,554.5s1.25-1.1,4.23-1.15"></path>
      <path class="cls-6" d="M384.12,557.78s.85.23,2-1.04"></path>
      <path class="cls-7" d="M279.26,535.75s9.79,71.41,11.05,79.71"></path>
      <path class="cls-7" d="M391.9,619.22s-3.12-19.26-4.4-23.3c-1.28-4.04-.24-4.19-.24-4.19,0,0,2.45-3.94-1.59-6.85l.12-10.52s1.89-1.75,1.89-3.58"></path>
    </g>
  </g>
</svg>
