<?xml version="1.0" encoding="UTF-8"?>
<svg preserveAspectRatio="xMidYMid slice" width="60px" height="9px" xmlns="http://www.w3.org/2000/svg" id="Layer_2" viewBox="0 0 277.93 43.82">
  <defs>
    <style>.cls-1{fill:#fff;stroke-width:0px;}</style>
  </defs>
  <g id="Layer_2-2">
    <g id="TBBH2K">
      <path class="cls-1" d="M.4,43.82c.07-.27-.2-.42-.22-.67-.05-.5-.08-1.01-.03-1.51.03-.34.05-.68.05-1.02,0-1.82-.01-3.65,0-5.47,0-1.17-.14-2.34-.07-3.51.1-1.76-.21-3.5-.11-5.26.03-.55,0-1.11.1-1.65.05-.29.07-.58.02-.87-.19-1.21-.16-2.43,0-3.65.09-.68.1-1.36-.05-2.04-.1-.48-.1-.97-.05-1.46.04-.51.4-.95,1-.9.42.03.84-.04,1.25.15.17.08.39.06.58.06.74-.03,1.48,0,2.23-.16.66-.13,1.36-.04,2.05-.04.33,0,.68-.06.98.17.14.11.28.22.4.35.69.79,1.43,1.53,2.07,2.36.38.5.71,1.03,1.12,1.52.83,1,1.65,2.03,2.48,3.03.23.27.41.57.66.83.65.67,1.04.67,1.64-.09.5-.63.96-1.3,1.45-1.94.92-1.19,1.86-2.35,2.85-3.48.63-.71,1.2-1.48,1.77-2.24.35-.47.75-.74,1.37-.72,1.98.06,3.97.02,5.96,0,.24,0,.49,0,.73.02.4.04.68.39.6.78-.17.87-.09,1.75-.21,2.62-.07.5.08,1,.08,1.51,0,2.43-.05,4.85.03,7.28.29,1.25-.02,2.49-.02,3.74,0,.89,0,1.79.08,2.68.06.73-.09,1.46-.08,2.19.02.96-.08,1.92-.16,2.87-.02.24,0,.49.04.73.14.79.17,1.58.16,2.38,0,.57-.41.88-.87.93-.81.1-1.63.04-2.44.01-.51-.02-1.01-.04-1.51-.02-.79.03-1.56-.07-2.34-.16-.45-.05-.62-.23-.65-.69-.02-.47-.02-.94-.02-1.42.01-2.25.04-4.49-.03-6.74-.03-.91.01-1.82.05-2.73.05-1.11.02-2.21.02-3.32,0-.15-.02-.29-.03-.44-.01-.15-.03-.3-.22-.33-.17-.03-.31,0-.42.17-.56.88-1.29,1.61-1.96,2.4-1.32,1.56-2.55,3.18-3.84,4.76-.7.86-1.72.94-2.47.12-.78-.84-1.54-1.72-2.22-2.65-.58-.8-1.17-1.58-1.86-2.29-.58-.6-1.11-1.25-1.71-1.85-.16-.16-.3-.33-.53-.42-.24.28-.27.62-.27.95-.01,1.11-.09,2.21-.01,3.32.15,2.27.24,4.55.18,6.83-.03,1.12.07,2.25-.02,3.37-.02.24-.05.48-.11.72-.11.45-.18.54-.63.6-.7.09-1.39.14-2.1.08-.57-.05-1.14-.06-1.71.01-.18.02-.36.04-.48.2H.4Z"></path>
      <path class="cls-1" d="M277.93,14.02c-.15.08-.17.23-.19.37-.49,2.87-2.11,4.94-4.59,6.36-.83.47-1.72.84-2.66,1.1-.67.19-1.34.3-2.03.4-1.78.26-3.57.12-5.36.14-.55,0-1.05.2-1.59.21-.18,0-.21.16-.26.31-.14.44-.16.9-.16,1.35,0,1.06-.1,2.11-.03,3.17.05.68-.05,1.36-.17,2.04-.05.31-.31.49-.76.53-.34.02-.68.02-1.03.02-.68,0-1.37,0-2.05,0-.41,0-.81,0-1.21.14-.25.08-.54.09-.77.01-.38-.12-.77-.09-1.16-.14-.47-.06-.58-.17-.62-.65-.07-.75-.1-1.49-.09-2.24.01-1.68,0-3.35.09-5.03.07-1.19-.04-2.37-.16-3.55,0-.08-.02-.16-.02-.24.02-1.86-.06-3.71,0-5.57.02-.57.17-1.12.16-1.7,0-.49-.04-.98-.09-1.46-.1-.8-.11-1.59.02-2.38.14-.87.1-1.75.06-2.63-.02-.42,0-.85.04-1.27.06-.62.36-.8.83-.82.5-.02,1.01-.07,1.51-.06,1.71.02,3.42-.15,5.12-.16.94,0,1.89.02,2.83.07,1.12.06,2.25.1,3.37-.02,2.07-.23,4.02.12,5.85,1.1.65.35,1.18.86,1.72,1.35.73.67,1.43,1.37,1.96,2.22.43.69.65,1.44.81,2.22.08.38.21.75.29,1.13.04.2.12.4.14.61.01.13.03.26.19.31v2.74ZM263.85,15.98s0-.02,0-.04c.65,0,1.32.09,1.95-.03.63-.12,1.29-.05,1.91-.31.63-.26,1.23-.55,1.61-1.14.48-.74.67-1.56.63-2.45-.08-1.51-.92-2.5-2.26-2.92-.72-.23-1.47-.28-2.22-.23-.57.04-1.14.11-1.71.06-.52-.04-1.04-.03-1.56-.04-.27,0-.52.05-.76.14-.16.06-.3.15-.34.32-.12.54-.26,1.07-.11,1.63.06.22.07.45.08.68.03.94.04,1.88.06,2.83,0,.29.05.58.09.87.05.42.33.5.64.6.07.02.16.02.24.02.59,0,1.17,0,1.76,0Z"></path>
      <path class="cls-1" d="M52.19,14.04c.51,0,1.01,0,1.52,0,.32,0,.64.03.96.13.43.14.89.13,1.34.2,1.04.17,2.05.45,3.01.86.73.31,1.45.7,2.08,1.19.93.73,1.82,1.5,2.47,2.49.45.69.85,1.4,1.28,2.1.34.57.71,1.12.87,1.78.1.42.23.85.29,1.28.07.53.17,1.06.26,1.58.12.65.13,1.29.14,1.94.01.88-.15,1.74-.33,2.6-.11.51-.15,1.03-.19,1.55-.09,1.29-.62,2.4-1.24,3.49-.65,1.14-1.34,2.25-2.26,3.2-1.19,1.23-2.53,2.25-4.1,2.92-1.49.64-3.04,1.16-4.62,1.55-.67.16-1.36.15-2.04.2-1.29.1-2.57.05-3.85-.12-.6-.08-1.18-.25-1.75-.42-1.16-.33-2.32-.65-3.43-1.13-1.12-.48-2.16-1.06-2.95-2.01-.53-.64-1.19-1.15-1.74-1.77-.57-.64-.96-1.37-1.21-2.19-.22-.73-.48-1.44-.7-2.17-.11-.36-.14-.73-.2-1.1-.15-.78-.31-1.56-.28-2.37.03-.8.01-1.6.03-2.39.01-.64.2-1.24.33-1.86.2-.97.6-1.88.89-2.82.23-.73.63-1.41,1.01-2.09.87-1.54,2.21-2.57,3.63-3.54.62-.42,1.24-.85,1.92-1.19.77-.39,1.56-.73,2.4-.97.54-.16,1.11-.23,1.63-.4.5-.16,1.01-.21,1.51-.32,1.06-.22,2.15-.31,3.24-.24.03,0,.07,0,.1,0,0,0,0,0,0,.01ZM51.48,20.64c-.52,0-1.05-.04-1.56.07-.63.14-1.25.29-1.85.53-.97.39-1.87.9-2.57,1.67-1.3,1.42-1.99,3.13-2.15,5.04-.06.76-.04,1.51.11,2.28.13.64.23,1.29.51,1.87,1.04,2.2,2.79,3.55,5.17,4.05,1.14.24,2.3.2,3.45-.03.56-.11,1.12-.22,1.62-.53,1.48-.9,2.63-2.1,3.37-3.68.18-.38.33-.77.45-1.17.17-.56.16-1.16.27-1.72.19-.97-.03-1.91-.11-2.86-.03-.33-.1-.68-.23-.99-.68-1.62-1.69-2.96-3.26-3.82-.83-.46-1.71-.74-2.67-.7-.18,0-.36,0-.54,0Z"></path>
      <path class="cls-1" d="M177.17,15.68c.07.6.06,1.21-.03,1.8-.15.91-.44,1.78-.92,2.59-.58.98-1.21,1.93-2.11,2.64-.66.52-1.35,1.03-2.18,1.29-.06.02-.11.07-.17.1-.31.16-.33.21-.12.49.61.83,1.23,1.66,1.85,2.48.85,1.12,1.76,2.18,2.6,3.3.6.8,1.3,1.52,1.95,2.27.14.16.28.31.38.5.18.34.13.53-.21.71-.18.1-.37.12-.57.13-1.43.11-2.86.18-4.29.26-.89.05-1.78.16-2.67.28-.49.06-.86-.1-1.15-.48-.5-.66-1-1.31-1.49-1.98-.44-.6-.93-1.16-1.37-1.75-.44-.58-.78-1.23-1.21-1.81-.57-.78-1.18-1.54-1.78-2.29-.15-.19-.37-.31-.64-.3-.49.01-.98,0-1.47.01-.56.02-.8.29-.87.84-.1.86-.21,1.72-.1,2.58.1.79.11,1.59.16,2.38.02.39.05.78.1,1.16.09.63-.01,1.26-.12,1.89-.03.2-.16.31-.34.37-.39.14-.8.16-1.2.17-.39.01-.78,0-1.17,0-.44,0-.87.05-1.31.12-1.13.18-2.27.19-3.41.14-.5-.02-.6-.16-.63-.68-.06-1.25.04-2.5.15-3.75.11-1.28.03-2.56-.07-3.85-.12-1.51-.16-3.02.04-4.53.08-.63.07-1.27-.01-1.9-.14-1.13-.13-2.27,0-3.4.08-.66.07-1.33.08-2,.03-1.82.03-3.65-.03-5.47-.01-.44,0-.88.04-1.32.05-.45.24-.75.71-.87.53-.13,1.06-.16,1.6-.18,1.85-.07,3.71-.12,5.56-.21.6-.03,1.2-.11,1.79-.21.56-.09,1.13-.15,1.7-.15,1.19,0,2.38,0,3.56-.13,1.08-.11,2.11.12,3.12.42.9.27,1.78.58,2.59,1.11.57.37,1.07.8,1.46,1.33.62.84,1.28,1.67,1.71,2.63.27.6.48,1.2.48,1.86,0,.46,0,.91,0,1.37ZM160.8,17.69c-.01.21-.03.41-.03.6,0,.42-.02.85,0,1.27,0,.32.15.54.39.53.58-.03,1.12.19,1.69.16.76-.03,1.51-.19,2.27-.2.24,0,.45-.16.71-.15.65.02,1.27-.16,1.89-.37,1.08-.37,1.53-1.2,1.66-2.23.09-.75.09-1.53-.19-2.26-.23-.61-.52-1.17-1.17-1.46-.43-.19-.89-.32-1.35-.34-.96-.03-1.91,0-2.87.12-.75.09-1.5.21-2.26.26-.72.05-1,.45-.94.98.03.23-.02.46.03.68.19.8.15,1.62.18,2.41Z"></path>
      <path class="cls-1" d="M120.37,18.36c-.06.9.04,1.79.04,2.68,0,1.43,0,2.87-.11,4.29-.08,1.01-.05,2.01-.08,3.02,0,.29,0,.58.07.87.03.14.05.3.02.44-.18,1.15-.04,2.31-.1,3.46-.06,1.16.13,2.3.16,3.46,0,.39.02.78-.19,1.14-.1.18-.22.34-.42.37-.37.06-.72.19-1.1.19-.68,0-1.37,0-2.05.03-.68.03-1.36.16-2.03.27-.42.07-.84.1-1.27.08-.43-.02-.56-.16-.63-.59-.23-1.52-.23-3.05-.19-4.58.04-1.53,0-3.06-.03-4.59,0-.67-.57-.87-1.08-.75-.24.05-.48.1-.72.1-.39,0-.77.11-1.15.17-.48.08-.98.01-1.46.08-1.47.21-2.95.11-4.43.15-.29,0-.54.12-.78.23-.21.1-.26.35-.31.58-.02.09,0,.19,0,.29,0,1.87-.02,3.74-.02,5.62,0,.54.04,1.07.14,1.6.1.53.1,1.08.03,1.61-.06.46-.31.79-.81.92-.55.14-1.09.16-1.65.13-1.14-.05-2.28-.06-3.41.16-.42.08-.85.05-1.27.04-.68-.01-.96-.25-1-.93-.03-.48-.06-.98.03-1.46.05-.24.04-.49.04-.73-.03-2.52.13-5.04.11-7.57,0-.94,0-1.89-.09-2.83,0-.03,0-.07,0-.1.03-1.16-.05-2.31-.1-3.46-.05-1.13.14-2.24.17-3.36.03-1.38.05-2.77,0-4.15,0-.21-.01-.43-.08-.63-.17-.51-.12-1.03-.1-1.55,0-.41.3-.66.69-.82.5-.21,1.02-.17,1.54-.18.47-.01.95.03,1.42-.02.77-.08,1.54-.16,2.3-.32.47-.1.98-.08,1.46-.02.28.04.47.24.59.52.19.45.23.93.15,1.39-.2,1.15-.15,2.3-.17,3.46-.02,1.4,0,2.8,0,4.2,0,.16,0,.33.03.49.06.34.21.47.56.47.37,0,.75.04,1.12-.01.45-.06.89-.17,1.32-.29.16-.04.31-.08.47-.09.6-.02,1.21.03,1.81-.06,1.26-.18,2.53-.09,3.79-.14.54-.02.91-.38.91-.93,0-.85.13-1.68.17-2.53.03-.81.04-1.62-.08-2.43-.01-.1-.02-.19-.02-.29-.01-1.11-.03-2.21-.04-3.32,0-.2.02-.39.07-.58.11-.44.36-.63.83-.73.94-.19,1.88-.07,2.82-.13.44-.03.88.04,1.3-.16.03-.01.06-.01.1-.02.7-.02,1.4-.05,2.1-.05.39,0,.59.2.64.59.03.24.05.49.04.73-.08,1.32-.08,2.63-.04,3.95.03.86,0,1.73,0,2.59Z"></path>
      <path class="cls-1" d="M226.57,25.49c0-1.32,0-2.64,0-3.95,0-.1,0-.2-.01-.29-.07-.4-.29-.6-.69-.6-.6,0-1.19,0-1.79.15-.54.13-1.14.03-1.7.1-1.65.18-3.31.1-4.97.14-.5.01-.8.32-.81.83-.01.75,0,1.5,0,2.25,0,1.4,0,2.8,0,4.2,0,.72.24,1.41.18,2.14-.02.21-.04.41-.12.61-.18.5-.55.71-1.04.71-.94.02-1.89,0-2.83,0-.57,0-1.12.01-1.69.15-.56.13-1.17.07-1.75.03-.4-.03-.66-.38-.7-.91-.03-.44-.03-.88.01-1.32.03-.31.06-.61.06-.92-.03-2.39.12-4.78.11-7.18,0-1.07-.01-2.15-.08-3.22-.04-.58,0-1.17-.02-1.76-.07-2.78.16-5.56.11-8.35,0-.5.04-1.02-.09-1.51-.12-.44-.1-.87-.13-1.3-.04-.57.23-1,.87-1.16.52-.12,1.04-.14,1.55-.13,1.18.03,2.34-.1,3.51-.23.42-.05.85-.05,1.27-.02.55.04.68.18.83.71.13.47.13.93.05,1.4-.07.42-.08.84-.09,1.26-.04,1.97-.07,3.94-.05,5.91,0,.24.02.49.04.73.03.38.19.55.57.61.31.05.63.07.92,0,.46-.1.93-.12,1.37-.29.13-.05.25-.05.38-.06,1.6-.05,3.19-.07,4.79-.02.47.02.94.04,1.39-.16.36-.16.6-.39.6-.79-.01-.9.16-1.78.18-2.67.02-.84.03-1.69-.1-2.53-.03-.19-.03-.39-.03-.58-.01-.86.02-1.73-.04-2.59-.01-.18-.02-.36,0-.54.13-.73.36-1.04,1.08-1.07.44-.02.88-.02,1.32,0,1.03.04,2.05.02,3.07-.15.53-.09,1.07-.04,1.61-.03.38,0,.62.25.7.63.05.26.09.51.06.78-.12,1.2-.1,2.41-.07,3.61.03,1.07-.01,2.15-.01,3.22,0,.89-.02,1.79.16,2.68.04.22.05.46,0,.68-.13.66-.17,1.32-.16,1.99.01,1.38-.15,2.76-.1,4.15.02.63.16,1.26.08,1.9-.15,1.18-.04,2.37-.08,3.56-.03.96.14,1.91.12,2.87,0,.42.06.84-.17,1.24-.14.25-.32.39-.61.41-.83.06-1.66.06-2.49.04-.39-.01-.78-.02-1.16.11-.15.05-.32.03-.48.04-.42.03-.83.05-1.25.15-.36.09-.77.12-1.14-.09-.19-.11-.28-.24-.32-.45-.22-1.49-.24-2.98-.2-4.48,0-.21,0-.42,0-.63,0,0-.02,0-.03,0Z"></path>
      <path class="cls-1" d="M146.79,22.65c.04.58.01,1.25-.01,1.91-.01.36-.13.66-.46.86-.13.08-.27.1-.42.11-.49.02-.97.05-1.46.02-.5-.03-1.01,0-1.52-.01-.26,0-.52,0-.77.12-.06.03-.12.05-.19.05-.94,0-1.87.2-2.8.28-1.43.12-2.86.11-4.29.13-.34,0-.63.15-.94.21-.19.04-.26.22-.29.41-.19,1.05-.21,2.1-.18,3.16.01.42.17.56.62.56.73,0,1.47.04,2.2-.03.72-.07,1.45-.12,2.15-.32.15-.04.32-.04.48-.04.77,0,1.53,0,2.3-.02.47,0,.95.03,1.4-.16.01,0,.03,0,.05,0,1.52-.17,3.04-.33,4.57-.25.1,0,.19.01.29.03.35.04.42.1.47.44.1.61.16,1.23.16,1.84,0,.73.03,1.47-.11,2.19-.07.37-.07.75-.08,1.12-.02.53-.23.77-.76.83-.91.1-1.82.15-2.72.27-1.52.19-3.05.24-4.58.27-.69.01-1.39.17-2.08.28-1,.16-2.01.2-3.01.29-.7.07-1.4.09-2.1.07-1.26-.04-2.5.17-3.74.35-.81.12-1.62.12-2.44.1-.42-.01-.6-.2-.66-.58-.11-.81-.23-1.61-.18-2.43.02-.32.02-.65.08-.97.16-.9.09-1.82.11-2.73.03-1.35.07-2.71-.11-4.05-.09-.69-.02-1.36.03-2.04.06-.86.04-1.72.05-2.59.02-.93,0-1.86.05-2.78.05-1.27-.03-2.53-.1-3.79-.02-.36-.04-.72,0-1.07.1-.93.07-1.85.09-2.78.01-.51.12-1,.17-1.5.03-.27.18-.39.45-.49.49-.18.99-.16,1.49-.17.72,0,1.43,0,2.15-.02.6-.03,1.18-.21,1.79-.19.54.02,1.08-.05,1.61-.03,1.12.06,2.2-.18,3.29-.33.98-.13,1.97-.22,2.97-.26,1.28-.06,2.57-.12,3.85-.21.62-.05,1.22-.17,1.84-.27.45-.07.9-.11,1.36-.08.31.02.51.15.6.46.06.19.12.37.11.57,0,.63.03,1.27-.08,1.9-.06.37-.06.75,0,1.12.08.45.05.91.06,1.36,0,.25-.03.48-.11.72-.16.47-.39.62-.88.69-1.45.22-2.93.09-4.37.26-.8.1-1.61.06-2.41.26-.49.13-1.04.06-1.56.06-.96.02-1.92.03-2.88.03-.43,0-.82.17-1.25.19-.22,0-.37.18-.44.45-.25.91-.2,1.84-.15,2.77.03.56.2.91.96.89.52-.01,1.03.02,1.55-.14.36-.11.78,0,1.16-.08.92-.17,1.85-.08,2.76-.22.74-.11,1.5-.05,2.21-.31.02,0,.03,0,.05,0,1.26-.09,2.51-.33,3.79-.24.51.04.54.11.65.59.21.95.15,1.91.17,2.96Z"></path>
      <path class="cls-1" d="M193.02,4.58c1.47.06,2.89.19,4.28.44,1.17.21,2.3.58,3.38,1.1.34.16.68.32,1.01.49.18.1.36.23.52.36.27.23.29.45.14.78-.55,1.19-1.33,2.24-2.11,3.29-.27.36-.52.73-.86,1.04-.35.33-.68.45-1.12.18-.61-.36-1.29-.57-1.96-.77-.34-.1-.7-.14-1.05-.19-.78-.11-1.58-.33-2.37-.19-.58.11-1.17.06-1.74.16-.67.13-1.37.29-1.89.78-1,.93-.95,2.34.41,2.96.52.24,1.08.34,1.64.36.37.01.75.01,1.12,0,.95-.03,1.86.15,2.78.36.45.1.91.2,1.37.28.67.12,1.35.25,2.01.49.77.28,1.53.58,2.24.99.49.28.94.62,1.35,1,.73.67,1.37,1.4,1.79,2.31.19.43.26.89.36,1.35.17.7.14,1.39.15,2.08,0,.51-.14,1-.23,1.49-.15.81-.41,1.6-.84,2.31-.61,1.03-1.37,1.94-2.34,2.68-1.26.95-2.65,1.66-4.14,2.15-.79.26-1.61.41-2.43.52-1.36.17-2.71.34-4.07.5-.65.07-1.3.05-1.95.02-1.54-.07-2.98-.53-4.34-1.21-.76-.38-1.44-.92-2.15-1.39-.35-.23-.68-.48-1.02-.72-.22-.16-.43-.34-.62-.55-.44-.52-.42-.51-.04-1.07.31-.46.71-.85,1.12-1.21.45-.39.8-.84,1.1-1.34.22-.38.5-.72.75-1.07.15-.2.33-.35.54-.48.25-.15.48-.15.72,0,.41.25.83.49,1.23.75.59.39,1.26.61,1.9.91.58.26,1.2.35,1.8.53.14.04.29.05.44.04.73-.03,1.47.12,2.18-.16.06-.02.13-.02.19-.01.67.06,1.33-.11,1.97-.25.93-.19,1.75-.65,2.19-1.58.29-.6.21-1.16-.13-1.71-.35-.57-.92-.82-1.53-1.01-.73-.23-1.48-.19-2.22-.22-.69-.03-1.38-.18-2.08-.14-.26.01-.52-.01-.78-.02-.94-.03-1.84-.27-2.75-.52-.78-.22-1.52-.52-2.23-.87-.82-.4-1.66-.81-2.31-1.45-.49-.48-.84-1.09-1.08-1.76-.5-1.43-.52-2.89-.42-4.38.06-.94.31-1.81.75-2.63.06-.11.11-.24.16-.35.6-1.4,1.69-2.35,2.95-3.14.75-.47,1.52-.88,2.34-1.2.56-.22,1.16-.33,1.74-.47.79-.19,1.59-.33,2.39-.5.61-.14,1.23-.15,1.79-.16Z"></path>
      <path class="cls-1" d="M66.47,17.08c-.02-.66-.07-1.37-.04-2.09,0-.07,0-.13,0-.2.05-.59.32-.92,1.01-.94.81-.03,1.63,0,2.44-.01.39,0,.78.01,1.15-.15.14-.06.32-.03.48-.04.44-.03.87-.02,1.3-.15.27-.09.58-.06.87,0,.8.17,1.61.18,2.41,0,.13-.03.26-.03.39-.03.4-.02.8-.06,1.2-.15.45-.11.95-.02,1.41-.1,1.16-.2,2.35-.03,3.5-.21.91-.14,1.82-.04,2.72-.19.82-.14,1.66-.04,2.47-.18.6-.1,1.19-.14,1.79-.14.83,0,1.02.38,1.1,1.01.07.55.07,1.11-.02,1.66-.07.41-.08.81-.08,1.21,0,.63,0,1.27-.05,1.9-.05.55-.25.78-.79.85-.11.02-.23.03-.33.07-.3.12-.6.11-.9.01-.4-.12-.81-.11-1.21-.03-.27.06-.54.09-.82.11-.31.01-.61.01-.91.14-.13.06-.29.04-.43.04-.57,0-1.14,0-1.71.02-.64.02-.91.26-.9.88,0,.7-.15,1.39-.18,2.09-.03.65,0,1.3.09,1.95.12.86.12,1.72-.02,2.58-.1.61-.09,1.23-.09,1.85,0,1.35.01,2.7.01,4.05,0,1.38-.01,2.77-.01,4.15,0,.65,0,1.3.15,1.94.08.38.06.78.05,1.17,0,.48-.2.69-.68.71-.5.02-1.01.02-1.51,0-.61-.03-1.2,0-1.8.11-.5.1-1,.11-1.51.11-.62,0-1.24,0-1.86-.02-.55,0-.69-.14-.69-.7,0-.34-.01-.69.05-1.02.13-.69.13-1.39.14-2.09.01-1.07,0-2.15,0-3.22,0-1.29.03-2.57.04-3.86,0-1.14.02-2.28-.1-3.41-.13-1.25-.06-2.5-.09-3.75-.02-.8-.02-1.59-.04-2.39,0-.47-.08-.55-.54-.54-.73.02-1.47-.07-2.18.18-.07.03-.16.01-.24.01-1.19,0-2.38,0-3.57.06-.24.01-.49,0-.73-.01-.55-.04-.74-.24-.76-.8-.02-.67-.02-1.33.02-2,0-.11,0-.23,0-.4Z"></path>
      <path class="cls-1" d="M247.79,16.13c0,2.39-.04,4.79.01,7.18.04,1.58-.07,3.15-.09,4.73,0,.6-.07,1.2-.09,1.8-.01.41-.16.55-.56.57-.44.01-.88.01-1.32.02-.83.01-1.66.02-2.49.03-.16,0-.32.01-.48.08-.22.09-.47.1-.67.04-.53-.17-1.06-.1-1.6-.15-.39-.03-.36-.03-.44-.43-.21-1.08-.11-2.17-.15-3.26-.02-.55-.11-1.11-.09-1.65.02-.57.07-1.13.09-1.7.07-1.85-.01-3.71-.03-5.56-.02-1.6-.02-3.19,0-4.79,0-.7-.18-1.39-.11-2.09.2-1.78.04-3.58.1-5.36.02-.56-.16-1.1-.11-1.65.01-.16,0-.33.03-.49.07-.41.24-.56.66-.58.6-.02,1.2-.06,1.8-.09,1.28-.05,2.57-.15,3.85-.18.37,0,.75,0,1.12,0,.22,0,.35.12.38.36.06.63.17,1.25.17,1.89-.01,3.76,0,7.52,0,11.28,0,0,.01,0,.02,0Z"></path>
      <path class="cls-1" d="M49.03,4.37c0-1.04,0-2.08,0-3.12,0-.51.11-.62.62-.68,1.37-.17,2.73-.41,4.11-.52.24-.02.49-.04.73-.05.23,0,.37.09.37.35,0,.34-.01.68-.01,1.02,0,.22-.13.33-.32.36-.27.04-.55.09-.82.1-.73.03-1.46.16-2.18.22-.16.01-.35.02-.38.23-.04.25-.1.52.04.76.06.11.21.09.31.07.39-.04.78-.08,1.16-.13.47-.06.94-.13,1.41-.17.47-.03.58.08.59.54,0,.21.02.42.01.63,0,.38-.19.56-.58.55-.88-.03-1.74.19-2.61.25-.23.02-.35.14-.35.38,0,.08-.02.16-.02.24-.02.51.06.56.56.5.85-.11,1.71-.22,2.57-.3.69-.07.87.13.82.84,0,.03,0,.07,0,.1-.18.91-.13.73-.86.82-.81.11-1.62.15-2.42.29-.72.13-1.45.2-2.17.33-.48.09-.56.01-.56-.46,0-1.06,0-2.11,0-3.17,0,0,.01,0,.02,0Z"></path>
      <path class="cls-1" d="M46.58,3.42c.08,1.14-.17,2.35-.1,3.57.02.31,0,.61.07.92.09.47-.09.72-.57.78-.33.04-.63.13-.95.21-.39.09-.5,0-.51-.4-.02-.52-.01-1.04-.02-1.56,0-.13,0-.26-.01-.39-.03-.22-.16-.32-.37-.26-.6.16-1.21.27-1.82.37-.38.06-.49.22-.5.61,0,.57-.04,1.14.06,1.7.08.46-.09.69-.55.73-.34.03-.67.13-1.01.19-.44.07-.53,0-.56-.43,0-.06,0-.13,0-.2.09-1.37.01-2.73,0-4.1,0-.7.09-1.39.01-2.09-.04-.34.07-.46.37-.53.4-.09.79-.17,1.2-.24.44-.07.6.08.52.5-.11.57-.06,1.14-.05,1.7,0,.45.13.52.58.39.42-.12.85-.24,1.29-.27.13,0,.26-.05.38-.07.31-.07.46-.28.46-.6,0-.54,0-1.07,0-1.61,0-.13,0-.26,0-.39,0-.23.1-.37.33-.41.38-.08.76-.17,1.15-.23.46-.08.58.03.59.52,0,.5,0,1.01,0,1.59Z"></path>
      <path class="cls-1" d="M33.36,8.06c0-.81,0-1.63,0-2.44,0-.34-.08-.38-.42-.38-.41,0-.81.03-1.22.02-.48,0-.57-.12-.57-.58,0-.21,0-.42,0-.63,0-.32.08-.41.39-.44.49-.04.97-.08,1.46-.09,1.1-.01,2.17-.21,3.25-.34.36-.04.71-.12,1.07-.11.22,0,.33.1.32.33,0,.33,0,.65,0,.98-.02.32-.09.42-.41.43-.41.02-.8.14-1.2.19-.49.05-.54.11-.54.62,0,.7-.01,1.4-.01,2.1,0,.85.01,1.69.01,2.54,0,.39-.03.43-.39.48-.44.05-.87.11-1.31.13-.34.02-.4-.06-.4-.4,0-.8,0-1.59,0-2.39,0,0,0,0,0,0Z"></path>
    </g>
  </g>
</svg>
