<svg xmlns="http://www.w3.org/2000/svg" width="107.111" height="107.11" viewBox="0 0 107.111 107.11">
  <g id="instagram" transform="translate(53.556 53.555)">
    <g id="Group_932" data-name="Group 932" transform="translate(-53.556 -53.555)">
      <path id="Path_2569" data-name="Path 2569" d="M51.827,24.321a27.5,27.5,0,1,0,27.5,27.5A27.5,27.5,0,0,0,51.827,24.321Zm0,45.353A17.852,17.852,0,1,1,69.678,51.823,17.852,17.852,0,0,1,51.827,69.674Z" transform="translate(1.73 1.733)" fill="#fff"/>
      <path id="Path_2570" data-name="Path 2570" d="M77.117,17.306a6.427,6.427,0,1,0,6.427,6.428A6.427,6.427,0,0,0,77.117,17.306Z" transform="translate(5.027 1.234)" fill="#fff"/>
      <path id="Path_2571" data-name="Path 2571" d="M104.3,18.472a26.25,26.25,0,0,0-6.175-9.487,26.261,26.261,0,0,0-9.487-6.177,39.366,39.366,0,0,0-13-2.489C69.924.058,68.1,0,53.557,0S37.187.058,31.475.318a39.367,39.367,0,0,0-13,2.489A26.266,26.266,0,0,0,8.989,8.985a26.27,26.27,0,0,0-6.177,9.487,39.3,39.3,0,0,0-2.489,13C.061,37.184,0,39.007,0,53.553S.061,69.92.322,75.634a39.3,39.3,0,0,0,2.489,13A26.261,26.261,0,0,0,8.989,98.12a26.266,26.266,0,0,0,9.486,6.177,39.367,39.367,0,0,0,13,2.489c5.712.26,7.536.321,22.082.321s16.368-.061,22.081-.321a39.366,39.366,0,0,0,13-2.489A27.368,27.368,0,0,0,104.3,88.633a39.274,39.274,0,0,0,2.49-13c.26-5.713.322-7.536.322-22.081s-.062-16.369-.322-22.082A39.274,39.274,0,0,0,104.3,18.472Zm-7.15,56.722a29.678,29.678,0,0,1-1.843,9.944A17.742,17.742,0,0,1,85.142,95.3,29.622,29.622,0,0,1,75.2,97.146c-5.649.257-7.34.312-21.641.312s-15.995-.055-21.643-.312A29.615,29.615,0,0,1,21.97,95.3,16.6,16.6,0,0,1,15.813,91.3a16.576,16.576,0,0,1-4.006-6.158,29.615,29.615,0,0,1-1.844-9.944c-.258-5.648-.313-7.34-.313-21.641s.055-15.994.313-21.642a29.63,29.63,0,0,1,1.844-9.945,16.581,16.581,0,0,1,4.006-6.157A16.6,16.6,0,0,1,21.97,11.8a29.643,29.643,0,0,1,9.944-1.844c5.649-.258,7.341-.313,21.643-.313S69.549,9.7,75.2,9.958A29.65,29.65,0,0,1,85.142,11.8,16.607,16.607,0,0,1,91.3,15.809a16.6,16.6,0,0,1,4.007,6.157,29.693,29.693,0,0,1,1.843,9.945c.258,5.648.312,7.34.312,21.642S97.407,69.546,97.149,75.193Z" transform="translate(0 0.003)" fill="#fff"/>
    </g>
  </g>
</svg>
