<svg xmlns="http://www.w3.org/2000/svg" width="112.342" height="112.147" viewBox="0 0 112.342 112.147">
  <g id="linked_in" data-name="linked in" transform="translate(56.171 56.074)">
    <g id="Group_934" data-name="Group 934" transform="translate(-56.171 -56.074)">
      <g id="Group_933" data-name="Group 933">
        <path id="Path_2572" data-name="Path 2572" d="M1.855,37.237H25.138v74.911H1.855ZM13.5,0A13.5,13.5,0,1,1,0,13.494,13.5,13.5,0,0,1,13.5,0" fill="#fff"/>
        <path id="Path_2573" data-name="Path 2573" d="M49.609,46.02H71.94V56.255h.312c3.108-5.889,10.7-12.1,22.029-12.1,23.575,0,27.929,15.516,27.929,35.684V120.93H98.943V84.5c0-8.687-.159-19.862-12.1-19.862-12.114,0-13.974,9.463-13.974,19.234V120.93H49.609Z" transform="translate(-9.867 -8.783)" fill="#fff"/>
      </g>
    </g>
  </g>
</svg>
