<svg xmlns="http://www.w3.org/2000/svg" width="113.419" height="113.418" viewBox="0 0 113.419 113.418">
  <g id="spotify" transform="translate(56.709 56.709)">
    <g id="Group_936" data-name="Group 936" transform="translate(-56.709 -56.709)">
      <g id="Group_935" data-name="Group 935">
        <path id="Path_2574" data-name="Path 2574" d="M56.709,0a56.709,56.709,0,1,0,56.71,56.709A56.709,56.709,0,0,0,56.709,0ZM82.716,81.795a3.532,3.532,0,0,1-4.86,1.176C64.54,74.831,47.778,72.994,28.038,77.5a3.534,3.534,0,1,1-1.574-6.89c21.6-4.938,40.132-2.813,55.079,6.321A3.534,3.534,0,0,1,82.716,81.795Zm6.939-15.442a4.423,4.423,0,0,1-6.082,1.456C68.335,58.441,45.1,55.727,27.066,61.2A4.421,4.421,0,1,1,24.5,52.741c20.6-6.25,46.2-3.223,63.7,7.534A4.422,4.422,0,0,1,89.656,66.353Zm.6-16.079C71.975,39.418,41.822,38.42,24.372,43.716a5.3,5.3,0,1,1-3.079-10.151c20.032-6.081,53.332-4.906,74.376,7.586a5.3,5.3,0,0,1-5.414,9.123Z" fill="#fff"/>
      </g>
    </g>
  </g>
</svg>
