<?xml version="1.0" encoding="UTF-8"?><svg id="Layer_2" xmlns="http://www.w3.org/2000/svg" viewBox="0 0 801.89 136.73"><defs><style>.cls-1{fill:#fff;stroke-width:0px;}</style></defs><g id="Layer_1-2"><path class="cls-1" d="M321.11,26.6c8.81.31,17.65.01,26.47.12,2.97.04,4.94-.78,4.97-4.04.05-5.66.06-11.32-.02-16.98-.04-2.91-1.68-3.95-4.55-3.94-31.8.05-63.61.07-95.41-.02-3.56,0-4.67,1.49-4.59,4.8.13,5.16.15,10.33,0,15.48-.1,3.41,1.21,4.77,4.69,4.71,8.32-.15,16.65-.04,24.98-.04q8.34,0,8.34,8.1c0,15.49,0,30.97,0,46.46,0,16.15.13,32.31-.09,48.46-.06,4.47,1.66,5.93,5.83,5.8,4.99-.16,9.99,0,14.99-.03,7.79-.04,8.11-.35,8.11-8.2,0-31.47.09-62.94-.09-94.41-.03-4.88,1.58-6.42,6.37-6.25Z"/><path class="cls-1" d="M693.93,135.32c17.63-.14,35.34,1.55,52.86-1.41,38.57-6.51,59.8-39.82,54.23-76.73-4.74-31.42-31.31-55.07-63.16-55.37-14-.13-28,.15-41.99-.13-4.72-.1-5.97,1.59-5.92,6.06.18,20,.08,40,.08,59.99,0,20.66.01,41.33-.02,61.99,0,2.87.15,5.63,3.93,5.6ZM718.88,68.19c0-11.98.11-23.96-.06-35.93-.06-4,1.18-5.7,5.41-5.66,5.68.06,11.35.45,16.85,1.49,19.02,3.62,30.1,17.07,30.92,36.81.26,6.36-.29,12.63-2.16,18.72-4.47,14.53-14.63,22.47-29.32,25.18-5.27.97-10.58.86-15.89,1.06-4.31.17-5.91-1.34-5.83-5.74.22-11.97.08-23.96.08-35.93Z"/><path class="cls-1" d="M503.01,105.42c6.98.06,13.94-.67,20.83-1.85,38.86-6.7,56.22-52.35,31.4-83.08-10.42-12.9-25.08-17.8-41.04-18.57-12.79-.62-25.64-.15-38.46-.14-6.72,0-6.74.02-6.74,6.98,0,19.82,0,39.64,0,59.45,0,20.48.08,40.97-.07,61.45-.03,4.02,1.25,5.88,5.36,5.8,6.16-.11,12.32-.06,18.48-.03,3.52.02,5.14-1.56,5.08-5.17-.11-6.49.12-12.99-.06-19.48-.11-3.84,1.31-5.4,5.23-5.36ZM497.8,75.04c.12-7.32.04-14.64.04-21.96,0-7.15.11-14.31-.05-21.46-.08-3.66,1.37-5.27,5.01-4.94,6.11.54,12.28.66,18.18,2.63,8.98,2.99,14.57,10.28,15.03,19.68.15,3.15.26,6.34-.05,9.47-.88,8.88-5.35,15.26-13.84,18.44-6.3,2.36-12.92,2.84-19.6,2.91-3.43.04-4.78-1.38-4.72-4.77Z"/><path class="cls-1" d="M102.71,1.69c-5.14.37-10.32.08-15.48.08-7.19.01-7.21.02-7.21,7.06-.01,25.65.06,51.3-.04,76.95-.05,13.01-4.63,20.56-13.86,23.51-5.83,1.86-11.86,2.07-17.79,1.18-10.78-1.61-16.4-6.57-18.24-15.74-.75-3.73-1.24-7.51-1.23-11.39.09-25.32-.04-50.64.13-75.95.03-4.37-1.3-5.95-5.71-5.71-5.81.32-11.67.3-17.48,0C1.4,1.48-.02,3.13,0,7.45c.13,27.32-.14,54.63.14,81.95.21,20.53,11.24,36.12,29.58,43.39,9.53,3.78,19.43,4,29.46,3.93,29.59-.23,49.59-20.18,49.65-49.7.02-12.66,0-25.32,0-37.98,0-13.66-.14-27.32.08-40.97.07-4.62-1.21-6.74-6.2-6.37Z"/><path class="cls-1" d="M341.07,135.4c3.66.16,7.32.09,10.99.06,12.26-.1,10.15,1.09,14.68-9.84,1.48-3.57,3.38-5.14,7.39-5.08,14.15.21,28.3.16,42.45.03,3.49-.03,5.99.99,6.71,4.48,1.83,8.87,7.31,11.92,15.87,10.44.81-.14,1.66-.02,2.49-.03,3,0,5.99.05,8.99-.01,6.47-.14,7.05-1.03,4.33-7.05-16.78-37.15-33.59-74.28-50.4-111.41-2.2-4.85-4.34-9.73-6.71-14.49-1.62-3.25-3.61-3.14-5.38,0-.57,1.01-.97,2.12-1.43,3.18-12.31,28.21-24.63,56.41-36.94,84.62-5.66,12.96-11.33,25.91-16.92,38.9-2.04,4.73-1.23,5.99,3.88,6.21ZM379.9,93.57c4.79-12.65,9.72-25.26,14.61-37.87l1.26.11c4.71,12.38,9.44,24.76,14.11,37.16.71,1.88-.16,2.85-2.15,2.85-8.49,0-16.99,0-25.48,0-1.48,0-3.04-.44-2.35-2.25Z"/><path class="cls-1" d="M615.79,105.38c6.64.04,13.28-.62,19.84-1.82,37.56-6.87,55.24-48.53,33.73-79.95-10.37-15.15-26.06-20.77-43.52-21.69-12.63-.66-25.33-.15-37.99-.15-7.48,0-7.62.09-7.63,7.46-.03,19.83-.01,39.67,0,59.5,0,20-.03,40,.02,60,.01,5.9.8,6.64,6.64,6.72,5.5.07,11.01-.17,16.5.07,4.86.21,6.51-2,6.36-6.6-.19-5.83.18-11.68-.1-17.49-.23-4.67,1.68-6.07,6.17-6.04ZM609.62,73.89c.29-6.99.07-13.99.08-20.99,0-7.16.07-14.33-.02-21.49-.05-3.39,1.35-5,4.77-4.72,6.29.52,12.63.64,18.68,2.75,7.32,2.55,12.38,7.46,13.87,15.08,4.41,22.44-4.62,34.1-28.21,35.24-1,.05-2.01-.09-3,.03-4.49.54-6.38-1.2-6.18-5.9Z"/><path class="cls-1" d="M230.11,1.74c-4.32.18-8.66.04-12.99.04-9.92,0-10.35.02-9.82,10.19.99,18.81.55,37.62.66,56.43,0,1.67.63,3.56-.88,5.27-.83-.66-1.51-1.12-2.1-1.68-12.64-11.85-25.27-23.71-37.9-35.56-12.27-11.51-24.54-23.01-36.83-34.51-1.07-1-2.12-2.34-3.85-1.79-1.98.63-1.99,2.48-2.1,4.13-.12,1.66-.09,3.33-.09,5,0,21.82,0,43.65,0,65.47,0,17.99.11,35.99-.06,53.98-.05,4.86,1.56,7.1,6.63,6.82,4.65-.26,9.33,0,13.99-.06,6.25-.07,6.88-.65,6.9-6.9.05-17.49.02-34.99.02-52.48,0-3.96,0-7.92,0-13.27,2.14,1.82,3.17,2.63,4.12,3.52,19.7,18.44,39.38,36.9,59.07,55.34,4.74,4.44,9.5,8.86,14.27,13.27,1.12,1.03,2.39,2.07,4,1.37,1.64-.71,1.59-2.39,1.64-3.89.05-1.66.04-3.33.04-5,0-35.99,0-71.97,0-107.96,0-4.33-.1-8.66,0-12.99.08-3.35-1.22-4.88-4.72-4.73Z"/></g></svg>