<?xml version="1.0" encoding="UTF-8"?>
<svg preserveAspectRatio="xMidYMid slice" width="34px" height="15px" xmlns="http://www.w3.org/2000/svg" id="Layer_2" viewBox="0 0 202.11 92.52">
  <defs>
    <style>.cls-1{fill:#fff;stroke-width:0px;}</style>
  </defs>
  <g id="template">
    <g id="_3V3CDH">
      <path class="cls-1" d="M202.11,53.64c-.76,1.35-2.09,1.33-3.33,1.25-2.76-.18-5.5-.05-8.24.3-.5.06-1.01.13-1.51.17-.92.07-1.35-.16-1.72-1-.79-1.79-1.41-3.65-2.12-5.47-.55-1.43-.68-1.53-2.21-1.54-3.37-.02-6.72.22-10.07.47-1.95.15-3.92.24-5.85.54-1.6.25-3.23.29-4.81.68-.54.14-.94.43-1.15.96-.69,1.67-1.14,3.42-1.73,5.13-.2.55-.34,1.13-.64,1.65-.67,1.17-1.76,1.46-3,1.5-3.32.1-6.57.73-9.8,1.47-.72.17-1.36-.08-1.73-.71-.23-.38-.1-.79-.03-1.18.12-.67.38-1.29.64-1.92,1.74-4.21,3.57-8.38,5.26-12.61,2.41-6.03,5.02-11.98,7.55-17.96,2.4-5.67,4.97-11.27,7.17-17.02.43-1.13,1.17-1.67,2.28-1.85,1.58-.27,3.17-.51,4.77-.65,2.27-.21,4.54-.46,6.82-.54.67-.02,1.35-.07,1.95.38.2.15.35.3.43.54.14.41.33.82.47,1.23.62,1.85,1.49,3.57,2.4,5.29,1.41,2.65,2.69,5.37,3.65,8.22.83,2.45,2.07,4.72,3.13,7.08,1.05,2.36,2.07,4.73,3.08,7.11,1.18,2.78,2.68,5.41,4.06,8.1,1.54,3.01,2.77,6.15,4.04,9.28.12.3.09.64.27.91v.2ZM168.83,36.28s0,0,0-.01c.1,0,.2,0,.3,0,2.08-.19,4.16-.48,6.26-.49.69,0,1.38,0,2.03-.29.58-.26,1.22-1.19.89-1.88-.2-.42-.29-.9-.44-1.34-1.03-3.1-2.07-6.21-3.21-9.27-.08-.23-.19-.41-.41-.55-1.16-.73-2.47-.3-2.97,1-1.27,3.34-2.53,6.69-3.8,10.03-.18.46-.3.93-.38,1.41-.13.77.21,1.24.97,1.34.25.03.5.04.76.05Z"></path>
      <path class="cls-1" d="M60.07,0c.21.15.29.35.28.61-.01.69,0,1.39,0,2.08,0,.39-.13.62-.58.66-1.7.14-3.39.32-5.09.48-.36.04-.83-.05-1,.32-.23.49-.18,1.06-.06,1.59.06.25.31.21.52.18,1.39-.19,2.78-.35,4.16-.58,1.58-.25,1.67-.2,1.7,1.37,0,.34.04.67.02,1.01-.04.47-.22.71-.72.69-1.7-.07-3.35.41-5.03.47-.45.02-.63.25-.68.7-.15,1.5-.06,1.62,1.42,1.34,1.58-.29,3.18-.39,4.77-.54.78-.07.81.01.87.8.05.64-.04,1.28-.08,1.92-.02.36-.27.39-.52.43-.62.08-1.24.16-1.86.21-2.54.2-5.05.62-7.56,1.08-.67.12-.74.06-.78-.6-.02-.35-.03-.71,0-1.06.14-2.01-.1-4.02.02-6.03.1-1.75-.13-3.51.06-5.26.05-.41.21-.58.57-.63,2.65-.32,5.27-.82,7.93-1.02.42-.03.84-.07,1.24-.23h.41Z"></path>
      <path class="cls-1" d="M10.09,28.62c1.01,0,2.9.06,4.79-.02,1.4-.06,2.78-.31,4.17-.48,1.88-.24,3.78-.16,5.67-.22.91-.03,1.83-.07,2.73-.2,1.71-.23,3.37.02,5.02.43,1.88.47,3.76.96,5.43,2.02.92.58,1.81,1.2,2.5,2.04,1.32,1.62,2.63,3.27,3.49,5.2.38.85.61,1.76.7,2.68.21,2.24.27,4.48-.17,6.71-.25,1.25-.64,2.45-1.22,3.58-1.11,2.16-2.41,4.22-4.3,5.78-1.25,1.03-2.56,2.05-4.14,2.58-.7.24-.73.36-.29.94,2,2.64,4.02,5.26,6.2,7.76.43.5.85,1.01,1.23,1.54,1.35,1.85,3,3.43,4.57,5.08.22.23.42.49.54.79.18.43.02.87-.39,1.09-.74.4-1.57.39-2.36.49-3.85.53-7.73.73-11.56,1.4-.83.14-1.48-.11-1.95-.76-2.47-3.4-5.34-6.5-7.56-10.1-.92-1.48-2.16-2.77-3.25-4.14-.21-.26-.5-.42-.83-.42-.98,0-1.96-.02-2.94.02-1.42.06-1.57.57-1.65,1.7-.18,2.48-.1,4.96.12,7.44.18,2.08.36,4.17.17,6.27-.1,1.06-.38,1.37-1.46,1.48-.84.09-1.69.08-2.53.02-1.71-.13-3.4.21-5.1.28-1.61.06-3.21,0-4.8-.19-.5-.06-.73-.34-.79-.83-.16-1.28-.14-2.55-.06-3.84.15-2.41.5-4.81.33-7.23-.29-4.15-.43-8.3-.1-12.45.12-1.48-.1-2.97-.18-4.45-.09-1.66.1-3.31.15-4.96.11-3.41.22-6.82.11-10.23-.05-1.53-.29-3.07-.05-4.6.28-1.81.47-1.91,2.19-2.08,2.23-.23,4.46.1,7.57-.11ZM14.75,47.96c-.05,1.09-.1,1.95-.05,2.81.04.73.21.92.95.97,2.24.17,4.49.21,6.72-.14,1.48-.24,2.99-.34,4.43-.78,1.73-.52,2.89-1.6,3.38-3.37.49-1.8.36-3.6-.2-5.34-.51-1.59-1.6-2.58-3.34-2.84-1.49-.22-2.96-.13-4.45-.06-2.23.1-4.44.39-6.65.71-.75.11-1.12.56-1.15,1.3-.02.35,0,.71.02,1.06.12,1.97.57,3.92.33,5.68Z"></path>
      <path class="cls-1" d="M101.8,59.62c-.14-2.67.24-5.33.25-8,.01-2.65-.27-5.29-.3-7.94-.04-3.65-.17-7.29.16-10.93.13-1.42-.05-2.84-.16-4.25-.12-1.55.1-3.07.19-4.6.05-.9.1-1.79.02-2.68-.11-1.19-.09-2.36.14-3.53.13-.66.44-1.1,1.15-1.3,2.23-.64,4.54-.85,6.8-1.32,2.56-.53,5.14-1,7.72-1.39,2.35-.36,4.73-.55,7.07-.96,1.68-.3,3.33-.74,5.02-.97,2.73-.37,5.4-.03,7.93,1.07,1.54.67,2.81,1.79,4.1,2.86,2.01,1.66,3.34,3.71,3.84,6.3.24,1.22.7,2.4.95,3.62.21,1.02.25,2.05.19,3.07-.34,6.18-3.06,11.14-7.9,14.89-3.31,2.57-7.04,4.38-11.21,5.18-2.54.49-5.08.94-7.63,1.31-1.11.16-2.17.51-3.22.85-.39.13-.44.49-.46.82-.11,1.52-.19,3.03-.3,4.55-.14,2.06.06,4.12-.08,6.18-.12,1.73-.27,1.96-1.94,2.42-1.72.47-3.5.56-5.23.9-1.57.31-3.12.75-4.72.87-.17.01-.34.05-.5.06-1.38,0-1.5-.15-1.68-1.37-.28-1.9-.13-3.81-.18-5.72ZM116.06,28.87c0,.35-.03.71,0,1.06.23,2.25.3,4.51.3,6.78,0,.29.02.57.05.86.12.91.27,1.06,1.21.99.98-.07,1.96-.13,2.92-.28,2.15-.34,4.27-.85,6.36-1.45,4.14-1.2,6.02-4.85,5.27-8.79-.3-1.57-1.17-2.78-2.82-3.28-1.42-.43-2.85-.45-4.3-.2-1.54.27-3.05.74-4.63.84-1.15.07-2.28.22-3.38.61-.55.2-.8.56-.92,1.09-.13.58-.11,1.17-.09,1.77Z"></path>
      <path class="cls-1" d="M91.99,38.22c-.02,2.36.1,4.73-.01,7.09-.15,3.02-.08,6.05-.07,9.07,0,1.08.13,2.16.18,3.24.06,1.46-.13,2.9-.23,4.35-.05.66-.05,1.32-.06,1.97-.02,1.32-.04,2.63-.05,3.95,0,.82-.18,1.05-.99,1.29-.93.27-1.89.35-2.84.52-1.96.34-3.92.69-5.89.98-1.1.16-2.22.23-3.33.31-.66.05-.73-.07-.76-.74-.12-2.82-.28-5.63-.38-8.45-.06-1.74.12-3.48.24-5.21.09-1.29,0-2.57-.07-3.85-.11-1.81-.08-3.61-.11-5.42-.14-7.52-.02-15.04-.07-22.56,0-.83-.09-1.65-.09-2.48,0-1.28.37-1.52,1.3-1.69,3.9-.73,7.79-1.5,11.69-2.18,1.18-.21,1.19-.17,1.28.96.14,1.67.23,3.33.23,5.01,0,4,.02,8.01.04,12.01,0,.61,0,1.22,0,1.82Z"></path>
      <path class="cls-1" d="M67.8,42.54c-.07,2.57.08,5.14-.07,7.7-.14,2.47-.08,4.93-.07,7.4,0,1.57.2,3.14.19,4.71-.01,2.38-.34,4.75-.3,7.13.01.83-.01,1.66-.01,2.48,0,.91-.17,1.13-1.08,1.36-1.1.28-2.23.37-3.35.52-1.92.26-3.83.64-5.77.81-.96.08-1.92.13-2.88.18-.62.03-.71-.1-.75-.71-.2-2.76-.18-5.53-.38-8.3-.09-1.23.09-2.46.16-3.69.11-1.87.14-3.74.03-5.62-.18-3.26-.14-6.52-.13-9.78.01-2.89-.17-5.78-.07-8.66.07-2.26.09-4.53.07-6.79-.02-1.72-.1-3.44-.13-5.17-.02-1.32.36-1.53,1.28-1.68,3.65-.59,7.29-1.2,10.94-1.8.5-.08.98-.21,1.5-.17.32.03.46.16.48.46.1,1.28.26,2.56.28,3.84.05,3.43-.01,6.86.06,10.29.04,1.82,0,3.65,0,5.47Z"></path>
      <path class="cls-1" d="M127.74,84.93c0,.89.12,1.78.09,2.68-.01.32-.09.58-.45.62-.96.09-1.88.42-2.84.5-.43.04-.61-.1-.59-.51.02-.4.05-.81.06-1.21,0-2.55,0-5.1.02-7.65.01-1.05.04-2.09-.01-3.14-.04-.81.09-.99.92-1.1,2.18-.29,4.31-.83,6.47-1.17,1.71-.27,3.45.66,4.06,2.26.38.99.32,2.03-.02,3.03-.41,1.17-1.13,2.11-2.21,2.74-.3.17-.3.3-.1.53.9,1.05,1.75,2.15,2.74,3.12.07.07.15.14.21.22.33.36.28.56-.19.66-1.12.24-2.25.46-3.37.69-.31.07-.47-.11-.64-.31-.81-1-1.61-2-2.42-2.99-.34-.42-1.04-.52-1.5-.23-.18.11-.22.3-.23.48-.02.25,0,.51,0,.76ZM127.8,79.69c0,.19,0,.37,0,.56,0,.57.04.58.61.54.74-.06,1.45-.26,2.17-.44,1.34-.34,1.54-1.4,1.24-2.54-.12-.45-.45-.68-.94-.68-.96,0-1.86.26-2.77.5-.32.08-.41.3-.4.61.02.49.16.97.09,1.46Z"></path>
      <path class="cls-1" d="M32.91,12.07c-.07-1.49-.06-2.97.03-4.46.03-.57,0-1.15-.1-1.72-.12-.71.06-.98.76-1.1.8-.14,1.58-.33,2.38-.5.64-.13.76-.02.74.64-.03,1.22-.08,2.43-.09,3.65-.01.71.16.87.81.63,1.11-.41,2.26-.56,3.41-.74.48-.08.67-.31.71-.81.12-1.27.03-2.53,0-3.8-.02-.6.11-.8.68-.92.84-.18,1.69-.33,2.53-.53.41-.09.58.05.58.45,0,1.1-.05,2.2,0,3.29.07,1.77-.11,3.54-.07,5.31.03,1.21-.05,2.43.07,3.64.04.41-.13.72-.59.81-.86.16-1.72.32-2.56.58-.36.11-.54-.02-.59-.44-.13-1.3,0-2.6-.07-3.9-.03-.64-.08-.7-.68-.53-1.15.33-2.33.55-3.52.73-.44.06-.65.27-.63.74.06,1.25-.06,2.5.05,3.75.06.71-.09.91-.82,1.01-.8.11-1.6.26-2.39.43-.57.12-.68.03-.68-.59.01-1.52.04-3.04.06-4.56,0-.35,0-.71,0-1.06Z"></path>
      <path class="cls-1" d="M119.61,77.76c0,.29,0,.57,0,.86,0,.71-.06.84-.77.93-1.72.22-3.42.65-5.16.73-.51.02-.74.26-.77.78-.09,1.34,0,1.43,1.33,1.19,1.36-.24,2.72-.48,4.08-.78.76-.17.85-.1.92.67.05.55.06,1.11.04,1.67-.01.62-.18.78-.79.82-1.67.1-3.28.62-4.95.7-.39.02-.56.21-.59.6-.14,1.89-.17,1.64,1.37,1.39,1.46-.24,2.94-.41,4.39-.73,1.14-.25,1.17-.2,1.2.95.02.54-.02,1.08-.08,1.62-.03.27-.13.42-.42.48-.96.17-1.91.4-2.89.52-1,.12-1.99.42-2.99.51-1.21.12-2.4.36-3.61.51-.49.06-.69-.14-.7-.6,0-.44-.04-.88,0-1.32.06-.59.1-1.18.06-1.77-.12-1.97.03-3.95-.01-5.92-.02-1.1.02-2.19.03-3.29,0-.46.2-.66.66-.7,2.99-.27,5.96-.74,8.9-1.33.67-.13.74-.08.74.59,0,.3,0,.61,0,.91Z"></path>
      <path class="cls-1" d="M148.05,79.53c0-1.48.03-2.97.05-4.45.02-1.3-.07-2.59.02-3.89.03-.46.23-.63.63-.68,2.94-.39,5.87-.9,8.79-1.41.78-.14.94,0,.89.8-.03.52-.04,1.04,0,1.56.05.67-.1.84-.78.92-1.74.19-3.46.59-5.21.72-.44.03-.67.23-.71.73-.11,1.41-.02,1.5,1.36,1.23,1.37-.27,2.75-.52,4.13-.76.69-.12.81-.02.83.69.02.61,0,1.21.02,1.82,0,.42-.22.64-.62.64-1.65.01-3.22.56-4.86.66-.64.04-.79,0-.87.94-.11,1.24-.06,1.35,1.14,1.14,1.74-.32,3.49-.59,5.24-.81.47-.06.57.13.59.55.04.66-.02,1.32-.03,1.97,0,.36-.15.56-.52.61-2.41.32-4.78.86-7.19,1.15-.7.09-1.38.3-2.08.44-.7.13-.76.07-.82-.61-.08-.85.03-1.69.05-2.53,0-.47-.01-.94-.03-1.42Z"></path>
      <path class="cls-1" d="M98.36,92.51c-1.82.06-3.19-.85-4.45-2.01-.22-.2-.24-.41-.03-.61.52-.49.96-1.04,1.36-1.63.21-.31.48-.33.78-.1,1.31,1.02,2.77,1.24,4.36.89.27-.06.52-.14.74-.3.34-.24.56-.55.5-.98-.06-.43-.34-.68-.74-.81-.57-.18-1.16-.2-1.75-.2-1.01,0-1.97-.21-2.89-.65-1.71-.82-2.33-1.99-2.13-3.88.2-1.88,1.35-2.94,3.02-3.48,2.05-.66,4.12-.66,6.16.1,1.29.48,1.34.65.55,1.8-.23.33-.47.66-.7.99-.24.34-.5.43-.91.24-1.06-.5-2.19-.52-3.33-.37-.21.03-.43.11-.62.22-.34.18-.53.47-.51.87.02.41.27.63.62.78.27.12.56.1.85.11,1.21.03,2.39.27,3.53.65,3.38,1.11,3.03,4.59,1.45,6.36-1.09,1.23-2.58,1.68-4.16,1.86-.57.06-1.14.11-1.71.17Z"></path>
      <path class="cls-1" d="M168.54,67.64c1.41.03,2.71.26,3.91.93.5.28.54.4.26.92-.31.57-.72,1.06-1.1,1.58-.24.33-.51.37-.88.18-1.06-.53-2.18-.53-3.32-.36-.18.03-.36.1-.53.18-.44.21-.71.67-.61,1.06.13.47.48.69.94.7,1.07.01,2.12.16,3.16.4,1.1.26,2.08.7,2.79,1.61,1.2,1.56.77,4.21-.84,5.45-1.11.86-2.39,1.23-3.75,1.39-1.02.12-2.03.34-3.07.14-1.15-.22-2.1-.81-3-1.5-.3-.23-.36-.48-.09-.76.48-.5.9-1.04,1.27-1.64.24-.4.55-.43.93-.16,1.36.96,2.87.98,4.42.61.26-.06.5-.19.71-.37.62-.54.48-1.37-.29-1.66-.68-.26-1.4-.23-2.1-.21-1.31.03-2.49-.35-3.61-.99-.43-.25-.73-.6-.88-1.07-.77-2.44.04-4.89,2.91-5.9.9-.32,1.84-.59,2.76-.53Z"></path>
      <path class="cls-1" d="M21.29,16.7c.14-2.16.03-4.32-.03-6.48-.01-.5-.23-.57-.62-.5-.86.15-1.72.05-2.58.09-.59.03-.67-.08-.68-.67,0-.62,0-1.25-.01-1.87,0-.4.16-.61.57-.57,1.1.1,2.19-.1,3.28-.12,1.6-.03,3.18-.33,4.77-.53.82-.1,1.63-.24,2.45-.36.45-.07.67.11.65.58-.03.69-.06,1.38-.08,2.07-.01.37-.19.54-.56.58-.9.1-1.8.24-2.71.34-.42.05-.62.19-.64.66-.08,2.8-.09,5.6-.07,8.4,0,.32.07.64.09.96.02.28-.11.48-.41.47-.97-.05-1.91.23-2.88.22-.46,0-.58-.15-.57-.58.02-.89,0-1.79,0-2.68Z"></path>
      <path class="cls-1" d="M139.8,78.92c0-2.04,0-4.09,0-6.13,0-.32.07-.54.44-.61.89-.17,1.78-.37,2.67-.57.45-.1.64.02.64.52.03,2.73.02,5.47.02,8.2,0,1.35-.03,2.7-.02,4.04,0,.55-.2.74-.71.8-.82.1-1.62.31-2.44.42-.38.05-.47-.08-.49-.41-.06-1.06-.08-2.12-.05-3.19.02-1.03,0-2.06,0-3.09-.02,0-.04,0-.05,0Z"></path>
    </g>
  </g>
</svg>
