<svg xmlns="http://www.w3.org/2000/svg" xmlns:xlink="http://www.w3.org/1999/xlink" width="61" height="60" viewBox="0 0 61 60">
  <defs>
    <clipPath id="clip-path">
      <rect id="Rectangle_45" data-name="Rectangle 45" width="61" height="60" fill="none"/>
    </clipPath>
  </defs>
  <g id="Vector_Smart_Object" data-name="Vector Smart Object" transform="translate(-213 -741)">
    <g id="Vector_Smart_Object-2" data-name="Vector Smart Object" transform="translate(213 741)">
      <g id="Group_672" data-name="Group 672">
        <g id="Group_671" data-name="Group 671" clip-path="url(#clip-path)">
          <path id="Path_2425" data-name="Path 2425" d="M30.5,60c-1.486,0-2.562-1.067-3.512-2.009a5.2,5.2,0,0,0-1.368-1.121,5.261,5.261,0,0,0-1.765.616c-1.2.56-2.566,1.2-3.929.716-1.39-.491-2.022-1.849-2.581-3.047a5.014,5.014,0,0,0-.9-1.521,5.346,5.346,0,0,0-1.852,0c-1.335.127-2.849.269-3.966-.641s-1.248-2.4-1.351-3.711a4.986,4.986,0,0,0-.311-1.733,5.38,5.38,0,0,0-1.72-.6c-1.307-.321-2.787-.689-3.526-1.927s-.33-2.67.033-3.93a4.985,4.985,0,0,0,.32-1.744A5.311,5.311,0,0,0,2.7,38.23C1.574,37.486.3,36.643.044,35.213c-.253-1.4.632-2.6,1.413-3.65A5.053,5.053,0,0,0,2.385,30a5.061,5.061,0,0,0-.928-1.56C.675,27.384-.209,26.189.044,24.79.3,23.359,1.574,22.517,2.7,21.773a5.286,5.286,0,0,0,1.38-1.111,4.933,4.933,0,0,0-.318-1.743c-.363-1.261-.774-2.689-.035-3.929s2.221-1.606,3.526-1.93a5.336,5.336,0,0,0,1.72-.6,4.986,4.986,0,0,0,.311-1.733c.1-1.307.219-2.79,1.351-3.711s2.632-.769,3.966-.641a5.4,5.4,0,0,0,1.85,0,5.06,5.06,0,0,0,.9-1.521c.558-1.2,1.189-2.556,2.579-3.046,1.367-.48,2.726.154,3.929.714a5.081,5.081,0,0,0,1.763.616,5.174,5.174,0,0,0,1.371-1.123C27.939,1.067,29.015,0,30.5,0s2.56,1.067,3.51,2.01a5.234,5.234,0,0,0,1.368,1.121,5.186,5.186,0,0,0,1.765-.616c1.2-.56,2.568-1.194,3.929-.716,1.39.491,2.022,1.849,2.581,3.046a5.026,5.026,0,0,0,.9,1.521,5.448,5.448,0,0,0,1.852,0c1.335-.13,2.847-.271,3.966.641s1.249,2.4,1.351,3.711a4.986,4.986,0,0,0,.311,1.733,5.362,5.362,0,0,0,1.72.6c1.307.323,2.787.689,3.528,1.929s.328,2.669-.035,3.93a4.985,4.985,0,0,0-.32,1.744,5.326,5.326,0,0,0,1.381,1.11c1.123.744,2.393,1.586,2.652,3.017.253,1.4-.632,2.594-1.413,3.65A5.049,5.049,0,0,0,58.615,30a5.049,5.049,0,0,0,.928,1.561c.781,1.056,1.666,2.251,1.413,3.65-.259,1.43-1.529,2.273-2.652,3.017a5.311,5.311,0,0,0-1.38,1.11,4.945,4.945,0,0,0,.318,1.744c.363,1.26.774,2.689.035,3.929s-2.221,1.606-3.526,1.929a5.38,5.38,0,0,0-1.72.6,4.986,4.986,0,0,0-.311,1.733c-.1,1.307-.218,2.79-1.351,3.711s-2.632.769-3.966.641a5.441,5.441,0,0,0-1.85,0,5.054,5.054,0,0,0-.9,1.521c-.558,1.2-1.189,2.554-2.579,3.046-1.362.483-2.725-.154-3.929-.714a5.14,5.14,0,0,0-1.763-.616,5.146,5.146,0,0,0-1.371,1.123c-.95.94-2.025,2.007-3.51,2.007m-4.928-5.99a3.312,3.312,0,0,1,.542.044,5.873,5.873,0,0,1,2.938,1.926c.376.374,1.162,1.154,1.448,1.163.285-.009,1.07-.789,1.448-1.163a5.865,5.865,0,0,1,2.94-1.926,6.078,6.078,0,0,1,3.5.849,5.486,5.486,0,0,0,1.711.606,5.09,5.09,0,0,0,.914-1.544,5.754,5.754,0,0,1,2.1-2.813,6.079,6.079,0,0,1,3.57-.367,5.388,5.388,0,0,0,1.839,0,5.183,5.183,0,0,0,.3-1.727,5.645,5.645,0,0,1,1-3.366,5.972,5.972,0,0,1,3.223-1.52,5.353,5.353,0,0,0,1.733-.611,5.412,5.412,0,0,0-.328-1.7,5.654,5.654,0,0,1-.248-3.514,5.791,5.791,0,0,1,2.482-2.49c.463-.307,1.327-.88,1.416-1.154a5.624,5.624,0,0,0-.9-1.461A5.748,5.748,0,0,1,55.71,30a5.757,5.757,0,0,1,1.484-3.243,5.211,5.211,0,0,0,.9-1.487,5.655,5.655,0,0,0-1.415-1.129,5.807,5.807,0,0,1-2.482-2.49,5.638,5.638,0,0,1,.25-3.513,5.142,5.142,0,0,0,.318-1.716,5.712,5.712,0,0,0-1.724-.593,5.982,5.982,0,0,1-3.223-1.52,5.645,5.645,0,0,1-1-3.366,4.993,4.993,0,0,0-.312-1.736,5.557,5.557,0,0,0-1.83.007,6.093,6.093,0,0,1-3.568-.366,5.74,5.74,0,0,1-2.1-2.814,4.968,4.968,0,0,0-.922-1.547,5.566,5.566,0,0,0-1.7.61,6.142,6.142,0,0,1-3.5.847,5.849,5.849,0,0,1-2.938-1.924c-.378-.374-1.163-1.154-1.448-1.164-.286.01-1.072.79-1.449,1.164a5.855,5.855,0,0,1-2.938,1.924,6.116,6.116,0,0,1-3.5-.847A5.206,5.206,0,0,0,20.9,4.493a5.054,5.054,0,0,0-.914,1.544,5.754,5.754,0,0,1-2.1,2.813,6.113,6.113,0,0,1-3.568.367,5.359,5.359,0,0,0-1.84,0,5.176,5.176,0,0,0-.3,1.727,5.645,5.645,0,0,1-1,3.366,5.983,5.983,0,0,1-3.221,1.52,5.363,5.363,0,0,0-1.734.611,5.412,5.412,0,0,0,.328,1.7A5.633,5.633,0,0,1,6.8,21.653a5.791,5.791,0,0,1-2.482,2.49c-.463.307-1.327.88-1.416,1.153a5.618,5.618,0,0,0,.9,1.461A5.757,5.757,0,0,1,5.289,30a5.757,5.757,0,0,1-1.484,3.244,5.2,5.2,0,0,0-.9,1.487A5.616,5.616,0,0,0,4.319,35.86,5.807,5.807,0,0,1,6.8,38.35a5.639,5.639,0,0,1-.25,3.513,5.142,5.142,0,0,0-.318,1.716,5.712,5.712,0,0,0,1.724.593A5.98,5.98,0,0,1,11.18,45.69a5.642,5.642,0,0,1,1,3.367,5.007,5.007,0,0,0,.312,1.736,5.557,5.557,0,0,0,1.83-.007,6.113,6.113,0,0,1,3.568.366,5.736,5.736,0,0,1,2.1,2.813,4.949,4.949,0,0,0,.924,1.549,5.326,5.326,0,0,0,1.7-.61,7.3,7.3,0,0,1,2.96-.893" fill="#fff"/>
          <path id="Path_2426" data-name="Path 2426" d="M30.5,51.429A21.634,21.634,0,0,1,8.715,30a21.788,21.788,0,0,1,43.57,0A21.634,21.634,0,0,1,30.5,51.429m0-40A18.749,18.749,0,0,0,11.62,30a18.883,18.883,0,0,0,37.761,0A18.749,18.749,0,0,0,30.5,11.429" fill="#fff"/>
          <path id="Path_2427" data-name="Path 2427" d="M30.5,45.714l-.046-2.857H30.5a13.479,13.479,0,0,0,2.51-.236l.553,2.8a16.346,16.346,0,0,1-3.063.289m-3.163-.309a16.009,16.009,0,0,1-2.995-.9l1.12-2.636a13.138,13.138,0,0,0,2.447.736Zm9.227-.863-1.1-2.644a13,13,0,0,0,2.261-1.181L39.329,43.1a16.166,16.166,0,0,1-2.767,1.444m-14.977-1.5a15.835,15.835,0,0,1-2.412-1.96l2.059-2.014a13.028,13.028,0,0,0,1.974,1.6Zm20.169-1.889-2.048-2.029a12.916,12.916,0,0,0,1.634-1.94l2.408,1.6a15.844,15.844,0,0,1-1.994,2.371M17.193,38.7a15.656,15.656,0,0,1-1.471-2.719l2.685-1.089a12.833,12.833,0,0,0,1.2,2.223Zm28.046-2.627-2.68-1.1a12.575,12.575,0,0,0,.751-2.406l2.848.566a15.61,15.61,0,0,1-.919,2.944M14.821,33.03a15.547,15.547,0,0,1-.3-3.03l2.9-.03V30a12.647,12.647,0,0,0,.244,2.481ZM43.57,30.06V30a12.836,12.836,0,0,0-.248-2.509l2.849-.554a15.571,15.571,0,0,1,.3,3.063Zm-25.888-2.6-2.848-.557a15.372,15.372,0,0,1,.914-2.947l2.681,1.1a12.553,12.553,0,0,0-.747,2.406m24.9-2.38a12.809,12.809,0,0,0-1.208-2.221l2.415-1.587a15.672,15.672,0,0,1,1.477,2.716Zm-22.94-2.244-2.411-1.593a15.765,15.765,0,0,1,1.99-2.374l2.051,2.023a13.151,13.151,0,0,0-1.63,1.944m20.106-1.926a13.046,13.046,0,0,0-1.98-1.6l1.618-2.374A16.088,16.088,0,0,1,41.8,18.894ZM23.253,19.3,21.641,16.92A16.107,16.107,0,0,1,24.4,15.47l1.11,2.641a13.111,13.111,0,0,0-2.26,1.186m12.258-1.176a13.125,13.125,0,0,0-2.447-.731l.564-2.8a16.029,16.029,0,0,1,3,.9Zm-7.548-.737-.562-2.8a16.374,16.374,0,0,1,3.1-.3,1.257,1.257,0,0,1,.18.011l-.164,1.3v1.551H30.5a13.39,13.39,0,0,0-2.536.241" fill="#fff"/>
          <path id="Path_2428" data-name="Path 2428" d="M29.453,34.765V26.233l-2.33.671v-2.37l4.96-1.619V34.765h2.33v2.211H27V34.765Z" fill="#fff"/>
        </g>
      </g>
    </g>
    <path id="Color_Overlay" data-name="Color Overlay" d="M239.99,798.991a5.212,5.212,0,0,0-1.369-1.121,5.258,5.258,0,0,0-1.764.616c-1.2.56-2.567,1.2-3.929.716-1.39-.491-2.022-1.849-2.581-3.047a5,5,0,0,0-.9-1.522,5.348,5.348,0,0,0-1.852,0c-1.335.127-2.849.268-3.966-.642s-1.247-2.4-1.35-3.712a4.984,4.984,0,0,0-.311-1.732,5.371,5.371,0,0,0-1.719-.6c-1.308-.321-2.787-.689-3.526-1.927s-.33-2.67.033-3.93a4.993,4.993,0,0,0,.319-1.744,5.314,5.314,0,0,0-1.38-1.11c-1.123-.744-2.395-1.588-2.654-3.018a2.779,2.779,0,0,1-.043-.434v-.113a5.726,5.726,0,0,1,1.457-3.1,1.778,1.778,0,0,0,0-3.123,5.735,5.735,0,0,1-1.457-3.1v-.112a2.779,2.779,0,0,1,.043-.434c.259-1.431,1.531-2.272,2.652-3.017a5.267,5.267,0,0,0,1.38-1.112,4.93,4.93,0,0,0-.318-1.742c-.364-1.262-.774-2.689-.035-3.929s2.22-1.607,3.526-1.93a5.331,5.331,0,0,0,1.72-.6,4.989,4.989,0,0,0,.311-1.733c.1-1.307.22-2.79,1.351-3.711s2.632-.769,3.966-.642a5.4,5.4,0,0,0,1.85,0,5.063,5.063,0,0,0,.9-1.521c.558-1.2,1.19-2.556,2.579-3.046,1.367-.481,2.726.154,3.929.714a5.073,5.073,0,0,0,1.763.616,5.18,5.18,0,0,0,1.372-1.122c.95-.941,2.026-2.009,3.512-2.009s2.56,1.067,3.51,2.01a5.213,5.213,0,0,0,1.368,1.121,5.178,5.178,0,0,0,1.765-.616c1.2-.56,2.568-1.194,3.928-.715,1.39.491,2.021,1.849,2.58,3.046a5.037,5.037,0,0,0,.9,1.522,5.451,5.451,0,0,0,1.851,0c1.335-.13,2.847-.271,3.966.642s1.249,2.4,1.351,3.712a4.986,4.986,0,0,0,.311,1.732,5.366,5.366,0,0,0,1.72.6c1.307.322,2.787.688,3.528,1.928s.328,2.669-.035,3.93a4.975,4.975,0,0,0-.32,1.744,5.308,5.308,0,0,0,1.381,1.11c1.123.744,2.394,1.586,2.652,3.018a2.742,2.742,0,0,1,.043.423v.134a5.757,5.757,0,0,1-1.456,3.092,1.778,1.778,0,0,0,0,3.123A5.759,5.759,0,0,1,274,775.654v.134a2.752,2.752,0,0,1-.043.423c-.258,1.43-1.529,2.273-2.652,3.017a5.312,5.312,0,0,0-1.38,1.111,4.953,4.953,0,0,0,.319,1.744c.363,1.26.774,2.688.035,3.928s-2.221,1.606-3.527,1.929a5.394,5.394,0,0,0-1.719.6,4.984,4.984,0,0,0-.311,1.733c-.1,1.307-.218,2.79-1.35,3.712s-2.632.769-3.966.641a5.445,5.445,0,0,0-1.85,0,5.06,5.06,0,0,0-.9,1.522c-.557,1.2-1.189,2.554-2.579,3.046-1.362.482-2.724-.155-3.928-.715a5.142,5.142,0,0,0-1.763-.616,5.135,5.135,0,0,0-1.371,1.123c-.95.94-2.025,2.007-3.51,2.007S240.939,799.933,239.99,798.991Zm-.875-3.937a5.877,5.877,0,0,1,2.939,1.926c.376.374,1.162,1.155,1.448,1.163.284-.008,1.07-.788,1.447-1.163a5.867,5.867,0,0,1,2.94-1.926,6.082,6.082,0,0,1,3.5.849,5.476,5.476,0,0,0,1.711.606,5.116,5.116,0,0,0,.913-1.544,5.75,5.75,0,0,1,2.1-2.812,6.073,6.073,0,0,1,3.569-.367,5.367,5.367,0,0,0,1.839,0,5.177,5.177,0,0,0,.3-1.727,5.643,5.643,0,0,1,1-3.365,5.97,5.97,0,0,1,3.223-1.52,5.336,5.336,0,0,0,1.733-.612,5.415,5.415,0,0,0-.328-1.7,5.656,5.656,0,0,1-.248-3.514,5.792,5.792,0,0,1,2.482-2.49c.464-.307,1.327-.88,1.416-1.155a5.621,5.621,0,0,0-.9-1.461,4.284,4.284,0,0,1,0-6.486,5.21,5.21,0,0,0,.9-1.487,5.643,5.643,0,0,0-1.415-1.129,5.815,5.815,0,0,1-2.482-2.49,5.639,5.639,0,0,1,.25-3.513,5.132,5.132,0,0,0,.318-1.715,5.694,5.694,0,0,0-1.724-.593,5.983,5.983,0,0,1-3.223-1.52,5.646,5.646,0,0,1-1-3.366,5,5,0,0,0-.312-1.735,5.538,5.538,0,0,0-1.83.007,6.1,6.1,0,0,1-3.569-.366,5.74,5.74,0,0,1-2.1-2.814,4.959,4.959,0,0,0-.923-1.547,5.56,5.56,0,0,0-1.7.61,6.137,6.137,0,0,1-3.5.847,5.847,5.847,0,0,1-2.939-1.924c-.377-.374-1.163-1.154-1.447-1.164-.286.01-1.072.789-1.45,1.164a5.852,5.852,0,0,1-2.938,1.924,6.115,6.115,0,0,1-3.5-.847,5.2,5.2,0,0,0-1.711-.606,5.046,5.046,0,0,0-.913,1.544,5.751,5.751,0,0,1-2.1,2.813,6.11,6.11,0,0,1-3.568.367,5.352,5.352,0,0,0-1.84,0,5.2,5.2,0,0,0-.3,1.727,5.646,5.646,0,0,1-1,3.366,5.985,5.985,0,0,1-3.221,1.519,5.364,5.364,0,0,0-1.734.612,5.409,5.409,0,0,0,.328,1.7,5.633,5.633,0,0,1,.248,3.515,5.782,5.782,0,0,1-2.481,2.489c-.464.308-1.327.88-1.417,1.153a5.622,5.622,0,0,0,.9,1.462,4.287,4.287,0,0,1,0,6.487,5.215,5.215,0,0,0-.9,1.487,5.606,5.606,0,0,0,1.413,1.129,5.806,5.806,0,0,1,2.482,2.49,5.64,5.64,0,0,1-.25,3.513,5.16,5.16,0,0,0-.318,1.716,5.729,5.729,0,0,0,1.724.592,5.976,5.976,0,0,1,3.222,1.519,5.638,5.638,0,0,1,1,3.367,5.014,5.014,0,0,0,.312,1.736,5.592,5.592,0,0,0,1.831-.007,6.107,6.107,0,0,1,3.568.365,5.734,5.734,0,0,1,2.1,2.813,4.961,4.961,0,0,0,.924,1.549,5.324,5.324,0,0,0,1.7-.61,7.3,7.3,0,0,1,2.96-.893A3.353,3.353,0,0,1,239.115,795.054ZM221.716,771A21.788,21.788,0,1,1,243.5,792.428,21.634,21.634,0,0,1,221.716,771Zm2.9,0A18.883,18.883,0,1,0,243.5,752.428,18.749,18.749,0,0,0,224.62,771Zm18.833,12.857h.047a13.476,13.476,0,0,0,2.509-.236l.553,2.8a16.319,16.319,0,0,1-3.063.289Zm-6.111,1.647,1.12-2.635a13.168,13.168,0,0,0,2.447.735l-.572,2.8A16.031,16.031,0,0,1,237.342,785.5Zm11.12-2.606a13,13,0,0,0,2.262-1.182l1.606,2.381a16.107,16.107,0,0,1-2.767,1.445Zm-16.288-.817,2.059-2.014a13.072,13.072,0,0,0,1.974,1.6l-1.62,2.371A15.857,15.857,0,0,1,232.174,782.081Zm20.534-1.958a12.889,12.889,0,0,0,1.633-1.939l2.408,1.6a15.831,15.831,0,0,1-1.994,2.372Zm-23.986-3.143,2.686-1.088a12.876,12.876,0,0,0,1.2,2.223l-2.418,1.584A15.7,15.7,0,0,1,228.722,776.981Zm11.281,1v-2.211h2.45v-8.532l-2.329.671v-2.37l4.96-1.618v11.848h2.329v2.211Zm15.557-2.008a12.6,12.6,0,0,0,.751-2.406l2.848.566a15.616,15.616,0,0,1-.92,2.944ZM227.524,771l2.905-.03V771a12.622,12.622,0,0,0,.244,2.481l-2.851.549A15.514,15.514,0,0,1,227.524,771Zm29.047,0a12.794,12.794,0,0,0-.248-2.508l2.849-.554a15.522,15.522,0,0,1,.3,3.063l-2.905.06Zm-28.736-3.094a15.362,15.362,0,0,1,.913-2.947l2.681,1.1a12.549,12.549,0,0,0-.746,2.406Zm26.539-4.044,2.415-1.588a15.7,15.7,0,0,1,1.478,2.716l-2.685,1.093A12.774,12.774,0,0,0,254.373,763.862Zm-24.143-1.616a15.823,15.823,0,0,1,1.99-2.374l2.05,2.023a13.184,13.184,0,0,0-1.629,1.944Zm20.538-1.932,1.617-2.374a16.053,16.053,0,0,1,2.417,1.956l-2.055,2.019A13.039,13.039,0,0,0,250.769,760.313Zm-16.127-2.393a16.089,16.089,0,0,1,2.762-1.45l1.11,2.641a13.092,13.092,0,0,0-2.26,1.185Zm11.423.47.563-2.8a16.031,16.031,0,0,1,3,.9l-1.114,2.639A13.157,13.157,0,0,0,246.064,758.39Zm-5.663-2.808a16.327,16.327,0,0,1,3.1-.3,1.2,1.2,0,0,1,.18.012l-.164,1.3v1.552H243.5a13.379,13.379,0,0,0-2.536.241Z" fill="#ffd800"/>
  </g>
</svg>
