<svg id="Vector_Smart_Object" data-name="Vector Smart Object" xmlns="http://www.w3.org/2000/svg" xmlns:xlink="http://www.w3.org/1999/xlink" width="60.645" height="59.235" viewBox="0 0 60.645 59.235">
  <defs>
    <clipPath id="clip-path">
      <rect id="Rectangle_49" data-name="Rectangle 49" width="60.645" height="59.235" fill="none"/>
    </clipPath>
  </defs>
  <g id="Group_680" data-name="Group 680">
    <g id="Group_679" data-name="Group 679" clip-path="url(#clip-path)">
      <path id="Path_2441" data-name="Path 2441" d="M30.323,59.235c-1.477,0-2.547-1.054-3.491-1.983a5.168,5.168,0,0,0-1.36-1.107,5.255,5.255,0,0,0-1.754.608c-1.2.553-2.551,1.182-3.906.707-1.382-.485-2.01-1.825-2.566-3.008a4.944,4.944,0,0,0-.892-1.5,5.352,5.352,0,0,0-1.841,0c-1.327.126-2.833.265-3.943-.633s-1.24-2.374-1.343-3.664a4.892,4.892,0,0,0-.309-1.711,5.373,5.373,0,0,0-1.71-.6c-1.3-.317-2.771-.68-3.506-1.9s-.328-2.636.033-3.88a4.891,4.891,0,0,0,.318-1.722,5.272,5.272,0,0,0-1.372-1.1C1.565,37.008.3,36.175.043,34.764c-.251-1.381.628-2.563,1.4-3.6a4.981,4.981,0,0,0,.923-1.543,4.989,4.989,0,0,0-.923-1.54c-.777-1.042-1.656-2.223-1.4-3.6C.3,23.061,1.565,22.23,2.68,21.5a5.247,5.247,0,0,0,1.372-1.1,4.839,4.839,0,0,0-.316-1.721c-.361-1.245-.77-2.654-.035-3.878s2.208-1.585,3.506-1.905a5.329,5.329,0,0,0,1.71-.594,4.892,4.892,0,0,0,.309-1.711c.1-1.29.218-2.754,1.343-3.664s2.616-.759,3.943-.633a5.408,5.408,0,0,0,1.84,0,4.989,4.989,0,0,0,.9-1.5C17.8,3.6,18.428,2.262,19.81,1.778c1.359-.474,2.71.152,3.906.705a5.075,5.075,0,0,0,1.753.608,5.138,5.138,0,0,0,1.363-1.109C27.776,1.054,28.846,0,30.323,0s2.546,1.054,3.49,1.984a5.2,5.2,0,0,0,1.36,1.107,5.18,5.18,0,0,0,1.754-.608c1.2-.553,2.553-1.179,3.906-.707,1.382.485,2.01,1.825,2.566,3.007a4.955,4.955,0,0,0,.892,1.5,5.453,5.453,0,0,0,1.841,0c1.327-.128,2.83-.268,3.943.633s1.242,2.374,1.343,3.664a4.892,4.892,0,0,0,.309,1.711,5.355,5.355,0,0,0,1.71.594c1.3.319,2.771.68,3.507,1.9s.326,2.635-.035,3.88a4.891,4.891,0,0,0-.318,1.722,5.288,5.288,0,0,0,1.373,1.1c1.116.735,2.38,1.565,2.637,2.979.251,1.381-.628,2.561-1.4,3.6a4.977,4.977,0,0,0-.923,1.542,4.977,4.977,0,0,0,.923,1.542c.777,1.042,1.656,2.223,1.4,3.6-.257,1.412-1.52,2.244-2.637,2.979a5.272,5.272,0,0,0-1.372,1.1,4.851,4.851,0,0,0,.316,1.722c.361,1.244.77,2.654.035,3.878s-2.208,1.585-3.506,1.9a5.373,5.373,0,0,0-1.71.6,4.892,4.892,0,0,0-.309,1.711c-.1,1.29-.217,2.754-1.343,3.664s-2.616.759-3.943.633a5.447,5.447,0,0,0-1.84,0,4.983,4.983,0,0,0-.9,1.5c-.554,1.182-1.183,2.522-2.564,3.007-1.354.477-2.709-.152-3.906-.705a5.134,5.134,0,0,0-1.753-.608,5.109,5.109,0,0,0-1.363,1.109c-.944.928-2.013,1.982-3.49,1.982m-4.9-5.914a3.315,3.315,0,0,1,.539.044,5.843,5.843,0,0,1,2.921,1.9c.374.37,1.155,1.14,1.44,1.148.283-.008,1.064-.779,1.44-1.148a5.834,5.834,0,0,1,2.922-1.9,6.077,6.077,0,0,1,3.48.838,5.48,5.48,0,0,0,1.7.6,5.018,5.018,0,0,0,.908-1.525A5.684,5.684,0,0,1,42.863,50.5a6.083,6.083,0,0,1,3.549-.362,5.393,5.393,0,0,0,1.828,0,5.085,5.085,0,0,0,.3-1.705,5.545,5.545,0,0,1,.991-3.323,5.955,5.955,0,0,1,3.2-1.5,5.346,5.346,0,0,0,1.723-.6,5.31,5.31,0,0,0-.326-1.674,5.545,5.545,0,0,1-.247-3.469A5.737,5.737,0,0,1,56.352,35.4c.461-.3,1.32-.869,1.408-1.14a5.545,5.545,0,0,0-.9-1.443,5.657,5.657,0,0,1-1.476-3.2,5.666,5.666,0,0,1,1.476-3.2,5.137,5.137,0,0,0,.9-1.468,5.614,5.614,0,0,0-1.406-1.114,5.753,5.753,0,0,1-2.468-2.458,5.53,5.53,0,0,1,.248-3.468,5.044,5.044,0,0,0,.316-1.694,5.706,5.706,0,0,0-1.714-.585,5.965,5.965,0,0,1-3.2-1.5,5.545,5.545,0,0,1-.991-3.323,4.9,4.9,0,0,0-.31-1.714,5.563,5.563,0,0,0-1.819.007,6.1,6.1,0,0,1-3.548-.361,5.67,5.67,0,0,1-2.089-2.778,4.9,4.9,0,0,0-.917-1.527,5.56,5.56,0,0,0-1.692.6,6.14,6.14,0,0,1-3.48.836,5.819,5.819,0,0,1-2.921-1.9c-.375-.37-1.157-1.14-1.44-1.149-.284.01-1.066.78-1.441,1.149a5.825,5.825,0,0,1-2.921,1.9,6.114,6.114,0,0,1-3.481-.836,5.2,5.2,0,0,0-1.7-.6,4.983,4.983,0,0,0-.908,1.525,5.684,5.684,0,0,1-2.089,2.777,6.117,6.117,0,0,1-3.548.362,5.365,5.365,0,0,0-1.829,0,5.078,5.078,0,0,0-.3,1.705,5.545,5.545,0,0,1-.991,3.323,5.966,5.966,0,0,1-3.2,1.5,5.356,5.356,0,0,0-1.724.6,5.31,5.31,0,0,0,.326,1.674,5.525,5.525,0,0,1,.247,3.469,5.737,5.737,0,0,1-2.468,2.458c-.461.3-1.32.869-1.408,1.138a5.539,5.539,0,0,0,.9,1.443,5.666,5.666,0,0,1,1.476,3.2,5.665,5.665,0,0,1-1.476,3.2,5.126,5.126,0,0,0-.894,1.468,5.575,5.575,0,0,0,1.4,1.114,5.753,5.753,0,0,1,2.468,2.458,5.53,5.53,0,0,1-.248,3.468A5.044,5.044,0,0,0,6.2,43.023a5.706,5.706,0,0,0,1.714.585,5.964,5.964,0,0,1,3.2,1.5,5.543,5.543,0,0,1,.991,3.324,4.912,4.912,0,0,0,.31,1.714,5.563,5.563,0,0,0,1.819-.007,6.117,6.117,0,0,1,3.548.361,5.667,5.667,0,0,1,2.089,2.777,4.88,4.88,0,0,0,.918,1.529,5.32,5.32,0,0,0,1.691-.6,7.292,7.292,0,0,1,2.943-.881" fill="#c6c6c6"/>
      <path id="Path_2442" data-name="Path 2442" d="M30.323,50.773c-11.942,0-21.658-9.49-21.658-21.155S18.381,8.462,30.323,8.462s21.658,9.49,21.658,21.155S42.265,50.773,30.323,50.773m0-39.49A18.578,18.578,0,0,0,11.553,29.617,18.578,18.578,0,0,0,30.323,47.952,18.578,18.578,0,0,0,49.094,29.617,18.578,18.578,0,0,0,30.323,11.283" fill="#c6c6c6"/>
      <path id="Path_2443" data-name="Path 2443" d="M30.322,45.131l-.046-2.821h.046a13.492,13.492,0,0,0,2.5-.233l.55,2.769a16.362,16.362,0,0,1-3.045.285m-3.145-.3a16,16,0,0,1-2.977-.89l1.113-2.6a13.13,13.13,0,0,0,2.433.726Zm9.173-.852-1.094-2.611A12.961,12.961,0,0,0,37.5,40.2l1.6,2.351a16.112,16.112,0,0,1-2.751,1.426M21.46,42.492a15.722,15.722,0,0,1-2.4-1.935l2.047-1.989a12.935,12.935,0,0,0,1.962,1.584Zm20.051-1.864-2.036-2A12.773,12.773,0,0,0,41.1,36.71l2.394,1.577a15.668,15.668,0,0,1-1.982,2.341M17.093,38.206a15.422,15.422,0,0,1-1.463-2.684l2.67-1.075a12.641,12.641,0,0,0,1.2,2.195Zm27.883-2.594-2.664-1.09a12.351,12.351,0,0,0,.746-2.375l2.831.558a15.333,15.333,0,0,1-.914,2.907m-30.241-3a15.245,15.245,0,0,1-.3-2.991l2.888-.03v.03a12.4,12.4,0,0,0,.243,2.45Zm28.582-2.932v-.059a12.586,12.586,0,0,0-.247-2.477l2.833-.547a15.269,15.269,0,0,1,.3,3.024ZM17.579,27.113l-2.831-.55a15.1,15.1,0,0,1,.908-2.91l2.665,1.085a12.33,12.33,0,0,0-.742,2.375m24.754-2.35a12.619,12.619,0,0,0-1.2-2.193L43.533,21A15.439,15.439,0,0,1,45,23.684ZM19.527,22.547l-2.4-1.573a15.591,15.591,0,0,1,1.978-2.344l2.039,2a13.006,13.006,0,0,0-1.62,1.919m19.989-1.9a12.954,12.954,0,0,0-1.968-1.58l1.608-2.344a15.974,15.974,0,0,1,2.4,1.931Zm-16.4-1.6-1.6-2.347a16.053,16.053,0,0,1,2.746-1.432l1.1,2.608a13.067,13.067,0,0,0-2.247,1.171M35.3,17.89a13.118,13.118,0,0,0-2.433-.722l.56-2.767a16.02,16.02,0,0,1,2.98.884Zm-7.5-.728L27.242,14.4a16.389,16.389,0,0,1,3.08-.292,1.258,1.258,0,0,1,.179.011l-.163,1.279v1.532h-.016a13.4,13.4,0,0,0-2.521.238" fill="#c6c6c6"/>
      <path id="Path_2444" data-name="Path 2444" d="M30.787,22.547c2.553,0,5.462,1.013,5.462,4.207,0,3.486-2.651,4.323-5.6,4.323-1.175,0-3.029.292-3.029,1.773v1.168h8.673v2.4H24.984V32.83c0-3.135,2.912-4.07,5.663-4.07,1.057,0,2.992-.389,2.992-1.948,0-1.479-1.2-2.025-2.852-2.025-1.5,0-3.071.546-3.13,1.888H25.043c.26-3.213,3.012-4.128,5.744-4.128" fill="#c6c6c6"/>
    </g>
  </g>
</svg>
