<?xml version="1.0" encoding="UTF-8"?>
<svg preserveAspectRatio="xMidYMid slice" width="68px" height="68px" xmlns="http://www.w3.org/2000/svg" id="Layer_2" viewBox="0 0 162.02 162.02">
  <defs>
    <style>.cls-1{fill:#2a2f32;fill-rule:evenodd;stroke-width:0px;}</style>
  </defs>
  <g id="Layer_1-2">
    <path class="cls-1" d="M57.35,3.54C14.63,16.59-9.51,61.95,3.54,104.67c13.05,42.72,58.41,66.86,101.13,53.81s66.85-58.42,53.81-101.13C145.43,14.63,100.06-9.51,57.35,3.54ZM60.37,13.45c37.25-11.38,76.82,9.67,88.2,46.92,6.72,21.99,2.13,44.79-10.42,62.12l-11.47,3.5c-.06-.13-.11-.26-.17-.4-.43-.98-.86-1.96-1.3-2.98.06-.01,0-.02-.01,0-.03.02-.04.07-.09.2-.37-.85-.71-1.63-1.05-2.41-.31-.69-.62-1.39-.93-2.09-.07-.15-.2-.27-.28-.42-.12-.25-.23-.51-.32-.78-.08-.24-.1-.51-.2-.74-.71-1.66-1.45-3.3-2.17-4.94-.16-.37-.31-.75-.54-1.08-.09-.13-.41-.19-.59-.15-.48.1-.95.28-1.43.42-.14.04-.28.07-.56.13.18-.28.29-.47.36-.57-.03-.51-.06-.96-.07-1.41-.03-.58-.17-1.19-.06-1.74.13-.64.43-1.25.69-1.87.28-.65.62-1.27.87-1.94.39-1.04.79-2.08.86-3.2.03-.57.02-1.14.07-1.71.1-1.28.23-2.57.36-3.85.13-1.33.42-2.64.68-3.95.25-1.27.75-2.43,1.21-3.61.33-.84.73-1.73,1.5-2.35.13-.1.12-.38.24-.5.84-.83,1.66-1.68,2.55-2.44.76-.66,1.65-1.18,2.41-1.85.67-.58,1.39-1.19,1.79-1.94.29-.54.8-.82,1.02-1.36.22-.53.53-1.02.68-1.57.27-.93.46-1.88.66-2.83.1-.47.18-.94.25-1.42.11-.76.23-1.53.27-2.3.1-1.69.15-3.38.2-5.07.04-1.25.04-2.5.07-3.75,0-.04.03-.08.08-.19.16.27.33.5.43.74.51,1.28,1.29,2.44,1.56,3.82.14.8.39,1.59.54,2.4.29,1.67.56,3.35.81,5.05.15,1.05.24,2.12.37,3.18.01.12.08.23.12.35.04.13.15.28.12.39-.32,1.08.12,2.15.1,3.22-.01,1.04.03,2.09-.07,3.12-.09.95-.31,1.88-.5,2.81-.23,1.08-.43,2.16-.78,3.2-.33,1.01-.74,2.02-1.27,2.94-.33.58-.89,1.06-1.43,1.47-.78.61-1.66,1.11-2.47,1.7-.66.47-.97,1.19-1.17,1.95-.25.99-.48,1.98-.74,2.97-.03.12-.11.28-.21.32-.49.2-.98.4-1.49.55-.12.04-.29-.1-.49-.18-.09.21-.35.31.09.62.74.51,1.47.72,2.32.54.85-.18,1.59-.58,2.17-1.26.41-.47.77-.96,1.47-1.18.7-.21,1.15-.88,1.4-1.58.3-.83.52-1.68.81-2.5.16-.45.36-.89.62-1.29.55-.84.87-1.76,1.07-2.73.05-.24.2-.45.28-.68.2-.57.38-1.13.56-1.7.12-.38.19-.78.35-1.14.38-.89.64-1.8.76-2.76.08-.63.35-1.24.45-1.87.2-1.38.29-2.76.13-4.15,0-.03-.02-.07-.01-.1.43-.98-.06-1.98.02-2.98.07-.74-.07-1.51-.11-2.26-.06-1.05-.11-2.12-.19-3.17-.07-.84-.2-1.68-.31-2.52-.03-.2-.02-.4-.05-.6-.03-.22-.1-.43-.16-.64-.04-.14-.11-.26-.14-.39-.25-1.32-.45-2.66-.77-3.96-.3-1.26-.72-2.49-1.07-3.74-.19-.68-.29-1.38-.51-2.04-.33-.98-.71-1.95-1.08-2.93-.46-1.2-.91-2.4-1.41-3.59-.47-1.1-.93-2.21-1.5-3.24-.79-1.4-1.67-2.75-2.54-4.11-.48-.76-1-1.5-1.52-2.22-.18-.24-.45-.4-.67-.6-1-.91-1.97-1.85-2.99-2.73-.78-.67-1.67-1.21-2.43-1.89-.9-.8-1.72-1.66-2.56-2.53-1.33-1.36-2.55-2.82-4.14-3.89-.74-.5-1.5-.95-2.27-1.39-1.44-.82-2.86-1.71-4.36-2.42-1.46-.69-3-1.24-4.54-1.74-.44-.14-.86-.33-1.28-.5-.96-.39-1.93-.74-2.9-1.11-1.12-.42-2.21-.92-3.35-1.22-1.06-.28-2.19-.32-3.28-.48-.55-.08-1.1-.29-1.65-.25-1.05.08-2.1-.18-3.17.1-1,.25-2.04.3-3.07.46-.35.05-.69.15-1.03.23-.97.23-1.94.42-2.9.7-1.46.44-2.92.88-4.34,1.43-1.36.53-2.67,1.18-3.89,2.02-.73.5-1.58.84-2.38,1.24-1.03.51-1.97,1.14-2.84,1.9-.38.34-.86.55-1.29.83-.45.29-.88.58-1.3.88-.98.68-1.96,1.36-2.92,2.06-.86.61-1.73,1.18-2.37,2.1-.46.68-1.16,1.24-1.85,1.69-.59.39-1.32.57-2,.82-.57.21-1.17.34-1.71.6-.35.17-.61.52-.9.79-.9.84-1.75,1.73-2.7,2.49-.81.66-1.68,1.29-2.61,1.75-1.27.61-2.63,1.05-4.09.98-.92-.04-1.86-.04-2.76-.2-1.32-.22-2.51.12-3.66.64-1.19.52-2.3,1.2-3.44,1.85-1,.58-1.71,1.45-2.37,2.4-.98,1.39-1.64,2.92-2.19,4.52-.4,1.16-.63,2.35-.71,3.57-.01.18-.08.36-.14.53-.18.55-.09,1.06.16,1.58.15.33.13.73.2,1.1.09.51.19,1.02.28,1.53.12.67.34,1.33.33,1.99-.02,1.1-.33,2.17-.61,3.23-.1.38-.06.79-.11,1.19-.04.33-.13.65-.16.97-.06.72-.1,1.45-.16,2.17-.08.85-.12,1.69.08,2.53.19.81.24,1.66.52,2.43.28.84.69,1.66,1.15,2.41.39.63.94,1.17,1.41,1.75.37.46.79.9,1.09,1.41.4.66.71,1.37,1.06,2.06.2.4.44.78.56,1.2.09.3,0,.64,0,.96,0,.25.28.44.1.76-.07.12.09.38.14.57.12.48.26.96.36,1.44.16.72.26,1.46.43,2.18.17.72.34,1.46.6,2.15.34.91.77,1.79,1.18,2.67.21.44.49.86.66,1.32.06.19-.03.52-.16.69-.36.49-.84.9-1.15,1.41-.63,1.1-1.55,1.94-2.43,2.81-.01.01-.03.02-.04.03-.61,1.11-1.81,1.66-2.56,2.63-.88,1.14-2.07,1.94-3.09,2.92-.6.57-1.32,1.01-1.98,1.51-.39.3-.76.61-1.19.94.59.29,1.05.4,1.66.12,1.91-.9,3.72-1.97,5.32-3.33,1.29-1.08,2.53-2.23,3.75-3.38.69-.65,1.33-1.36,1.96-2.06.51-.57.96-1.18,1.5-1.85.23.35.43.63.61.92.18.29.4.58.48.89.07.31.1.74-.06.97-.87,1.2-1.78,2.38-2.73,3.5-.74.88-1.58,1.66-2.37,2.49-.75.77-1.59,1.43-2.51,1.99-.31.19-.55.5-.85.72-.39.29-.81.56-1.22.82-.29.18-.65.34-.47.77.17.42.68.58,1.11.35,1.07-.55,2.16-1.09,3.19-1.71.64-.38,1.19-.9,1.79-1.35.36-.26.76-.48,1.1-.76.39-.33.74-.72,1.11-1.09,1.25-1.23,2.51-2.46,3.74-3.67.59.64,1.2,1.36,1.6,2.24.35.8.76,1.57,1.09,2.37.35.84.69,1.69.97,2.57.3.94.52,1.9.78,2.86.13.46.3.89.41,1.34.11.48.17.97.27,1.45.12.62.26,1.25.36,1.87.02.13-.04.36-.14.42-.64.42-1.33.73-2.07.83-.33-.63-.79-1.18-1.42-1.57-.69-.42-1.38-.6-2.16-.19-.09.05-.16.06-.25.08-.1.11-.22.21-.38.28-.18.09-.23.17-.25.22,0,.04-.01.04-.01.04.01.34-.08.61-.28.81-.05.28-.25.5-.75.8-.23-.38-.53-.26-.84-.08-1.92,1.2-3.76,2.49-5.39,4.07-.24.24-.26.4-.07.68.44.69.82,1.42,1.26,2.11.45.72.95,1.41,1.4,2.12.64,1,1.25,2.01,1.88,3.01.42.68.85,1.34,1.24,2.02.26.44.64.61,1.09.51.67-.16,1.35-.35,1.98-.63,1.68-.78,3.13-1.87,4.28-3.33.11-.15.22-.29.31-.44.55-.89.46-1.22-.13-1.77-.25-.23-.41-.56-.64-.83-.25-.3-.52-.59-.82-.92.39.02.56-.2.7-.52.08-.17.21-.29.36-.37.35-.56.31-1.22.25-1.87-.1-.15-.18-.32-.25-.5.04-.03.09-.05.12-.08.37-.37.67-.82,1.04-1.2.2-.22.46-.37.72-.51.08-.03.3.06.36.15.47.72.89,1.48,1.39,2.18.29.4.7.74,1.1,1.05.69.54,1.36,1.14,2.12,1.54,1,.5,2.06.99,3.23.92.67-.05,1.33-.26,1.99-.44.84-.23,1.49-.75,2.07-1.38.85-.94,1.21-2.02.9-3.29-.27-1.14-.73-2.19-1.55-3.02-.51-.52-1.13-.98-1.76-1.35-.71-.42-1.47-.8-2.26-1.04-.65-.2-1.37-.19-2.06-.25-.38-.04-.76-.04-1.08-.07-.25-1.07-.5-2.1-.74-3.13-.16-.71-.31-1.42-.45-2.13-.18-.86-.35-1.73-.51-2.6-.18-.94-.32-1.87-.52-2.81-.18-.85-.35-1.72-.64-2.55-.43-1.25-.94-2.47-1.45-3.69-.31-.75-.65-1.5-1.03-2.23-.5-.96-1.07-1.9-1.59-2.87-.08-.15-.1-.38-.04-.55.12-.39.31-.76.44-1.15.04-.11-.06-.26-.05-.38.07-.43.18-.85.25-1.28.12-.96.22-1.92.33-2.87.48.14.12.98.76,1.11,0-.17-.01-.3-.02-.45,1.36,1.08,2.88,1.77,4.5,2.21.39.11.88.03,1.26-.1.43-.14.66-1.06.39-1.51-.57-.99-1.19-1.95-1.82-2.91-.14-.22-.16-.33-.02-.63.46-.96,1.23-1.58,2.1-2.09.96-.56,1.46-1.44,1.82-2.43.16-.43.25-.89.38-1.36.62.01,1.11.32,1.55.71.53.46,1.04.93,1.52,1.43.35.36.75.59,1.23.69.95.21,1.3.94,1.48,1.78.22,1.04.38,2.1.55,3.15.13.86.21,1.72.31,2.58.17,1.45.54,2.84.98,4.23.45,1.46,1.21,2.72,2.05,3.96.62.92.9,1.98,1.41,2.95.44.84.87,1.7,1.29,2.55.53,1.05,1.16,2.09,1.56,3.2.38,1.11.98,2.09,1.48,3.13.31.64.57,1.31.99,1.88.59.8,1.29,1.53,1.95,2.29.03.03.07.06.12.08.63.33,1.25.69,1.9.98,1.14.51,2.3.98,3.45,1.47.34.15.67.34,1.03.44.93.27,1.29,1.08,1.71,1.8.27.46.43,1,.66,1.49.08.16.21.3.33.44.18.22.37.43.54.63.23.07.47.14.72.2v.18c-.54.17-1.08.32-1.63.5-.65.22-1.31.44-1.94.69-.1.04-.2.28-.18.41.17,1.09.37,2.17.56,3.25.14.79.27,1.58.41,2.37.05.36.1.73.16,1.09.19,1.24.39,2.48.59,3.73.24,1.5.47,3,.75,4.48.11.6.28,1.18.43,1.76l-28.15,8.6c-20.09-7.36-36.64-23.71-43.35-45.7C2.07,64.39,23.12,24.83,60.37,13.45ZM91.51,118.53c-1.42.49-2.78.96-4.18,1.43,1.2-1.32,2.37-2.59,3.57-3.91-.06.89-.22,1.78.61,2.48ZM86.38,108.22c-.65-.11-1.32-.16-1.96-.3-.5-.12-.97-.34-1.45-.52-.73-.27-1.35-.67-1.72-1.41-.6-1.19-1.28-2.34-1.67-3.65-.32-1.08-.76-2.12-1.16-3.2.07.05.18.08.25.16.55.59,1.07,1.2,1.62,1.8.77.81,1.07,1.96,1.99,2.68.68.54,1.23,1.24,1.94,1.76.74.54,1.61.89,2.38,1.41.73.5,1.38,1.1,2.16,1.73-.89-.17-1.63-.32-2.37-.45ZM82.49,79.85c-.04-.2-.02-.4-.03-.64.18.04.28.04.36.08.7.35,1.4.69,2.15.97,1.37.51,2.75.97,4.19,1.28.29.07.55.25.84.32.77.18,1.56.32,2.34.49,1.17.25,2.33.57,3.54.52.81-.03,1.62-.06,2.43-.12,1.01-.08,2.03-.15,3.03-.28.44-.05.67.12.82.46.14.32.24.66.38.98.1.23.25.44.34.68.24.65.44,1.31.69,1.95.31.79.7,1.55,1,2.35.27.72.47,1.47.68,2.21.12.42.3.86.28,1.27-.03.56.07,1.07.18,1.6.09.37.09.77.07,1.14-.04.85-.16,1.68-.17,2.52-.02.88-.15,1.71-.58,2.48-.08.16-.17.33-.2.5-.07.4-.06.81-.18,1.19-.44,1.51-.77,3.04-.9,4.61-.03.4-.04.8-.15,1.18-.14.5-.35.98-.55,1.47-.05.12-.14.23-.24.33-.14.15-.28.3-.47.49-.43-.35-.95-.68-1.34-1.12-.42-.46-.75-1.02-1.1-1.54-.67-1.01-1.3-2.06-2.01-3.05-1.38-1.96-3.45-3.1-5.33-4.48-.3-.22-.71-.3-1.03-.51-.33-.22-.63-.49-.9-.8-.47-.52-.99-1.02-1.3-1.63-.23-.46-.44-.92-.77-1.34-.81-1.02-1.57-2.08-2.26-3.19-1.03-1.67-1.99-3.39-2.96-5.1-.55-.95-.7-1.97-.59-3.08.1-1.01.09-2.03.05-3.04-.01-.39-.23-.77-.33-1.16ZM54.22,117.84c.91.28,1.71.49,2.47.79.26.1.4.49.66.64.48.28.65.74.83,1.19.12.31.03.65-.29.91-.47.4-1.08.5-1.51.21-.65-.42-1.22-.99-1.7-1.6-.27-.34-.32-.87-.43-1.31-.05-.21-.02-.44-.03-.84ZM46.49,122.03c-.01.41-.3.64-.64.8-.27.13-.55.24-.89.39-.93-1.14-1.94-2.37-2.95-3.6.25-.12.65-.07.49-.53-.15-.41-.04-.78.31-1.04.11-.08.23-.13.36-.16-.07.23-.03.45.14.63.24.24.52.47.83.58.12.04.24.09.34.14.03.04.09.07.15.09.26.16.48.37.7.63.1.12.18.25.26.38,0,.06-.01.12-.03.18-.13.39-.06.55.33.67.04.01.08.04.12.06.08.16.22.28.38.35.07.13.12.28.11.46Z"></path>
  </g>
</svg>
