<?xml version="1.0" encoding="UTF-8"?>
<svg xmlns="http://www.w3.org/2000/svg" xmlns:xlink="http://www.w3.org/1999/xlink" width="300px" height="63px" viewBox="0 0 115.22 24.426">
  <defs>
    <clipPath id="clip-path">
      <rect id="Rectangle_36" data-name="Rectangle 36" width="115.22" height="24.426" fill="none"></rect>
    </clipPath>
  </defs>
  <g id="Group_657" data-name="Group 657" clip-path="url(#clip-path)">
    <path id="Path_2391" data-name="Path 2391" d="M17.578,0c-1.761,4.307-3.52,8.793-5.279,13.493Q9.485,7,6.72,0H0V24.426q2.67-.9,5.355-1.63-.021-6.83-.044-13.66,2.479,6.431,5.006,12.423,2.013-.457,4.037-.843c1.744-4.594,3.491-8.982,5.24-13.205l.1,12.29q2.632-.4,5.275-.715Q24.888,9.543,24.8,0Z" transform="translate(0 0)" fill="#fff"></path>
    <path id="Path_2392" data-name="Path 2392" d="M70.278,14.044q-.013-1.767-.028-3.534,4.405-.164,8.839-.243-.01-1.972-.023-3.948-4.438.034-8.849.119Q70.2,4.721,70.19,3.006q4.413-.024,8.859-.016c-.006-1-.01-1.995-.017-2.989H64.754q.08,9.276.163,18.555c4.713-.442,9.454-.728,14.213-.91q-.011-1.975-.022-3.95-4.427.123-8.831.348" transform="translate(-34.943 0)" fill="#fff"></path>
    <path id="Path_2393" data-name="Path 2393" d="M112.131,13.525q-.01-6.764-.017-13.525h-5.489q.033,8.745.064,17.492,6.778-.157,13.569-.061,0-1.946.008-3.889-4.064-.041-8.136-.017" transform="translate(-57.538 0)" fill="#fff"></path>
    <path id="Path_2394" data-name="Path 2394" d="M148.521,0q-2.4,5.381-4.782,10.607Q141.395,5.234,139.026,0h-5.809c2.83,5.795,5.639,11.619,8.422,17.6q2.063.07,4.116.168C148.608,12,151.469,6.112,154.331,0Z" transform="translate(-71.888 0)" fill="#fff"></path>
    <path id="Path_2395" data-name="Path 2395" d="M185.55,0q-.084,9.28-.165,18.563,2.69.253,5.367.578.087-9.572.171-19.141Z" transform="translate(-100.04 0)" fill="#fff"></path>
    <path id="Path_2396" data-name="Path 2396" d="M222.106,0q-.019,6.635-.043,13.274c-2.851-4.808-5.7-9.2-8.566-13.274h-5.769q-.083,9.9-.167,19.806,2.665.405,5.31.91.047-6.409.091-12.815c3.128,4.579,6.242,9.545,9.365,15.02q2.455.687,4.9,1.5V.032c-.1-.012-.191-.022-.288-.032Z" transform="translate(-112.007 0)" fill="#fff"></path>
    <path id="Path_2397" data-name="Path 2397" d="M123.526,53.172a.009.009,0,0,0,0,.011Z" transform="translate(-66.657 -29.217)" fill="#fff"></path>
  </g>
</svg>
